<svg width="49" height="48" viewBox="0 0 49 48" fill="none" xmlns="http://www.w3.org/2000/svg">
<rect x="0.5" width="48" height="48" rx="24" fill="#DCFCE7"/>
<path fill-rule="evenodd" clip-rule="evenodd" d="M24.4994 33.6C27.0455 33.6 29.4873 32.5885 31.2876 30.7882C33.088 28.9878 34.0994 26.546 34.0994 24C34.0994 21.4539 33.088 19.0121 31.2876 17.2117C29.4873 15.4114 27.0455 14.4 24.4994 14.4C21.9533 14.4 19.5115 15.4114 17.7112 17.2117C15.9108 19.0121 14.8994 21.4539 14.8994 24C14.8994 26.546 15.9108 28.9878 17.7112 30.7882C19.5115 32.5885 21.9533 33.6 24.4994 33.6ZM28.9478 22.4484C29.1664 22.222 29.2874 21.9189 29.2846 21.6043C29.2819 21.2896 29.1557 20.9887 28.9332 20.7662C28.7107 20.5437 28.4097 20.4175 28.0951 20.4148C27.7805 20.412 27.4773 20.533 27.251 20.7516L23.2994 24.7032L21.7478 23.1516C21.5215 22.933 21.2184 22.812 20.9037 22.8148C20.5891 22.8175 20.2881 22.9437 20.0656 23.1662C19.8431 23.3887 19.7169 23.6896 19.7142 24.0043C19.7115 24.3189 19.8324 24.622 20.051 24.8484L22.451 27.2484C22.676 27.4733 22.9812 27.5997 23.2994 27.5997C23.6176 27.5997 23.9228 27.4733 24.1478 27.2484L28.9478 22.4484Z" fill="#22C55E"/>
</svg>
