<svg width="25" height="25" viewBox="0 0 25 25" fill="none" xmlns="http://www.w3.org/2000/svg">
<path d="M14.2902 17.9565C14.2902 18.0151 14.2667 18.0719 14.2253 18.1134C14.1838 18.1549 14.127 18.1783 14.0684 18.1783H3.86C3.73738 18.1783 3.63821 18.0791 3.63821 17.9565V5.08468C3.63821 4.96206 3.73738 4.86289 3.86 4.86289H11.1573C11.6703 3.52225 12.6314 2.40161 13.8773 1.68935C13.4653 1.44323 12.9947 1.3125 12.515 1.3125H5.41323C3.94276 1.3125 2.75 2.50439 2.75 3.97481V19.9542C2.75 21.4247 3.94279 22.6165 5.41323 22.6165H12.515C13.9855 22.6165 15.1783 21.4246 15.1783 19.9542V13.0338C14.8735 12.9437 14.5769 12.8301 14.2902 12.6921L14.2902 17.9565ZM7.85472 3.08777H10.0744H10.0735C10.1961 3.08777 10.2953 3.18695 10.2953 3.30956C10.2953 3.43217 10.1961 3.53135 10.0735 3.53135H7.85381H7.85472C7.7321 3.53135 7.63293 3.43217 7.63293 3.30956C7.63293 3.18695 7.7321 3.08777 7.85472 3.08777ZM10.0383 20.451C9.94095 20.845 9.63351 21.1525 9.23953 21.2498C8.86628 21.3364 8.475 21.2246 8.20452 20.9532C7.93314 20.6827 7.82134 20.2915 7.90789 19.9182C8.00526 19.5242 8.3127 19.2168 8.70668 19.1194C9.07993 19.0329 9.47121 19.1447 9.74169 19.416C10.0131 19.6865 10.1249 20.0778 10.0383 20.451Z" fill="#191A1E"/>
<path d="M16.9534 1.75782C15.5406 1.75782 14.1865 2.3186 13.1876 3.31753C12.1886 4.31647 11.627 5.67149 11.627 7.08423C11.6324 7.80639 11.7279 8.52495 11.911 9.22366L11.205 11.3856L11.2059 11.3847C11.1518 11.538 11.1861 11.7084 11.2943 11.8283C11.3989 11.9464 11.5575 12.0005 11.7117 11.9708L14.0107 11.5272C14.8816 12.1069 15.9067 12.4152 16.9535 12.4098C18.8567 12.4098 20.6147 11.3947 21.5658 9.74658C22.5179 8.09941 22.5179 6.06897 21.5658 4.42104C20.6146 2.77297 18.8566 1.75781 16.9535 1.75781L16.9534 1.75782ZM15.6217 7.74968C15.3522 7.74968 15.1096 7.5874 15.0069 7.33858C14.9041 7.08975 14.9609 6.80395 15.1511 6.61282C15.3413 6.42259 15.628 6.36579 15.8769 6.46857C16.1257 6.57225 16.288 6.81477 16.288 7.08435C16.288 7.45128 15.9895 7.74971 15.6217 7.74971L15.6217 7.74968ZM18.285 7.74968C18.0154 7.74968 17.7729 7.5874 17.6701 7.33858C17.5664 7.08975 17.6241 6.80395 17.8143 6.61282C18.0046 6.42259 18.2913 6.36579 18.5401 6.46857C18.7889 6.57225 18.9503 6.81477 18.9503 7.08435C18.9503 7.45128 18.6528 7.74971 18.2849 7.74971L18.285 7.74968Z" fill="#191A1E"/>
</svg>
