<svg width="16" height="16" viewBox="0 0 16 16" fill="none" xmlns="http://www.w3.org/2000/svg">
<path d="M2 5.3335L7.26 8.84016C7.47911 8.98635 7.7366 9.06436 8 9.06436C8.2634 9.06436 8.52089 8.98635 8.74 8.84016L14 5.3335M3.33333 12.6668H12.6667C13.0203 12.6668 13.3594 12.5264 13.6095 12.2763C13.8595 12.0263 14 11.6871 14 11.3335V4.66683C14 4.31321 13.8595 3.97407 13.6095 3.72402C13.3594 3.47397 13.0203 3.3335 12.6667 3.3335H3.33333C2.97971 3.3335 2.64057 3.47397 2.39052 3.72402C2.14048 3.97407 2 4.31321 2 4.66683V11.3335C2 11.6871 2.14048 12.0263 2.39052 12.2763C2.64057 12.5264 2.97971 12.6668 3.33333 12.6668Z" stroke="#171717" stroke-width="1.2" stroke-linecap="round" stroke-linejoin="round"/>
</svg>
