<svg width="49" height="48" viewBox="0 0 49 48" fill="none" xmlns="http://www.w3.org/2000/svg">
<rect x="0.5" width="48" height="48" rx="24" fill="#FEE2E2"/>
<path fill-rule="evenodd" clip-rule="evenodd" d="M22.4082 15.7181C23.3262 14.0861 25.6746 14.0861 26.5914 15.7181L33.2874 27.6221C34.1874 29.2229 33.0318 31.1981 31.197 31.1981H17.8038C15.9678 31.1981 14.8122 29.2229 15.7122 27.6221L22.4082 15.7181ZM25.6998 27.5993C25.6998 27.9176 25.5734 28.2228 25.3483 28.4479C25.1233 28.6729 24.8181 28.7993 24.4998 28.7993C24.1816 28.7993 23.8763 28.6729 23.6513 28.4479C23.4262 28.2228 23.2998 27.9176 23.2998 27.5993C23.2998 27.2811 23.4262 26.9759 23.6513 26.7508C23.8763 26.5258 24.1816 26.3993 24.4998 26.3993C24.8181 26.3993 25.1233 26.5258 25.3483 26.7508C25.5734 26.9759 25.6998 27.2811 25.6998 27.5993ZM24.4998 17.9993C24.1816 17.9993 23.8763 18.1258 23.6513 18.3508C23.4262 18.5759 23.2998 18.8811 23.2998 19.1993V22.7993C23.2998 23.1176 23.4262 23.4228 23.6513 23.6479C23.8763 23.8729 24.1816 23.9993 24.4998 23.9993C24.8181 23.9993 25.1233 23.8729 25.3483 23.6479C25.5734 23.4228 25.6998 23.1176 25.6998 22.7993V19.1993C25.6998 18.8811 25.5734 18.5759 25.3483 18.3508C25.1233 18.1258 24.8181 17.9993 24.4998 17.9993Z" fill="#DC2626"/>
</svg>
