<svg width="16" height="16" viewBox="0 0 16 16" fill="none" xmlns="http://www.w3.org/2000/svg">
<mask id="mask0_32_1579" style="mask-type:alpha" maskUnits="userSpaceOnUse" x="0" y="0" width="16" height="16">
<rect width="15.3333" height="15.3333" fill="#D9D9D9"/>
</mask>
<g mask="url(#mask0_32_1579)">
<path d="M8 2.28662C9.5808 2.28667 10.9288 2.84333 12.043 3.95752C13.1571 5.07172 13.7139 6.41969 13.7139 8.00049C13.7138 9.58129 13.1572 10.9293 12.043 12.0435C10.9288 13.1576 9.5808 13.7143 8 13.7144C6.4192 13.7144 5.07124 13.1576 3.95703 12.0435C2.84283 10.9293 2.28617 9.58131 2.28613 8.00049C2.28613 6.4196 2.84279 5.07176 3.95703 3.95752C5.07127 2.84329 6.41912 2.28662 8 2.28662ZM8.56055 4.86572C8.47174 4.83438 8.38535 4.83312 8.30176 4.86182C8.21812 4.89057 8.14993 4.94195 8.09766 5.01514L5.75293 8.38623C5.67974 8.49078 5.67328 8.60001 5.7334 8.7124C5.79348 8.82463 5.88644 8.88029 6.01172 8.88037H6.98438L6.7334 10.6138C6.72297 10.7026 6.73976 10.7851 6.78418 10.8608C6.8286 10.9366 6.89039 10.9922 6.96875 11.0288C7.04716 11.0654 7.12827 11.0741 7.21191 11.0532C7.29551 11.0323 7.36635 10.9874 7.42383 10.9194L10.0029 7.82959C10.0917 7.72506 10.1086 7.61288 10.0537 7.49268C9.9988 7.37263 9.90339 7.31201 9.76758 7.31201H8.55273L8.80371 5.28174C8.81415 5.19297 8.79855 5.1091 8.75684 5.03076C8.71502 4.95236 8.64939 4.89709 8.56055 4.86572Z" fill="white"/>
</g>
</svg>
