<svg width="16" height="16" viewBox="0 0 16 16" fill="none" xmlns="http://www.w3.org/2000/svg">
<path d="M7.33299 3.92133V12.8267C7.33279 13.103 7.23508 13.3704 7.05708 13.5817C6.87908 13.793 6.63221 13.9348 6.35995 13.9819C6.08769 14.0291 5.80753 13.9787 5.5688 13.8395C5.33008 13.7004 5.14812 13.4815 5.05499 13.2213L3.62365 9.12133M3.62365 9.12133C3.0578 8.88074 2.59244 8.45271 2.30634 7.90844C2.02024 7.36418 1.93096 6.73779 2.05361 6.13527C2.17626 5.53274 2.50332 4.9911 2.97942 4.602C3.45552 4.2129 4.05144 4.00023 4.66632 4H5.88765C8.62099 4 10.971 3.17733 11.9997 2V11.3333C10.971 10.156 8.62165 9.33333 5.88765 9.33333H4.66632C4.30808 9.33386 3.95342 9.26131 3.62365 9.12133ZM11.9997 8.66667C12.5301 8.66667 13.0388 8.45595 13.4139 8.08088C13.7889 7.70581 13.9997 7.1971 13.9997 6.66667C13.9997 6.13623 13.7889 5.62753 13.4139 5.25245C13.0388 4.87738 12.5301 4.66667 11.9997 4.66667" stroke="#737373" stroke-width="1.2" stroke-linecap="round" stroke-linejoin="round"/>
</svg>
