<svg width="25" height="25" viewBox="0 0 25 25" fill="none" xmlns="http://www.w3.org/2000/svg">
<g clip-path="url(#clip0_10737_49182)">
<circle cx="6.49988" cy="10.5" r="1" fill="white"/>
<circle cx="10.4999" cy="10.5" r="1" fill="white"/>
<circle cx="14.4999" cy="10.5" r="1" fill="white"/>
<g clip-path="url(#clip1_10737_49182)">
<path d="M20.5299 8.58172C20.0599 6.97901 19.115 5.55645 17.8199 4.50172C16.7412 3.58742 15.4848 2.90646 14.1299 2.50172C13.2859 2.23531 12.413 2.07081 11.5299 2.01172C11.1099 2.01172 10.6899 2.01172 10.2599 2.01172C9.70704 2.04148 9.15621 2.10157 8.60992 2.19172C7.44656 2.40126 6.32728 2.80704 5.29992 3.39172C3.92237 4.14587 2.76451 5.24514 1.93992 6.58172C1.4048 7.42587 1.04648 8.3698 0.886632 9.3564C0.726781 10.343 0.768723 11.3518 1.00992 12.3217C1.41029 13.9511 2.31285 15.4134 3.58992 16.5017C5.18562 17.9017 7.17084 18.7809 9.27992 19.0217C9.40465 19.0265 9.52697 19.0575 9.63896 19.1126C9.75094 19.1677 9.85007 19.2458 9.92992 19.3417C10.0099 19.4385 10.0697 19.5503 10.1057 19.6705C10.1418 19.7907 10.1534 19.9169 10.1399 20.0417C10.1399 20.3717 10.0599 20.6917 10.0299 21.0417C9.97492 21.2853 9.97492 21.5381 10.0299 21.7817C10.0287 21.8169 10.0362 21.8518 10.052 21.8832C10.0677 21.9147 10.091 21.9416 10.1199 21.9617C10.1446 21.986 10.1747 22.004 10.2077 22.0145C10.2408 22.0249 10.2758 22.0274 10.3099 22.0217C10.516 21.9945 10.7177 21.9407 10.9099 21.8617C11.7636 21.4655 12.5745 20.983 13.3299 20.4217C13.5699 20.2517 13.7899 20.0617 14.0299 19.8817C13.8399 19.7017 13.6299 19.5317 13.4299 19.3417C13.083 19.0233 12.7682 18.6716 12.4899 18.2917C10.4899 15.5217 12.0599 11.9417 14.8999 10.5717C16.4339 9.84208 18.158 9.61127 19.8299 9.91172C20.1684 9.97717 20.5024 10.064 20.8299 10.1717C20.7839 9.63294 20.6834 9.10022 20.5299 8.58172ZM7.16992 11.9917C6.97214 11.9917 6.7788 11.9331 6.61435 11.8232C6.4499 11.7133 6.32173 11.5571 6.24604 11.3744C6.17035 11.1917 6.15055 10.9906 6.18914 10.7966C6.22772 10.6026 6.32296 10.4245 6.46281 10.2846C6.60267 10.1448 6.78085 10.0495 6.97483 10.0109C7.16881 9.97235 7.36988 9.99215 7.5526 10.0678C7.73533 10.1435 7.89151 10.2717 8.00139 10.4361C8.11127 10.6006 8.16992 10.7939 8.16992 10.9917C8.16992 11.2569 8.06456 11.5113 7.87703 11.6988C7.68949 11.8864 7.43514 11.9917 7.16992 11.9917ZM11.1699 11.9917C10.9721 11.9917 10.7788 11.9331 10.6144 11.8232C10.4499 11.7133 10.3217 11.5571 10.246 11.3744C10.1704 11.1917 10.1505 10.9906 10.1891 10.7966C10.2277 10.6026 10.323 10.4245 10.4628 10.2846C10.6027 10.1448 10.7808 10.0495 10.9748 10.0109C11.1688 9.97235 11.3699 9.99215 11.5526 10.0678C11.7353 10.1435 11.8915 10.2717 12.0014 10.4361C12.1113 10.6006 12.1699 10.7939 12.1699 10.9917C12.1699 11.2569 12.0646 11.5113 11.877 11.6988C11.6895 11.8864 11.4351 11.9917 11.1699 11.9917Z" fill="#191A1E"/>
<path d="M14.8298 12.3987C14.5812 12.6175 14.3565 12.8622 14.1598 13.1287C13.5833 13.9052 13.3037 14.8624 13.3716 15.8272C13.4394 16.7919 13.8503 17.7005 14.5298 18.3887C15.6472 19.5894 16.9505 20.6024 18.3898 21.3887C18.3256 21.1617 18.3303 20.9207 18.4033 20.6964C18.4763 20.472 18.6143 20.2744 18.7998 20.1287C19.1385 19.9293 19.5181 19.8097 19.9098 19.7787C20.9899 19.5709 21.9788 19.0327 22.7398 18.2387C23.1191 17.8395 23.4145 17.3684 23.6086 16.8531C23.8027 16.3378 23.8915 15.7889 23.8698 15.2387C23.8224 14.6859 23.6663 14.1478 23.4107 13.6553C23.155 13.1629 22.8047 12.7256 22.3798 12.3687C21.6305 11.772 20.7509 11.3606 19.8126 11.1677C18.8744 10.9748 17.9038 11.006 16.9798 11.2587C16.1843 11.4665 15.4482 11.8568 14.8298 12.3987Z" fill="#191A1E"/>
</g>
</g>
<defs>
<clipPath id="clip0_10737_49182">
<rect width="24" height="24" fill="white" transform="translate(0.499878 0.5)"/>
</clipPath>
<clipPath id="clip1_10737_49182">
<rect width="24" height="24" fill="white" transform="translate(0.499878 0.5)"/>
</clipPath>
</defs>
</svg>
