<svg width="16" height="16" viewBox="0 0 16 16" fill="none" xmlns="http://www.w3.org/2000/svg">
<rect x="10.1414" y="13.1991" width="1.47133" height="4.67035" rx="0.290546" transform="rotate(89.5436 10.1414 13.1991)" stroke="#191A1E" stroke-width="0.581093"/>
<path d="M10.3916 1C11.0334 1 11.5546 1.52029 11.5547 2.16211V3.48047C11.9017 3.68147 12.1357 4.05651 12.1357 4.48633V7.3916C12.1357 7.82122 11.9013 8.19535 11.5547 8.39648V12.6221C11.5546 13.2638 11.0334 13.7842 10.3916 13.7842H5.16211C4.52036 13.7841 4.00011 13.2638 4 12.6221V2.16211C4.00004 1.52031 4.52031 1.00004 5.16211 1H10.3916ZM5.45312 12.041C5.29275 12.041 5.16225 12.1707 5.16211 12.3311C5.16211 12.4915 5.29266 12.6221 5.45312 12.6221H6.61523C6.77555 12.6219 6.90527 12.4914 6.90527 12.3311C6.90513 12.1708 6.77547 12.0412 6.61523 12.041H5.45312ZM8.93945 12.041C8.77907 12.041 8.64858 12.1707 8.64844 12.3311C8.64844 12.4915 8.77899 12.6221 8.93945 12.6221H10.1016C10.262 12.622 10.3916 12.4915 10.3916 12.3311C10.3915 12.1707 10.2619 12.0411 10.1016 12.041H8.93945ZM5.74316 2.74316C5.42234 2.74323 5.16219 3.0034 5.16211 3.32422V10.2979C5.16231 10.6186 5.42241 10.8788 5.74316 10.8789H9.81055C10.1314 10.8789 10.3914 10.6186 10.3916 10.2979V3.32422C10.3915 3.00336 10.1314 2.74316 9.81055 2.74316H5.74316Z" fill="#191A1E"/>
</svg>
