<svg width="16" height="16" viewBox="0 0 16 16" fill="none" xmlns="http://www.w3.org/2000/svg">
<path d="M4.45369 11.8161C5.12292 11.8161 5.66544 11.2712 5.66544 10.599C5.66544 9.92676 5.12292 9.38184 4.45369 9.38184C3.78446 9.38184 3.24194 9.92676 3.24194 10.599C3.24194 11.2712 3.78446 11.8161 4.45369 11.8161Z" stroke="#171717" stroke-width="1.2" stroke-miterlimit="10" stroke-linecap="round"/>
<path d="M11.6821 11.8161C12.3513 11.8161 12.8938 11.2712 12.8938 10.599C12.8938 9.92676 12.3513 9.38184 11.6821 9.38184C11.0129 9.38184 10.4703 9.92676 10.4703 10.599C10.4703 11.2712 11.0129 11.8161 11.6821 11.8161Z" stroke="#171717" stroke-width="1.2" stroke-miterlimit="10" stroke-linecap="round"/>
<path d="M2 7.1073V3.67773H10.1384V8.56079" stroke="#171717" stroke-width="1.2" stroke-miterlimit="10" stroke-linecap="round" stroke-linejoin="round"/>
<path d="M2 6.77539V10.2593H3.16129" stroke="#171717" stroke-width="1.2" stroke-miterlimit="10" stroke-linecap="round"/>
<path d="M5.66553 10.3271H10.3226" stroke="#171717" stroke-width="1.2" stroke-miterlimit="10" stroke-linecap="round"/>
<path d="M12.9228 10.3269H13.961V8.28628C13.961 8.28628 14.1177 7.16604 12.9964 7.13577C11.8811 7.11154 10.4764 7.13577 10.4764 7.13577" stroke="#171717" stroke-width="1.2" stroke-miterlimit="10" stroke-linecap="round" stroke-linejoin="round"/>
<path d="M12.8386 5.61328L13.2257 7.16167" stroke="#171717" stroke-width="1.2" stroke-miterlimit="10" stroke-linecap="round"/>
<path d="M10.6809 5.13672L12.7408 5.28791" stroke="#171717" stroke-width="1.2" stroke-miterlimit="10" stroke-linecap="round"/>
</svg>
