<svg width="16" height="16" viewBox="0 0 16 16" fill="none" xmlns="http://www.w3.org/2000/svg">
<path d="M4.45369 11.8166C5.12292 11.8166 5.66544 11.2717 5.66544 10.5995C5.66544 9.92725 5.12292 9.38232 4.45369 9.38232C3.78446 9.38232 3.24194 9.92725 3.24194 10.5995C3.24194 11.2717 3.78446 11.8166 4.45369 11.8166Z" stroke="#171717" stroke-width="1.2" stroke-miterlimit="10" stroke-linecap="round"/>
<path d="M11.682 11.8166C12.3512 11.8166 12.8937 11.2717 12.8937 10.5995C12.8937 9.92725 12.3512 9.38232 11.682 9.38232C11.0127 9.38232 10.4702 9.92725 10.4702 10.5995C10.4702 11.2717 11.0127 11.8166 11.682 11.8166Z" stroke="#171717" stroke-width="1.2" stroke-miterlimit="10" stroke-linecap="round"/>
<path d="M2 7.10779V3.67822H10.1384V8.56128" stroke="#171717" stroke-width="1.2" stroke-miterlimit="10" stroke-linecap="round" stroke-linejoin="round"/>
<path d="M2 6.7749V10.2588H3.16129" stroke="#171717" stroke-width="1.2" stroke-miterlimit="10" stroke-linecap="round"/>
<path d="M5.66553 10.3267H10.3226" stroke="#171717" stroke-width="1.2" stroke-miterlimit="10" stroke-linecap="round"/>
<path d="M12.9229 10.3269H13.9611V8.28628C13.9611 8.28628 14.1178 7.16604 12.9965 7.13577C11.8812 7.11154 10.4766 7.13577 10.4766 7.13577" stroke="#171717" stroke-width="1.2" stroke-miterlimit="10" stroke-linecap="round" stroke-linejoin="round"/>
<path d="M12.8386 5.61377L13.2257 7.16216" stroke="#171717" stroke-width="1.2" stroke-miterlimit="10" stroke-linecap="round"/>
<path d="M10.6809 5.13721L12.7408 5.2884" stroke="#171717" stroke-width="1.2" stroke-miterlimit="10" stroke-linecap="round"/>
</svg>
