<svg width="79" height="79" viewBox="0 0 79 79" fill="none" xmlns="http://www.w3.org/2000/svg">
<g clip-path="url(#clip0_5693_36163)">
<path d="M39.5 79C61.3152 79 79 61.3152 79 39.5C79 17.6848 61.3152 0 39.5 0C17.6848 0 0 17.6848 0 39.5C0 61.3152 17.6848 79 39.5 79Z" fill="#CCCFFB"/>
<path d="M39.4999 63.5159C52.5408 63.5159 63.1125 52.9441 63.1125 39.9032C63.1125 26.8623 52.5408 16.2905 39.4999 16.2905C26.459 16.2905 15.8872 26.8623 15.8872 39.9032C15.8872 52.9441 26.459 63.5159 39.4999 63.5159Z" fill="#2A50E1"/>
<path d="M36.3765 43.2618C36.3765 41.7167 36.6452 40.5076 37.1491 39.5671C37.6529 38.6602 38.3918 37.7197 39.2987 36.8128C40.1384 36.0403 40.743 35.4021 41.1461 34.8647C41.5155 34.3273 41.7171 33.6555 41.7171 32.8494C41.7171 32.144 41.482 31.573 40.9781 31.1364C40.4743 30.6661 39.9369 30.4646 39.3659 30.4646C38.459 30.4646 37.7201 30.7669 37.2162 31.3379C36.6788 31.9089 36.2086 32.715 35.8055 33.6891L31.7749 31.8082C32.01 31.0356 32.4131 30.2295 33.0177 29.3226C33.6223 28.4493 34.4956 27.6432 35.6376 26.9714C36.7796 26.2997 38.1567 25.9302 39.8025 25.9302C41.9186 25.9302 43.6316 26.4676 44.9416 27.5424C46.2515 28.6173 46.9233 30.2295 46.9233 32.4463C46.9233 33.9578 46.6882 35.1334 46.2179 36.0067C45.7477 36.88 45.2103 37.5854 44.6729 38.1228C44.1019 38.6602 43.766 39.0297 43.598 39.1976C42.8591 39.9366 42.2881 40.7091 41.885 41.4816C41.482 42.2542 41.2804 43.2282 41.2804 44.4374V45.1763H36.3765V43.2618Z" fill="white"/>
<path d="M35.5703 50.8528C35.5703 50.4162 35.6375 49.9795 35.8054 49.6101C35.9734 49.2406 36.1749 48.9047 36.4772 48.636C36.7795 48.3673 37.1154 48.1322 37.5184 47.9978C37.9215 47.8299 38.3917 47.7627 38.8956 47.7627C39.3994 47.7627 39.8696 47.8299 40.3063 47.9978C40.7093 48.1658 41.0788 48.3673 41.3811 48.636C41.6834 48.9047 41.8849 49.2406 42.0529 49.6101C42.2208 49.9795 42.288 50.4162 42.288 50.8528C42.288 51.2895 42.2208 51.7261 42.0529 52.0956C41.8849 52.4651 41.6834 52.801 41.3811 53.0697C41.0788 53.3384 40.7429 53.5735 40.3063 53.7078C39.9032 53.8758 39.433 53.943 38.8956 53.943C38.3917 53.943 37.9215 53.8758 37.5184 53.7078C37.1154 53.5399 36.7459 53.3384 36.4772 53.0697C36.1749 52.801 35.9734 52.4651 35.8054 52.0956C35.6711 51.6925 35.5703 51.2895 35.5703 50.8528Z" fill="white"/>
</g>
<defs>
<clipPath id="clip0_5693_36163">
<rect width="79" height="79" fill="white"/>
</clipPath>
</defs>
</svg>
