<svg width="40" height="40" viewBox="0 0 40 40" fill="none" xmlns="http://www.w3.org/2000/svg">
<path d="M7.10264 16.9111L7.77273 18.9217H7.79228L7.12089 16.9111H7.10264ZM10.0255 19.1903L10.0059 19.2045L8.27334 20.4501L8.9343 22.4696L8.93952 22.4838L8.95386 22.4748L8.29811 20.4553L10.0307 19.2045L10.0255 19.1903ZM6.95924 21.3988L5.22144 22.6355L5.23578 22.6445L6.96836 21.4027L6.95924 21.3988Z" fill="black"/>
<rect width="40" height="40" rx="5" fill="#00A650"/>
<path d="M16.3787 19.8607C16.3787 20.0627 16.2972 20.1229 15.9897 20.2366C15.7438 20.3356 15.5543 20.3784 15.4978 20.3784C15.3949 20.3784 15.3498 20.2968 15.3498 20.1269C15.3498 19.723 15.4577 19.2321 15.8567 19.2321C16.2256 19.2334 16.3787 19.6588 16.3787 19.8607ZM12.3871 21.6223C12.3871 21.5889 12.3821 21.5675 12.367 21.5514C12.3256 21.5073 12.1725 21.4805 12.096 21.3989C12.0395 21.3387 12.0031 21.2357 12.0031 20.995V20.0721C12.0031 20.0012 12.0182 19.957 12.0847 19.957H12.9656C13.0321 19.957 13.0471 19.9998 13.0471 20.0721V20.9936C13.0471 21.2331 13.012 21.3374 12.9555 21.3976C12.879 21.4792 12.7259 21.5059 12.6845 21.5501C12.6694 21.5661 12.6644 21.5875 12.6644 21.621C12.6644 21.7627 12.6845 21.9045 12.7058 21.9259C12.7259 21.9473 12.7573 21.9527 12.8238 21.9527H14.2618C14.3283 21.9527 14.3597 21.9473 14.3798 21.9259C14.3999 21.9045 14.4212 21.7627 14.4212 21.621C14.4212 21.5875 14.4162 21.5661 14.4011 21.5501C14.3647 21.5126 14.2066 21.4792 14.1301 21.3976C14.0736 21.3374 14.0435 21.2224 14.0435 21.0378V18.4911C14.0435 18.36 14.0749 18.273 14.12 18.2236C14.2016 18.1366 14.366 18.1192 14.4011 18.0818C14.4162 18.0657 14.4212 18.0323 14.4212 18.0055C14.4212 17.9079 14.4011 17.7608 14.3798 17.738C14.3597 17.7166 14.3384 17.7099 14.2618 17.7099H12.874C12.8175 17.7099 12.7974 17.7153 12.7824 17.7313C12.7673 17.7474 12.751 17.8624 12.751 18.0095C12.751 18.0363 12.756 18.0697 12.7661 18.0804C12.7912 18.1085 12.9192 18.1513 12.9706 18.2062C13.0271 18.2664 13.0471 18.3319 13.0471 18.5178V19.2428C13.0471 19.2695 13.0208 19.3083 12.9857 19.3083H12.0646C12.0282 19.3083 12.0031 19.2709 12.0031 19.2428V18.5178C12.0031 18.3319 12.0232 18.2664 12.0797 18.2062C12.1311 18.1513 12.2591 18.1085 12.2842 18.0804C12.2942 18.0697 12.2993 18.0376 12.2993 18.0095C12.2993 17.8624 12.2842 17.7474 12.2679 17.7313C12.2528 17.7153 12.2315 17.7099 12.1763 17.7099H10.791C10.7144 17.7099 10.6931 17.7153 10.673 17.738C10.6529 17.7594 10.6316 17.9066 10.6316 18.0055C10.6316 18.0336 10.6366 18.0657 10.6517 18.0818C10.6881 18.1206 10.8512 18.1366 10.9328 18.2236C10.9792 18.2717 11.0093 18.36 11.0093 18.4911V21.0391C11.0093 21.225 10.9779 21.3387 10.9227 21.3989C10.8462 21.4805 10.6868 21.514 10.6517 21.5514C10.6366 21.5675 10.6316 21.5889 10.6316 21.6223C10.6316 21.7641 10.6517 21.9059 10.673 21.9273C10.6931 21.9487 10.7144 21.954 10.791 21.954H12.229C12.2955 21.954 12.3269 21.9487 12.347 21.9273C12.367 21.9059 12.3871 21.7641 12.3871 21.6223ZM17.1417 21.5461C17.2897 21.3882 17.3261 21.2946 17.3261 21.2184C17.3261 21.1368 17.3061 21.0712 17.2446 21.0057C17.1781 20.9348 17.1216 20.9241 17.0701 20.9241C16.9986 20.9241 16.9673 20.9455 16.9221 20.995C16.6975 21.2344 16.4101 21.3655 16.0625 21.3655C15.7099 21.3655 15.4891 21.1154 15.4891 20.9562C15.4891 20.9134 15.5254 20.8746 15.617 20.8465C16.5996 20.5188 17.0087 20.3008 17.163 20.1376C17.2496 20.0507 17.286 19.9463 17.286 19.854C17.286 19.4394 16.7238 18.7037 15.858 18.7037C15.5003 18.7037 15.1364 18.8562 14.8654 19.1451C14.5944 19.434 14.425 19.8433 14.425 20.3998C14.425 20.9348 14.5843 21.3053 14.8604 21.5996C15.1364 21.8938 15.5355 22.041 15.9709 22.041C16.4151 22.0423 16.8355 21.8738 17.1417 21.5461ZM18.7441 18.8897C18.7441 18.8188 18.7077 18.792 18.6525 18.792H17.6649C17.6085 18.792 17.5884 18.792 17.5721 18.8134C17.552 18.8348 17.5319 18.982 17.5319 19.0809C17.5319 19.1077 17.542 19.1291 17.552 19.1465C17.5884 19.196 17.6649 19.212 17.7314 19.2722C17.7779 19.3217 17.798 19.4247 17.798 19.5825V21.0391C17.798 21.225 17.7779 21.3441 17.7264 21.3989C17.6499 21.4805 17.5219 21.5193 17.4868 21.5568C17.4767 21.5675 17.4717 21.5902 17.4717 21.6277C17.4717 21.7694 17.4918 21.9059 17.5131 21.9273C17.5282 21.9433 17.5545 21.954 17.611 21.954H18.926C18.9825 21.954 19.0076 21.9433 19.0239 21.9273C19.044 21.9059 19.0591 21.7694 19.0591 21.6277C19.0591 21.5889 19.054 21.5675 19.044 21.5568C19.0076 21.5193 18.8909 21.4805 18.8144 21.3989C18.7629 21.3441 18.7479 21.2237 18.7479 21.0391L18.7441 18.8897ZM18.1957 17.5146C17.9146 17.5146 17.6838 17.7501 17.6838 18.0443C17.6838 18.3439 17.9146 18.5793 18.1957 18.5793C18.4818 18.5793 18.7127 18.3453 18.7127 18.0443C18.7127 17.7487 18.4831 17.5146 18.1957 17.5146ZM22.1623 19.636C22.1623 19.0248 21.8649 18.7144 21.3993 18.7144C21.1797 18.7144 20.9438 18.7907 20.7079 18.9432C20.6263 18.998 20.6 19.0141 20.5799 19.0141C20.4984 19.0141 20.5548 18.7907 20.4055 18.7907H19.5045C19.4481 18.7907 19.433 18.7907 19.4117 18.8121C19.3866 18.8388 19.3652 18.9806 19.3652 19.0796C19.3652 19.1063 19.3703 19.1277 19.3853 19.1451C19.4255 19.1893 19.5033 19.2053 19.5648 19.2709C19.6112 19.3204 19.6313 19.4233 19.6313 19.5812V21.0378C19.6313 21.2237 19.6162 21.3427 19.5648 21.3976C19.4932 21.4738 19.3703 21.518 19.3351 21.5554C19.3251 21.5661 19.3201 21.5875 19.3201 21.6263C19.3201 21.7681 19.3351 21.9045 19.3565 21.9259C19.3715 21.942 19.4029 21.9527 19.4594 21.9527H20.7493C20.8108 21.9527 20.8309 21.942 20.8459 21.9259C20.8723 21.8992 20.8924 21.7681 20.8924 21.6263C20.8924 21.5875 20.8874 21.5661 20.8773 21.5554C20.8372 21.5126 20.7192 21.4738 20.6477 21.3976C20.5962 21.3427 20.5711 21.2224 20.5711 21.0378V19.9637C20.5711 19.5223 20.8008 19.3859 20.9702 19.3859C21.1446 19.3859 21.2412 19.5223 21.2412 19.8112V21.3227C21.2412 21.7266 21.4821 21.9928 21.9163 21.9928C22.3969 21.9928 22.6015 21.6223 22.6015 21.5461C22.6015 21.4805 22.5048 21.3494 22.4433 21.3494C22.3718 21.3494 22.2689 21.4471 22.2187 21.4471C22.1836 21.4471 22.1623 21.4203 22.1623 21.332V19.636ZM31.645 21.5461C31.7931 21.3882 31.8295 21.2946 31.8295 21.2184C31.8295 21.1368 31.8094 21.0712 31.7479 21.0057C31.6814 20.9348 31.625 20.9241 31.5735 20.9241C31.502 20.9241 31.4706 20.9455 31.4255 20.995C31.2008 21.2344 30.9135 21.3655 30.5659 21.3655C30.2133 21.3655 29.9924 21.1154 29.9924 20.9562C29.9924 20.9134 30.0288 20.8746 30.1204 20.8465C31.103 20.5188 31.512 20.3008 31.6664 20.1376C31.753 20.0507 31.7894 19.9463 31.7894 19.854C31.7894 19.4394 31.2259 18.7037 30.3614 18.7037C30.0025 18.7037 29.6398 18.8562 29.3688 19.1451C29.0977 19.434 28.9283 19.8433 28.9283 20.3998C28.9283 20.9348 29.0864 21.3053 29.3638 21.5996C29.6398 21.8938 30.0389 22.041 30.4743 22.041C30.9185 22.0423 31.3389 21.8738 31.645 21.5461ZM30.8834 19.8607C30.8834 20.0627 30.8018 20.1229 30.4944 20.2366C30.2484 20.3356 30.0589 20.3784 30.0025 20.3784C29.9008 20.3784 29.8544 20.2968 29.8544 20.1269C29.8544 19.723 29.9623 19.2321 30.3614 19.2321C30.729 19.2334 30.8834 19.6588 30.8834 19.8607ZM25.3558 21.5461C25.5039 21.3882 25.5403 21.2946 25.5403 21.2184C25.5403 21.1368 25.5202 21.0712 25.4587 21.0057C25.3922 20.9348 25.3357 20.9241 25.2843 20.9241C25.2128 20.9241 25.1814 20.9455 25.1362 20.995C24.9116 21.2344 24.6242 21.3655 24.2767 21.3655C23.9241 21.3655 23.7032 21.1154 23.7032 20.9562C23.7032 20.9134 23.7396 20.8746 23.8312 20.8465C24.8137 20.5188 25.2228 20.3008 25.3759 20.1376C25.4637 20.0507 25.4989 19.9463 25.4989 19.854C25.4989 19.4394 24.9367 18.7037 24.0709 18.7037C23.7132 18.7037 23.3493 18.8562 23.0783 19.1451C22.8072 19.434 22.6378 19.8433 22.6378 20.3998C22.6378 20.9348 22.796 21.3053 23.0733 21.5996C23.3493 21.8938 23.7496 22.041 24.1838 22.041C24.6293 22.0423 25.0484 21.8738 25.3558 21.5461ZM24.5929 19.8607C24.5929 20.0627 24.5113 20.1229 24.2039 20.2366C23.9579 20.3356 23.7685 20.3784 23.712 20.3784C23.6091 20.3784 23.5639 20.2968 23.5639 20.1269C23.5639 19.723 23.6718 19.2321 24.0709 19.2321C24.4398 19.2334 24.5929 19.6588 24.5929 19.8607ZM34.8386 19.636C34.8386 19.0248 34.5425 18.7144 34.0769 18.7144C33.8573 18.7144 33.6214 18.7907 33.3855 18.9432C33.3039 18.998 33.2776 19.0141 33.2575 19.0141C33.1759 19.0141 33.2312 18.7907 33.0831 18.7907H32.1821C32.1257 18.7907 32.1106 18.7907 32.0905 18.8121C32.0654 18.8388 32.0441 18.982 32.0441 19.0796C32.0441 19.1063 32.0491 19.1277 32.0642 19.1451C32.1056 19.1893 32.1821 19.2053 32.2436 19.2709C32.29 19.3204 32.3101 19.4233 32.3101 19.5812V21.0378C32.3101 21.2237 32.2951 21.3427 32.2436 21.3976C32.1721 21.4738 32.0491 21.518 32.0127 21.5554C32.0027 21.5661 31.9977 21.5889 31.9977 21.6263C31.9977 21.7681 32.0127 21.9045 32.0328 21.9259C32.0491 21.942 32.0792 21.9527 32.1357 21.9527H33.4257C33.4871 21.9527 33.5072 21.942 33.5235 21.9259C33.5486 21.8992 33.57 21.7681 33.57 21.6263C33.57 21.5875 33.5649 21.5661 33.5549 21.5554C33.5135 21.5126 33.3968 21.4738 33.3253 21.3976C33.2738 21.3427 33.2487 21.2224 33.2487 21.0378V19.9637C33.2487 19.5223 33.4796 19.3859 33.6478 19.3859C33.8222 19.3859 33.9188 19.5223 33.9188 19.8112V21.3227C33.9188 21.7266 34.1597 21.9941 34.5939 21.9941C35.0745 21.9941 35.279 21.6236 35.279 21.5474C35.279 21.4819 35.1812 21.3508 35.1209 21.3508C35.0494 21.3508 34.9465 21.4484 34.8963 21.4484C34.8599 21.4484 34.8399 21.4217 34.8399 21.3334L34.8386 19.636ZM26.8039 17.6123H25.8214C25.7599 17.6123 25.7335 17.6123 25.7197 17.6404C25.6996 17.6671 25.6833 17.8036 25.6833 17.8959C25.6833 17.9293 25.6883 17.9507 25.6984 17.9721C25.7335 18.0109 25.8728 18.0483 25.9343 18.1139C25.9857 18.1687 26.0108 18.2771 26.0108 18.6917V20.8733C26.0108 21.2384 25.9757 21.3535 25.9343 21.3976C25.8628 21.4738 25.7398 21.518 25.7034 21.5554C25.6934 21.5661 25.6883 21.5889 25.6883 21.6263C25.6883 21.7681 25.7034 21.9045 25.7235 21.9259C25.7385 21.942 25.7586 21.9527 25.8264 21.9527H27.1113C27.1778 21.9527 27.1979 21.942 27.213 21.9259C27.233 21.9045 27.2594 21.7681 27.2594 21.6263C27.2594 21.5875 27.2544 21.5661 27.2393 21.5554C27.2042 21.518 27.0812 21.4738 27.0147 21.3976C26.9582 21.3427 26.9382 21.2224 26.9382 21.0378V20.9121C26.9382 20.8412 26.9582 20.8184 27.0712 20.6994C27.1226 20.6499 27.1678 20.6124 27.2042 20.6124C27.2556 20.6124 27.2958 20.6499 27.8592 21.8617C27.8943 21.938 27.9107 21.954 28.0023 21.954H28.8367C28.8982 21.954 28.9183 21.9433 28.9346 21.9273C28.9547 21.9059 28.976 21.7694 28.976 21.6277C28.976 21.5889 28.971 21.5675 28.961 21.5568C28.9246 21.5193 28.71 21.4912 28.6636 21.3989C27.922 20.0627 27.9006 20.0186 27.9006 19.937C27.9006 19.8661 28.2281 19.517 28.4992 19.2883C28.6736 19.1411 28.7853 19.2388 28.7853 19.0649C28.7853 18.8629 28.7602 18.792 28.7238 18.792H27.4853C27.3774 18.792 27.3673 18.8576 27.3673 19.1037C27.3673 19.1853 27.5819 19.196 27.5819 19.311C27.5819 19.4086 27.0599 19.9437 26.9733 19.9437C26.9419 19.9437 26.9369 19.9223 26.9369 19.8286V17.7648C26.9369 17.6778 26.8804 17.6123 26.8039 17.6123Z" fill="white"/>
<path d="M7.17571 16.9111L7.8549 18.9778L10.0306 18.9853L8.27547 20.271L8.94085 22.3427L7.17571 21.0708L5.41056 22.3427L6.07594 20.271L4.31958 18.9853L6.49526 18.9778L7.17571 16.9111Z" fill="#FF0000"/>
</svg>
