<svg width="49" height="48" viewBox="0 0 49 48" fill="none" xmlns="http://www.w3.org/2000/svg">
<rect x="0.5" width="48" height="48" rx="24" fill="#DCFCE7"/>
<path fill-rule="evenodd" clip-rule="evenodd" d="M24.4994 33.6004C27.0455 33.6004 29.4873 32.589 31.2876 30.7886C33.088 28.9883 34.0994 26.5465 34.0994 24.0004C34.0994 21.4543 33.088 19.0125 31.2876 17.2122C29.4873 15.4118 27.0455 14.4004 24.4994 14.4004C21.9533 14.4004 19.5115 15.4118 17.7112 17.2122C15.9108 19.0125 14.8994 21.4543 14.8994 24.0004C14.8994 26.5465 15.9108 28.9883 17.7112 30.7886C19.5115 32.589 21.9533 33.6004 24.4994 33.6004ZM28.9478 22.4488C29.1664 22.2225 29.2874 21.9193 29.2846 21.6047C29.2819 21.2901 29.1557 20.9891 28.9332 20.7666C28.7107 20.5441 28.4097 20.4179 28.0951 20.4152C27.7805 20.4124 27.4773 20.5334 27.251 20.752L23.2994 24.7036L21.7478 23.152C21.5215 22.9334 21.2184 22.8124 20.9037 22.8152C20.5891 22.8179 20.2881 22.9441 20.0656 23.1666C19.8431 23.3891 19.7169 23.6901 19.7142 24.0047C19.7115 24.3193 19.8324 24.6225 20.051 24.8488L22.451 27.2488C22.676 27.4738 22.9812 27.6001 23.2994 27.6001C23.6176 27.6001 23.9228 27.4738 24.1478 27.2488L28.9478 22.4488Z" fill="#22C55E"/>
</svg>
