<svg width="16" height="16" viewBox="0 0 16 16" fill="none" xmlns="http://www.w3.org/2000/svg">
<path d="M7.33421 2.03662C6.2112 2.16212 5.14645 2.60217 4.2625 3.30611C3.37855 4.01005 2.71134 4.94928 2.33764 6.0157C1.96394 7.08212 1.89895 8.23239 2.15015 9.33411C2.40135 10.4358 2.95852 11.4442 3.75756 12.2433C4.55659 13.0423 5.56499 13.5995 6.66672 13.8507C7.76844 14.1019 8.91871 14.0369 9.98513 13.6632C11.0515 13.2895 11.9908 12.6223 12.6947 11.7383C13.3987 10.8544 13.8387 9.78963 13.9642 8.66662H7.33421V2.03662Z" stroke="#737373" stroke-width="1.2" stroke-linecap="round" stroke-linejoin="round"/>
<path d="M13.6587 5.99998H10V2.34131C10.8436 2.64059 11.6098 3.12433 12.2427 3.75727C12.8756 4.3902 13.3594 5.15639 13.6587 5.99998Z" stroke="#737373" stroke-width="1.2" stroke-linecap="round" stroke-linejoin="round"/>
</svg>
