<svg width="109" height="100" viewBox="0 0 109 100" fill="none" xmlns="http://www.w3.org/2000/svg">
<path d="M55.3995 11.8311C31.3103 11.8311 11.7852 31.3562 11.7852 55.4455C11.7852 79.5347 31.3103 99.0599 55.3995 99.0599C79.4887 99.0599 99.0138 79.5347 99.0138 55.4455C99.0138 31.3562 79.4887 11.8311 55.3995 11.8311Z" fill="#F7F7F9"/>
<path d="M55.3985 86.9426C72.7944 86.9426 86.8966 72.8404 86.8966 55.4444C86.8966 38.0485 72.7944 23.9463 55.3985 23.9463C38.0026 23.9463 23.9004 38.0485 23.9004 55.4444C23.9004 72.8404 38.0026 86.9426 55.3985 86.9426Z" fill="#DADBDE"/>
<path d="M55.3996 74.1098C65.5274 74.1098 73.7377 65.8996 73.7377 55.7717C73.7377 45.6438 65.5274 37.4336 55.3996 37.4336C45.2718 37.4336 37.0615 45.6438 37.0615 55.7717C37.0615 65.8996 45.2718 74.1098 55.3996 74.1098Z" fill="#191A1E"/>
<path d="M64.8956 48.3017C64.4863 48.3631 64.0974 48.5473 63.8109 48.8543L51.6742 60.991L46.9055 57.1842C46.5371 56.8772 46.0459 56.7339 45.5752 56.7953C45.1044 56.8567 44.6542 57.0819 44.3472 57.4708C44.0402 57.8392 43.8969 58.3304 43.9583 58.8011C44.0197 59.2718 44.2653 59.7221 44.6337 60.0291L50.6713 64.8592C51.4081 65.4323 52.4315 65.3709 53.0864 64.7159L66.3897 51.4126C66.9423 50.86 67.0856 50.0209 66.7581 49.325C66.4306 48.6087 65.6734 48.1994 64.8956 48.3017Z" fill="white" stroke="white" stroke-width="0.204666" stroke-miterlimit="10"/>
<path d="M20.8513 99.8572L18.3339 98.0152C17.986 97.7696 17.9246 97.2989 18.1702 96.9509L20.0122 94.4335C20.2578 94.0856 20.7285 94.0242 21.0764 94.2698L23.5938 96.1118C23.9418 96.3574 24.0032 96.8281 23.7576 97.1761L21.9156 99.6935C21.67 100.021 21.1992 100.103 20.8513 99.8572Z" fill="#CCD0DE"/>
<path opacity="0.5" d="M105.276 87.823L102.759 85.981C102.411 85.7354 102.349 85.2647 102.595 84.9167L104.437 82.3993C104.683 82.0514 105.153 81.99 105.501 82.2356L108.019 84.0776C108.367 84.3232 108.428 84.7939 108.182 85.1419L106.34 87.6593C106.095 88.0072 105.624 88.0686 105.276 87.823Z" fill="#2A50E1"/>
<path opacity="0.5" d="M66.7986 92.7351L64.2812 90.8931C63.9332 90.6475 63.8718 90.1768 64.1174 89.8288L65.9594 87.3115C66.205 86.9635 66.6758 86.9021 67.0237 87.1477L69.5411 88.9897C69.889 89.2353 69.9504 89.706 69.7048 90.054L67.8628 92.5714C67.6172 92.9193 67.1465 92.9807 66.7986 92.7351Z" fill="#2A50E1"/>
<path d="M2.00195 42.8565L0.733022 40.0117C0.56929 39.6228 0.733022 39.1725 1.12189 39.0088L3.96675 37.7399C4.35561 37.5761 4.80588 37.7399 4.96961 38.1287L6.23854 40.9736C6.40227 41.3625 6.23854 41.8127 5.84967 41.9765L3.00482 43.2454C2.61595 43.4091 2.16568 43.2454 2.00195 42.8565Z" fill="#CCD0DE"/>
<path opacity="0.5" d="M4.70385 27.5896L2.18645 25.7476C1.83852 25.502 1.77712 25.0313 2.02272 24.6833L3.86471 22.1659C4.11031 21.818 4.58105 21.7566 4.92898 22.0022L7.44637 23.8442C7.7943 24.0898 7.8557 24.5605 7.6101 24.9085L5.76811 27.4259C5.50204 27.7738 5.03131 27.8352 4.70385 27.5896Z" fill="#2A50E1"/>
<path d="M10.6384 64.3679L8.12102 62.5259C7.77309 62.2803 7.71169 61.8096 7.95729 61.4617L9.79928 58.9443C10.0449 58.5963 10.5156 58.5349 10.8635 58.7805L13.3809 60.6225C13.7289 60.8681 13.7903 61.3389 13.5447 61.6868L11.7027 64.2042C11.4571 64.5317 10.9863 64.6135 10.6384 64.3679Z" fill="#2A50E1"/>
<path opacity="0.5" d="M105.236 30.1482L102.719 28.3062C102.371 28.0606 102.309 27.5899 102.555 27.2419L104.397 24.7245C104.643 24.3766 105.113 24.3152 105.461 24.5608L107.979 26.4028C108.327 26.6484 108.388 27.1191 108.142 27.4671L106.3 29.9845C106.055 30.3119 105.584 30.3938 105.236 30.1482Z" fill="#2A50E1"/>
<path d="M86.7947 96.1111L84.2773 94.2691C83.9293 94.0235 83.8679 93.5528 84.1135 93.2048L85.9555 90.6874C86.2011 90.3395 86.6719 90.2781 87.0198 90.5237L89.5372 92.3657C89.8851 92.6113 89.9465 93.082 89.7009 93.43L87.8589 95.9474C87.6133 96.2748 87.1221 96.3567 86.7947 96.1111Z" fill="#2A50E1"/>
<path d="M99.362 75.0515L96.8447 73.2095C96.4967 72.9639 96.4353 72.4932 96.6809 72.1453L98.5229 69.6279C98.7685 69.2799 99.2392 69.2185 99.5872 69.4641L102.105 71.3061C102.453 71.5517 102.514 72.0225 102.268 72.3704L100.426 74.8878C100.181 75.2153 99.71 75.2971 99.362 75.0515Z" fill="#CCD0DE"/>
<path d="M39.8035 25.9314L37.2861 24.0894C36.9381 23.8438 36.8767 23.3731 37.1223 23.0251L38.9643 20.5077C39.2099 20.1598 39.6807 20.0984 40.0286 20.344L42.546 22.186C42.8939 22.4316 42.9553 22.9023 42.7097 23.2503L40.8677 25.7677C40.6221 26.0951 40.1514 26.177 39.8035 25.9314Z" fill="#2A50E1"/>
<path d="M103.905 53.8057L102.636 50.9609C102.473 50.572 102.636 50.1217 103.025 49.958L105.87 48.6891C106.259 48.5253 106.709 48.6891 106.873 49.0779L108.142 51.9228C108.306 52.3117 108.142 52.7619 107.753 52.9257L104.908 54.1946C104.54 54.3788 104.089 54.1946 103.905 53.8057Z" fill="#2A50E1"/>
<path opacity="0.5" d="M4.70385 80.7009L2.18645 78.8589C1.83852 78.6133 1.77712 78.1426 2.02272 77.7947L3.86471 75.2773C4.11031 74.9293 4.58105 74.8679 4.92898 75.1135L7.44637 76.9555C7.7943 77.2011 7.8557 77.6719 7.6101 78.0198L5.76811 80.5372C5.50204 80.8647 5.03131 80.9465 4.70385 80.7009Z" fill="#2A50E1"/>
<path d="M43.0374 39.1733L41.0112 37.6793C40.7452 37.4746 40.6838 37.1062 40.8884 36.8197L42.3825 34.7935C42.5872 34.5274 42.9556 34.466 43.2421 34.6707L45.2683 36.1647C45.5343 36.3694 45.5957 36.7378 45.3911 37.0243L43.897 39.0505C43.6924 39.3166 43.3035 39.378 43.0374 39.1733Z" fill="#BFCBF6"/>
<path d="M23.7581 57.6958L21.7319 56.2017C21.4659 55.997 21.4045 55.6286 21.6091 55.3421L23.1032 53.3159C23.3079 53.0498 23.6763 52.9884 23.9628 53.1931L25.989 54.6872C26.255 54.8918 26.3164 55.2602 26.1118 55.5468L24.6177 57.573C24.4131 57.839 24.0242 57.88 23.7581 57.6958Z" fill="#B9C5F2"/>
<path d="M67.2083 20.1587L65.1821 18.6646C64.9161 18.4599 64.8547 18.0915 65.0593 17.805L66.5534 15.7788C66.7581 15.5127 67.1265 15.4513 67.413 15.656L69.4392 17.1501C69.7052 17.3547 69.7666 17.7231 69.562 18.0097L68.0679 20.0359C67.8632 20.3019 67.4949 20.3633 67.2083 20.1587Z" fill="#3C28FF"/>
<path d="M81.678 36.7378L79.6519 35.2437C79.3858 35.039 79.3244 34.6706 79.5291 34.3841L81.0231 32.3579C81.2278 32.0918 81.5962 32.0304 81.8827 32.2351L83.9089 33.7292C84.175 33.9338 84.2364 34.3022 84.0317 34.5888L82.5376 36.615C82.333 36.881 81.9441 36.922 81.678 36.7378Z" fill="#B9C5F2"/>
<path d="M78.1983 52.5573L77.175 50.265C77.0317 49.958 77.175 49.5896 77.482 49.4668L79.7742 48.4435C80.0812 48.3002 80.4496 48.4435 80.5724 48.7505L81.5957 51.0428C81.739 51.3498 81.5957 51.7182 81.2887 51.841L78.9965 52.8643C78.6895 53.0076 78.3416 52.8848 78.1983 52.5573Z" fill="#2A50E1"/>
<path d="M28.0352 81.2946L27.0119 79.0023C26.8686 78.6953 27.0119 78.3269 27.3189 78.2041L29.6111 77.1808C29.9181 77.0376 30.2865 77.1808 30.4093 77.4878L31.4327 79.7801C31.5759 80.0871 31.4327 80.4555 31.1257 80.5783L28.8334 81.6016C28.5264 81.7449 28.158 81.6016 28.0352 81.2946Z" fill="#3C28FF"/>
<path d="M56.6263 29.062L54.6001 27.5679C54.334 27.3633 54.2726 26.9949 54.4773 26.7083L55.9714 24.6821C56.176 24.4161 56.5444 24.3547 56.831 24.5593L58.8571 26.0534C59.1232 26.2581 59.1846 26.6265 58.9799 26.913L57.4859 28.9392C57.2812 29.2053 56.8924 29.2462 56.6263 29.062Z" fill="#CFD8F8"/>
<path d="M90.2737 44.1479L88.2476 42.6539C87.9815 42.4492 87.9201 42.0808 88.1248 41.7943L89.6188 39.7681C89.8235 39.502 90.1919 39.4406 90.4784 39.6453L92.5046 41.1393C92.7707 41.344 92.8321 41.7124 92.6274 41.9989L91.1333 44.0251C90.9287 44.2912 90.5603 44.3526 90.2737 44.1479Z" fill="#CCD0DE"/>
<path d="M43.8353 4.62449L41.8091 3.13042C41.543 2.92576 41.4816 2.55736 41.6863 2.27082L43.1803 0.244626C43.385 -0.0214407 43.7534 -0.0828406 44.0399 0.121826L46.0661 1.61589C46.3322 1.82056 46.3936 2.18896 46.1889 2.47549L44.6949 4.50169C44.4902 4.76775 44.1013 4.82915 43.8353 4.62449Z" fill="#2A50E1"/>
<path d="M28.4857 20.1587L26.4595 18.6646C26.1934 18.4599 26.132 18.0915 26.3367 17.805L27.8307 15.7788C28.0354 15.5127 28.4038 15.4513 28.6903 15.656L30.7165 17.1501C30.9826 17.3547 31.044 17.7231 30.8393 18.0097L29.3453 20.0359C29.1406 20.3019 28.7517 20.3633 28.4857 20.1587Z" fill="#A9B4DF"/>
<path d="M16.7379 23.4556C16.7993 23.3328 16.8607 23.21 16.9221 23.0667C16.9835 22.9439 17.0244 22.8211 17.0039 22.6983C16.9835 22.4322 16.6969 22.248 16.4104 22.248C16.1239 22.248 15.8987 22.3913 15.6531 22.5346C13.6065 23.8444 11.9692 25.9934 11.785 28.429C11.6212 30.8645 13.2176 33.4433 15.5917 33.914C17.7203 34.3438 19.8897 33.1158 22.0592 33.3205C21.261 34.835 19.5213 36.0835 18.4161 37.3934C17.4951 38.4781 16.1648 40.0131 17.0858 41.4867C18.2319 43.3287 20.34 43.431 22.2639 42.9808C23.5328 42.6738 30.9417 39.0512 30.5733 42.0188C30.3686 43.6971 29.7751 45.3549 29.3248 46.9922C29.0792 47.8518 28.3015 49.6119 28.7108 50.5125C29.1611 51.5563 30.8394 51.9451 31.2692 50.7376C32.0878 48.4454 33.3363 46.1736 33.4796 43.6766C33.6228 41.0569 31.3715 38.8056 28.6904 39.174C25.9274 39.5628 23.2872 40.7294 20.647 41.63C20.033 41.8346 19.4599 41.7323 19.4804 40.9955C19.4804 38.4576 22.3048 36.6566 23.7579 34.8964C24.3105 34.221 24.8017 33.4842 24.9655 32.6246C25.1292 31.765 24.9245 30.8031 24.2696 30.2505C23.7375 29.8002 22.9802 29.657 22.2843 29.6979C21.5885 29.7388 20.8926 29.9435 20.2172 30.0868C19.2553 30.2914 18.2729 30.3938 17.27 30.3938C16.7788 30.3938 16.2671 30.3528 15.8169 30.1482C15.0187 29.7593 14.6094 28.7974 14.6298 27.8968C14.6708 26.9963 15.0596 26.1572 15.5303 25.3999C15.9397 24.7245 16.3899 24.1105 16.7379 23.4556Z" fill="#0010E9"/>
<path d="M14.0366 24.6635C13.9956 24.7044 13.9547 24.7658 13.9342 24.8272C13.5249 25.7482 13.1974 26.7101 13.1974 27.713C13.177 30.169 15.2031 31.8063 17.5568 31.8473C18.2322 31.8677 18.969 31.9291 19.6444 31.8268C20.2789 31.7245 20.5245 31.3356 19.4397 31.3765C18.3959 31.4175 17.6387 31.4379 16.3902 31.1309C15.1213 30.8239 14.0161 29.3913 13.9752 27.9381C13.9342 26.8329 14.1389 25.871 14.364 24.8272C14.3845 24.7658 14.3845 24.7044 14.364 24.643C14.3231 24.5611 14.2003 24.5611 14.1184 24.6021C14.0775 24.6225 14.057 24.643 14.0366 24.6635Z" fill="#E1E6F9" fill-opacity="0.26"/>
<path d="M22.0997 33.3205C22.0997 33.3205 23.0207 32.4813 23.0616 32.0515C23.1026 31.6422 23.1435 31.3352 22.7956 31.6217C21.7313 32.4199 20.5442 33.0339 19.2548 33.3205C18.4976 33.4842 17.6994 33.607 16.9012 33.607C16.0211 33.607 15.2434 33.2795 14.3838 33.1772C14.8136 34.2005 16.676 34.0982 17.5356 33.9754C19.0502 33.7503 20.5442 33.1772 22.0997 33.3205Z" fill="#1D3591"/>
<path d="M23.4918 33.1972C23.3281 33.0949 23.0825 33.3405 23.0006 33.4633C22.8164 33.7293 22.755 34.0568 22.6118 34.3433C22.2638 35.1006 21.5066 35.5509 20.8516 36.0625C20.3195 36.4923 19.8488 36.9631 19.3576 37.4133C19.0096 37.7408 18.5184 38.1297 18.457 38.6413C18.6822 38.6618 18.8868 38.4981 19.0301 38.3139C19.1529 38.1501 19.2552 37.9864 19.378 37.8227C19.8488 37.1473 20.5856 36.7175 21.22 36.2058C21.7317 35.776 22.182 35.2848 22.5913 34.7527C22.7345 34.5889 23.7374 33.3405 23.4918 33.1972Z" fill="url(#paint0_linear_978_9200)"/>
<path d="M19.5217 41.0765C19.5217 41.0356 19.4603 41.0151 19.4399 41.0561C19.3375 41.1789 19.1943 41.4449 19.4194 41.8747C19.7469 42.4683 19.7264 43.246 20.4427 42.9799C21.1591 42.7139 25.8868 40.3602 24.9454 40.2374C24.6384 40.1965 24.0448 40.4216 24.0448 40.4216L20.5655 41.6701C20.5451 41.6701 19.5831 41.9566 19.5217 41.0765Z" fill="#1D3591"/>
<path d="M30.1641 41.0147C30.1641 41.0147 31.1055 39.7458 31.4944 41.5059C31.8628 43.266 29.2021 47.5231 29.2021 47.5231C29.2021 47.5231 30.6348 43.0614 30.6143 42.0176C30.6143 41.9971 30.7781 41.3217 30.1641 41.0147Z" fill="#1D3591"/>
<path d="M31.5354 40.2383C31.5558 40.2383 31.5967 40.2587 31.6172 40.2792C32.047 40.5657 32.4359 40.9341 32.661 41.4049C33.1317 42.3054 33.0499 43.4311 32.7838 44.4135C32.4768 45.5391 32.0879 46.6239 31.6786 47.7086C31.3102 48.6501 31.0237 49.6529 30.3688 50.4307C30.2664 49.6734 30.5734 48.9161 30.86 48.1998C31.433 46.7467 31.9242 45.2731 32.3745 43.7995C32.5587 43.1855 32.6201 42.7147 32.354 42.1212C32.1084 41.5891 31.6991 41.1388 31.433 40.6067C31.3716 40.4839 31.3512 40.2587 31.4944 40.2587C31.4944 40.2383 31.5149 40.2383 31.5354 40.2383Z" fill="url(#paint1_linear_978_9200)"/>
<path d="M92.9347 2.86419C92.9347 2.86419 91.9319 1.67712 90.8472 2.57765C89.7624 3.45772 89.4964 4.52198 90.1513 5.44298C91.3793 7.18265 93.9581 14.1618 89.3531 13.5682C87.1632 13.2817 79.6519 13.2203 81.2688 17.682C82.026 19.8106 83.295 21.407 84.8504 22.8396C85.4644 23.3922 85.137 24.436 84.3388 24.5179C82.8447 24.6816 81.2483 24.1904 79.9999 23.4332C76.5001 21.3046 72.2226 19.5036 70.5034 21.714C68.3953 24.436 70.9946 31.3333 71.5881 34.1372C71.629 34.3623 71.7314 34.6079 71.8746 34.7921C72.8775 36.0201 75.5995 35.5085 76.2135 34.1781C76.2135 34.1781 73.8599 24.17 74.2487 23.3922C74.6376 22.6145 75.62 22.2666 77.6871 23.6788C79.7543 25.1114 85.5668 27.6084 87.8795 25.2956C90.1922 22.9829 87.2041 20.1585 87.2041 20.1585C86.4673 19.4626 85.751 18.7872 85.096 18.03C84.3797 17.1908 82.988 15.3898 85.1574 15.4921C88.3093 15.6354 91.9114 16.6178 94.4902 14.2436C96.2503 12.6268 96.9462 9.94564 95.9843 7.73525C94.3469 4.09218 92.9347 2.86419 92.9347 2.86419Z" fill="#0010E9"/>
<path d="M92.0745 4.50096C92.5043 5.42196 93.3025 6.13829 93.7937 7.03882C94.2645 7.89842 94.4077 8.92175 94.3463 9.88368C94.2849 10.8252 93.9984 11.6847 93.7528 12.5853C93.63 13.0355 93.4253 13.8337 94.1621 13.3221C95.2878 12.5648 95.4106 10.7228 95.3287 9.49482C95.2264 7.91889 94.5714 6.36342 93.5481 5.17636C93.1593 4.74656 92.6885 4.35769 92.0745 4.50096C92.0745 4.50096 92.0541 4.48049 92.0745 4.50096Z" fill="url(#paint2_linear_978_9200)"/>
<path d="M74.3095 21.5693C74.2686 21.5693 74.2072 21.5693 74.1662 21.5898C73.4499 21.7331 72.8154 21.9991 72.3652 22.388C71.4646 23.1453 71.3828 24.2505 71.6079 25.3147C71.874 26.5018 72.2424 27.6889 72.6517 28.8555C73.0201 29.8788 73.2862 30.9431 74.1458 31.905C74.4323 31.1887 74.1048 30.3495 73.8183 29.5718C73.2248 27.9959 72.7336 26.3995 72.3652 24.8031C72.2014 24.1686 72.181 23.6569 72.7131 23.1657C73.2043 22.7155 73.8797 22.388 74.3914 21.9377C74.5142 21.8354 74.5756 21.6307 74.3709 21.5693C74.3504 21.5693 74.33 21.5693 74.3095 21.5693Z" fill="url(#paint3_linear_978_9200)"/>
<path d="M83.0291 20.8945C83.5612 21.222 84.0729 21.5699 84.5641 21.9383C84.9734 22.2453 85.4032 22.5319 85.7511 22.9207C86.2014 23.4119 86.447 24.3125 86.1605 24.9265C85.8535 25.6019 84.912 25.4586 84.298 25.3767C83.6226 25.2744 82.9472 25.0697 82.3128 24.7627C81.842 24.5376 81.4327 24.1487 80.9824 23.9236C80.9824 23.9236 83.2542 25.0697 84.7483 24.3534C84.7483 24.3534 85.5055 23.8827 85.0757 23.1254C84.6255 22.3886 83.0291 20.8945 83.0291 20.8945Z" fill="#1D3591"/>
<path d="M91.1546 7.44922C91.257 7.71529 91.5639 7.89948 91.7481 8.10415C91.9937 8.39068 92.2189 8.69768 92.4031 9.04562C92.9352 10.028 93.0785 11.3379 92.8329 12.4021C92.6487 13.2003 92.137 13.8553 91.3593 14.1009C91.1137 14.1827 90.0494 13.6301 90.3974 13.5278C90.7453 13.4255 91.7686 13.3027 91.9528 11.5835C92.1165 9.88475 91.1546 7.44922 91.1546 7.44922Z" fill="#1D3591"/>
<defs>
<linearGradient id="paint0_linear_978_9200" x1="18.4793" y1="35.9113" x2="23.5334" y2="35.9113" gradientUnits="userSpaceOnUse">
<stop offset="0.00144676" stop-color="#2A50E1" stop-opacity="0.51"/>
<stop offset="0.9565" stop-color="#CBECEC"/>
</linearGradient>
<linearGradient id="paint1_linear_978_9200" x1="30.3617" y1="45.3344" x2="33.0147" y2="45.3344" gradientUnits="userSpaceOnUse">
<stop offset="0.00144676" stop-color="#2A50E1" stop-opacity="0.51"/>
<stop offset="0.9565" stop-color="#CBECEC"/>
</linearGradient>
<linearGradient id="paint2_linear_978_9200" x1="67.7145" y1="8.96807" x2="95.8736" y2="8.96696" gradientUnits="userSpaceOnUse">
<stop offset="0.00144676" stop-color="#2A50E1" stop-opacity="0.51"/>
<stop offset="0.9565" stop-color="#CBECEC"/>
</linearGradient>
<linearGradient id="paint3_linear_978_9200" x1="75.1327" y1="26.8857" x2="71.1187" y2="26.1245" gradientUnits="userSpaceOnUse">
<stop offset="0.00144676" stop-color="#2A50E1" stop-opacity="0.51"/>
<stop offset="0.9565" stop-color="#CBECEC"/>
</linearGradient>
</defs>
</svg>
