<svg width="24" height="24" viewBox="0 0 24 24" fill="none" xmlns="http://www.w3.org/2000/svg">
<path d="M20.3564 2C20.7674 2.00023 21.1139 2.34687 21.1572 2.75781L21.1553 21.4316C21.1553 21.8006 20.9607 22.1468 20.6357 22.3203C20.3108 22.4937 19.9211 22.4719 19.6182 22.2773L18.2529 21.3682C17.9712 21.1947 17.6255 21.1947 17.3438 21.3682L15.7402 22.4287C15.5888 22.5369 15.3937 22.6025 15.1992 22.6025C15.0038 22.6025 14.8092 22.537 14.6357 22.4287L13.0322 21.3682C12.7505 21.1948 12.4048 21.1947 12.123 21.3682L10.5205 22.4287C10.1956 22.6453 9.762 22.6453 9.41504 22.4287L7.8125 21.3682C7.5307 21.1947 7.18414 21.1947 6.90234 21.3682L5.53711 22.2773C5.23421 22.4718 4.84437 22.4937 4.51953 22.3203C4.19468 22.1468 4 21.7997 4 21.4316V2.75781C4.00023 2.34687 4.34687 2.00023 4.75781 2H20.3564ZM8.49512 10.4844C7.74758 10.4845 7.14185 11.0904 7.1416 11.8379C7.1416 12.5856 7.74742 13.1923 8.49512 13.1924H16.6191C17.3669 13.1924 17.9727 12.5857 17.9727 11.8379C17.9724 11.0903 17.3668 10.4844 16.6191 10.4844H8.49512ZM8.49512 5.06836C7.74754 5.06859 7.1416 5.67522 7.1416 6.42285C7.14181 7.17031 7.74766 7.77613 8.49512 7.77637H16.6191C17.3668 7.77637 17.9734 7.17046 17.9736 6.42285C17.9736 5.67507 17.3669 5.06836 16.6191 5.06836H8.49512Z" fill="#191A1E"/>
</svg>
