<svg width="16" height="16" viewBox="0 0 16 16" fill="none" xmlns="http://www.w3.org/2000/svg">
<path d="M11.7712 11.1045L8.94251 13.9331C8.8188 14.057 8.6719 14.1552 8.51021 14.2222C8.34852 14.2892 8.17521 14.3237 8.00017 14.3237C7.82514 14.3237 7.65183 14.2892 7.49013 14.2222C7.32844 14.1552 7.18154 14.057 7.05784 13.9331L4.22851 11.1045C3.48265 10.3586 2.97473 9.40827 2.76896 8.37371C2.5632 7.33916 2.66883 6.26681 3.07251 5.29229C3.47618 4.31777 4.15977 3.48483 5.03683 2.89881C5.91388 2.31279 6.94502 2 7.99984 2C9.05466 2 10.0858 2.31279 10.9629 2.89881C11.8399 3.48483 12.5235 4.31777 12.9272 5.29229C13.3308 6.26681 13.4365 7.33916 13.2307 8.37371C13.0249 9.40827 12.517 10.3586 11.7712 11.1045Z" stroke="#171717" stroke-width="1.2" stroke-linecap="round" stroke-linejoin="round"/>
<path d="M10 7.3335C10 7.86393 9.78929 8.37264 9.41421 8.74771C9.03914 9.12278 8.53043 9.3335 8 9.3335C7.46957 9.3335 6.96086 9.12278 6.58579 8.74771C6.21071 8.37264 6 7.86393 6 7.3335C6 6.80306 6.21071 6.29436 6.58579 5.91928C6.96086 5.54421 7.46957 5.3335 8 5.3335C8.53043 5.3335 9.03914 5.54421 9.41421 5.91928C9.78929 6.29436 10 6.80306 10 7.3335Z" stroke="#171717" stroke-width="1.2" stroke-linecap="round" stroke-linejoin="round"/>
</svg>
