<svg width="40" height="40" viewBox="0 0 40 40" fill="none" xmlns="http://www.w3.org/2000/svg">
<rect width="40" height="40" rx="6" fill="#2267AE"/>
<path d="M26.9088 12.3182C26.9978 12.9702 27.9861 13.8487 28.2537 13.8282C28.4326 13.8282 28.5008 12.977 28.5008 12.3182C28.5008 11.9406 28.5218 11.6454 28.3226 11.5767C28.0068 12.2153 27.1763 12.3457 26.9088 12.3182ZM26.9636 12.0298C27.677 12.0298 28.3296 11.4603 28.3296 10.9592C28.3296 10.7257 28.2196 10.5338 27.938 10.4996C27.9861 10.5614 28.0067 10.6095 28.0067 10.7189C28.0067 11.0966 27.4306 11.5154 26.8056 11.5154C26.5788 11.5154 26.5105 11.6729 26.5105 11.7553C26.5107 11.9475 26.6957 12.0298 26.9636 12.0298ZM26.8125 11.2544C26.7167 11.2544 26.579 11.2544 26.504 11.1035C26.4417 10.9799 26.4626 10.7808 26.3459 10.6915C26.4626 10.7257 26.586 10.7257 26.682 10.7257C26.9911 10.7257 27.2864 10.5133 27.5125 10.5133C27.6636 10.5133 27.7113 10.6095 27.7113 10.7052C27.7113 11.0071 27.1012 11.2544 26.8125 11.2544ZM11.4598 16.635C11.6928 16.635 11.6444 15.2074 12.0221 15.2074C12.1116 15.2074 12.139 15.2968 12.139 15.4064C12.139 15.729 11.981 16.2026 11.981 16.4634C11.981 16.5937 12.0154 16.635 12.077 16.635C12.242 16.635 12.5301 15.0633 12.8116 15.0633C12.9008 15.0633 12.9419 15.1525 12.9419 15.2418C12.9419 15.571 12.5233 16.5182 12.5233 16.7856C12.5233 16.8269 12.5371 16.8611 12.5712 16.8611C12.743 16.8611 13.0863 16.12 13.1961 15.7495C13.2577 15.5573 13.34 15.4544 13.4154 15.4544C13.484 15.4544 13.5458 15.5301 13.5458 15.6877C13.5458 16.0583 13.2029 16.93 12.9007 17.5134C12.6672 17.9661 12.3036 18.6184 12.3036 18.9823C12.3036 19.1675 12.3382 19.3595 12.6054 19.593C12.1662 19.5656 11.988 19.5245 11.823 19.1813C11.0886 20.6428 13.1752 20.4993 12.4615 21.7962C12.3314 21.5629 11.3017 21.3226 11.3017 19.9639C11.3017 18.7899 12.3314 18.1037 12.3314 17.6164C12.3314 17.5204 12.2968 17.438 12.2078 17.3627C11.981 17.1705 11.9743 17.0125 11.7958 17.0125C11.6655 17.0125 11.5077 17.3146 11.6722 17.582C11.7272 17.6712 11.7754 17.7263 11.7754 17.8088C11.7754 18.001 11.4736 18.5155 11.2607 18.5155C11.048 18.5155 10.8831 17.9873 10.8831 17.1363C10.8831 16.3811 11.0547 15.6196 11.2676 15.6196C11.3292 15.6196 11.3499 15.6607 11.3499 15.7156C11.3499 15.8048 11.3224 15.9828 11.3224 16.2851C11.3222 16.6074 11.3978 16.635 11.4598 16.635ZM21.9737 9.88824C22.0837 9.88824 22.1044 10.1562 22.1248 10.3141C22.1385 10.3964 22.1522 10.4034 22.1868 10.4034C22.2691 10.4034 22.3995 10.0875 22.4884 10.0875C22.6194 10.0875 22.9693 10.4515 23.5523 10.4515C24.3828 10.4515 25.1655 9.86785 25.1655 8.83847C25.1655 7.84317 24.4651 7.25968 23.4975 7.25968C23.0376 7.25968 22.7015 7.48613 22.5229 7.48613C22.4132 7.49298 22.2484 7.21875 22.1658 7.21875C22.1314 7.21875 22.0974 7.28707 22.0974 7.4038C22.0974 7.47929 22.0974 7.71975 22.0148 7.71975C21.8503 7.71975 21.212 7.24583 21.212 7.41765C21.212 7.57563 21.6375 8.05623 21.6375 8.1795C21.6375 8.30323 21.219 8.4198 21.219 8.50213C21.219 8.65326 21.6652 8.68065 21.6652 8.87286C21.6652 9.06476 21.198 9.21589 21.198 9.36016C21.198 9.47689 21.6652 9.3944 21.6652 9.53868C21.6652 9.6828 21.322 10.1629 21.322 10.3004C21.322 10.3349 21.3287 10.3349 21.3564 10.3349C21.4864 10.3348 21.878 9.88824 21.9737 9.88824ZM13.1685 20.0324C13.1615 19.8951 13.2577 19.7645 13.4017 19.7508C13.5458 19.7301 13.6764 19.84 13.6899 19.9841C13.7039 20.1284 13.6007 20.2521 13.4565 20.2725C13.3126 20.2797 13.1824 20.1765 13.1685 20.0324ZM12.4068 20.2451C12.4344 20.4786 12.6537 20.6565 12.9008 20.6292C12.99 20.6222 13.0727 20.5948 13.1273 20.5603C13.1824 20.7802 13.3536 20.9175 13.6076 20.8899C13.8616 20.8695 14.0402 20.6565 14.0127 20.4031C14.0127 20.3346 13.9922 20.2934 13.9716 20.2451L14.0197 20.2383C14.2597 20.2109 14.4449 19.9911 14.4242 19.7508C14.397 19.5035 14.1707 19.3251 13.9372 19.3457C13.8479 19.3664 13.7724 19.3936 13.7176 19.4417C13.6557 19.2361 13.4772 19.0713 13.2235 19.0988C12.9832 19.1125 12.7976 19.3457 12.8252 19.5995C12.8252 19.6341 12.8387 19.689 12.8596 19.737L12.8115 19.7437C12.5712 19.778 12.3861 19.9774 12.4068 20.2451ZM27.6979 7.65796C27.6976 7.68056 27.7019 7.703 27.7104 7.72394C27.7189 7.74488 27.7315 7.7639 27.7475 7.77989C27.7635 7.79589 27.7825 7.80853 27.8034 7.81707C27.8244 7.82561 27.8468 7.82988 27.8694 7.82963C27.9654 7.82963 28.0412 7.7543 28.0412 7.65796C28.0412 7.56177 27.9656 7.48613 27.8694 7.48613C27.773 7.48613 27.6979 7.56177 27.6979 7.65796ZM23.8684 14.1642C23.8684 14.3222 23.9988 14.4526 24.1564 14.4526C24.2327 14.4522 24.3058 14.4216 24.3597 14.3676C24.4137 14.3136 24.4442 14.2405 24.4446 14.1642C24.4441 14.0879 24.4135 14.0149 24.3596 13.961C24.3056 13.907 24.2326 13.8765 24.1564 13.876C23.9988 13.876 23.8684 14.0067 23.8684 14.1642ZM23.8888 15.0288C23.8888 15.0711 23.8971 15.1131 23.9132 15.1522C23.9294 15.1913 23.9531 15.2269 23.983 15.2569C24.013 15.2869 24.0485 15.3107 24.0876 15.3269C24.1267 15.3431 24.1686 15.3515 24.211 15.3516C24.2533 15.3516 24.2953 15.3433 24.3344 15.3271C24.3736 15.311 24.4091 15.2873 24.4391 15.2573C24.4691 15.2274 24.4929 15.1919 24.5091 15.1528C24.5253 15.1137 24.5337 15.0717 24.5338 15.0294C24.5339 14.9439 24.5 14.8618 24.4395 14.8013C24.3791 14.7407 24.2971 14.7067 24.2116 14.7066C24.1261 14.7065 24.044 14.7404 23.9835 14.8008C23.9229 14.8613 23.8889 14.9433 23.8888 15.0288ZM22.9005 15.6123C22.9007 15.7378 22.9507 15.8581 23.0395 15.9469C23.1282 16.0357 23.2486 16.0857 23.3741 16.0859C23.4996 16.0855 23.6198 16.0355 23.7085 15.9467C23.7972 15.858 23.8471 15.7377 23.8474 15.6123C23.8471 15.4868 23.7972 15.3666 23.7085 15.2779C23.6198 15.1892 23.4996 15.1393 23.3741 15.139C23.2486 15.1391 23.1283 15.189 23.0395 15.2777C22.9507 15.3664 22.9007 15.4867 22.9005 15.6123ZM23.1544 14.6448C23.1544 14.7961 23.2778 14.9195 23.4289 14.9195C23.58 14.9195 23.7038 14.7961 23.7038 14.6448C23.7038 14.4939 23.58 14.3703 23.4289 14.3703C23.2778 14.3703 23.1544 14.4939 23.1544 14.6448ZM22.2549 15.1938C22.2549 15.2666 22.2839 15.3365 22.3354 15.388C22.3869 15.4395 22.4568 15.4685 22.5296 15.4685C22.6025 15.4685 22.6724 15.4395 22.7239 15.388C22.7754 15.3365 22.8043 15.2666 22.8043 15.1938C22.8019 15.1225 22.7719 15.055 22.7207 15.0054C22.6694 14.9558 22.6009 14.9281 22.5296 14.9281C22.4583 14.9281 22.3898 14.9558 22.3386 15.0054C22.2873 15.055 22.2573 15.1225 22.2549 15.1938ZM22.9623 13.5879C22.963 13.7042 23.0095 13.8155 23.0917 13.8977C23.174 13.9799 23.2852 14.0265 23.4015 14.0273C23.5178 14.0264 23.629 13.9799 23.7112 13.8977C23.7934 13.8154 23.8399 13.7041 23.8407 13.5879C23.84 13.4716 23.7935 13.3603 23.7113 13.2781C23.6291 13.1959 23.5178 13.1494 23.4015 13.1487C23.2853 13.1494 23.174 13.1959 23.0918 13.2781C23.0095 13.3603 22.963 13.4716 22.9623 13.5879ZM23.4772 12.7436C23.4763 12.7783 23.4824 12.8129 23.4951 12.8453C23.5077 12.8777 23.5268 12.9073 23.5511 12.9322C23.5753 12.9571 23.6044 12.9769 23.6364 12.9904C23.6685 13.004 23.7029 13.011 23.7377 13.011C23.7725 13.011 23.8069 13.0041 23.839 12.9906C23.8711 12.9771 23.9001 12.9574 23.9244 12.9325C23.9488 12.9076 23.9679 12.8781 23.9806 12.8458C23.9934 12.8134 23.9995 12.7788 23.9987 12.744C23.9971 12.676 23.9689 12.6112 23.9203 12.5636C23.8716 12.516 23.8062 12.4894 23.7381 12.4893C23.6701 12.4892 23.6047 12.5158 23.5559 12.5633C23.5071 12.6108 23.4789 12.6755 23.4772 12.7436ZM22.2345 13.4024C22.2345 13.4716 22.262 13.538 22.311 13.5869C22.3599 13.6359 22.4263 13.6634 22.4955 13.6634C22.5648 13.6634 22.6312 13.6359 22.6801 13.5869C22.7291 13.538 22.7566 13.4716 22.7566 13.4024C22.7566 13.2581 22.6398 13.1418 22.4954 13.1418C22.3513 13.1418 22.2345 13.2581 22.2345 13.4024ZM22.2001 14.2946C22.2001 14.5281 22.3855 14.7136 22.6193 14.7136C22.6744 14.7139 22.7289 14.7033 22.7799 14.6823C22.8308 14.6613 22.8771 14.6305 22.916 14.5915C22.9549 14.5525 22.9857 14.5062 23.0066 14.4553C23.0274 14.4043 23.038 14.3497 23.0376 14.2946C23.038 14.2396 23.0274 14.185 23.0065 14.1341C22.9856 14.0831 22.9548 14.0369 22.9159 13.9979C22.877 13.959 22.8307 13.9282 22.7798 13.9072C22.7289 13.8863 22.6743 13.8757 22.6193 13.876C22.5642 13.8756 22.5095 13.8862 22.4586 13.9071C22.4076 13.928 22.3612 13.9588 22.3222 13.9977C22.2833 14.0367 22.2524 14.083 22.2314 14.1339C22.2105 14.1849 22.1998 14.2395 22.2001 14.2946ZM21.3357 14.7342C21.3357 14.9471 21.5141 15.1253 21.727 15.1253C21.9395 15.1253 22.118 14.9471 22.118 14.7342C22.118 14.5214 21.9396 14.3429 21.727 14.3429C21.5141 14.3429 21.3357 14.5214 21.3357 14.7342ZM21.5689 13.7664C21.5689 13.9174 21.6926 14.0411 21.8437 14.0411C21.9164 14.0408 21.9861 14.0117 22.0375 13.9603C22.0888 13.9088 22.1178 13.8391 22.118 13.7664C22.118 13.6153 21.9946 13.4917 21.8437 13.4917C21.7709 13.4919 21.7011 13.5209 21.6496 13.5723C21.5981 13.6238 21.5691 13.6936 21.5689 13.7664ZM20.6562 23.8831C20.6562 24.0335 20.7796 24.1569 20.9308 24.1569C21.0813 24.1569 21.205 24.0335 21.205 23.8831C21.2049 23.8104 21.176 23.7406 21.1246 23.6891C21.0732 23.6376 21.0035 23.6084 20.9308 23.6081C20.7796 23.6081 20.6562 23.7315 20.6562 23.8831ZM13.2717 12.5101C13.2717 12.6612 13.395 12.7848 13.5458 12.7848C13.6186 12.7846 13.6884 12.7556 13.7399 12.7042C13.7914 12.6527 13.8204 12.5829 13.8206 12.5101C13.8203 12.4374 13.7912 12.3677 13.7397 12.3163C13.6882 12.265 13.6185 12.236 13.5458 12.2359C13.395 12.2359 13.2717 12.3594 13.2717 12.5101ZM12.9145 11.8925C12.9147 11.9654 12.9438 12.0351 12.9953 12.0866C13.0468 12.1381 13.1166 12.1671 13.1894 12.1672C13.34 12.1672 13.4633 12.0437 13.4633 11.8925C13.4633 11.7416 13.34 11.6178 13.1894 11.6178C13.1166 11.618 13.0468 11.647 12.9953 11.6985C12.9438 11.7499 12.9147 11.8197 12.9145 11.8925ZM13.2098 18.6458C13.4979 18.6458 13.7383 18.4329 13.7383 17.9596V17.2597C13.7383 16.9918 13.7585 16.6896 13.9372 16.4771C13.9167 16.5665 13.9167 16.6625 13.9167 16.7514C13.9167 17.3419 14.246 17.7468 14.246 18.3168C14.246 18.5292 14.1844 18.6459 14.0197 18.6459C13.8616 18.6459 13.8754 18.5018 13.8412 18.5018C13.8138 18.5018 13.7726 18.591 13.7726 18.6869C13.7726 18.8313 13.8756 19.0578 14.164 19.0578C14.4108 19.0578 14.6099 18.8313 14.6099 18.5771C14.6099 17.9597 14.1299 17.2735 14.1299 16.6146C14.1299 16.3262 14.2048 16.1341 14.2667 15.9828C14.2667 17.349 15.4267 18.3443 15.4267 18.9138C15.4267 19.0442 15.3306 19.1472 15.1864 19.1472C15.0289 19.1472 14.9532 19.0237 14.9532 18.9275C14.9532 18.8792 14.9464 18.8657 14.9258 18.8657C14.8846 18.8657 14.7608 19.003 14.7608 19.1815C14.7608 19.4076 14.9462 19.6823 15.2894 19.6823C15.6807 19.6823 15.8937 19.3528 15.8937 19.0578C15.8937 18.3373 14.4865 17.2457 14.4865 16.079C14.4865 15.8798 14.5207 15.5575 14.665 15.3105C13.7587 15.8935 13.4775 16.6695 13.4775 17.3489C13.4775 17.9389 13.4568 18.2341 13.155 18.2341C12.9972 18.2341 12.9561 18.09 12.9011 18.09C12.8599 18.09 12.8392 18.2137 12.8392 18.248C12.8387 18.5017 13.0242 18.6458 13.2098 18.6458ZM25.1037 11.7897C25.4055 11.7897 25.6323 11.6522 25.6323 11.5699C25.6323 11.5424 25.5909 11.5223 25.5015 11.5223C25.4125 11.5223 25.2337 11.5154 24.8975 11.4603C24.6089 11.4124 24.3892 11.3027 24.3069 11.3027C24.2792 11.3027 24.2658 11.3162 24.2658 11.3368C24.2661 11.5153 24.5956 11.7897 25.1037 11.7897ZM23.6076 10.9179C23.6966 10.863 24.0806 10.9522 24.5822 10.705C24.6365 10.6744 24.6977 10.6579 24.7601 10.6572C25.0008 10.6572 24.9387 10.9316 25.1588 10.9316C25.3303 10.9316 25.5501 10.7875 25.6805 10.7875C25.8856 10.7875 26.1812 11.4328 26.1812 11.7347C26.1812 12.0846 25.6531 12.2975 25.0282 12.2975C24.1151 12.2975 23.5663 11.5013 23.5663 10.9864C23.5663 10.9453 23.5869 10.9316 23.6076 10.9179ZM13.3534 21.2333C13.1271 21.2883 12.7634 21.6452 12.7634 22.2085C12.7634 22.8804 13.484 23.9172 14.6715 23.9172C15.6737 23.9172 15.9203 23.2237 15.9203 22.7568C15.9203 21.7209 15.2821 20.9929 14.4518 20.9929C13.9987 20.9929 13.5937 21.3226 13.5937 21.8099C13.5937 22.2631 13.9369 22.9423 14.7537 22.9423C15.1378 22.9423 15.3644 22.6674 15.3644 22.3517C15.3644 22.0435 15.0827 21.6177 14.6712 21.6177C14.5475 21.6177 14.4583 21.7 14.4583 21.8306C14.4583 21.9953 14.6851 22.1601 14.9664 22.1601C15.0351 22.1601 15.0896 22.1464 15.1173 22.1325C15.131 22.1532 15.1378 22.1876 15.1378 22.215C15.1378 22.3724 14.9871 22.4684 14.7537 22.4684C14.4035 22.4684 14.0673 22.2082 14.0673 21.796C14.0673 21.5489 14.2798 21.3702 14.589 21.3702C15.1994 21.3702 15.5635 21.9129 15.5635 22.4545C15.5635 22.9423 15.2956 23.2235 14.7468 23.2235C13.6488 23.2237 13.1136 22.2356 13.3534 21.2333ZM12.6674 13.7733C12.5094 13.8145 12.1802 14.0067 12.1802 14.3496C12.1802 14.5969 12.3723 14.7549 12.6124 14.7549C12.736 14.7549 12.8253 14.7272 12.8801 14.6861C12.6879 14.5009 12.6193 14.2948 12.6193 14.0892C12.6193 13.9449 12.6398 13.8556 12.6674 13.7733ZM10.9859 13.8693C10.979 13.9035 10.979 13.9379 10.979 13.9722C10.979 14.2946 11.1507 14.4732 11.3775 14.4732C11.5488 14.4732 11.7479 14.3701 11.9262 14.1435C11.8446 14.1574 11.762 14.1643 11.6792 14.1641C11.4251 14.1642 11.1507 14.0959 10.9859 13.8693ZM10.7459 14.4802C10.7459 15.0017 10.9032 15.2487 11.1851 15.2487C11.4047 15.2487 11.6998 15.0909 12.05 14.7891C11.7821 14.8509 11.5765 14.892 11.3911 14.892C11.1438 14.892 10.9515 14.7959 10.7459 14.4802ZM21.1913 25.2554C21.5208 25.2554 21.5001 25.2278 21.6034 25.2278C21.7065 25.2278 21.7128 25.2896 21.7128 25.3307C21.7128 25.482 21.3764 25.667 20.7796 25.667C20.4292 25.667 20.2167 25.482 20.1552 25.2759C19.8116 25.4955 19.2904 25.6946 18.776 25.6946C17.3689 25.6946 17.0117 25.0836 16.5726 24.8843C16.2363 24.7334 15.7216 25.0285 15.0012 24.2254C15.0969 24.2459 15.2273 24.2528 15.3305 24.2528C15.9619 24.2528 16.2982 23.9445 16.2982 23.4503C16.2982 23.3885 16.2914 23.3196 16.2845 23.2581C16.4769 23.3334 16.916 23.6632 17.0187 24.2461C17.0325 24.3147 17.3139 24.3765 17.4926 24.3765C17.7394 24.3765 18.0552 24.2735 18.1033 23.869C18.9269 23.8006 19.4824 23.3129 19.5991 22.695C19.8944 22.7912 20.2302 23.0589 20.3129 23.1963C20.4293 23.1549 20.5667 23.1345 20.7247 23.1345C20.9445 23.1345 21.1913 23.1758 21.4866 23.2651C21.5002 23.1758 21.5143 23.0659 21.6517 23.0659C21.8574 23.0659 21.8025 23.2925 21.8711 23.4229C21.9055 23.4915 22.0769 23.5326 22.0769 23.6702C22.0769 23.8008 21.9668 23.8486 21.8987 23.8486C21.871 23.8486 21.8367 23.8419 21.816 23.835C21.6789 23.8833 21.6719 24.871 21.0953 24.871C20.6698 24.871 20.2785 24.5209 20.1075 24.0816C20.0592 23.9515 19.9562 23.8691 19.86 23.8691C19.75 23.8691 19.6885 23.8901 19.5581 24.0336C19.1878 24.4386 18.5702 24.7886 17.8084 24.7886C17.5751 24.7886 17.3899 24.7682 17.3415 24.7682C17.3141 24.7682 17.3141 24.7751 17.3141 24.7819C17.3141 24.83 17.5475 25.0152 18.0554 25.0152C19.2631 25.0152 19.5581 24.3356 19.7501 24.3356C19.778 24.3356 19.8601 24.3356 19.9082 24.4454C20.1896 25.1046 20.8005 25.2557 21.1848 25.2557H21.1913V25.2554ZM17.2932 11.4603C17.7458 11.4603 17.952 11.8514 17.952 12.2908C17.952 12.4829 17.8972 12.7643 17.8081 12.7643C17.7187 12.7643 17.7324 12.6063 17.7187 12.462C17.705 12.2771 17.6706 12.2359 17.6093 12.2359C17.4926 12.2359 17.4171 12.5101 17.4171 12.7643C17.4171 12.9222 17.4442 13.1006 17.5679 13.1006C17.6362 13.1006 17.6982 13.0662 17.7394 13.0253C17.7119 13.3407 17.4787 13.6153 17.1493 13.6153C16.5451 13.6153 16.3186 12.9084 16.25 12.4966C15.8867 12.881 15.5501 13.1624 14.9461 13.1624C14.3833 13.1624 14.1296 12.7506 14.1296 12.3594C14.1296 12.2426 14.1707 11.9406 14.3143 11.9406C14.4861 11.9406 14.3349 12.5034 14.6715 12.5034C14.7538 12.5034 14.9048 12.4348 14.9873 12.2085C15.0354 12.0712 15.0625 11.9269 15.0625 11.8032C15.0625 11.6178 15.0215 11.5014 14.8841 11.5014C14.7672 11.5014 14.6231 11.5906 14.5752 11.6384C14.74 11.1444 15.1378 10.8904 15.5772 10.8904C16.1194 10.8904 16.4078 11.371 16.4078 11.9062C16.4077 11.9845 16.4008 12.0625 16.3871 12.1395C16.621 11.7551 16.9433 11.4603 17.2932 11.4603ZM15.5706 7.36956C15.5706 7.32832 15.3649 7.28707 15.0832 7.28707C14.6373 7.28707 14.6992 7.65796 14.356 7.65796C13.9992 7.65796 14.0883 7.27353 13.6354 7.27353C13.3606 7.27353 13.107 7.32163 13.107 7.38341C13.107 7.46575 13.4294 7.43151 13.4294 7.65811C13.4294 7.89842 12.7363 7.96721 12.7363 8.11086C12.7363 8.15895 12.7913 8.1795 12.8599 8.1795C13.0109 8.1795 13.2513 8.11086 13.4224 8.11086C13.5187 8.11086 13.6079 8.13172 13.6079 8.2209C13.6079 8.39257 13.2376 8.70135 13.2376 8.83878C13.2376 8.88018 13.272 8.89387 13.3063 8.89387C13.4432 8.89387 13.6768 8.54353 13.8964 8.54353C14.2602 8.54353 14.0202 9.31923 14.2188 9.31923C14.4247 9.31923 14.3355 8.55739 14.6307 8.55739C14.871 8.55739 15.0497 9.08577 15.2142 9.08577C15.2552 9.08577 15.2895 9.05153 15.2895 9.00329C15.2895 8.85948 15.0835 8.56423 15.0835 8.37187C15.0835 8.25514 15.166 8.2002 15.2759 8.2002C15.4338 8.2002 15.6467 8.29638 15.7633 8.29638C15.8046 8.29638 15.8456 8.28269 15.8456 8.23459C15.8456 8.06977 15.2346 7.89157 15.2346 7.67866C15.2343 7.46559 15.5706 7.46559 15.5706 7.36956ZM25.3509 20.8832C25.2064 20.8832 24.41 21.9473 23.8957 21.9473C23.7722 21.9473 23.6692 21.7139 23.6692 21.5355C23.6692 21.4393 23.7308 21.3704 23.9511 21.3227C25.1311 21.0549 24.8699 20.1698 25.8786 20.1698C26.4349 20.1698 27.0529 20.5477 27.0529 21.3984C27.0529 22.3039 25.7628 23.4301 25.5705 23.4301C25.4127 23.4301 25.241 23.2033 25.241 23.0523C25.241 23.0042 25.2617 22.9426 25.3991 22.8875C26.0575 22.6264 26.435 22.023 26.435 21.714C26.435 21.6455 26.4009 21.5767 26.3116 21.5767C26.1946 21.5767 25.6942 22.7157 25.1383 22.7157C24.7534 22.7157 24.3623 22.3657 24.3623 22.2015C24.3623 21.9268 25.4743 21.4186 25.4743 21.034C25.474 20.8899 25.4056 20.8832 25.3509 20.8832ZM26.0917 20.4579C25.9954 20.4579 25.8923 20.5337 25.8923 20.7182C25.8923 20.9243 26.0508 21.0547 26.1398 21.0958C26.2006 21.1302 26.269 21.1491 26.3389 21.1508C26.5379 21.1508 26.6957 21.0958 26.6957 20.931C26.6957 20.7183 26.3869 20.4579 26.0917 20.4579ZM17.1833 8.06962C17.1833 8.19319 17.616 8.46105 17.8148 8.46105C17.9315 8.46105 17.9659 8.30307 17.9659 8.1381C17.9659 7.93266 17.8764 7.9255 17.698 7.9255C17.472 7.9255 17.1833 7.98744 17.1833 8.06962ZM17.8974 9.42864C17.8974 9.01667 16.7721 8.25483 16.7721 7.94635C16.7721 7.93266 16.7721 7.92565 16.7787 7.91196C16.8612 7.68535 17.7944 7.52738 17.7944 7.34201C17.7944 7.25268 17.6299 7.25268 17.5475 7.25268C16.909 7.25268 15.9758 7.48613 15.9758 7.7129C15.9758 7.94635 16.8131 8.51599 16.8131 8.79753C16.8131 8.87286 16.7653 8.90057 16.6898 8.90057C16.4565 8.90057 15.9482 8.61902 15.7082 8.61902C15.5983 8.61902 15.5574 8.69435 15.5574 8.80423C15.5574 9.1334 15.9482 9.75828 15.9482 9.94333C15.9482 9.96388 15.9414 9.99143 15.9143 9.99143C15.7907 9.99143 15.2072 9.30522 15.0015 9.30522C14.926 9.30522 14.919 9.40825 14.919 9.55907V9.79252C14.919 9.95018 14.9121 10.0462 14.8366 10.0462C14.6581 10.0462 14.5756 9.54537 14.4041 9.54537C14.2255 9.54537 14.1917 10.4378 14.02 10.4378C13.821 10.4378 13.9923 9.45603 13.7999 9.45603C13.5873 9.45603 13.3469 10.1082 13.1964 10.1082C13.1413 10.1082 13.1276 10.0532 13.1276 10.005C13.1276 9.80637 13.2445 9.48358 13.2445 9.29137C13.2445 9.19519 13.2169 9.1404 13.1344 9.1404C12.9217 9.1404 12.4552 9.48374 12.2766 9.48374C12.2492 9.48374 12.2149 9.47004 12.2149 9.44234C12.2149 9.27752 12.9631 8.75613 12.9631 8.52268C12.9631 8.29607 11.9334 8.44704 11.9334 8.18619C11.9334 7.9669 12.6677 7.74013 12.6677 7.51353C12.6677 7.31462 11.796 7.2256 11.4601 7.2256C11.0548 7.2256 10.8352 7.27338 10.8352 7.39011C10.8352 7.56847 11.7549 7.62356 11.7549 7.78138C11.7549 7.93266 10.8008 8.33731 10.8008 8.57077C10.8008 8.77652 12.1461 8.58415 12.1461 8.79738C12.1461 9.03037 10.9723 10.0392 10.9723 10.3758C10.9723 10.4515 11.0274 10.4857 11.1026 10.4857C11.4599 10.4857 12.3863 9.80637 12.64 9.80637C12.7292 9.80637 12.7362 9.91579 12.7362 10.0118C12.7362 10.1905 12.6745 10.4649 12.6745 10.6641C12.6745 10.8218 12.7155 10.9315 12.853 10.9315C13.1069 10.9315 13.3402 10.4993 13.5117 10.4993C13.7316 10.4993 13.6009 11.7686 13.9307 11.7686C14.2116 11.7686 14.3283 10.3962 14.507 10.3962C14.6857 10.3962 14.8298 10.794 14.9945 10.794C15.2001 10.794 15.104 10.1008 15.3238 10.1008C15.5639 10.1008 16.2501 10.9245 16.5591 10.9245C16.6553 10.9245 16.6897 10.8488 16.6897 10.7528C16.6897 10.3894 16.1818 9.56576 16.1818 9.30475C16.1818 9.23596 16.2022 9.21542 16.2778 9.21542C16.5454 9.21542 17.3279 9.5863 17.6983 9.5863C17.8216 9.58661 17.8974 9.51798 17.8974 9.42864ZM27.266 17.3282C27.3757 16.9848 27.5125 16.7442 27.7387 16.374C27.5125 16.2574 26.9158 16.0102 26.9158 15.6054C26.9158 15.132 27.5064 14.7617 27.6289 14.7617C27.684 14.7617 27.6979 14.8098 27.6979 14.899C27.6979 15.1458 27.5808 15.5438 27.5808 15.7564C27.5808 15.9483 27.7046 16.1338 27.814 16.1338C27.931 16.1338 28.2535 15.722 28.2535 15.3173C28.2535 14.5899 27.6151 14.3703 27.417 14.3703C27.2313 14.3703 26.8948 14.6722 26.1049 14.6722C24.6295 14.6722 24.2935 13.2102 24.2935 12.5719C24.2935 12.5445 24.2998 12.5376 24.3069 12.5376C24.3416 12.5376 24.4855 12.716 24.9521 12.716C25.1926 12.716 25.4123 12.6544 25.7625 12.6544C26.5857 12.6544 26.9499 13.2243 27.4579 13.9518C27.766 14.1437 28.5005 14.4526 28.5005 15.3242C28.5005 16.0926 27.6837 16.5182 27.4853 17.3417C27.8004 17.3076 27.986 16.7444 28.3088 16.7444C28.4736 16.7444 28.5489 16.8751 28.5489 17.0809C28.5489 17.3833 28.3774 17.8358 28.0476 18.1174C28.0546 18.0898 28.0546 18.0555 28.0546 18.0145C28.0546 17.8222 27.979 17.5476 27.7592 17.5476C27.4169 17.5476 27.3069 17.9182 27.1144 18.2271C26.9156 17.5271 26.6475 16.8955 26.1672 16.5114C25.6802 16.1199 24.8424 16.3329 24.8424 15.6193C24.8424 15.4269 24.9658 15.1525 24.9658 14.9332C24.9658 14.8579 24.9521 14.7891 24.911 14.7342C25.57 14.9808 25.3365 15.42 25.7418 15.8728C25.9951 16.1612 26.6954 16.4357 27.1009 17.6229C27.1072 17.5889 27.1142 17.4997 27.1142 17.438C27.1142 16.4224 25.7694 15.4271 25.6526 15.0155C26.4344 15.1047 26.5718 15.2969 26.9427 16.326C27.0185 16.5389 27.266 17.0672 27.266 17.3282ZM12.5233 11.7347C12.5636 11.6058 12.5844 11.4716 12.5849 11.3366C12.5849 11.007 12.4342 10.5063 11.9672 10.5063C11.6995 10.5063 11.5076 10.7187 11.5076 10.9727C11.5077 11.5153 12.0498 11.7347 12.5233 11.7347ZM11.9398 13.4643C11.7133 13.4643 11.4665 13.1831 11.4665 12.9292C11.4665 12.7918 11.5697 12.62 11.6444 12.62C11.6721 12.62 11.6858 12.6405 11.6928 12.6886C11.7339 13.0253 11.9536 13.2173 12.1597 13.313C12.1802 13.3269 12.1941 13.3339 12.1941 13.3474C12.1941 13.3955 12.0633 13.4643 11.9398 13.4643ZM12.7499 12.8192C12.7499 12.9152 12.6948 13.039 12.5849 13.039C12.345 13.039 12.1527 12.6749 12.1527 12.469C12.1527 12.3389 12.2282 12.325 12.3312 12.325C12.3791 12.325 12.3995 12.3319 12.4342 12.3524C12.4957 12.3868 12.4957 12.524 12.571 12.6268C12.6124 12.6955 12.7499 12.7711 12.7499 12.8192ZM12.5094 12.0984C12.4686 12.0916 12.4135 12.0916 12.3586 12.0916C12.1321 12.0916 11.8299 12.1328 11.5627 12.3114C10.9583 12.7026 11.0543 13.3199 10.9583 13.478C10.9443 13.5008 10.9372 13.5271 10.9378 13.5538C10.9378 13.6154 11.0064 13.6839 11.068 13.6839C11.1233 13.6839 11.1575 13.6705 11.1849 13.6705C11.3497 13.6705 11.535 13.7873 11.8027 13.7873C11.9605 13.7873 12.1458 13.739 12.3793 13.6223C12.8734 13.3753 13.0658 12.7644 13.0658 12.6614C13.0658 12.531 12.9628 12.5515 12.8736 12.4279C12.7774 12.2841 12.8253 12.2293 12.7637 12.1467C12.7222 12.1123 12.6331 12.1123 12.5094 12.0984ZM13.2373 13.2036C13.0863 13.3817 12.9282 13.6838 12.9282 13.993C12.9282 14.3633 13.1547 14.6722 13.5047 14.6722C13.8412 14.6722 13.999 14.3838 13.999 14.089C13.999 13.629 13.58 13.3063 13.2373 13.2036ZM11.7683 11.8857C11.7683 11.8857 11.5697 12.0367 11.3222 12.0367C11.0271 12.0367 10.7937 11.8169 10.7937 11.5083C10.7937 11.2955 10.9032 11.0759 11.1575 10.966C11.1507 11.0073 11.1507 11.0415 11.1507 11.0828C11.1507 11.474 11.3704 11.7688 11.7683 11.8857ZM23.9781 15.8796C23.9781 15.7427 24.1013 15.6258 24.2387 15.6258C24.3895 15.6258 24.5065 15.7427 24.5065 15.8796C24.5065 16.0375 24.3895 16.1473 24.2387 16.1473C24.1013 16.1473 23.9781 16.0375 23.9781 15.8796ZM24.1564 23.7731C24.1907 23.7731 24.2317 23.7936 24.2317 23.9172C24.2317 24.0677 24.163 24.2666 23.9168 24.4247C23.7448 24.5415 23.5115 24.6373 23.1681 24.6444C23.2228 24.4795 23.2641 24.3082 23.2641 24.1432C23.2641 24.0883 23.2571 24.0469 23.2504 23.986H23.3394C23.8821 23.986 24.115 23.7731 24.1564 23.7731ZM24.211 23.0933C24.2661 23.0452 24.2793 22.9699 24.2793 22.8942V22.7362C24.2793 22.5372 23.978 22.4203 23.5662 22.4203C23.0652 22.4203 22.7972 22.6469 22.7972 22.7431V23.0589C22.7972 23.1895 23.0993 23.3197 23.4701 23.3197C23.7654 23.3197 24.0332 23.2444 24.211 23.0933ZM24.5682 23.1689C24.3895 23.306 23.9711 23.6151 23.2778 23.6151C22.9072 23.6151 22.7427 23.4984 22.6878 23.4984C22.6194 23.4984 22.5436 23.5669 22.468 23.6562C22.3032 23.8484 22.0904 24.2048 22.0904 24.596C22.0904 24.871 22.3032 25.1455 22.7015 25.1455C23.9852 25.1455 24.9457 24.3421 24.9457 23.6906C24.9457 23.3197 24.726 23.1689 24.5682 23.1689ZM24.808 17.3968C24.808 17.5682 24.8633 17.7671 25.0351 17.7671C25.1792 17.7671 25.3029 17.5475 25.3029 17.3075C25.3029 17.0328 25.2545 16.82 25.2545 16.71C25.2545 16.6623 25.2752 16.6416 25.3029 16.6416C25.4057 16.6485 25.5017 16.93 25.6117 16.93C25.7354 16.93 25.9202 16.7034 25.9954 16.7034C26.0161 16.7034 26.0231 16.7308 26.0231 16.7377C26.0231 16.8407 25.8649 17.0672 25.8649 17.1565C25.8649 17.232 26.2635 17.2457 26.2635 17.3145C26.2635 17.4175 25.8447 17.4175 25.6461 17.5065C25.4541 17.5887 25.337 17.6916 25.337 17.8288C25.337 17.9661 25.4741 17.9937 25.6665 17.9937C26.1261 17.9937 26.4489 17.7465 26.5518 17.7465C26.5725 17.7465 26.5862 17.7601 26.5862 17.7808C26.5862 17.8495 26.3527 18.0762 26.3527 18.1792C26.3527 18.2959 26.7785 18.4327 26.7715 18.5015C26.7648 18.5219 26.7374 18.5287 26.6892 18.5287C26.6139 18.5287 26.4971 18.5084 26.4076 18.5084C26.3525 18.5084 26.3046 18.5149 26.2842 18.5424C26.2358 18.5975 26.2979 18.9613 26.2016 18.9613C26.1126 18.9613 25.8788 18.1513 25.351 18.1513C25.2754 18.1513 25.2203 18.2131 25.2203 18.3161C25.2203 18.5905 25.4884 18.9062 25.7423 19.0573C25.8584 19.1331 26.0508 19.2084 26.0508 19.2497C26.0508 19.3315 25.6119 19.2563 25.6119 19.3933C25.6119 19.517 25.6667 19.7024 25.6667 19.8123C25.6667 19.8465 25.6603 19.8876 25.6186 19.8876C25.5365 19.8876 25.337 19.5102 25.241 19.5102C25.159 19.5102 24.9801 19.7366 24.9048 19.7366C24.8841 19.7366 24.8701 19.7161 24.8701 19.6954C24.8701 19.5374 25.1243 19.1809 25.1243 18.8307C25.1243 18.6659 25.1039 18.3091 24.9048 18.3091C24.7397 18.3091 24.5546 18.5695 24.472 18.8307C24.4239 18.9818 24.4586 19.565 24.3486 19.565C24.2458 19.565 24.2729 19.1739 24.1358 19.1739C24.0334 19.1739 23.814 19.3589 23.7382 19.3589C23.7245 19.3589 23.7108 19.3521 23.7108 19.3384C23.7108 19.2562 23.9095 18.9885 23.9095 18.9337C23.9095 18.8307 23.4563 18.817 23.4563 18.7345C23.4563 18.6863 23.6347 18.6522 23.7998 18.6246C24.1497 18.5628 24.6644 18.3091 24.6644 17.9521C24.6644 17.5538 24.2795 17.3826 24.0266 17.2178C23.8958 17.1353 23.7517 17.0665 23.7517 17.0118C23.7517 16.9567 23.9168 16.9567 23.9852 16.9567C24.0872 16.9567 24.1906 16.95 24.1906 16.8675C24.1906 16.8057 24.1763 16.6826 24.1763 16.5865C24.1763 16.5178 24.1833 16.463 24.211 16.463C24.314 16.463 24.4584 16.799 24.5271 16.799C24.6365 16.799 24.7879 16.5248 24.891 16.5248C24.925 16.5248 24.9387 16.5453 24.9387 16.6069C24.9387 16.8611 24.808 17.1495 24.808 17.3968ZM21.5345 15.3861C21.6101 15.9691 22.3927 15.6739 22.3927 16.3808C22.3927 16.4838 22.365 16.635 22.365 16.7651C22.365 16.9162 22.3787 17.0466 22.4954 17.0466C22.6121 17.0466 22.6398 16.9643 22.6398 16.8542C22.6398 16.7442 22.6121 16.6074 22.6121 16.5319C22.6121 16.2916 22.7839 16.2367 22.8867 16.2367C23.1475 16.2367 23.3466 16.5045 23.7382 16.5045C23.6488 16.9436 22.7429 16.8269 22.7429 17.3076C22.7429 17.5476 22.9827 17.6027 23.1408 17.6027C23.2849 17.6027 23.3329 17.5819 23.3329 17.4587C23.3329 17.3899 23.3192 17.3146 23.3192 17.2664C23.3192 17.239 23.3396 17.2117 23.3743 17.2117C23.5254 17.2117 24.2661 17.7742 24.2661 17.946C24.2661 18.1039 23.484 18.2617 23.2572 18.2617C23.1891 18.2617 23.1752 18.2137 23.1752 18.1863C23.1752 18.1381 23.2919 17.994 23.2919 17.9115C23.2919 17.8499 23.1892 17.8086 22.9144 17.8086C22.7839 17.8086 22.6879 17.8223 22.6879 17.9253C22.6879 18.1105 22.9895 18.3372 22.9895 18.5087C22.9895 18.6458 22.9075 18.7281 22.6879 18.7281C22.5026 18.7281 22.221 18.584 22.221 18.3442C22.221 18.1518 22.4204 17.9596 22.4204 17.843C22.4204 17.8086 22.3927 17.7537 22.3103 17.7537C22.0562 17.7537 21.9879 18.4262 21.0883 18.5018C21.2327 18.3716 21.3564 18.2273 21.3564 17.9322C21.3564 17.7879 21.322 17.671 21.322 17.5135C21.322 17.3076 21.4178 17.2046 21.5552 17.2046C21.8093 17.2046 21.9328 17.5613 22.0974 17.5613C22.1868 17.5613 22.2825 17.4793 22.2825 17.3559C22.2825 16.8339 21.2805 16.9093 21.2805 16.1752C21.2806 15.9758 21.349 15.729 21.5345 15.3861ZM22.8386 19.8468C22.8386 19.943 22.9072 20.0187 23.0031 20.0187C23.1131 20.0187 23.1821 19.9225 23.1821 19.8128C23.1821 19.6685 23.0513 19.4694 22.9276 19.4694C22.8728 19.4694 22.8935 19.5516 22.8795 19.6408C22.873 19.7096 22.8386 19.7921 22.8386 19.8468ZM22.4817 18.9342C23.2025 19.0713 23.5939 19.6135 23.5939 20.1215C23.5939 20.4717 23.3741 20.7936 22.9892 20.7936C22.6397 20.7936 22.3855 20.5534 22.3855 20.1695C22.3855 19.8812 22.612 19.5791 22.612 19.2837C22.6121 19.1675 22.578 19.0508 22.4817 18.9342ZM21.5689 20.1011C21.6375 20.1695 21.6582 20.2383 21.6582 20.3069C21.6582 20.4096 21.6101 20.5197 21.6101 20.6358C21.6101 20.8006 21.7335 20.9444 21.9122 20.9444C22.1043 20.9444 22.2344 20.7934 22.2344 20.6151C22.2345 20.355 21.9667 20.1011 21.5689 20.1011ZM23.8407 19.6616C23.8888 19.737 23.9094 19.8128 23.9094 19.8814C23.9094 20.0734 23.7789 20.2521 23.7789 20.451C23.7789 20.677 23.9509 20.8625 24.2108 20.8625C24.4927 20.8625 24.6847 20.6359 24.6847 20.3688C24.6849 20.0051 24.3554 19.6959 23.8407 19.6616ZM21.7335 19.2977C22.049 19.339 22.1248 19.4487 22.1248 19.5379C22.1248 19.6892 21.9877 19.7371 21.8573 19.7371C21.7613 19.7371 21.6515 19.7166 21.5345 19.7166C21.3834 19.7166 21.2327 19.751 21.109 19.8951C21.198 19.9088 21.3287 19.9704 21.3287 20.1078C21.3287 20.5061 20.2234 20.1763 20.2234 21.199C20.2234 21.7414 20.7867 22.3311 21.6375 22.3311C22.0767 22.3311 22.358 22.1876 22.358 22.0228C22.358 21.8924 22.1248 21.9816 22.1248 21.8718C22.1248 21.8234 22.2072 21.7344 22.2072 21.6589C22.2072 21.6247 22.1798 21.5629 22.1248 21.5629C22.0011 21.5629 21.7683 21.7618 21.2943 21.7618C20.9238 21.7618 20.5599 21.549 20.5599 21.2606C20.5599 21.199 20.5876 21.1645 20.6285 21.1645C20.6695 21.1645 20.7246 21.1922 20.7726 21.1922C20.814 21.1922 20.8207 21.1645 20.8207 21.089C20.8207 21.0136 20.8207 20.8006 20.9515 20.8006C21.0813 20.8006 21.3287 21.2812 22.2759 21.2812C22.5917 21.2812 23.2025 21.2196 23.4289 21.0135C23.4222 21.769 22.8316 22.7635 21.5966 22.7635C20.3129 22.7635 19.6268 21.7344 19.6268 20.7867C19.6268 19.737 20.4844 18.7829 21.6584 18.7829C21.9602 18.7829 22.2143 18.8861 22.2143 19.0162C22.2142 19.195 21.7683 19.0851 21.7335 19.2977ZM16.7651 12.2701C16.7651 12.1534 16.7376 12.126 16.71 12.126C16.6416 12.126 16.5656 12.2083 16.4562 12.3934C16.4699 12.6404 16.5111 12.7504 16.5795 12.7504C16.6551 12.7506 16.7651 12.5101 16.7651 12.2701ZM15.8245 12.5513C15.9001 12.5513 15.996 12.469 16.1747 12.2701C16.1884 12.1809 16.1884 12.0983 16.1884 11.9954C16.1884 11.8581 16.1333 11.7069 16.0508 11.7069C15.8453 11.7069 15.7423 12.2563 15.7423 12.4002C15.7423 12.4829 15.7837 12.5513 15.8245 12.5513ZM16.9433 13.1622C17.115 13.1622 17.3071 12.5033 17.3071 12.0916C17.3071 12.0024 17.2934 11.9064 17.2523 11.9064C17.1082 11.9064 16.8674 12.5856 16.8674 12.9566C16.8676 13.1006 16.9019 13.1622 16.9433 13.1622ZM15.2617 12.7848C15.4951 12.7848 15.763 11.5221 15.763 11.3092C15.763 11.2543 15.7423 11.213 15.6945 11.213C15.4816 11.213 15.1862 12.4141 15.1862 12.6816C15.186 12.7297 15.1999 12.7848 15.2617 12.7848ZM16.0098 13.3063C15.7147 13.3063 15.7012 13.6635 15.7012 14.384C15.4814 13.9105 15.1176 13.4025 14.6922 13.4025C14.4038 13.4025 14.2939 13.5947 14.2939 13.9311C14.2939 14 14.3008 14.1029 14.3143 14.1645C14.3489 14.0483 14.4586 14.0002 14.5962 14.0002C14.8913 14.0002 15.248 14.2263 15.4814 14.5353C15.2138 14.4872 14.9529 14.4391 14.7333 14.4391C14.5962 14.4391 14.4725 14.4528 14.3696 14.5009C14.1707 14.59 13.9027 14.8853 13.9027 15.3313C13.9027 15.4 13.9097 15.475 13.9237 15.5575C14.1638 15.0221 14.8021 14.7822 15.2139 14.7822C15.2959 14.7822 15.3579 14.7891 15.406 14.7961C15.1931 14.9877 15.1451 15.3243 15.1314 15.5506C15.1246 15.6605 15.0832 15.6675 15.0082 15.6675C15.0082 15.8935 15.1862 16.23 15.1862 16.4017C15.1862 16.4634 15.152 16.5184 15.1177 16.5321C15.1177 16.8339 15.4195 17.0535 15.4195 17.2457C15.4195 17.2938 15.406 17.3349 15.3853 17.3557C15.406 17.4791 15.7354 17.6917 15.7767 17.7809C15.8453 17.9252 15.8934 17.9387 15.9275 17.9387C16.0441 17.9387 16.2294 17.8016 16.2294 17.6777C16.2294 17.6368 16.1952 17.5887 16.1678 17.568C16.0372 17.4721 15.9687 17.2661 15.914 17.1288C15.8848 17.1291 15.8563 17.1199 15.8328 17.1026C15.8093 17.0852 15.792 17.0607 15.7837 17.0328C15.756 16.9434 15.7421 16.6209 15.6875 16.4633C15.598 16.4426 15.5571 16.4083 15.5571 16.2228C15.5571 16.1336 15.6119 15.7836 15.6119 15.6602C15.5705 15.6602 15.5157 15.6327 15.5157 15.5503C15.5157 15.331 15.7354 15.1592 15.7972 14.8781C16.1884 15.1662 16.2844 15.4611 16.2844 15.722C16.2844 15.8589 16.2637 15.9894 16.2363 16.1131C16.5248 15.969 16.9569 15.7564 16.9569 15.3242C16.9569 15.0703 16.8402 14.7891 16.0645 14.6791C16.3048 14.5899 16.607 14.5418 16.8609 14.5418C17.3001 14.5418 17.5541 14.6791 17.6092 14.9877C17.698 14.8509 17.7667 14.6929 17.7667 14.5488C17.7667 14.2123 17.4857 13.9932 17.1284 13.9932C16.7099 13.9932 16.339 14.2125 15.9407 14.4802C16.1194 14.1097 16.243 13.8901 16.4627 13.8901C16.497 13.8901 16.5312 13.8967 16.5655 13.9037C16.4834 13.6016 16.1747 13.3063 16.0098 13.3063ZM11.631 9.03037C11.631 9.16748 11.1093 9.6277 10.9241 9.6277C10.8554 9.6277 10.8349 9.54521 10.8349 9.46989C10.8349 9.33246 10.8965 9.14025 10.972 9.0783C11.0612 8.99597 11.2673 8.95519 11.4251 8.95519C11.5214 8.95535 11.631 8.97543 11.631 9.03037ZM27.5743 18.2545C27.9175 18.2545 28.192 18.7007 28.192 19.2226C28.192 19.778 27.9312 20.3825 27.4652 20.7937C27.4582 19.8675 26.3253 20.1628 26.3253 19.49C26.3253 19.2019 26.5311 19.0095 26.7785 19.0095C26.998 19.0095 27.1701 19.0715 27.2935 19.195C27.1701 19.0785 27.1079 18.9136 27.1079 18.7557C27.1075 18.4948 27.2727 18.2545 27.5743 18.2545ZM22.4817 11.2337C22.4269 11.1444 22.2208 11.0964 22.1248 11.0964C21.823 11.0964 21.6171 11.3094 21.5759 11.5014C21.5454 11.4273 21.529 11.3482 21.5275 11.2681C21.5275 10.9659 21.7335 10.5955 22.2345 10.5955C22.6741 10.5955 22.8456 10.8288 22.9072 10.8288C22.9755 10.8288 23.0446 10.7601 23.0993 10.7601C23.1749 10.7601 23.1749 10.8768 23.1749 10.9592C23.1749 11.2339 23.0512 11.7072 22.7427 11.879C22.6876 11.7621 22.5779 11.632 22.3995 11.5494C22.3789 11.5414 22.3613 11.5273 22.349 11.5089C22.3367 11.4906 22.3304 11.4689 22.3309 11.4468C22.3309 11.3711 22.3995 11.2748 22.4817 11.2337ZM21.4455 11.7347C21.6241 11.9062 21.7816 11.9817 21.9739 11.9817C22.0492 11.9817 22.1387 11.961 22.1869 11.961C22.2486 11.961 22.2896 11.9886 22.2896 12.0365C22.2896 12.1121 22.221 12.2357 22.1385 12.3043C22.2208 12.3387 22.3103 12.3523 22.4064 12.3523C22.7973 12.3523 23.2435 12.1051 23.2435 11.4877C23.3259 11.5971 23.3743 11.8237 23.3743 11.9266C23.3743 12.6746 22.8247 12.963 22.3173 12.963C21.9879 12.963 21.823 12.8533 21.7818 12.8533C21.6517 12.8533 21.6584 13.114 21.569 13.1071C21.4112 13.0799 21.2673 12.7295 21.2673 12.3591C21.2669 12.1395 21.322 11.9062 21.4455 11.7347ZM16.6758 9.73758C16.6758 9.97757 17.5337 11.1514 17.6982 11.1514C17.8353 11.1514 17.9383 10.9111 17.9383 10.705C17.9383 10.6504 17.9246 10.5955 17.8972 10.5544C17.7735 10.3827 16.9018 9.69634 16.71 9.69634C16.6895 9.69649 16.6758 9.71704 16.6758 9.73758ZM26.579 9.17449C26.579 8.6875 25.4127 8.56392 25.4127 8.45389C25.4127 8.36471 26.0645 8.21358 26.401 8.20658C25.8856 7.54808 25.152 7.61671 25.152 7.49999C25.152 7.43119 25.7012 7.29361 26.2086 7.29361C26.6341 7.29361 27.0327 7.38995 27.0327 7.71259C27.0327 7.8911 26.8883 8.07662 26.8883 8.35085C26.8883 8.50182 26.9636 8.6324 27.1631 8.6324C27.3759 8.6324 27.424 8.40579 27.424 8.16549C27.424 7.9669 27.3896 7.81562 27.3896 7.71959C27.3896 7.43119 27.588 7.23914 27.8695 7.23914C28.103 7.23914 28.1578 7.34186 28.501 7.34186C28.3159 7.45174 28.2471 7.65095 28.2471 7.74698C28.2471 8.03538 28.4328 8.23428 28.4328 8.82477C28.4328 9.90894 27.4173 10.2934 26.1742 10.2934C25.831 10.2934 25.4678 10.2658 25.1109 10.2109C25.0556 10.204 25.0419 10.1905 25.0419 10.1561C25.0419 10.0668 25.5295 10.0188 25.5295 9.57945C25.5295 9.40794 25.4743 9.24297 25.4743 9.18133C25.4742 9.17406 25.4756 9.16685 25.4783 9.16012C25.4811 9.15338 25.4851 9.14727 25.4903 9.14213C25.4954 9.137 25.5016 9.13295 25.5083 9.13022C25.515 9.12749 25.5223 9.12613 25.5295 9.12624C25.6326 9.12624 25.8377 9.52467 26.222 9.52467C26.3252 9.52483 26.579 9.49043 26.579 9.17449ZM27.7387 8.48143C27.7387 9.09231 27.2934 9.55907 26.49 9.68965C26.579 9.69649 26.6618 9.69649 26.7441 9.69649C27.684 9.69649 28.0272 9.27083 28.0272 8.91411C28.0272 8.71489 27.9175 8.53653 27.7387 8.48143ZM27.0873 13.9999C27.0873 13.8556 26.7234 13.8419 26.689 13.4368C26.682 13.3751 26.6616 13.2653 26.586 13.2653C26.4626 13.2653 26.5583 13.6427 26.4212 13.6427C26.1051 13.6427 26.0024 13.0253 25.8856 13.0253C25.8582 13.0253 25.824 13.0458 25.824 13.1281C25.824 13.2036 25.8377 13.2517 25.8377 13.3407C25.8377 13.4298 25.817 13.4917 25.7356 13.4917C25.5502 13.4917 25.3854 13.0593 25.2273 13.0593C25.1929 13.0593 25.159 13.0802 25.159 13.1143C25.159 13.1969 25.2961 13.3474 25.2961 13.4229C25.2961 13.5879 24.8496 13.4982 24.8496 13.6358C24.8496 13.6978 24.9115 13.7183 24.994 13.7183C25.1384 13.7183 25.3649 13.6564 25.4813 13.6564C25.5502 13.6564 25.6533 13.6704 25.6533 13.7594C25.6533 13.8556 25.4058 13.9793 25.4058 14.0683C25.4058 14.1097 25.4472 14.13 25.4811 14.13C25.6665 14.13 25.9955 13.8076 26.229 13.8076C26.2704 13.8076 26.3737 13.8283 26.3737 13.8901C26.3737 13.9793 26.1399 14.1368 26.1399 14.2672C26.1399 14.3016 26.1606 14.3429 26.2016 14.3429C26.3253 14.3429 26.4901 14.0202 26.7236 14.0202C26.8126 14.0202 26.9433 14.0548 27.0118 14.0548C27.0669 14.0548 27.0873 14.0202 27.0873 13.9999ZM22.1728 8.76298C22.1728 8.6875 21.9052 8.54322 21.9052 8.46105C21.9052 8.44719 21.9192 8.44035 21.9393 8.44035C22.0146 8.44035 22.1451 8.46774 22.2484 8.46774C22.3374 8.46774 22.3511 8.08378 22.4202 8.08378C22.468 8.08378 22.5506 8.44719 22.626 8.44719C22.715 8.44719 22.8795 8.34416 22.9485 8.34416C22.9621 8.34416 22.9755 8.35101 22.9755 8.36486C22.9755 8.41311 22.804 8.59816 22.804 8.65326C22.804 8.71505 23.1889 8.79053 23.1889 8.84563C23.1889 8.91411 22.797 8.90741 22.797 8.96873C22.797 9.01683 22.9414 9.20888 22.9414 9.27098C22.9414 9.28468 22.9344 9.29153 22.9207 9.29153C22.866 9.29153 22.6535 9.19534 22.5916 9.19534C22.5162 9.19534 22.3925 9.47689 22.3307 9.47689C22.31 9.47689 22.2963 9.44919 22.2963 9.41495L22.2823 9.1404C22.2823 9.11285 22.2689 9.08546 22.2342 9.08546C22.1519 9.08546 21.9941 9.07846 21.946 9.07846C21.9119 9.07846 21.8982 9.07161 21.8982 9.05776C21.8987 9.00297 22.1728 8.81092 22.1728 8.76298ZM23.5115 10.0669C23.0306 10.0669 22.7152 9.82661 22.7152 9.70334C22.7152 9.64155 22.7566 9.60031 22.8109 9.60031C22.9623 9.60031 23.2918 9.8333 23.4015 9.8333C23.4289 9.8333 23.4496 9.81976 23.4496 9.77867C23.4496 9.65525 23.3329 9.44919 23.3329 9.34631C23.3329 9.31892 23.3536 9.29822 23.3948 9.29822C23.5799 9.29822 23.8547 9.37386 23.9988 9.37386C24.0472 9.37386 24.0605 9.34615 24.0605 9.31876C24.0605 9.16748 23.6146 8.87271 23.6146 8.78353C23.6146 8.70119 24.1699 8.57762 24.1699 8.44704C24.1699 8.30977 23.4151 8.40579 23.4151 8.27521C23.4151 8.17919 23.5592 8.01468 23.5592 7.93935C23.5592 7.9048 23.5318 7.89126 23.4838 7.89126C23.4222 7.89126 23.0923 8.02168 22.9553 8.02168C22.8867 8.02168 22.8042 8.00799 22.8042 7.9118C22.8042 7.75399 23.072 7.58216 23.4908 7.58216C24.1699 7.58216 24.5752 8.04907 24.5752 8.83162C24.5752 9.81976 23.8821 10.0669 23.5115 10.0669ZM18.8652 21.9408C18.8652 22.0023 18.8443 22.071 18.7894 22.1395C18.7142 22.0021 18.501 21.9335 18.4056 21.9335C17.6982 21.9335 17.966 22.956 17.2109 22.956C16.8951 22.956 16.8674 22.9148 16.7513 22.9148C16.703 22.9148 16.6757 22.9355 16.6757 22.9764C16.6757 23.1547 16.9295 23.5946 17.6362 23.5946C18.3438 23.5946 19.0227 23.1619 19.0227 22.626C19.0213 22.529 19.0002 22.4333 18.9607 22.3447C18.9884 22.3034 19.0569 22.276 19.1185 22.276C19.2286 22.276 19.2904 22.3998 19.3932 22.3998C19.5031 22.3998 19.5853 22.3174 19.5853 22.2083C19.5853 22.119 19.5372 22.0572 19.4547 22.0156C19.5098 21.9747 19.5509 21.9061 19.5509 21.8307C19.5509 21.7139 19.4684 21.6041 19.3316 21.6041C19.2697 21.6041 19.2286 21.6248 19.1806 21.6726C19.1668 21.549 19.0983 21.4323 18.9677 21.4323C18.8652 21.4323 18.7894 21.508 18.7894 21.6247C18.7894 21.7344 18.8652 21.8236 18.8652 21.9408ZM17.0187 22.2013C16.8129 22.2013 16.5043 21.9816 16.5043 21.858C16.5043 21.7549 16.6005 21.7 16.6758 21.7C16.8475 21.7 17.1561 21.9129 17.1561 22.0914C17.1561 22.1395 17.1217 22.2013 17.0187 22.2013ZM15.1039 20.6633C15.6533 20.8007 15.9275 21.0958 15.9824 21.446C16.0374 21.7825 16.1059 22.0574 16.2364 22.1945C16.4081 22.3859 16.7446 22.5576 17.0394 22.5576C17.2865 22.5576 17.4859 22.4755 17.4859 22.2496C17.4859 22.0023 17.1494 21.4462 16.6551 21.4462C16.6072 21.4462 16.5452 21.4532 16.4767 21.4532C16.415 21.4532 16.3255 21.4393 16.2705 21.3914C16.1605 21.2955 16.1264 20.7803 15.9203 20.472C15.6942 20.1287 15.4471 20.0327 15.1107 20.0327C14.8704 20.0327 14.6029 20.1631 14.6029 20.3553C14.603 20.4717 14.6648 20.5536 15.1039 20.6633ZM18.5492 19.8264C18.5492 19.5177 17.9111 19.5107 17.9111 19.0441C17.9111 18.9273 17.9863 18.7281 18.1379 18.5152C18.1993 18.8722 18.3439 19.0576 18.6522 19.1743C19.263 19.4006 19.3455 19.7437 19.3455 20.1078C19.3455 20.7251 18.9131 21.4943 17.8014 21.4943C16.909 21.4943 16.2707 20.6977 16.2707 20.0254C16.2707 19.84 16.3188 19.6339 16.4357 19.6339C16.5384 19.6339 16.5728 19.7163 16.6553 19.7987C16.9639 20.1077 17.3004 20.19 17.7875 20.19C18.2269 20.1902 18.5492 20.0118 18.5492 19.8264ZM18.5766 20.3208C18.3368 20.4166 18.2476 20.4096 18.2476 20.6495C18.2476 20.7388 18.227 20.8555 18.227 20.9173C18.227 20.9998 18.2407 21.0479 18.3369 21.0479C18.5836 21.0479 18.9747 20.6292 18.9747 20.2725C18.9747 20.1765 18.9201 20.1354 18.8585 20.1354C18.8032 20.1354 18.7414 20.2451 18.5766 20.3208ZM16.3874 16.8542C16.3874 16.4152 17.4308 16.1817 17.4308 15.6397C17.4308 15.5505 17.3964 15.393 17.3346 15.2761C17.6982 15.4748 17.966 15.8115 17.966 16.0857C17.966 16.5595 17.472 16.7788 17.472 17.074C17.472 17.4175 18.0004 17.4723 18.0004 17.8978C18.0004 18.2478 17.4994 18.6526 17.4994 19.1058C17.4994 19.4556 17.746 19.7438 18.1239 19.7921C18.0004 19.8196 17.8904 19.8401 17.7737 19.8401C17.0806 19.8401 16.3667 19.2704 16.3667 18.591C16.3667 18.2547 16.5111 17.9596 16.7307 17.7468C16.9226 17.9115 17.115 18.0215 17.2383 18.0215C17.3483 18.0215 17.3964 17.9664 17.3964 17.8843C17.3964 17.6298 16.3874 17.3968 16.3874 16.8542ZM17.8028 31.5375C17.9969 31.5375 18.3301 31.4745 18.5925 31.054C18.4426 30.7214 18.3355 30.0475 18.3203 29.8025C18.2431 28.5491 18.7262 27.37 19.2549 27.3377C19.6426 27.3145 19.9526 27.6813 19.9882 28.2744C20.084 29.8372 19.5629 30.4895 19.3031 31.0512C19.347 31.27 19.7165 31.6412 20.0662 31.6412C20.1954 31.6412 20.351 31.5767 20.3899 31.5243C20.354 31.4027 20.3363 31.2765 20.3376 31.1497C20.3376 30.2448 20.9203 29.4806 21.4243 29.4806C21.8258 29.4806 22.0574 30.0109 22.0574 30.3614C22.0574 30.7744 21.7085 31.1112 21.1915 31.4346C21.2827 31.5243 21.4498 31.5897 21.593 31.5897C22.3301 31.5897 22.7175 30.6977 23.0026 29.8817C23.0543 29.7265 23.1455 29.5068 23.3257 29.5068C23.6364 29.5068 23.7662 31.5503 24.2826 31.5503C24.503 31.5503 24.6835 31.0975 24.6835 30.7494C24.6835 30.4904 24.5932 30.4646 24.5932 30.0889C24.5932 29.6755 24.813 29.3261 25.1112 29.3261C25.2917 29.3261 25.3568 29.5069 25.3568 29.7267C25.3568 30.5548 24.7619 32.0942 23.8827 32.0942C23.2222 32.0942 23.2736 30.955 23.0417 30.955C22.7824 30.955 22.4201 32.1075 21.1399 32.1075C20.9323 32.1075 20.7129 32.004 20.5323 31.7959C20.2217 32.004 19.9624 32.0942 19.6648 32.0942C19.1867 32.0942 18.9795 31.6023 18.7861 31.6023C18.5528 31.6023 18.2951 32.1075 17.5183 32.1075C16.897 32.1075 16.7936 31.2798 16.5743 31.2798C16.3801 31.2798 16.0827 32.1075 15.7596 32.1075C15.2152 32.1075 15.0998 30.6717 14.6209 30.6717C14.2455 30.6717 13.0607 32.1296 12.7387 32.0963C12.6093 32.0826 12.5552 31.9861 12.5687 31.8564C12.5869 31.6776 12.7407 31.1987 12.8037 30.9715C12.9083 30.579 13.0043 30.1469 13.0579 30.0095C13.1109 29.871 13.2552 29.7721 13.3699 29.7827C13.428 29.7883 13.4454 29.8966 13.4635 29.9857C13.5284 30.3066 13.6202 30.6323 13.7232 30.6323C13.9047 30.6323 14.505 29.4806 14.8538 29.4806C15.281 29.4806 15.3325 31.2921 15.9144 31.2921C16.1087 31.2921 16.2517 31.0591 16.3804 30.7746C16.3936 30.2954 16.5227 29.6107 16.9107 29.6107C17.1829 29.6107 17.3121 30.2179 17.1175 30.7492C17.1173 31.382 17.531 31.5375 17.8028 31.5375ZM27.452 30.322C27.452 29.9987 27.155 29.5455 26.7152 29.5455C26.1331 29.5455 25.5646 30.1794 25.5646 31.0589C25.5646 31.8472 26.0548 32.1072 26.5465 32.1072C27.4003 32.1072 27.9183 31.4073 28.1895 30.8259C28.3193 31.214 28.3956 32.1072 28.7199 32.1072C28.8491 32.1072 28.9397 32.0423 29.0957 31.6928C29.4826 30.8259 29.8577 29.83 30.3758 29.83C30.5691 29.83 30.4533 30.1794 30.9186 30.1794C31.1387 30.1794 31.2934 29.9987 31.2934 29.7907C31.2934 29.4932 31.022 29.2607 30.608 29.2607C29.3929 29.2607 29.1343 31.0849 28.9397 31.0849C28.6163 31.0849 28.7199 29.6233 28.4868 29.6233C28.2798 29.6233 28.1761 29.8694 28.1503 29.9852C27.9819 30.6579 27.5041 31.6284 26.779 31.6284C26.6112 31.6284 26.3136 31.5635 26.3136 31.3953C26.3136 31.214 27.452 31.1889 27.452 30.322ZM19.5693 28.6238C19.547 28.2628 19.4592 28.0997 19.2656 28.1126C19.0077 28.1284 18.889 28.9385 18.9413 29.79C18.9747 30.3461 19.0574 30.4313 19.1347 30.4261C19.2773 30.4177 19.6188 29.4247 19.5693 28.6238ZM17.4661 27.8648C17.4538 27.6572 17.2857 27.5152 17.0658 27.5152C16.8199 27.5152 16.5865 27.7737 16.6134 28.097C16.6134 28.2908 16.7552 28.4852 17.0017 28.4852C17.2859 28.4852 17.4927 28.1625 17.4661 27.8648ZM21.4895 30.5028C21.4895 30.2837 21.3728 30.1018 21.2308 30.1018C21.1138 30.1018 20.843 30.2311 20.843 30.6449C20.843 30.9684 20.9588 31.1231 21.0114 31.1889C21.3855 31.0719 21.4895 30.7612 21.4895 30.5028ZM26.5465 30.0636C26.8182 30.0636 26.8963 30.3861 26.8316 30.5805C26.7665 30.7743 26.5343 30.994 26.1717 31.0588C26.0942 30.8644 26.055 30.0636 26.5465 30.0636ZM8.7559 30.2705C8.74298 29.7391 8.76897 29.2093 8.9892 28.4593C9.1053 28.059 9.20927 27.9158 9.57081 27.839C9.85532 27.787 9.82995 28.0839 9.76536 28.4335C9.62326 29.2092 9.55759 29.5843 9.61004 30.4642C9.66077 31.3951 10.0885 31.7576 10.5537 31.7576C11.2522 31.7708 11.5628 31.1891 11.692 30.3478C11.795 29.6752 11.7174 29.3511 11.6526 29.1449C11.6142 29.0285 11.5107 28.7695 11.4718 28.5761C11.4204 28.0841 11.6526 27.8523 11.8472 27.7871C12.0802 27.7221 12.171 27.8391 12.2608 28.111C12.3777 28.5245 12.3906 29.0669 12.3516 29.8426C12.3001 30.903 11.7695 32.1848 10.4503 32.1584C9.31199 32.1331 8.80835 31.3953 8.7559 30.2705Z" fill="white"/>
</svg>
