<svg width="25" height="25" viewBox="0 0 25 25" fill="none" xmlns="http://www.w3.org/2000/svg">
<g clip-path="url(#clip0_10737_49196)">
<g clip-path="url(#clip1_10737_49196)">
<path d="M12.5 0.5C10.1266 0.5 7.80655 1.20379 5.83316 2.52236C3.85977 3.84094 2.3217 5.71509 1.41345 7.9078C0.505199 10.1005 0.267559 12.5133 0.730582 14.8411C1.1936 17.1689 2.33649 19.3071 4.01472 20.9853C5.69295 22.6635 7.83115 23.8064 10.1589 24.2694C12.4867 24.7324 14.8995 24.4948 17.0922 23.5866C19.2849 22.6783 21.1591 21.1402 22.4776 19.1668C23.7962 17.1935 24.5 14.8734 24.5 12.5C24.5 9.3174 23.2357 6.26515 20.9853 4.01472C18.7348 1.76428 15.6826 0.5 12.5 0.5V0.5ZM12.9341 15.9062L8.47901 20.1738C8.40482 20.2402 8.30865 20.2768 8.20909 20.2764C8.10953 20.2761 8.01362 20.2388 7.93991 20.1719L3.48931 15.9082C3.45613 15.876 3.42972 15.8375 3.41162 15.795C3.39352 15.7525 3.3841 15.7068 3.38391 15.6606C3.38373 15.6144 3.39278 15.5686 3.41053 15.5259C3.42829 15.4832 3.45439 15.4445 3.48731 15.4121L3.90921 14.9902C3.98341 14.9233 4.07978 14.8862 4.17971 14.8862C4.27963 14.8862 4.376 14.9233 4.45021 14.9902L7.41391 17.81V6.6707C7.42112 6.57749 7.46185 6.49005 7.52857 6.42456C7.59529 6.35908 7.68348 6.31997 7.77681 6.3145H8.45681C8.55013 6.32 8.6383 6.3591 8.70501 6.42459C8.77173 6.49007 8.81247 6.5775 8.81971 6.6707V17.9876L11.9732 14.9883C12.0475 14.9223 12.1435 14.886 12.2429 14.8864C12.3422 14.8867 12.438 14.9237 12.5118 14.9902L12.9337 15.4121C12.9666 15.4443 12.9927 15.4827 13.0105 15.5251C13.0283 15.5675 13.0375 15.6131 13.0376 15.6591C13.0376 15.7051 13.0285 15.7506 13.0107 15.793C12.993 15.8355 12.9669 15.8739 12.9341 15.9062ZM20.7441 10.2462L20.3223 10.6681C20.2481 10.735 20.1517 10.772 20.0518 10.772C19.9518 10.772 19.8554 10.735 19.7812 10.6681L16.8178 7.8481V19.0539C16.8106 19.1471 16.7699 19.2346 16.7031 19.3C16.6364 19.3655 16.5482 19.4046 16.4549 19.4101H15.7749C15.6816 19.4046 15.5934 19.3655 15.5267 19.3C15.46 19.2345 15.4192 19.1471 15.412 19.0539V7.671L12.2583 10.67C12.1842 10.7364 12.0881 10.773 11.9885 10.7725C11.889 10.7721 11.7932 10.7347 11.7197 10.6676L11.2974 10.2462V10.2461C11.2647 10.2139 11.2387 10.1755 11.221 10.1332C11.2033 10.0908 11.1942 10.0454 11.1942 9.9995C11.1942 9.9536 11.2033 9.90816 11.221 9.86583C11.2387 9.82349 11.2647 9.7851 11.2974 9.7529L15.7529 5.4854C15.8285 5.42197 15.9241 5.38732 16.0227 5.38758C16.1214 5.38783 16.2168 5.42298 16.292 5.4868L20.742 9.751C20.7753 9.78306 20.8018 9.82147 20.82 9.86396C20.8381 9.90645 20.8476 9.95215 20.8478 9.99836C20.848 10.0446 20.8389 10.0903 20.8211 10.133C20.8033 10.1756 20.7771 10.2143 20.7441 10.2466V10.2462Z" fill="#191A1E"/>
</g>
</g>
<defs>
<clipPath id="clip0_10737_49196">
<rect width="24" height="24" fill="white" transform="translate(0.5 0.5)"/>
</clipPath>
<clipPath id="clip1_10737_49196">
<rect width="24" height="24" fill="white" transform="translate(0.5 0.5)"/>
</clipPath>
</defs>
</svg>
