<svg width="40" height="40" viewBox="0 0 40 40" fill="none" xmlns="http://www.w3.org/2000/svg">
<rect width="40" height="40" rx="6" fill="#E61D2B"/>
<g clip-path="url(#clip0_3276_6722)">
<path d="M26.4703 15.7682C26.4703 15.7682 25.8892 15.9995 25.2133 16.7444C24.5375 17.4893 24.1438 18.327 24.4351 18.5497C24.547 18.6344 24.8051 18.6505 25.2733 18.2272C25.7054 17.852 26.0446 17.3817 26.2642 16.8533C26.5666 16.1159 26.4703 15.7772 26.4703 15.7692M30.1692 17.1083C29.4182 16.7232 28.8693 16.2515 28.2983 15.9597C27.7535 15.68 27.4012 15.563 26.9607 15.622C26.8992 15.633 26.8386 15.6481 26.7792 15.6674C26.7792 15.6674 27.006 16.442 26.1034 17.7433C25.1891 19.0628 24.3595 19.0537 24.1237 18.6914C23.8767 18.3088 24.1957 17.5291 24.7285 16.8351C25.2864 16.1094 26.2662 15.5076 26.2662 15.5076C26.2662 15.5076 25.9537 15.3166 25.1866 15.7515C24.4382 16.1739 23.1499 17.1819 21.9545 18.8819C20.759 20.5819 20.5221 21.5173 20.3507 22.2536C20.1794 22.99 20.3351 23.7787 21.1516 23.7787C21.9681 23.7787 22.9186 22.5334 23.1867 22.1004C23.6852 21.294 24.0103 20.0572 23.3319 20.2271C22.9977 20.3107 22.7271 20.6807 22.5562 21.037C22.4484 21.2659 22.3659 21.5058 22.3103 21.7527C22.0732 21.8504 21.8506 21.9799 21.6485 22.1377C21.4237 22.3042 21.2136 22.4897 21.0205 22.6921C21.0205 22.6921 21.0236 22.1034 21.4928 21.1509C21.962 20.1983 22.8234 19.7634 23.3112 19.7226C23.7507 19.6873 24.3228 20.0602 23.8379 21.4362C23.3531 22.8121 21.9227 24.4848 20.4203 24.5055C19.0338 24.5247 18.1266 22.7551 20.0564 19.6671C22.1923 16.2555 24.6977 15.2087 25.5112 15.0923C26.3246 14.9759 26.5892 15.3347 26.5892 15.3347C27.0789 15.1338 27.6078 15.0466 28.136 15.0797C29.1294 15.1467 29.8975 15.8498 30.9115 16.3437C30.648 16.5957 30.3965 16.8603 30.1697 17.1083M34.6321 15.9597C33.9436 16.4012 32.991 16.8014 32.0758 16.7157C31.8439 16.9551 31.596 17.2323 31.3475 17.5347C32.9346 17.8487 34.3251 16.8654 35.0645 16.0282C35.334 15.7272 35.5656 15.3943 35.754 15.0369C35.4174 15.3875 35.0406 15.6972 34.6316 15.9597M32.5183 20.4312C32.5303 20.4103 32.5401 20.3881 32.5475 20.3652C32.5428 20.3288 32.5258 20.2952 32.4993 20.2699C32.4728 20.2446 32.4384 20.2291 32.4019 20.226C32.2507 20.219 32.0445 20.2477 31.5037 20.8465C31.0551 21.3409 30.669 21.8887 30.3541 22.4774C30.0447 23.0429 29.9192 23.4642 30.0971 23.5731C30.1549 23.6031 30.2219 23.6099 30.2846 23.5923C30.405 23.5635 30.5416 23.4506 30.7493 23.2102C30.8465 23.0973 30.9544 22.9376 31.0834 22.7607C31.4412 22.2738 32.3404 20.7411 32.5183 20.4312ZM26.9007 21.0823C26.9909 20.8465 27.1058 20.3833 26.8669 20.2014C26.6104 20.0083 25.9562 20.4614 25.9527 20.9261C25.9482 21.4019 26.4133 21.6171 26.5247 21.6473C26.5882 21.6645 26.6104 21.6619 26.6412 21.611C26.7398 21.441 26.8265 21.2644 26.9007 21.0823ZM26.4058 21.9477C26.2437 21.8729 26.0924 21.7764 25.9562 21.6609C25.8196 21.5464 25.7055 21.4074 25.6195 21.2512C25.6105 21.2361 25.6014 21.2477 25.5913 21.2613C25.5812 21.2749 25.5409 21.3117 25.1922 21.8227C24.8434 22.3338 24.3076 23.3927 24.7925 23.5731C25.1029 23.6885 25.6195 23.1447 25.9013 22.7844C26.0932 22.5328 26.2672 22.2681 26.4219 21.9921C26.4365 21.9613 26.4219 21.9543 26.4063 21.9477M31.9059 23.1709C31.7744 23.3816 31.6242 23.7858 32.0571 23.5343C32.5868 23.2284 33.3413 22.0838 33.3413 22.0838H33.6835C33.3722 22.5626 33.0255 23.0174 32.6463 23.4446C32.1096 24.0393 31.4549 24.5796 30.9937 24.5262C30.4549 24.4632 30.6238 23.7561 30.6238 23.7561C30.6238 23.7561 29.8531 24.5766 29.3199 24.5176C28.5997 24.438 28.8194 23.5479 28.8194 23.5479C28.8194 23.5479 28.005 24.5473 27.4501 24.5166C26.5802 24.4662 26.7989 23.4078 27.0408 22.6624C27.1704 22.2637 27.2903 21.9507 27.2903 21.9507C27.2903 21.9507 27.2041 21.9734 27.0186 22.0011C26.9219 22.0147 26.7455 22.0248 26.7455 22.0248C26.7455 22.0248 26.3831 22.6639 26.0933 23.0479C25.8035 23.432 24.5717 24.756 23.847 24.4909C23.1767 24.246 23.3984 23.2198 23.7885 22.4043C24.358 21.2154 25.9597 19.5073 26.8836 19.7331C27.8412 19.9655 26.9052 21.7128 26.9052 21.7128C26.9052 21.7128 26.9052 21.7194 26.9153 21.7239C26.9345 21.731 26.9844 21.7365 27.0998 21.7139C27.2194 21.6895 27.3366 21.6546 27.4501 21.6095C27.4501 21.6095 28.4127 19.5935 29.4762 18.2746C30.5396 16.9556 32.6609 14.6841 33.4935 15.2334C33.6951 15.3685 33.6044 15.8337 33.3302 16.3982C33.2068 16.4383 33.0813 16.4719 32.9543 16.499C33.1377 16.1658 33.2592 15.8851 33.2955 15.689C33.421 15.0076 31.8298 16.445 30.6928 17.9893C30.0079 18.9203 29.3995 19.9051 28.8734 20.9342C29.0788 20.8089 29.2748 20.6689 29.46 20.5153C29.9672 20.0948 30.4492 19.6448 30.9035 19.1676C31.3409 18.7198 31.7513 18.2462 32.1322 17.7494C32.2533 17.7435 32.3739 17.7311 32.4936 17.7121C32.0782 18.2759 31.6253 18.811 31.1378 19.3138C30.6842 19.7724 30.1933 20.2659 29.767 20.6242C29.3861 20.9481 28.9844 21.2466 28.5644 21.5178C28.5644 21.5178 27.57 23.5232 28.1108 23.6517C28.4288 23.7283 29.0568 22.7612 29.0568 22.7612C29.0568 22.7612 29.8763 21.5107 30.3702 20.9468C31.0441 20.1807 31.6242 19.7372 32.2038 19.7291C32.5415 19.7231 32.7406 20.0819 32.7406 20.0819L32.8993 19.836H33.8771C33.8771 19.836 32.0511 22.9345 31.9049 23.1679M34.6316 15.9597C33.9431 16.4012 32.9905 16.8014 32.0753 16.7157C31.8434 16.9551 31.5955 17.2323 31.347 17.5347C32.9341 17.8487 34.3246 16.8654 35.064 16.0282C35.3337 15.7273 35.5654 15.3943 35.754 15.0369C35.4174 15.3875 35.0406 15.6972 34.6316 15.9597ZM20.9001 17.4798H19.9702L19.4445 18.329H20.3744L20.9001 17.4798ZM16.4971 20.4206C16.8928 19.8783 17.9844 17.9777 17.9844 17.9777C17.9798 17.9414 17.9629 17.9078 17.9365 17.8825C17.9101 17.8571 17.8758 17.8417 17.8393 17.8386C17.6881 17.8315 17.4361 17.8824 16.9356 18.5089C16.4352 19.1354 16.0466 19.6338 15.7633 20.1525C15.4529 20.7185 15.3173 21.1176 15.4957 21.226C15.5536 21.255 15.6201 21.2618 15.6827 21.2451C15.7986 21.2159 15.9503 21.0995 16.1585 20.8601C16.2562 20.7482 16.3671 20.5975 16.4971 20.4206ZM11.5075 17.8502C11.2505 17.6562 10.5968 18.1103 10.5933 18.5739C10.5893 19.0502 11.1815 19.1959 11.2581 19.1994C11.2806 19.2013 11.3032 19.1965 11.3231 19.1858C11.3367 19.1778 11.3477 19.1659 11.3543 19.1515C11.424 19.0147 11.4865 18.8744 11.5418 18.7312C11.632 18.4953 11.7464 18.0321 11.5075 17.8502ZM11.12 19.4897C10.9427 19.4343 10.7733 19.3564 10.616 19.2579C10.4635 19.1584 10.3395 19.0211 10.2561 18.8592C10.247 18.8441 10.237 18.8557 10.2279 18.8693C10.2188 18.8829 10.1664 18.9484 9.81662 19.4615C9.46685 19.9746 8.94874 21.0239 9.43409 21.2043C9.74355 21.3217 10.2662 20.7734 10.5499 20.4145C10.7623 20.1325 10.9585 19.8387 11.1376 19.5346C11.1492 19.5038 11.1376 19.4968 11.1205 19.4912M18.7147 19.8057H19.0554C19.0554 19.8057 17.3484 22.2753 16.3842 22.1604C15.846 22.0974 16.0057 21.4331 16.0057 21.4331C16.0057 21.4331 15.2497 22.3182 14.5552 22.1387C13.9252 21.9769 14.332 20.9291 14.332 20.9291C14.2604 20.9579 12.8971 22.4946 11.939 22.1261C10.9365 21.7391 11.4571 20.4523 11.6477 20.0653C11.8094 19.7392 11.9884 19.4217 11.9884 19.4217C11.9884 19.4217 11.8346 19.465 11.7364 19.4872C11.6381 19.5094 11.496 19.5376 11.496 19.5376C11.496 19.5376 11.0217 20.3082 10.7319 20.6928C10.4421 21.0773 9.21031 22.3988 8.48455 22.1357C7.75879 21.8726 7.93872 20.8571 8.34646 20.0507C9.0077 18.7428 10.5767 17.1355 11.5217 17.3795C12.4762 17.6229 11.686 19.1712 11.686 19.1712C11.686 19.1712 11.876 19.1959 12.3311 18.8854C12.9863 18.4384 13.8511 17.2358 14.7876 17.3769C15.2291 17.4435 15.6403 17.8945 15.0779 18.7513C14.8985 19.0265 14.5976 19.2725 14.3672 19.029C14.2236 18.8778 14.3491 18.6022 14.4998 18.4137C14.5584 18.3368 14.6351 18.2756 14.723 18.2353C14.8109 18.1951 14.9073 18.1771 15.0038 18.1828C15.0038 18.1828 15.1585 17.83 14.7649 17.8351C14.4464 17.8411 13.64 18.5835 13.1849 19.3335C12.7675 20.0219 12.135 21.1947 12.7701 21.4503C13.3522 21.6851 14.46 20.3702 14.973 19.6812C15.4861 18.9923 16.6554 17.4309 17.6362 17.3684C17.9739 17.3462 18.175 17.6541 18.175 17.6541L18.2884 17.4747H19.2691C19.2691 17.4747 17.422 20.5572 17.2778 20.7905C17.1644 20.973 17.0137 21.3832 17.429 21.1534C17.8443 20.9236 18.7147 19.8057 18.7147 19.8057ZM18.181 24.7449C17.4589 24.245 16.5941 23.9927 15.7164 24.0257C15.4789 24.0322 15.2462 24.0946 15.0373 24.2078C14.8283 24.321 14.649 24.4819 14.5139 24.6774C14.1399 24.0247 13.4006 23.624 12.2575 23.6331C10.4103 23.6543 8.5783 24.506 7.12678 24.505C5.73574 24.505 4.72118 23.6306 4.75394 22.0777C4.81493 19.3526 7.1177 16.8986 8.83634 15.7944C9.82721 15.1598 10.6558 14.9713 11.1976 15.0323C11.5927 15.0762 12.068 15.5328 11.7681 16.2056C11.3276 17.1889 10.7193 17.1083 10.742 16.6381C10.7546 16.3321 10.9582 16.1396 11.1114 16.0333C11.2087 15.9662 11.3805 15.9471 11.4702 15.9451C11.5574 15.8715 11.6214 15.3332 10.9158 15.5101C10.2102 15.687 9.35345 16.3825 8.53999 17.2812C7.72654 18.1798 6.45999 19.8783 6.147 21.6619C6.00084 22.489 6.0966 23.9975 8.05766 23.9803C9.72086 23.9667 12.1723 22.8715 14.4252 22.8942C15.2996 22.9028 16.0607 23.1387 16.6539 23.5046C17.2365 23.8634 17.9351 24.3876 18.183 24.7454" fill="white"/>
</g>
<defs>
<clipPath id="clip0_3276_6722">
<rect width="31" height="9.72418" fill="white" transform="translate(4.74927 15.0205)"/>
</clipPath>
</defs>
</svg>
