<svg width="25" height="25" viewBox="0 0 25 25" fill="none" xmlns="http://www.w3.org/2000/svg">
<path d="M12 3.5C8.41072 3.5 5.5 6.41072 5.5 10C5.5 11.1833 5.8179 12.2913 6.37041 13.2459C7.21541 14.7023 8.44839 16.1974 8.69721 17.3126H15.3018C15.5516 16.1974 16.7836 14.7024 17.6276 13.2459C18.1821 12.2912 18.5 11.1831 18.5 10C18.5 6.41072 15.5893 3.5 12 3.5H12ZM16.1356 9.73302C16.0645 9.7513 15.9944 9.76044 15.9244 9.76044C15.5659 9.76044 15.2368 9.52075 15.1403 9.15817C15.0652 8.88395 14.9575 8.6209 14.8163 8.37614C14.8163 8.37512 14.8153 8.37411 14.8143 8.37411C14.6711 8.1263 14.4984 7.90083 14.2983 7.70177C14.0972 7.49966 13.8708 7.32599 13.624 7.18278C13.3772 7.04059 13.1141 6.9309 12.8419 6.85879C12.4093 6.74301 12.1513 6.29714 12.2671 5.86348C12.3829 5.4298 12.8298 5.17287 13.2634 5.28864C13.6717 5.39833 14.0617 5.56084 14.4294 5.77108C14.4314 5.77412 14.4344 5.77615 14.4375 5.77717C14.4385 5.77717 14.4385 5.77819 14.4395 5.77819C14.8072 5.99147 15.1474 6.25248 15.448 6.55413C15.7466 6.85272 16.0087 7.19296 16.222 7.56164C16.4352 7.92725 16.5998 8.32337 16.7115 8.73773C16.8252 9.1704 16.5683 9.61625 16.1356 9.73304L16.1356 9.73302Z" fill="#191A1E"/>
<path d="M8.75 18.1473V19.75C8.75 20.1989 9.11359 20.5625 9.5625 20.5625L10.118 22.2302C10.2887 22.74 10.6492 23 11.1875 23H12.8125C13.3508 23 13.7103 22.74 13.882 22.2302L14.4375 20.5625C14.8865 20.5625 15.25 20.1989 15.25 19.75V18.125H8.75V18.1473Z" fill="#191A1E"/>
</svg>
