<svg width="16" height="16" viewBox="0 0 16 16" fill="none" xmlns="http://www.w3.org/2000/svg">
<path d="M7.36606 1.95122C7.56606 1.33722 8.43473 1.33722 8.63406 1.95122L9.64673 5.06722C9.69031 5.20088 9.77503 5.31734 9.88878 5.39996C10.0025 5.48258 10.1395 5.52712 10.2801 5.52722H13.5567C14.2027 5.52722 14.4707 6.35389 13.9487 6.73389L11.2981 8.65922C11.1842 8.742 11.0995 8.85869 11.056 8.99258C11.0125 9.12647 11.0125 9.27068 11.0561 9.40456L12.0681 12.5206C12.2681 13.1352 11.5647 13.6459 11.0427 13.2659L8.39206 11.3406C8.27814 11.2577 8.14091 11.2131 8.00006 11.2131C7.85922 11.2131 7.72199 11.2577 7.60806 11.3406L4.9574 13.2659C4.4354 13.6459 3.73206 13.1346 3.93206 12.5206L4.94406 9.40456C4.98758 9.27068 4.98761 9.12647 4.94414 8.99258C4.90066 8.85869 4.81593 8.742 4.70206 8.65922L2.0514 6.73389C1.52873 6.35389 1.79806 5.52722 2.4434 5.52722H5.7194C5.8601 5.52726 5.9972 5.48278 6.11108 5.40015C6.22496 5.31753 6.30978 5.20099 6.3534 5.06722L7.36606 1.95122Z" stroke="#737373" stroke-width="1.2" stroke-linecap="round" stroke-linejoin="round"/>
</svg>
