<svg width="16" height="16" viewBox="0 0 16 16" fill="none" xmlns="http://www.w3.org/2000/svg">
<path d="M4.45394 11.8166C5.12317 11.8166 5.66569 11.2717 5.66569 10.5995C5.66569 9.92725 5.12317 9.38232 4.45394 9.38232C3.78471 9.38232 3.24219 9.92725 3.24219 10.5995C3.24219 11.2717 3.78471 11.8166 4.45394 11.8166Z" stroke="#737373" stroke-width="1.2" stroke-miterlimit="10" stroke-linecap="round"/>
<path d="M11.6825 11.8166C12.3517 11.8166 12.8942 11.2717 12.8942 10.5995C12.8942 9.92725 12.3517 9.38232 11.6825 9.38232C11.0132 9.38232 10.4707 9.92725 10.4707 10.5995C10.4707 11.2717 11.0132 11.8166 11.6825 11.8166Z" stroke="#737373" stroke-width="1.2" stroke-miterlimit="10" stroke-linecap="round"/>
<path d="M2 7.10779V3.67822H10.1384V8.56128" stroke="#737373" stroke-width="1.2" stroke-miterlimit="10" stroke-linecap="round" stroke-linejoin="round"/>
<path d="M2 6.77515V10.259H3.16129" stroke="#737373" stroke-width="1.2" stroke-miterlimit="10" stroke-linecap="round"/>
<path d="M5.66602 10.3269H10.3231" stroke="#737373" stroke-width="1.2" stroke-miterlimit="10" stroke-linecap="round"/>
<path d="M12.9229 10.3269H13.9611V8.28628C13.9611 8.28628 14.1178 7.16604 12.9965 7.13577C11.8812 7.11154 10.4766 7.13577 10.4766 7.13577" stroke="#737373" stroke-width="1.2" stroke-miterlimit="10" stroke-linecap="round" stroke-linejoin="round"/>
<path d="M12.8379 5.61377L13.225 7.16216" stroke="#737373" stroke-width="1.2" stroke-miterlimit="10" stroke-linecap="round"/>
<path d="M10.6816 5.13721L12.7415 5.2884" stroke="#737373" stroke-width="1.2" stroke-miterlimit="10" stroke-linecap="round"/>
</svg>
