<svg width="16" height="16" viewBox="0 0 16 16" fill="none" xmlns="http://www.w3.org/2000/svg">
<path d="M7.33336 2.03662C6.21035 2.16212 5.1456 2.60217 4.26165 3.30611C3.3777 4.01005 2.71048 4.94928 2.33678 6.0157C1.96308 7.08212 1.89809 8.23239 2.14929 9.33411C2.40049 10.4358 2.95767 11.4442 3.7567 12.2433C4.55573 13.0423 5.56414 13.5995 6.66586 13.8507C7.76759 14.1019 8.91785 14.0369 9.98427 13.6632C11.0507 13.2895 11.9899 12.6223 12.6939 11.7383C13.3978 10.8544 13.8379 9.78963 13.9634 8.66662H7.33336V2.03662Z" stroke="#171717" stroke-width="1.2" stroke-linecap="round" stroke-linejoin="round"/>
<path d="M13.6587 5.99998H10V2.34131C10.8436 2.64059 11.6098 3.12433 12.2427 3.75727C12.8756 4.3902 13.3594 5.15639 13.6587 5.99998Z" stroke="#171717" stroke-width="1.2" stroke-linecap="round" stroke-linejoin="round"/>
</svg>
