<svg width="16" height="16" viewBox="0 0 16 16" fill="none" xmlns="http://www.w3.org/2000/svg">
<path d="M6.35762 2.70801H2.86564C2.77797 2.70801 2.70691 2.77907 2.70691 2.86673V6.35872C2.70691 6.44639 2.77797 6.51745 2.86564 6.51745H6.35763C6.44529 6.51745 6.51635 6.44639 6.51635 6.35872V2.86673C6.51635 2.77907 6.44529 2.70801 6.35762 2.70801Z" fill="black"/>
<path d="M2.16284 13.4319C2.16284 13.5196 2.23391 13.5907 2.32157 13.5907H7.1978C7.28546 13.5907 7.35653 13.5196 7.35653 13.4319V8.5557C7.35653 8.46804 7.28546 8.39697 7.1978 8.39697H2.32157C2.23391 8.39697 2.16284 8.46804 2.16284 8.5557V13.4319ZM3.20133 9.59419C3.20133 9.50653 3.27239 9.43546 3.36006 9.43546H6.15931C6.24698 9.43546 6.31804 9.50653 6.31804 9.59419V12.386C6.31804 12.4736 6.24698 12.5447 6.15931 12.5447H3.36006C3.27239 12.5447 3.20133 12.4736 3.20133 12.386V9.59419Z" fill="white"/>
<path d="M5.12073 10.4746H4.39969C4.31203 10.4746 4.24097 10.5457 4.24097 10.6333V11.3544C4.24097 11.442 4.31203 11.5131 4.39969 11.5131H5.12073C5.20839 11.5131 5.27946 11.442 5.27946 11.3544V10.6333C5.27946 10.5457 5.20839 10.4746 5.12073 10.4746Z" fill="white"/>
<path d="M11.3535 12.5522H10.6325C10.5448 12.5522 10.4738 12.6233 10.4738 12.711V13.432C10.4738 13.5197 10.5448 13.5907 10.6325 13.5907H11.3535C11.4412 13.5907 11.5122 13.5197 11.5122 13.432V12.711C11.5122 12.6233 11.4412 12.5522 11.3535 12.5522Z" fill="white"/>
<path d="M13.4326 12.5522H12.7104C12.6227 12.5522 12.5516 12.6233 12.5516 12.711V13.432C12.5516 13.5197 12.6227 13.5907 12.7104 13.5907H13.4326C13.5203 13.5907 13.5914 13.5197 13.5914 13.432V12.711C13.5914 12.6233 13.5203 12.5522 13.4326 12.5522Z" fill="white"/>
<path d="M12.5511 9.43524H11.6713C11.5837 9.43524 11.5126 9.36418 11.5126 9.27652V8.55548C11.5126 8.46782 11.4415 8.39675 11.3539 8.39675H8.55338C8.46572 8.39675 8.39465 8.46782 8.39465 8.55548V13.4317C8.39465 13.5194 8.46572 13.5904 8.55338 13.5904H9.27442C9.36208 13.5904 9.43314 13.5194 9.43314 13.4317V10.6325C9.43314 10.5448 9.50421 10.4737 9.59187 10.4737H10.3129C10.4006 10.4737 10.4716 10.5448 10.4716 10.6325V11.3535C10.4716 11.4412 10.5427 11.5122 10.6304 11.5122H13.4296C13.5173 11.5122 13.5883 11.4412 13.5883 11.3535V8.55423C13.5883 8.46657 13.5173 8.39551 13.4296 8.39551H12.7086C12.6209 8.39551 12.5499 8.46657 12.5499 8.55423V9.434C12.5499 9.43468 12.5504 9.43524 12.5511 9.43524Z" fill="white"/>
<path d="M2.16284 7.19853C2.16284 7.2862 2.23391 7.35726 2.32157 7.35726H7.1978C7.28546 7.35726 7.35653 7.2862 7.35653 7.19853V2.3223C7.35653 2.23464 7.28546 2.16357 7.1978 2.16357H2.32157C2.23391 2.16357 2.16284 2.23464 2.16284 2.3223V7.19853ZM3.20133 3.36079C3.20133 3.27313 3.27239 3.20206 3.36006 3.20206H6.15931C6.24698 3.20206 6.31804 3.27313 6.31804 3.36079V6.16005C6.31804 6.24771 6.24698 6.31877 6.15931 6.31877H3.36006C3.27239 6.31877 3.20133 6.24771 3.20133 6.16005V3.36079Z" fill="white"/>
<path d="M5.12073 4.24121H4.39969C4.31203 4.24121 4.24097 4.31228 4.24097 4.39994V5.12097C4.24097 5.20863 4.31203 5.2797 4.39969 5.2797H5.12073C5.20839 5.2797 5.27946 5.20864 5.27946 5.12097V4.39994C5.27946 4.31228 5.20839 4.24121 5.12073 4.24121Z" fill="white"/>
<path d="M8.55338 2.16357C8.46572 2.16357 8.39465 2.23464 8.39465 2.3223V7.19853C8.39465 7.2862 8.46572 7.35726 8.55338 7.35726H13.4309C13.5185 7.35726 13.5896 7.2862 13.5896 7.19853V2.3223C13.5896 2.23464 13.5185 2.16357 13.4309 2.16357H8.55338ZM12.5511 6.16005C12.5511 6.24771 12.48 6.31877 12.3924 6.31877H9.59311C9.50545 6.31877 9.43439 6.24771 9.43439 6.16005V3.36079C9.43439 3.27313 9.50545 3.20206 9.59311 3.20206H12.3924C12.48 3.20206 12.5511 3.27313 12.5511 3.36079V6.16005Z" fill="white"/>
<path d="M11.3535 4.24121H10.6325C10.5448 4.24121 10.4738 4.31228 10.4738 4.39994V5.12097C10.4738 5.20863 10.5448 5.2797 10.6325 5.2797H11.3535C11.4412 5.2797 11.5122 5.20864 11.5122 5.12097V4.39994C11.5122 4.31228 11.4412 4.24121 11.3535 4.24121Z" fill="white"/>
</svg>
