<svg width="16" height="16" viewBox="0 0 16 16" fill="none" xmlns="http://www.w3.org/2000/svg">
<path d="M13 3.40039C13.8837 3.40039 14.5996 4.11634 14.5996 5V9C14.5996 9.88366 13.8837 10.5996 13 10.5996H12.5996V11C12.5996 11.8837 11.8837 12.5996 11 12.5996H3C2.11634 12.5996 1.40039 11.8837 1.40039 11V7C1.40039 6.11634 2.11634 5.40039 3 5.40039H3.40039V5C3.40039 4.11634 4.11634 3.40039 5 3.40039H13ZM3 6.59961C2.77909 6.59961 2.59961 6.77909 2.59961 7V11C2.59961 11.2209 2.77909 11.4004 3 11.4004H11C11.2209 11.4004 11.4004 11.2209 11.4004 11V7C11.4004 6.77909 11.2209 6.59961 11 6.59961H3ZM7 7C8.10457 7 9 7.89543 9 9C9 10.1046 8.10457 11 7 11C5.89543 11 5 10.1046 5 9C5 7.89543 5.89543 7 7 7ZM7 8.2002C6.55817 8.2002 6.2002 8.55817 6.2002 9C6.2002 9.44183 6.55817 9.7998 7 9.7998C7.44183 9.7998 7.7998 9.44183 7.7998 9C7.7998 8.55817 7.44183 8.2002 7 8.2002ZM5 4.59961C4.77909 4.59961 4.59961 4.77909 4.59961 5V5.40039H11C11.8837 5.40039 12.5996 6.11634 12.5996 7V9.40039H13C13.2209 9.40039 13.4004 9.22091 13.4004 9V5C13.4004 4.77909 13.2209 4.59961 13 4.59961H5Z" fill="black"/>
</svg>
