<svg width="49" height="48" viewBox="0 0 49 48" fill="none" xmlns="http://www.w3.org/2000/svg">
<rect x="0.5" width="48" height="48" rx="24" fill="#FEF9C3"/>
<path fill-rule="evenodd" clip-rule="evenodd" d="M22.4082 15.7191C23.3262 14.0871 25.6746 14.0871 26.5914 15.7191L33.2874 27.6231C34.1874 29.2239 33.0318 31.1991 31.197 31.1991H17.8038C15.9678 31.1991 14.8122 29.2239 15.7122 27.6231L22.4082 15.7191ZM25.6998 27.6003C25.6998 27.9186 25.5734 28.2238 25.3483 28.4488C25.1233 28.6739 24.8181 28.8003 24.4998 28.8003C24.1816 28.8003 23.8763 28.6739 23.6513 28.4488C23.4262 28.2238 23.2998 27.9186 23.2998 27.6003C23.2998 27.2821 23.4262 26.9768 23.6513 26.7518C23.8763 26.5267 24.1816 26.4003 24.4998 26.4003C24.8181 26.4003 25.1233 26.5267 25.3483 26.7518C25.5734 26.9768 25.6998 27.2821 25.6998 27.6003ZM24.4998 18.0003C24.1816 18.0003 23.8763 18.1267 23.6513 18.3518C23.4262 18.5768 23.2998 18.8821 23.2998 19.2003V22.8003C23.2998 23.1186 23.4262 23.4238 23.6513 23.6488C23.8763 23.8739 24.1816 24.0003 24.4998 24.0003C24.8181 24.0003 25.1233 23.8739 25.3483 23.6488C25.5734 23.4238 25.6998 23.1186 25.6998 22.8003V19.2003C25.6998 18.8821 25.5734 18.5768 25.3483 18.3518C25.1233 18.1267 24.8181 18.0003 24.4998 18.0003Z" fill="#CA8A04"/>
</svg>
