<svg width="16" height="16" viewBox="0 0 16 16" fill="none" xmlns="http://www.w3.org/2000/svg">
<path d="M10.6663 4.66667C10.6663 5.37391 10.3854 6.05219 9.88529 6.55229C9.3852 7.05238 8.70692 7.33333 7.99967 7.33333C7.29243 7.33333 6.61415 7.05238 6.11406 6.55229C5.61396 6.05219 5.33301 5.37391 5.33301 4.66667C5.33301 3.95942 5.61396 3.28115 6.11406 2.78105C6.61415 2.28095 7.29243 2 7.99967 2C8.70692 2 9.3852 2.28095 9.88529 2.78105C10.3854 3.28115 10.6663 3.95942 10.6663 4.66667ZM7.99967 9.33333C6.762 9.33333 5.57501 9.825 4.69984 10.7002C3.82467 11.5753 3.33301 12.7623 3.33301 14H12.6663C12.6663 12.7623 12.1747 11.5753 11.2995 10.7002C10.4243 9.825 9.23735 9.33333 7.99967 9.33333Z" stroke="#737373" stroke-width="1.2" stroke-linecap="round" stroke-linejoin="round"/>
</svg>
