<svg width="16" height="16" viewBox="0 0 16 16" fill="none" xmlns="http://www.w3.org/2000/svg">
<path d="M7.36606 1.95171C7.56606 1.33771 8.43473 1.33771 8.63406 1.95171L9.64673 5.06771C9.69031 5.20137 9.77503 5.31783 9.88878 5.40045C10.0025 5.48306 10.1395 5.52761 10.2801 5.52771H13.5567C14.2027 5.52771 14.4707 6.35438 13.9487 6.73438L11.2981 8.65971C11.1842 8.74249 11.0995 8.85918 11.056 8.99307C11.0125 9.12696 11.0125 9.27117 11.0561 9.40504L12.0681 12.521C12.2681 13.1357 11.5647 13.6464 11.0427 13.2664L8.39206 11.341C8.27814 11.2582 8.14091 11.2136 8.00006 11.2136C7.85922 11.2136 7.72199 11.2582 7.60806 11.341L4.9574 13.2664C4.4354 13.6464 3.73206 13.135 3.93206 12.521L4.94406 9.40504C4.98758 9.27117 4.98761 9.12696 4.94414 8.99307C4.90066 8.85918 4.81593 8.74249 4.70206 8.65971L2.0514 6.73438C1.52873 6.35438 1.79806 5.52771 2.4434 5.52771H5.7194C5.8601 5.52775 5.9972 5.48327 6.11108 5.40064C6.22496 5.31802 6.30978 5.20148 6.3534 5.06771L7.36606 1.95171Z" stroke="#737373" stroke-width="1.2" stroke-linecap="round" stroke-linejoin="round"/>
</svg>
