<svg width="16" height="16" viewBox="0 0 16 16" fill="none" xmlns="http://www.w3.org/2000/svg">
<path d="M9.0625 9.0625C9.35417 8.77083 9.5 8.41667 9.5 8C9.5 7.58333 9.35417 7.22917 9.0625 6.9375C8.77083 6.64583 8.41667 6.5 8 6.5C7.58333 6.5 7.22917 6.64583 6.9375 6.9375C6.64583 7.22917 6.5 7.58333 6.5 8C6.5 8.41667 6.64583 8.77083 6.9375 9.0625C7.22917 9.35417 7.58333 9.5 8 9.5C8.41667 9.5 8.77083 9.35417 9.0625 9.0625Z" fill="black"/>
<path d="M6.70833 4.70833C6.90278 4.51389 7 4.27778 7 4C7 3.72222 6.90278 3.48611 6.70833 3.29167C6.51389 3.09722 6.27778 3 6 3C5.72222 3 5.48611 3.09722 5.29167 3.29167C5.09722 3.48611 5 3.72222 5 4C5 4.27778 5.09722 4.51389 5.29167 4.70833C5.48611 4.90278 5.72222 5 6 5C6.27778 5 6.51389 4.90278 6.70833 4.70833Z" fill="black"/>
<path d="M10.7083 4.70833C10.9028 4.51389 11 4.27778 11 4C11 3.72222 10.9028 3.48611 10.7083 3.29167C10.5139 3.09722 10.2778 3 10 3C9.72222 3 9.48611 3.09722 9.29167 3.29167C9.09722 3.48611 9 3.72222 9 4C9 4.27778 9.09722 4.51389 9.29167 4.70833C9.48611 4.90278 9.72222 5 10 5C10.2778 5 10.5139 4.90278 10.7083 4.70833Z" fill="black"/>
<path d="M10.7083 12.7083C10.9028 12.5139 11 12.2778 11 12C11 11.7222 10.9028 11.4861 10.7083 11.2917C10.5139 11.0972 10.2778 11 10 11C9.72222 11 9.48611 11.0972 9.29167 11.2917C9.09722 11.4861 9 11.7222 9 12C9 12.2778 9.09722 12.5139 9.29167 12.7083C9.48611 12.9028 9.72222 13 10 13C10.2778 13 10.5139 12.9028 10.7083 12.7083Z" fill="black"/>
<path d="M6.70833 12.7083C6.90278 12.5139 7 12.2778 7 12C7 11.7222 6.90278 11.4861 6.70833 11.2917C6.51389 11.0972 6.27778 11 6 11C5.72222 11 5.48611 11.0972 5.29167 11.2917C5.09722 11.4861 5 11.7222 5 12C5 12.2778 5.09722 12.5139 5.29167 12.7083C5.48611 12.9028 5.72222 13 6 13C6.27778 13 6.51389 12.9028 6.70833 12.7083Z" fill="black"/>
<path d="M3.71387 10.4419C3.71387 10.4419 1.89988 9.73645 1.89988 7.62013C1.89988 5.50381 3.71387 4.99993 3.71387 4.99993" stroke="black" stroke-width="1.10145" stroke-linecap="round"/>
<path d="M3.71947 10.4375L3.53406 9.3994C3.51817 9.31042 3.53662 9.22806 3.5894 9.15233C3.64218 9.07659 3.71307 9.03077 3.80204 9.01488C3.89102 8.99899 3.97338 9.01743 4.04912 9.07022C4.12485 9.123 4.17067 9.19388 4.18656 9.28286L4.42892 10.6398C4.43686 10.6842 4.43594 10.729 4.42614 10.7741C4.41634 10.8193 4.39927 10.8593 4.3749 10.8942C4.35054 10.9292 4.3189 10.9591 4.27997 10.9839C4.24104 11.0087 4.19934 11.0251 4.15485 11.033L2.79795 11.2754C2.70897 11.2913 2.62662 11.2728 2.55088 11.22C2.47514 11.1672 2.42932 11.0964 2.41343 11.0074C2.39754 10.9184 2.41598 10.8361 2.46877 10.7603C2.52155 10.6846 2.59243 10.6388 2.68141 10.6229L3.71947 10.4375Z" fill="black"/>
<path d="M12.4102 5.12695C12.4102 5.12695 14.2241 5.83239 14.2241 7.94871C14.2241 10.065 12.4102 10.5689 12.4102 10.5689" stroke="black" stroke-width="1.10145" stroke-linecap="round"/>
<path d="M12.4046 5.13187L12.59 6.16994C12.6059 6.25891 12.5874 6.34127 12.5346 6.41701C12.4818 6.49275 12.411 6.53856 12.322 6.55446C12.233 6.57035 12.1506 6.5519 12.0749 6.49912C11.9992 6.44634 11.9534 6.37546 11.9375 6.28648L11.6951 4.92958C11.6872 4.88509 11.6881 4.84029 11.6979 4.79519C11.7077 4.75008 11.7248 4.71005 11.7491 4.67509C11.7735 4.64014 11.8051 4.61025 11.8441 4.58545C11.883 4.56064 11.9247 4.54427 11.9692 4.53632L13.3261 4.29397C13.4151 4.27807 13.4974 4.29652 13.5731 4.3493C13.6489 4.40209 13.6947 4.47297 13.7106 4.56194C13.7265 4.65092 13.708 4.73328 13.6553 4.80902C13.6025 4.88476 13.5316 4.93057 13.4426 4.94646L12.4046 5.13187Z" fill="black"/>
<rect x="5.5" y="3.5" width="5" height="9" rx="0.5" stroke="black"/>
</svg>
