<svg width="16" height="16" viewBox="0 0 16 16" fill="none" xmlns="http://www.w3.org/2000/svg">
<path d="M9.05491 2.21974C8.74799 1.92675 8.24955 1.92675 7.94263 2.21974L4.79978 5.21988C4.49286 5.51287 4.49286 5.98867 4.79978 6.28165C5.1067 6.57464 5.60513 6.57464 5.91205 6.28165L7.71429 4.56126V9.49978C7.71429 9.91464 8.0654 10.2498 8.5 10.2498C8.9346 10.2498 9.28571 9.91464 9.28571 9.49978V4.56126L11.0879 6.28165C11.3949 6.57464 11.8933 6.57464 12.2002 6.28165C12.5071 5.98867 12.5071 5.51287 12.2002 5.21988L9.05737 2.21974H9.05491ZM4.57143 10.2498C4.57143 9.83495 4.22031 9.49978 3.78571 9.49978C3.35112 9.49978 3 9.83495 3 10.2498V11.7499C3 12.9921 4.0558 14 5.35714 14H11.6429C12.9442 14 14 12.9921 14 11.7499V10.2498C14 9.83495 13.6489 9.49978 13.2143 9.49978C12.7797 9.49978 12.4286 9.83495 12.4286 10.2498V11.7499C12.4286 12.1648 12.0775 12.4999 11.6429 12.4999H5.35714C4.92254 12.4999 4.57143 12.1648 4.57143 11.7499V10.2498Z" fill="#737373"/>
</svg>
