<svg width="16" height="16" viewBox="0 0 16 16" fill="none" xmlns="http://www.w3.org/2000/svg">
<path d="M1.10881 7.25266C1.44172 6.8507 1.79024 6.48486 2.15141 6.15605C3.78464 4.66957 5.72389 3.87546 7.72318 3.83558C8.4707 3.82066 9.22539 3.91135 9.97415 4.11085L9.30149 4.78351C8.77957 4.67914 8.25696 4.63266 7.73902 4.64303C5.93763 4.67903 4.1826 5.40148 2.69612 6.75454C2.43134 6.99551 2.17636 7.25471 1.93254 7.53157C2.39636 8.06944 2.91237 8.53429 3.46517 8.92462C3.8056 9.16514 4.15982 9.37728 4.52429 9.56105L3.92477 10.1606C3.60781 9.98921 3.29883 9.7978 2.99964 9.58646C2.29975 9.09222 1.65375 8.4894 1.08785 7.78062C0.961494 7.62146 0.974027 7.39667 1.10881 7.25266ZM11.941 3L12.6124 3.67141L4.20368 12.0803L3.53216 11.4087L11.941 3ZM12.1335 5.00624C12.6374 5.29415 13.1324 5.63606 13.614 6.03323C14.0557 6.39736 14.4838 6.8049 14.8946 7.2563C15.0271 7.4018 15.0336 7.61759 14.9203 7.7698C14.4497 8.43448 13.9091 9.0021 13.3174 9.47458C11.8372 10.6562 10.0392 11.2379 8.21788 11.2461C7.52129 11.2492 7.10156 10.8883 6.41489 10.7248L6.81878 10.3211C7.28192 10.4014 7.74927 10.4406 8.21469 10.4386C9.85771 10.4313 11.4792 9.90672 12.8137 8.84122C13.2692 8.47766 13.6917 8.05064 14.0702 7.55902C13.7526 7.22805 13.4291 6.92749 13.1008 6.6569C12.5932 6.23843 12.0706 5.88683 11.5391 5.6004L12.1335 5.00624ZM8.00004 5.06708C8.30356 5.06708 8.59431 5.12189 8.86319 5.22192L8.21503 5.87008C8.14451 5.86108 8.07284 5.85652 8.00015 5.85652C7.53519 5.85652 7.11432 6.04497 6.80967 6.34963C6.50501 6.65428 6.31657 7.07526 6.31657 7.54022C6.31657 7.61303 6.32112 7.68469 6.33012 7.75499L5.68196 8.40338C5.58181 8.13461 5.52713 7.84374 5.52713 7.54022C5.52713 6.8572 5.80398 6.23911 6.25151 5.79147C6.69893 5.34383 7.31712 5.06708 8.00004 5.06708ZM10.3554 6.78439C10.4317 7.02251 10.473 7.27658 10.473 7.54022C10.473 8.22314 10.1961 8.84134 9.74868 9.28887C9.30104 9.73639 8.68284 10.0131 8.00004 10.0131C7.73651 10.0131 7.48256 9.97201 7.24432 9.89544L7.91812 9.22165C7.94524 9.22301 7.97258 9.2237 8.00004 9.2237C8.465 9.2237 8.88587 9.03548 9.19052 8.73082C9.49518 8.42617 9.68362 8.00518 9.68362 7.54034C9.68362 7.51288 9.68294 7.48565 9.68157 7.45831L10.3554 6.78439Z" fill="#171717" stroke="#171717" stroke-width="0.3"/>
</svg>
