<svg width="16" height="16" viewBox="0 0 16 16" fill="none" xmlns="http://www.w3.org/2000/svg">
<path d="M11.9067 4.22279C13.1064 5.02479 14.1398 6.18763 14.9237 7.60046L15 7.73846L14.9237 7.87533C14.1398 9.28816 13.1053 10.451 11.9067 11.253C10.7367 12.0358 9.4082 12.4769 8 12.4769C6.5918 12.4769 5.26335 12.0358 4.0944 11.2541C2.89355 10.451 1.86019 9.28816 1.07633 7.87533L1 7.73846L1.07633 7.60046C1.86019 6.18763 2.89355 5.02479 4.09326 4.22279C5.26335 3.44116 6.5918 3 8 3C9.4082 3 10.7355 3.44116 11.9067 4.22279ZM7.92594 5.5078L8.39079 5.55191C8.22559 5.79851 8.1276 6.09714 8.1276 6.41952C8.1276 7.26563 8.79525 7.95112 9.62012 7.95112C9.88444 7.95112 10.1328 7.88099 10.3481 7.75656C10.3516 7.80973 10.3538 7.86289 10.3538 7.91719C10.3538 9.24857 9.26693 10.3277 7.92594 10.3277C6.58496 10.3277 5.49805 9.24857 5.49805 7.91719C5.49805 6.58693 6.58496 5.5078 7.92594 5.5078ZM13.4186 7.73846C12.792 6.64575 11.9819 5.74761 11.05 5.12433C10.1328 4.51124 9.09603 4.1651 8 4.1651C6.90511 4.1651 5.86833 4.51124 4.95117 5.12433C4.01921 5.74761 3.20915 6.64575 2.58138 7.73846C3.20801 8.83117 4.01921 9.72932 4.95117 10.3515C5.86833 10.9646 6.90511 11.3107 8 11.3107C9.09603 11.3107 10.1317 10.9646 11.05 10.3515C11.9819 9.72932 12.792 8.83117 13.4186 7.73846Z" fill="#171717"/>
</svg>
