<svg width="26" height="25" viewBox="0 0 26 25" fill="none" xmlns="http://www.w3.org/2000/svg">
<path d="M20.292 7.29167L19.3889 19.9396C19.3515 20.4652 19.1163 20.9571 18.7307 21.3162C18.345 21.6753 17.8377 21.875 17.3107 21.875H8.68991C8.16297 21.875 7.6556 21.6753 7.27 21.3162C6.88439 20.9571 6.6492 20.4652 6.61178 19.9396L5.70866 7.29167M10.917 11.4583V17.7083M15.0837 11.4583V17.7083M16.1253 7.29167V4.16667C16.1253 3.8904 16.0156 3.62545 15.8202 3.4301C15.6249 3.23475 15.3599 3.125 15.0837 3.125H10.917C10.6407 3.125 10.3758 3.23475 10.1804 3.4301C9.98507 3.62545 9.87533 3.8904 9.87533 4.16667V7.29167M4.66699 7.29167H21.3337" stroke="#171717" stroke-width="1.875" stroke-linecap="round" stroke-linejoin="round"/>
</svg>
