<svg width="16" height="16" viewBox="0 0 16 16" fill="none" xmlns="http://www.w3.org/2000/svg">
<rect x="2.42642" y="2.42642" width="7.14717" height="11.1472" rx="1.57358" stroke="black" stroke-width="0.852832"/>
<rect x="3.57358" y="3.57358" width="4.85283" height="6.85283" rx="0.526416" stroke="black" stroke-width="0.852832"/>
<path fill-rule="evenodd" clip-rule="evenodd" d="M9.5 14C11.433 14 13 12.433 13 10.5C13 8.567 11.433 7 9.5 7C7.567 7 6 8.567 6 10.5C6 12.433 7.567 14 9.5 14Z" fill="white" stroke="black" stroke-width="0.852832" stroke-linecap="round" stroke-linejoin="round"/>
<path d="M8.20117 12.1883V8.7002H8.97842V12.1883H8.20117ZM10.3007 12.1883L9.28648 10.7002H10.1396L11.2012 12.1883H10.3007ZM8.76989 11.0793V10.468H9.62297C9.73672 10.468 9.83466 10.4459 9.91681 10.4016C10.0021 10.3542 10.0669 10.2895 10.1111 10.2073C10.1585 10.122 10.1822 10.024 10.1822 9.91347C10.1822 9.80288 10.1585 9.70651 10.1111 9.62437C10.0669 9.53906 10.0021 9.47429 9.91681 9.43005C9.83466 9.38266 9.73672 9.35896 9.62297 9.35896H8.76989V8.7002H9.56136C9.84888 8.7002 10.0985 8.74443 10.3102 8.8329C10.5219 8.9182 10.6846 9.04617 10.7983 9.21678C10.9121 9.3874 10.9689 9.60225 10.9689 9.86133V9.93716C10.9689 10.1931 10.9105 10.4064 10.7936 10.577C10.6798 10.7444 10.5171 10.8708 10.3054 10.9561C10.0969 11.0383 9.84888 11.0793 9.56136 11.0793H8.76989Z" fill="black"/>
<line x1="4" y1="12" x2="5" y2="12" stroke="black" stroke-linecap="round"/>
</svg>
