<svg width="16" height="16" viewBox="0 0 16 16" fill="none" xmlns="http://www.w3.org/2000/svg">
<path d="M11.8462 9.1534C12.4834 9.1534 13 8.6368 13 7.99955C13 7.3623 12.4834 6.8457 11.8462 6.8457C11.2089 6.8457 10.6923 7.3623 10.6923 7.99955C10.6923 8.6368 11.2089 9.1534 11.8462 9.1534Z" fill="white"/>
<path d="M7.99998 9.1534C8.63723 9.1534 9.15382 8.6368 9.15382 7.99955C9.15382 7.3623 8.63723 6.8457 7.99998 6.8457C7.36272 6.8457 6.84613 7.3623 6.84613 7.99955C6.84613 8.6368 7.36272 9.1534 7.99998 9.1534Z" fill="white"/>
<path d="M4.15385 9.1534C4.7911 9.1534 5.30769 8.6368 5.30769 7.99955C5.30769 7.3623 4.7911 6.8457 4.15385 6.8457C3.51659 6.8457 3 7.3623 3 7.99955C3 8.6368 3.51659 9.1534 4.15385 9.1534Z" fill="white"/>
</svg>
