<svg width="16" height="16" viewBox="0 0 16 16" fill="none" xmlns="http://www.w3.org/2000/svg">
<path d="M10.3868 2H5.97067C5.60129 2 5.30078 2.30051 5.30078 2.66992V7.7921C5.26147 7.84555 5.19603 7.932 5.13199 8.0166C4.89483 8.32991 4.53643 8.80342 4.3227 9.1399C3.90122 9.80446 3.89308 10.4685 4.29553 11.3603C4.29834 11.3666 4.30141 11.3727 4.30474 11.3786C4.30474 11.3786 4.80864 12.29 4.83024 12.3299C4.95746 12.5649 5.17039 12.9583 5.15689 13.2675C5.15674 13.2711 5.15667 13.2747 5.15667 13.2783V14.0117C5.15667 14.3911 5.46538 14.6999 5.84484 14.6999H8.08627C8.46572 14.6999 8.77444 14.3911 8.77444 14.0117L8.77233 13.3691C8.77246 13.1218 8.80986 12.9915 8.85716 12.8266C8.88948 12.714 8.92607 12.5864 8.95234 12.4135C8.95301 12.409 8.95358 12.4046 8.954 12.4001C8.99068 12.0192 8.89172 11.6514 8.78694 11.2621C8.72749 11.0411 8.66406 10.8053 8.61864 10.5445H10.3868C10.7562 10.5445 11.0567 10.244 11.0567 9.8746V7.38632C11.0567 7.24935 10.9456 7.13828 10.8086 7.13828C10.6717 7.13828 10.5606 7.24935 10.5606 7.38632V9.87458C10.5606 9.97042 10.4826 10.0484 10.3868 10.0484H9.80164V2.49609H10.3868C10.4826 2.49609 10.5606 2.57407 10.5606 2.66992V5.1582C10.5606 5.29517 10.6716 5.40624 10.8086 5.40624C10.9456 5.40624 11.0566 5.29517 11.0566 5.1582V2.66992C11.0566 2.30051 10.7561 2 10.3868 2V2ZM8.08624 14.2038H5.84482C5.74069 14.2038 5.65273 14.1158 5.65273 14.0117V13.2834C5.66977 12.8388 5.41751 12.3727 5.26653 12.0937C5.24587 12.0556 4.74355 11.1471 4.74355 11.1471C4.4137 10.412 4.41338 9.92317 4.74154 9.40575C4.88521 9.17958 5.10322 8.88101 5.30078 8.61692V9.8746C5.30078 10.244 5.60129 10.5445 5.97067 10.5445H6.766V11.3722C6.766 11.5092 6.87705 11.6203 7.01405 11.6203C7.15104 11.6203 7.26209 11.5092 7.26209 11.3722V8.76019C7.26209 8.53641 7.44413 8.35434 7.66792 8.35434C7.77678 8.35434 7.8795 8.39735 7.95714 8.47546C8.03341 8.55218 8.07508 8.65279 8.07444 8.7587C8.07391 8.84371 8.07262 9.40302 8.06268 9.6626C8.05387 9.89219 8.0636 10.1058 8.0847 10.3051C8.0852 10.3196 8.10445 10.4665 8.1132 10.5241C8.16321 10.8524 8.24005 11.139 8.30787 11.391C8.40391 11.7479 8.48698 12.0565 8.46079 12.3459C8.43943 12.4836 8.41068 12.5838 8.38027 12.6898C8.32913 12.8681 8.27622 13.0525 8.27622 13.3704C8.27622 13.3713 8.27622 13.3721 8.27624 13.373L8.27833 14.0116C8.27833 14.1158 8.19037 14.2038 8.08624 14.2038ZM9.30555 10.0484H8.56152C8.55514 9.93126 8.57003 8.84601 8.57052 8.76165C8.57194 8.52264 8.47904 8.2968 8.30894 8.12569C8.13749 7.95323 7.90981 7.85825 7.66789 7.85825C7.17059 7.85825 6.76598 8.26286 6.76598 8.76019V10.0484H5.97065C5.87481 10.0484 5.79685 9.97045 5.79685 9.8746V2.66992C5.79685 2.57407 5.87483 2.49609 5.97065 2.49609H9.30555V10.0484Z" fill="#171717" stroke="#171717" stroke-width="0.4"/>
<path d="M10.8091 6.02539C10.6721 6.02539 10.561 6.13646 10.561 6.27343V6.27413C10.561 6.4111 10.6721 6.52183 10.8091 6.52183C10.946 6.52183 11.0571 6.4104 11.0571 6.27341C11.0571 6.13642 10.946 6.02539 10.8091 6.02539Z" fill="#171717" stroke="#171717" stroke-width="0.4"/>
</svg>
