<svg width="16" height="16" viewBox="0 0 16 16" fill="none" xmlns="http://www.w3.org/2000/svg">
<path d="M10.5764 5.84644L9.89318 8.64383L10.1763 8.61288L9.84951 8.82264L9.89318 8.64383L8.25768 8.82264L7.42762 8.65495L6.76151 5.84626L10.5764 5.84644Z" fill="#191A1E"/>
<path d="M4.62701 4.44922H5.62082C5.78155 4.44922 5.92548 4.55738 5.98431 4.72076L7.56852 9.16668L6.99913 10.5186C6.97076 10.5854 7.01593 10.6625 7.08317 10.6625H12.2959" stroke="#191A1E" stroke-width="1.2" stroke-miterlimit="10" stroke-linecap="round"/>
<path d="M7.69339 8.88787L12.7135 8.51107C12.903 8.49704 13.0599 8.37177 13.1024 8.20141L13.5632 6.3655C13.6253 6.11697 13.4227 5.87846 13.1449 5.87445L6.3316 5.78125" stroke="#191A1E" stroke-width="1.2" stroke-miterlimit="10"/>
<path d="M8.03533 12.4393C8.50593 12.4393 8.88743 12.0419 8.88743 11.5517C8.88743 11.0615 8.50593 10.6641 8.03533 10.6641C7.56473 10.6641 7.18323 11.0615 7.18323 11.5517C7.18323 12.0419 7.56473 12.4393 8.03533 12.4393Z" stroke="#191A1E" stroke-width="0.887606" stroke-miterlimit="10"/>
<path d="M11.8709 12.4393C12.3415 12.4393 12.723 12.0419 12.723 11.5517C12.723 11.0615 12.3415 10.6641 11.8709 10.6641C11.4003 10.6641 11.0188 11.0615 11.0188 11.5517C11.0188 12.0419 11.4003 12.4393 11.8709 12.4393Z" stroke="#191A1E" stroke-width="0.887606" stroke-miterlimit="10"/>
<rect x="3.06549" y="8" width="2.9291" height="1.06513" rx="0.532564" fill="#191A1E"/>
<rect x="2.00061" y="9.86719" width="4.26051" height="1.06513" rx="0.532564" fill="#191A1E"/>
</svg>
