<svg width="24" height="24" viewBox="0 0 24 24" fill="none" xmlns="http://www.w3.org/2000/svg">
<g clip-path="url(#clip0_10737_50637)">
<path d="M18.1873 6.36449V4.3903C18.1873 4.15804 17.955 3.92578 17.7227 3.92578C16.0969 3.92578 14.355 3.92578 12.7292 3.92578C11.2195 3.92578 9.70984 3.92578 8.08404 3.92578C6.80662 3.92578 5.64533 3.92578 4.36791 3.92578C3.32275 3.92578 1.9292 4.04191 1.9292 5.31933C1.9292 6.13223 2.62597 6.71288 3.43888 6.71288C3.78726 6.71288 4.13565 6.71288 4.48404 6.71288C5.64533 6.71288 6.80662 6.71288 7.96791 6.71288C9.47758 6.71288 10.9873 6.71288 12.4969 6.71288C14.0066 6.71288 15.4002 6.71288 16.9098 6.71288C17.955 6.71288 18.884 6.71288 19.9292 6.71288C20.5098 6.71288 21.3227 6.71288 21.3227 7.52578V8.45481C21.3227 9.84836 21.3227 11.1258 21.3227 12.5193C21.3227 14.029 21.3227 15.4226 21.3227 16.9322V19.0226C21.3227 19.6032 20.8582 20.0677 20.2776 20.0677C19.2324 20.0677 18.1873 20.0677 17.1421 20.0677C15.7486 20.0677 14.355 20.0677 12.9615 20.0677C11.4518 20.0677 9.9421 20.0677 8.43242 20.0677C7.155 20.0677 5.87759 20.0677 4.60017 20.0677H3.09049C2.39372 20.0677 1.9292 19.4871 1.9292 18.9064V4.97094" stroke="#191A1E" stroke-width="1.26991" stroke-miterlimit="10" stroke-linecap="round"/>
<path d="M2.16113 19.2547V6.48047H20.7418V19.2547H2.16113Z" fill="#191A1E"/>
<path d="M22.5997 11.3594H15.5159C14.9352 11.3594 14.4707 11.8239 14.4707 12.2884V14.7271C14.4707 15.3078 14.9352 15.6561 15.3997 15.6561H22.5997" stroke="#DADBDE" stroke-width="1.26991" stroke-miterlimit="10" stroke-linecap="round"/>
</g>
<defs>
<clipPath id="clip0_10737_50637">
<rect x="1" y="3" width="21.0194" height="18" fill="white"/>
</clipPath>
</defs>
</svg>
