<svg width="25" height="25" viewBox="0 0 25 25" fill="none" xmlns="http://www.w3.org/2000/svg">
<g clip-path="url(#clip0_10737_49189)">
<path d="M8.13965 3.5C8.34192 3.50221 8.52596 3.61728 8.61719 3.79785L8.85156 4.26465C8.94283 4.4453 9.12672 4.56039 9.3291 4.5625H15.0449C15.2474 4.56043 15.4322 4.44534 15.5234 4.26465L15.7568 3.79785C15.8481 3.61716 16.0329 3.50207 16.2354 3.5H19.2637C20.7253 3.50003 21.9998 4.49442 22.3555 5.91211L23.2373 9.46094C23.6608 11.1456 23.8752 12.8762 23.875 14.6133V18.375C23.8749 19.5483 22.9233 20.4998 21.75 20.5H21.1865C19.611 20.5211 18.2563 19.3876 17.999 17.833L17.7119 16.0801C17.6277 15.5605 17.1758 15.1807 16.6494 15.1875H7.83105C7.30474 15.1808 6.85273 15.5605 6.76855 16.0801L6.48145 17.833C6.22414 19.3875 4.8695 20.5211 3.29395 20.5H2.625C1.4515 20.5 0.500138 19.5485 0.5 18.375V14.6133C0.499784 12.8761 0.714161 11.1457 1.1377 9.46094L2.01953 5.91211C2.37521 4.49434 3.64962 3.49992 5.11133 3.5H8.13965ZM18.1582 6.6875C17.8649 6.68763 17.627 6.92543 17.627 7.21875V8.94043H15.9062C15.6129 8.94043 15.375 9.17828 15.375 9.47168V10.2783C15.375 10.5717 15.6129 10.8096 15.9062 10.8096H17.627V12.5312C17.627 12.8245 17.865 13.0624 18.1582 13.0625H18.9658C19.2592 13.0625 19.497 12.8246 19.4971 12.5312V10.8096H21.2188C21.512 10.8094 21.75 10.5716 21.75 10.2783V9.47168C21.75 9.1784 21.512 8.94062 21.2188 8.94043H19.4971V7.21875C19.4971 6.92535 19.2592 6.6875 18.9658 6.6875H18.1582ZM6.34375 6.6875C4.87677 6.6875 3.6875 7.87677 3.6875 9.34375C3.68752 10.8107 4.87678 12 6.34375 12C7.04818 12 7.72357 11.7198 8.22168 11.2217C8.71979 10.7236 8.99999 10.0482 9 9.34375C9 7.8768 7.81068 6.68756 6.34375 6.6875Z" fill="#191A1E"/>
</g>
<defs>
<clipPath id="clip0_10737_49189">
<rect width="24" height="24" fill="white" transform="translate(0.5 0.5)"/>
</clipPath>
</defs>
</svg>
