<svg width="16" height="16" viewBox="0 0 16 16" fill="none" xmlns="http://www.w3.org/2000/svg">
<path d="M11.3333 5.33341H12.6667C13.0203 5.33341 13.3594 5.47389 13.6095 5.72394C13.8595 5.97399 14 6.31313 14 6.66675V10.6667C14 11.0204 13.8595 11.3595 13.6095 11.6096C13.3594 11.8596 13.0203 12.0001 12.6667 12.0001H11.3333V14.6667L8.66667 12.0001H6C5.82489 12.0003 5.65146 11.9658 5.48969 11.8988C5.32792 11.8318 5.18098 11.7334 5.05733 11.6094M5.05733 11.6094L7.33333 9.33341H10C10.3536 9.33341 10.6928 9.19294 10.9428 8.94289C11.1929 8.69284 11.3333 8.3537 11.3333 8.00008V4.00008C11.3333 3.64646 11.1929 3.30732 10.9428 3.05727C10.6928 2.80722 10.3536 2.66675 10 2.66675H3.33333C2.97971 2.66675 2.64057 2.80722 2.39052 3.05727C2.14048 3.30732 2 3.64646 2 4.00008V8.00008C2 8.3537 2.14048 8.69284 2.39052 8.94289C2.64057 9.19294 2.97971 9.33341 3.33333 9.33341H4.66667V12.0001L5.05733 11.6094Z" stroke="#171717" stroke-width="1.2" stroke-linecap="round" stroke-linejoin="round"/>
</svg>
