<svg width="35" height="30" viewBox="0 0 35 30" fill="none" xmlns="http://www.w3.org/2000/svg">
<path d="M5.76846 22.0687V22.1636H5.86403H13.8439H13.9395V22.0687V17.5107V17.4157H13.8439H5.86403H5.76846V17.5107V22.0687ZM5.24284 16.3237H14.5607C14.8474 16.3237 15.0863 16.5611 15.1341 16.8935V22.7334C15.1341 23.0182 14.8952 23.3031 14.5607 23.3031H5.24284C4.95614 23.3031 4.66943 23.0657 4.66943 22.7334V16.8935C4.66943 16.5611 4.90835 16.3237 5.24284 16.3237Z" fill="#152037" stroke="#152037" stroke-width="0.178818"/>
<path d="M26.9852 14.6137V17.1301V27.8603H25.0261V22.0204C25.0261 20.1687 23.497 18.6494 21.5379 18.6494C19.6265 18.6494 18.0497 20.1687 18.0497 22.0204V27.8603H2.28102V12.6196C1.94653 12.5721 1.65983 12.5246 1.32534 12.4772C1.22978 12.4772 1.18199 12.4772 1.08643 12.4297V28.43C1.08643 28.7624 1.32534 28.9998 1.65983 28.9998H27.5109C27.8453 28.9998 28.0843 28.7624 28.0843 28.43V13.6167L26.9852 14.6137ZM23.8315 27.8603H19.2443V22.0204C19.2443 20.786 20.2477 19.7889 21.5379 19.7889C22.828 19.7889 23.8315 20.786 23.8315 22.0204V27.8603Z" fill="#152037" stroke="#152037" stroke-width="0.178818" stroke-linecap="round" stroke-linejoin="round"/>
<path d="M27.5105 1.46292C27.7017 0.845694 28.6096 0.845694 28.8007 1.46292L29.8519 4.69147C29.9475 4.97635 30.1864 5.16626 30.5209 5.16626H33.9136C34.5825 5.16626 34.8692 6.02088 34.2958 6.40071L31.5722 8.39482C31.3332 8.58473 31.2377 8.86961 31.3332 9.15448L32.3845 12.383C32.5756 13.0003 31.8589 13.5225 31.3332 13.1427L28.6096 11.1486C28.3707 10.9587 28.0362 10.9587 27.7972 11.1486L25.0736 13.1427C24.548 13.5225 23.7834 13.0003 24.0223 12.383L25.0736 9.15448C25.1691 8.86961 25.0736 8.58473 24.8347 8.39482L22.111 6.40071C21.442 6.02088 21.7287 5.16626 22.3977 5.16626H25.7903C26.077 5.16626 26.3637 4.97635 26.4593 4.69147L27.5105 1.46292Z" fill="#FF545E" stroke="#FF545E" stroke-width="0.59606"/>
<path d="M18.5759 13.1907C18.7671 13.1907 18.9104 13.0958 19.0538 13.0008C19.1971 12.8584 19.2449 12.7159 19.2449 12.526L18.9104 8.01553C19.1971 8.01553 19.4838 8.01553 19.7228 8.01553C19.9139 8.01553 20.0572 8.01553 20.2484 8.01553C20.3917 8.01553 20.5829 8.06301 20.7262 7.92058C20.774 7.8731 20.774 7.82562 20.7262 7.73066C20.7262 7.68318 20.6784 7.68318 20.6784 7.6357C20.3917 7.30335 20.1528 7.01848 19.8661 6.68613C19.7705 6.59117 19.675 6.59117 19.5316 6.59117C19.0538 6.59117 18.5282 6.59117 18.0503 6.59117C17.6681 6.59117 17.2858 6.59117 16.9035 6.59117C16.4735 6.59117 15.9956 6.59117 15.5656 6.59117C15.0877 6.59117 14.5621 6.59117 14.0843 6.59117C13.5586 6.59117 13.033 6.59117 12.5552 6.59117C12.0296 6.59117 11.5039 6.59117 10.9783 6.59117C10.4527 6.59117 9.97486 6.59117 9.44924 6.59117C8.9714 6.59117 8.49357 6.59117 8.01573 6.59117C7.58567 6.59117 7.15562 6.59117 6.72557 6.59117C6.39108 6.59117 6.00881 6.59117 5.67432 6.59117C5.4354 6.59117 5.1487 6.59117 4.90978 6.59117C4.76643 6.59117 4.62308 6.59117 4.47973 6.59117H4.38416V5.07185H19.7705C19.8183 5.07185 19.8183 5.07185 19.8661 5.02437L20.4873 3.97984C20.4873 3.97984 20.4873 3.93236 20.4873 3.88488C20.4873 3.88488 20.4395 3.8374 20.3917 3.8374H3.76297C3.3807 3.8374 3.094 4.12227 3.094 4.50211V7.16092C2.71173 7.6357 1.08708 10.4844 0.848162 10.8643C0.704811 11.0542 0.131405 12.0987 0.0358378 12.3361C-0.0119459 12.4785 -0.0119459 12.7159 0.0358378 12.8584C0.179189 13.0958 0.465892 13.1907 0.704811 13.2382C1.18265 13.2382 6.43886 13.2382 6.9167 13.2382L18.5759 13.1907ZM6.10438 11.7189H1.99497L4.14524 8.01553H7.49011L6.10438 11.7189ZM7.53789 11.7189L8.92362 8.01553H12.4596L12.4118 8.34789L11.5039 11.7189H7.53789ZM13.1286 11.9563C13.1286 11.8613 13.1764 11.7664 13.1764 11.5764L13.2242 11.3865C13.4153 10.3895 13.6064 9.39242 13.7976 8.39536C13.7976 8.39536 13.8453 8.20545 13.8453 8.06301L17.5725 8.11049L17.8114 11.8613L13.1286 11.9563Z" fill="#152037"/>
</svg>
