<svg width="18" height="19" viewBox="0 0 18 19" fill="none" xmlns="http://www.w3.org/2000/svg">
<path d="M14.1902 3.20312H3.81088C2.99198 3.20312 2.32812 3.86698 2.32812 4.68588V15.0652C2.32812 15.8841 2.99198 16.548 3.81088 16.548H14.1902C15.0091 16.548 15.673 15.8841 15.673 15.0652V4.68588C15.673 3.86698 15.0091 3.20312 14.1902 3.20312Z" stroke="white" stroke-width="1.48276" stroke-linecap="round" stroke-linejoin="round"/>
<path d="M6.77573 9.12958C7.59463 9.12958 8.25849 8.46573 8.25849 7.64682C8.25849 6.82792 7.59463 6.16406 6.77573 6.16406C5.95682 6.16406 5.29297 6.82792 5.29297 7.64682C5.29297 8.46573 5.95682 9.12958 6.77573 9.12958Z" stroke="white" stroke-width="1.48276" stroke-linecap="round" stroke-linejoin="round"/>
<path d="M15.6724 12.097L13.3846 9.80913C13.1065 9.53116 12.7294 9.375 12.3362 9.375C11.9431 9.375 11.566 9.53116 11.2879 9.80913L4.55176 16.5453" stroke="white" stroke-width="1.48276" stroke-linecap="round" stroke-linejoin="round"/>
</svg>
