<svg width="153" height="166" viewBox="0 0 153 166" fill="none" xmlns="http://www.w3.org/2000/svg">
<g clip-path="url(#clip0_8699_11371)">
<path d="M32.669 143.264L33.3751 23.9887L111.047 24.8962C116.821 24.9621 121.459 29.6411 121.488 35.3875L122.019 132.858C122.044 138.709 117.308 143.502 111.439 143.464L32.669 143.264Z" fill="#C2C2C2"/>
<path d="M118.213 52.5633C118.396 62.399 119.155 72.2006 119.379 82.0585C119.619 91.7393 118.951 101.381 117.025 110.848C116.049 115.654 114.609 120.289 112.804 124.86C111.045 129.349 108.631 133.379 105.793 137.26C103.884 139.864 101.465 141.689 98.7758 143.182C105.983 143.199 111.122 143.214 111.122 143.214C116.983 143.22 121.728 138.459 121.702 132.608L121.172 35.1375C121.147 31.9401 119.701 29.0639 117.442 27.1545C117.993 35.5707 118.051 44.0654 118.213 52.5633Z" fill="url(#paint0_linear_8699_11371)"/>
<path fill-rule="evenodd" clip-rule="evenodd" d="M74.0234 66.943L74.0041 67.2245L77.7542 67.8956L73.1835 68.7448C72.8988 68.8299 73.0566 69.1273 73.2559 69.1023L78.8135 68.0959L84.4545 69.0978C84.777 69.1392 84.8723 68.7662 84.5086 68.7025L79.968 67.9231C79.968 67.9231 84.7791 67.0709 84.8108 67.0615C85.6078 66.9611 85.614 67.0971 86.0216 67.4232C86.2966 67.6512 86.5813 67.5661 86.8471 67.4178C87.23 67.1999 87.6067 66.8461 87.4965 66.3621C87.4681 66.2672 87.4397 66.1723 87.3703 66.0552C87.1997 65.8305 86.8805 65.6847 86.5485 65.6116C86.1121 65.5353 85.8779 65.6742 85.7449 65.9207C85.4376 66.3917 85.5642 66.3538 84.8966 66.6568C84.8649 66.6662 84.8649 66.6662 84.8649 66.6662L78.8044 67.7195L74.0234 66.943ZM69.1348 66.2676L72.6452 66.2522C72.6452 66.2522 72.6547 66.2838 72.6958 66.306C72.9579 66.6067 73.5176 66.7496 73.7958 66.8732C73.8779 66.9176 73.8779 66.9176 73.8779 66.9176L69.6849 66.3788L73.8143 67.2812C73.8143 67.2812 73.8143 67.2812 73.71 67.2779C73.4285 67.2587 73.2198 67.2521 73.0522 67.2678C72.7485 67.2896 72.6314 67.359 72.4289 67.4885L69.1348 66.2676Z" fill="#F8F8FA"/>
<path fill-rule="evenodd" clip-rule="evenodd" d="M75.2358 63.2718L72.5508 63.2817L76.0438 64.8223L75.2358 63.2718Z" fill="#F8F8FA"/>
<path fill-rule="evenodd" clip-rule="evenodd" d="M78.5376 63.251L75.998 63.2864L78.125 64.7528L78.5376 63.251Z" fill="#F8F8FA"/>
<path fill-rule="evenodd" clip-rule="evenodd" d="M81.6408 63.2533L79.1234 63.2476L79.5362 64.7439L81.6408 63.2533Z" fill="#F8F8FA"/>
<path fill-rule="evenodd" clip-rule="evenodd" d="M84.9829 63.2537L82.3611 63.2447L81.6132 64.7778L84.9829 63.2537Z" fill="#F8F8FA"/>
<path fill-rule="evenodd" clip-rule="evenodd" d="M77.1187 61.848L80.5248 61.8293L78.8121 60.4803L77.1187 61.848ZM77.0066 60.0895L80.4127 60.0708L78.7 58.7219L77.0066 60.0895Z" fill="#F8F8FA"/>
<path fill-rule="evenodd" clip-rule="evenodd" d="M78.7622 61.4599L78.7207 61.4375L78.7622 61.4599Z" fill="#F8F8FA"/>
<path d="M75.2833 61.4662L76.9644 62.8246L76.996 62.8152L78.6894 61.4475L75.2833 61.4662ZM78.7621 61.4602L80.4748 62.8092L80.5065 62.7997L82.1998 61.4321L78.7621 61.4602ZM77.0083 60.089L78.721 61.438L80.4143 60.0704L77.0083 60.089Z" fill="#E1E3E9"/>
<path fill-rule="evenodd" clip-rule="evenodd" d="M80.5454 62.8227L78.7915 61.4516L78.7504 61.4294L77.0349 62.8381L80.5454 62.8227Z" fill="#F8F8FA"/>
<path fill-rule="evenodd" clip-rule="evenodd" d="M78.7199 61.4388L77.0071 60.0898L75.2821 61.4669L78.7199 61.4388ZM82.1987 61.4328L80.4449 60.0616L80.4132 60.0711L78.7199 61.4388L78.7293 61.4704L82.1987 61.4328ZM82.1987 61.4328L80.5053 62.8005L83.9114 62.7818L82.1987 61.4328ZM76.9632 62.8253L75.2821 61.4669L75.2505 61.4764L73.5255 62.8535L76.9632 62.8253Z" fill="#F8F8FA"/>
<path fill-rule="evenodd" clip-rule="evenodd" d="M78.5541 53.3892C78.5192 53.503 78.6424 53.5696 78.7057 53.5507C78.8322 53.5128 78.8355 53.4085 78.7755 53.323C78.725 53.2692 78.725 53.2692 78.6617 53.2881C78.5984 53.307 78.5351 53.3259 78.5541 53.3892ZM77.5417 53.6918C77.5068 53.8056 77.6301 53.8722 77.6934 53.8532C77.8199 53.8154 77.8232 53.7111 77.7632 53.6256C77.7126 53.5718 77.7126 53.5718 77.6494 53.5907C77.5861 53.6096 77.5639 53.6507 77.5417 53.6918Z" fill="#F8F8FA"/>
<path fill-rule="evenodd" clip-rule="evenodd" d="M80.1987 56.9299C80.1987 56.9299 80.2114 56.8572 80.1925 56.7939C80.199 56.5852 80.0794 56.0695 80.0099 55.9525C79.9404 55.8354 79.6655 55.6074 79.5739 55.5314C79.359 55.3889 78.9164 55.1765 78.9164 55.1765C78.9164 55.1765 78.9321 55.3442 78.9699 55.4707C79.0801 55.9547 79.3834 56.2776 79.6867 56.6005C79.7783 56.6765 80.1354 56.9488 80.167 56.9393L80.1987 56.9299ZM79.6493 59.1273C79.6493 59.1273 79.7475 58.9946 79.7918 58.9124C79.9249 58.6659 80.1725 57.7648 80.179 57.556C80.1856 57.3473 80.1921 57.1386 80.1921 57.1386C80.1921 57.1386 79.9012 57.0877 79.683 57.0495C79.351 56.9765 78.9623 56.7136 78.7507 56.4667C78.5801 56.242 78.3401 55.9002 78.3401 55.9002C78.3401 55.9002 78.3365 56.3492 78.2951 56.6718C78.2536 56.9943 78.1584 57.3674 78.0569 57.6045C77.9238 57.851 77.3253 58.6158 77.1257 58.9856C77.1257 58.9856 76.8247 59.5925 76.8087 59.7696C76.8181 59.8012 76.796 59.8423 76.796 59.8423L78.6697 58.3863L79.6493 59.1273ZM80.986 60.1407L83.097 61.7842L83.2711 61.5598C83.2711 61.5598 83.8337 61.9431 84.2129 62.1743C84.3362 62.2409 85.0602 62.4725 85.174 62.5074C85.6009 62.5521 86.2049 62.6128 86.6416 62.3444C86.7271 62.2844 86.8442 62.2149 86.8442 62.2149C86.8442 62.2149 86.5976 62.0819 86.3827 61.9393C85.8707 61.6099 85.3303 61.1856 85.3303 61.1856L85.574 61.0783C85.574 61.0783 85.8994 61.3601 86.1554 61.5248C86.3703 61.6673 86.8223 61.9113 87.0405 61.9495C87.3219 61.9687 87.7932 61.9313 87.7932 61.9313C87.7932 61.9313 88.2794 62.7509 88.614 63.409C89.362 64.874 90.0242 66.7438 90.2883 68.319C90.7568 71.0393 90.6467 73.5534 89.8912 76.3294C89.7007 77.0755 89.0949 78.7384 88.6452 79.4242C88.4804 79.6802 88.2492 80.0595 88.227 80.1006C88.2237 80.205 88.2743 80.2588 88.3565 80.3031C88.4797 80.3697 89.5041 80.6838 89.6812 80.6998C90.399 80.7954 91.4586 80.651 92.3349 80.3546C92.3982 80.3357 92.3982 80.3357 92.4425 80.2535C93.6817 77.7121 94.3569 76.1663 94.66 73.4911C94.9345 71.0657 94.6398 68.4657 93.8801 66.0393C93.7667 65.6597 93.3124 64.4859 93.1673 64.1157C92.9906 63.755 91.8385 61.5148 91.5607 61.0464C91.4912 60.9293 91.4218 60.8122 91.3112 60.673C91.2007 60.5337 90.9985 60.3185 90.9985 60.3185L91.277 60.0974C91.277 60.0974 90.9261 59.961 90.5752 59.8247C90.0189 59.5774 89.3425 59.1593 89.3425 59.1593C89.3425 59.1593 89.4185 59.0676 89.4501 59.0582C89.4818 59.0487 89.4818 59.0487 89.4818 59.0487C89.5134 59.0393 89.5134 59.0393 89.5545 59.0615C90.4396 59.4861 91.2898 60.0246 91.9068 59.6679C92.1094 59.5384 92.5144 59.2795 92.5144 59.2795C92.5144 59.2795 92.0275 59.1494 91.5217 58.9559C90.8294 58.7149 90.1497 58.4011 90.1497 58.4011L90.3334 58.2084C90.3334 58.2084 91.0035 58.4905 91.4588 58.6301C92.069 58.8268 92.8373 58.9762 93.2046 58.5908C93.3344 58.4486 93.5402 58.2148 93.5402 58.2148C93.5402 58.2148 92.854 58.1097 92.2122 57.9225C91.5482 57.7763 90.9286 57.548 90.9286 57.548C90.9286 57.548 90.9951 57.4247 91.0173 57.3836L91.0489 57.3742C91.0489 57.3742 91.0806 57.3647 91.1533 57.3774C91.754 57.5425 92.7595 57.7934 92.9682 57.7999C93.2496 57.8192 93.762 57.8039 93.9961 57.665C94.1132 57.5955 94.2747 57.4439 94.4583 57.2511C94.5343 57.1595 94.6325 57.0268 94.6325 57.0268L91.5398 56.7105C91.5398 56.7105 91.5209 56.6473 91.5431 56.6062C91.5431 56.6062 91.5431 56.6062 91.5747 56.5967C91.6063 56.5873 91.5969 56.5556 91.6285 56.5462C91.6507 56.5051 91.6507 56.5051 91.7234 56.5178C92.5583 56.5439 93.8612 56.637 94.5255 56.4384C95.0633 56.2777 95.2975 56.1388 95.5415 55.6868C95.6524 55.4813 95.7793 55.0988 95.7793 55.0988C95.7793 55.0988 94.7164 55.3475 94.1502 55.4134C93.4481 55.4854 92.7554 55.5891 92.7332 55.6301L92.711 55.6712C92.6888 55.7123 92.5845 55.7091 92.5212 55.728C92.1638 55.8003 89.8518 55.9055 89.1973 55.791C88.9791 55.7528 88.7515 55.683 88.6882 55.7019C88.5933 55.7303 88.5173 55.8219 88.3686 55.9009C88.1344 56.0398 87.5333 56.2194 87.2614 56.2318C87.157 56.2285 87.0526 56.2253 87.0526 56.2253C87.0526 56.2253 87.0494 56.3296 87.0366 56.4024C86.9763 56.6616 86.6029 56.9111 86.3498 56.9867C86.0651 57.0718 85.6949 57.2169 85.6633 57.2264C85.6411 57.2675 85.6916 57.3213 85.6884 57.4256C85.6658 57.8115 85.0993 58.222 84.7924 58.3482C84.5804 58.446 84.283 58.6039 84.283 58.6039C84.283 58.6039 84.2986 58.7715 84.2954 58.8758C84.3012 59.3566 83.6779 59.5773 83.2351 59.7097C82.982 59.7853 81.4795 60.0621 81.3435 60.0683C81.1315 60.1661 80.986 60.1407 80.986 60.1407ZM68.182 59.0398L68.3652 59.1917C68.3652 59.1917 67.7038 59.6307 67.3653 59.7663C66.9413 59.962 66.53 60.0849 66.4857 60.1671C66.4191 60.2903 66.5962 60.3063 66.6562 60.3918C66.6657 60.4234 65.9658 61.4252 65.7156 61.7412C65.3134 62.2405 64.5906 63.9729 64.3401 64.6336C63.0465 67.915 62.6124 71.7666 63.3238 75.069C63.541 76.1413 63.7712 76.7962 64.1275 77.758C64.1937 77.9794 65.292 80.2702 65.3425 80.324C65.6774 80.6375 66.6451 80.7618 67.1763 80.8098C67.4578 80.829 67.8025 80.8294 68.0967 80.7759C68.2326 80.7697 69.3715 80.4293 69.4253 80.3788C69.5108 80.3188 69.5551 80.2366 69.5362 80.1733C69.5173 80.1101 69.2395 79.6417 69.05 79.3537C68.9711 79.205 68.3653 77.8698 68.2485 77.5946C67.7787 76.2531 67.4761 75.2408 67.272 73.7511C67.2186 73.4569 67.1447 71.4802 67.145 71.1355C67.1454 70.7908 67.3529 68.8334 67.4038 68.5425C67.4929 68.0334 67.6739 67.2556 67.8485 66.6865C67.931 66.3861 68.5367 64.7232 68.6382 64.4861C69.0628 63.6011 69.9151 62.0712 69.9151 62.0712L70.5413 62.0909C70.614 62.1036 70.614 62.1036 70.6773 62.0847C70.9304 62.009 71.2594 61.8417 71.4303 61.7217C71.6551 61.5512 71.9463 61.2574 72.0507 61.2606C72.0823 61.2512 72.2372 61.3083 72.2467 61.3399L72.2561 61.3715C72.2561 61.3715 72.2656 61.4032 72.2023 61.4221L70.8035 62.3916C70.8035 62.3916 70.8951 62.4676 70.9773 62.5119C71.5526 62.8224 72.4762 62.6842 72.9413 62.5108C73.1849 62.4035 73.6183 62.2395 73.8114 62.0784C73.9507 61.9678 74.2641 61.6329 74.3557 61.7089C74.4063 61.7627 74.4063 61.7627 74.4379 61.7533C74.4379 61.7533 74.4695 61.7438 74.5234 61.6933L76.3654 60.2467C76.3654 60.2467 74.4429 59.9253 74.1647 59.8017C73.8233 59.697 73.4346 59.4341 73.4255 59.0577C73.4287 58.9534 73.4447 58.7763 73.4447 58.7763C73.4447 58.7763 73.0116 58.5956 72.7556 58.4309C72.5091 58.2978 72.1015 57.9716 72.0353 57.7502C71.9974 57.6236 72.0323 57.5098 71.9723 57.4244C71.9218 57.3706 71.22 57.0979 70.8913 56.9204C70.768 56.8539 70.708 56.7684 70.6702 56.6419C70.6229 56.4837 70.604 56.4205 70.5629 56.3983C70.4713 56.3223 69.9905 56.3281 69.6902 56.2456C69.4625 56.1758 69.1055 55.9034 68.96 55.878C68.8873 55.8653 68.6026 55.9504 68.3717 55.9849C68.2451 56.0227 67.0022 56.0152 66.6892 56.0054C66.1263 55.9668 65.6994 55.9221 65.0226 55.8487C63.8369 55.6862 61.8733 55.3427 61.8733 55.3427C61.8733 55.3427 62.05 55.7034 62.1984 55.9692C62.514 56.5641 63.042 56.7164 63.8453 56.752C64.5442 56.7843 65.2874 56.7345 65.9896 56.6625C66.0212 56.653 66.0528 56.6435 66.0717 56.7068C66.1223 56.7606 66.1917 56.8777 66.1917 56.8777C66.1917 56.8777 66.0336 56.925 65.8659 56.9406C65.6034 56.9846 65.0056 57.0599 64.6387 57.1007C64.0315 57.1443 63.0162 57.2066 63.0162 57.2066C63.0162 57.2066 63.3384 57.5927 63.5311 57.7763C63.9577 58.1658 64.8591 58.0686 65.4602 57.889C65.9031 57.7566 66.5674 57.558 66.6085 57.5802C66.6812 57.5929 66.7285 57.7511 66.7063 57.7922C66.6525 57.8428 64.2009 58.4032 64.1471 58.4538C64.0933 58.5043 64.1944 58.6119 64.4282 58.8177C64.7948 59.1217 65.3388 59.097 65.8766 58.9362C66.4144 58.7755 67.2718 58.4158 67.3129 58.438C67.3856 58.4507 67.4456 58.5362 67.4234 58.5773C67.4012 58.6183 67.0183 58.8362 66.8602 58.8835C66.2053 59.1137 65.3101 59.3468 65.2657 59.429C65.2119 59.4795 65.3224 59.6188 65.5784 59.7835C65.9672 60.0464 66.1886 59.9802 66.7042 59.8605C66.9257 59.7943 67.1155 59.7376 67.3813 59.5892C67.7042 59.286 68.182 59.0398 68.182 59.0398ZM69.5314 59.9804C69.5314 59.9804 69.3289 60.1099 69.2751 60.1604C69.2529 60.2015 69.2529 60.2015 69.2529 60.2015C69.2085 60.2837 68.9016 60.4099 68.6991 60.5393C68.6137 60.5993 68.5598 60.6499 68.4427 60.7193C68.2402 60.8488 67.8384 61.0034 67.8384 61.0034C67.8384 61.0034 67.9206 61.0477 67.9711 61.1015C68.0533 61.1459 68.5591 61.3393 68.6635 61.3426C69.3718 61.4066 69.6187 61.1949 70.5776 60.5982C70.6314 60.5476 70.6409 60.5793 70.7136 60.592L70.8685 60.6491C70.8685 60.6491 70.5045 60.9302 70.226 61.1513C69.9158 61.3818 69.7038 61.4796 69.438 61.628C69.3842 61.6786 69.3842 61.6786 69.3842 61.6786C69.362 61.7196 69.4031 61.7418 69.4853 61.7862C69.5769 61.8622 69.289 62.0516 69.1275 62.2033C68.7508 62.5571 67.696 64.2164 67.6073 64.3807C66.7488 65.7745 65.9307 67.88 65.5781 69.4672C65.3589 70.4632 65.1138 71.9494 65.1138 71.9494C65.1138 71.9494 64.9913 71.1934 64.9665 70.6494C64.7817 68.8782 65.1478 66.5288 65.5543 64.891C65.9956 63.1394 66.2523 62.6147 67.0228 60.6958C67.0355 60.623 67.0355 60.623 67.0671 60.6136C67.1748 60.5125 67.3486 60.6328 67.7344 60.6554C67.9842 60.6841 68.4936 60.4284 68.7278 60.2895C68.9936 60.1412 69.3671 59.8917 69.3671 59.8917L69.5314 59.9804ZM88.1273 59.936L88.3298 59.8066C88.3298 59.8066 88.668 60.0156 88.924 60.1804C89.3855 60.456 89.7869 60.6461 90.2487 60.577C90.4164 60.5614 90.6473 60.5268 90.6473 60.5268C90.6473 60.5268 91.7386 63.3711 91.9939 64.2252C92.4761 65.8386 92.7053 67.5277 92.789 69.1912C92.817 69.6309 92.8098 70.529 92.7716 70.7472C92.7334 70.9654 92.7047 71.2152 92.6982 71.4239C92.7044 71.5599 92.7106 71.6959 92.6757 71.8097C92.6535 71.8508 92.6091 71.933 92.6091 71.933C92.6091 71.933 92.4458 70.8101 92.3516 70.1491C91.8955 67.7008 90.6333 64.9765 89.291 63.1377C89.111 62.8814 88.8899 62.6028 88.6372 62.3338C88.4856 62.1723 88.119 61.8683 88.2045 61.8083C88.2266 61.7673 88.3437 61.6978 88.3437 61.6978C88.3437 61.6978 87.9234 61.4444 87.503 61.1909C87.1554 60.9502 86.8394 60.7001 86.8394 60.7001C86.8394 60.7001 86.8615 60.659 86.8932 60.6495C86.947 60.599 86.947 60.599 86.9881 60.6212C87.1114 60.6877 87.4274 60.9379 87.715 61.0931C88.1764 61.3687 88.5812 61.4545 89.0113 61.3949C89.1157 61.3981 89.5808 61.2247 89.6662 61.1647C89.7517 61.1047 89.8371 61.0447 89.8371 61.0447C89.8371 61.0447 89.5906 60.9116 89.3851 60.8007C89.0975 60.6454 88.6866 60.4236 88.5444 60.2938C88.3106 60.088 88.1273 59.936 88.1273 59.936Z" fill="#F8F8FA"/>
<path fill-rule="evenodd" clip-rule="evenodd" d="M68.3972 80.5132C68.3972 80.5132 68.0397 80.5856 67.7772 80.6296C67.6412 80.6358 67.0467 80.6067 66.8601 80.5591C66.3827 80.4605 65.6965 80.3555 65.5543 80.2257C65.5038 80.1719 65.226 79.7035 65.1187 79.4599C64.9325 79.0675 64.6958 78.6214 64.5317 78.1879C64.0426 77.128 63.6298 75.6317 63.4254 74.4866C62.9348 71.8074 63.1652 69.1195 63.908 66.4163C64.2985 64.9556 65.1133 62.9545 65.9812 61.5923C66.2219 61.2447 66.4626 60.897 66.6495 60.6C66.6939 60.5178 66.7793 60.4578 66.811 60.4483C66.8426 60.4389 66.8837 60.461 66.8837 60.461C66.8837 60.461 66.1227 62.4116 65.7642 63.5181C65.3232 64.925 65.0974 66.1297 64.884 67.6064C64.8299 68.0016 64.7528 69.1274 64.7685 69.2951C64.7652 69.3994 64.7936 69.4943 64.7808 69.5671C64.8059 69.7663 64.7678 69.9845 64.7612 70.1932C64.7642 70.4336 64.8893 71.7746 64.9395 72.1732C65.3167 74.4727 66.004 76.5417 67.2826 78.7442C67.7499 79.5005 68.3972 80.5132 68.3972 80.5132ZM94.4863 70.0273C94.6802 72.1749 94.5199 74.2905 93.8822 76.3075C93.7077 76.8766 93.5142 77.3824 93.2859 78.0021C93.1939 78.2708 92.3224 80.0821 92.2686 80.1326C92.2147 80.1831 92.1831 80.1926 92.1293 80.2431C92.0438 80.3032 91.3384 80.4795 91.098 80.4825C90.6995 80.5327 90.3326 80.5734 90.0606 80.5858C89.9246 80.592 89.4566 80.5251 89.4472 80.4934C89.4377 80.4618 90.534 78.48 91.2659 77.124C91.9884 75.7364 92.5948 73.384 92.8082 71.9073C93.0154 70.2946 92.9793 68.4445 92.7469 66.8598C92.6873 66.4297 92.3567 64.9777 92.133 64.1141C92.0385 63.7978 91.5529 62.2887 91.4551 62.0767C91.2689 61.6844 90.7736 60.4884 90.8053 60.479C90.8369 60.4695 90.8369 60.4695 90.8685 60.4601C90.9096 60.4823 91.2224 60.8368 91.3329 60.976C91.4718 61.2102 92.5704 63.1563 92.7061 63.4948C93.1163 64.4061 93.397 65.1148 93.7312 66.1176C94.0905 67.3198 94.3611 68.6863 94.4863 70.0273Z" fill="#F8F8FA"/>
<path fill-rule="evenodd" clip-rule="evenodd" d="M72.1411 63.4055L76.3044 65.2281L77.0146 66.5666L77.8488 67.2822L75.7466 66.3598L72.1411 63.4055ZM78.32 67.2447L77.72 66.3902L78.1072 65.0339L75.5316 63.2191L77.1698 66.279L78.32 67.2447ZM78.8542 67.5331L78.0236 66.3684L78.83 63.3016L79.684 66.3891L78.8542 67.5331ZM85.5346 63.3653L81.3708 65.2301L80.661 66.545L79.8444 67.2716L81.9421 66.3344L85.5346 63.3653ZM79.3858 67.2363L79.9654 66.4083L79.5683 65.0797L82.1223 63.248L80.4905 66.3203L79.3858 67.2363ZM65.7856 80.8816C65.7856 80.8816 66.1613 81.5619 66.458 82.0936C67.0326 83.0935 67.7148 83.9924 68.4224 84.7458C68.6341 84.9927 69.8726 86.1388 70.1381 86.3351C72.4923 88.2161 75.2901 89.2752 78.2944 89.4111C81.8616 89.5855 85.4556 88.2355 88.1082 85.9264C88.7634 85.3515 89.7037 84.3468 90.28 83.6231C90.4858 83.3893 91.0338 82.5707 91.2112 82.242C91.5534 81.6573 92.0286 80.826 92.0286 80.826C92.0286 80.826 91.3453 80.9613 90.7792 81.0272C90.6115 81.0428 89.4319 81.0163 89.1727 80.956C89.0272 80.9305 88.8501 80.9145 88.613 80.8131C88.3854 80.7433 88.0661 80.5975 88.0661 80.5975C88.0661 80.5975 87.9236 80.8124 87.7811 81.0273C86.7073 82.6233 84.8242 84.0477 83.2675 84.7197C80.1415 86.1365 76.5932 86.0254 73.483 84.267C72.5285 83.7253 71.2739 82.7563 70.5601 81.8669C70.1779 81.3952 69.6473 80.6578 69.6473 80.6578C69.6473 80.6578 69.3088 80.7935 69.0557 80.8691C68.8976 80.9164 68.0783 81.0579 67.8696 81.0513C67.3889 81.0572 66.6362 81.0754 66.1082 80.9231C65.9816 80.9609 65.7856 80.8816 65.7856 80.8816Z" fill="#F8F8FA"/>
<path fill-rule="evenodd" clip-rule="evenodd" d="M87.9187 71.9228L87.5168 69.0793L87.3746 68.9495C87.3746 68.9495 87.5128 69.8731 87.563 70.2716C87.5598 70.376 87.5787 70.4393 87.5659 70.512C87.5627 70.6163 87.4961 70.7396 87.4612 70.8534C87.4263 70.9672 87.4165 71.2803 87.4354 71.3436C87.4638 71.4385 87.5522 71.6189 87.7671 71.7614C87.8271 71.8468 87.9187 71.9228 87.9187 71.9228ZM70.3314 69.1156L70.1954 69.1218C70.1954 69.1218 69.7821 71.313 69.8039 71.6167C69.7879 71.7938 69.813 71.993 69.813 71.993C69.813 71.993 69.8763 71.9741 69.9301 71.9236C70.101 71.8036 70.3733 71.4465 70.3733 71.4465C70.3733 71.4465 70.3042 70.9847 70.238 70.7632C70.2002 70.6367 70.1813 70.5734 70.1624 70.5101C70.1435 70.4469 70.1849 70.1243 70.2707 69.7196C70.2678 69.4792 70.3314 69.1156 70.3314 69.1156ZM87.8299 69.0891L87.7571 69.0764L88.2413 71.9643C88.2413 71.9643 88.4565 71.7621 88.5547 71.6294C88.6529 71.4966 88.6278 71.2974 88.5805 71.1392C88.4637 70.8639 88.1605 70.541 88.0943 70.3196C88.0281 70.0982 88.0066 69.4498 87.9121 69.1335L87.9026 69.1018C87.871 69.1113 87.871 69.1113 87.8299 69.0891ZM69.4999 71.9832C69.4999 71.9832 69.7609 70.32 69.9009 69.52C69.9169 69.3429 69.9423 69.1974 69.9329 69.1658C69.9234 69.1342 69.8918 69.1436 69.8602 69.1531C69.8602 69.1531 69.8602 69.1531 69.8285 69.1625C69.8285 69.1625 69.8285 69.1625 69.8158 69.2353C69.7616 69.6305 69.6788 70.2756 69.6344 70.3578C69.5202 70.6676 68.9726 71.1414 69.1177 71.5116C69.1366 71.5749 69.2945 71.8723 69.4083 71.9072C69.4588 71.961 69.4999 71.9832 69.4999 71.9832ZM69.8727 72.4232C69.8156 72.5781 70.0399 72.7523 70.1127 72.765C70.3625 72.7937 70.657 72.3955 70.7552 72.2628C70.8217 72.1395 71.4718 70.3944 71.4624 70.3628C71.4529 70.3312 71.3896 70.3501 71.358 70.3595C71.282 70.4512 71.2627 70.7326 71.1297 70.9792C71.0631 71.1024 70.1483 71.9617 70.0057 72.1766C69.9614 72.2588 69.917 72.341 69.8727 72.4232ZM87.3235 72.5832C87.374 72.637 87.5195 72.6625 87.5922 72.6752C87.7282 72.669 87.858 72.5268 87.8424 72.3592C87.8329 72.3276 87.814 72.2643 87.7951 72.201C87.7067 72.0207 86.6136 70.9 86.5758 70.7735C86.478 70.5615 86.4751 70.3211 86.3518 70.2546C86.3107 70.2324 86.3107 70.2324 86.279 70.2419C86.2474 70.2513 86.4365 70.884 86.5533 71.1593C86.7267 71.6244 86.9158 72.2571 87.3235 72.5832ZM68.5617 70.9196C68.5617 70.9196 68.6487 72.4789 68.7243 72.732C68.7967 73.0894 69.1345 73.6432 69.492 73.5708C69.7134 73.5046 69.9003 73.2075 69.8752 73.0083C69.8785 72.9039 69.7869 72.8279 69.6669 72.657C69.4741 72.4734 68.7632 71.8243 68.6908 71.4669C68.6436 71.3087 68.6472 70.8596 68.6472 70.8596L68.5617 70.9196ZM89.1437 70.833L89.0394 70.8297L89.0041 71.2883C88.9914 71.361 88.9914 71.361 88.9787 71.4337C88.7314 71.9901 88.51 72.0563 88.0446 72.5745C87.7849 72.8588 87.7373 73.0454 87.9079 73.2701C88.069 73.4632 88.2522 73.6151 88.4864 73.4762C88.6351 73.3973 88.8126 73.0686 88.9013 72.9042C88.9584 72.7493 89.0376 72.5533 89.0442 72.3446C89.1521 71.8988 89.1437 70.833 89.1437 70.833ZM69.8491 73.8431C69.7698 74.0391 69.8487 74.1879 69.9404 74.2639C70.1553 74.4064 70.3167 74.2548 70.4687 74.0715C70.5352 73.9482 70.6461 73.7428 70.7381 73.474C70.8301 73.2053 71.1919 71.9944 71.1824 71.9628C71.0813 71.8552 71.0526 72.105 70.9512 72.3421C70.8941 72.497 70.3432 73.0751 70.0265 73.5144C69.96 73.6377 69.8934 73.761 69.8491 73.8431ZM86.5398 71.9214C86.6722 72.3643 87.0032 73.4716 87.0915 73.6519C87.1988 73.8955 87.4861 74.3955 87.8057 74.1966C87.869 74.1777 87.9355 74.0544 87.9482 73.9817C87.9831 73.8679 87.7337 73.4944 87.6042 73.2919C87.0137 72.469 86.8144 72.4941 86.6347 71.8931L86.6253 71.8614C86.5715 71.912 86.5398 71.9214 86.5398 71.9214ZM68.3007 72.5829C68.3825 72.972 68.5807 73.981 68.6786 74.193C68.7826 74.541 69.1361 75.2624 69.5219 75.2849C69.699 75.3009 69.816 75.2315 69.9175 74.9944C70.1742 74.4697 69.4724 74.197 68.9447 73.6999C68.7931 73.5385 68.5909 73.3232 68.5215 73.2061C68.4647 73.0163 68.424 72.6494 68.3956 72.5545L68.3862 72.5229C68.364 72.564 68.3007 72.5829 68.3007 72.5829ZM87.7705 74.6551C87.7134 74.81 87.8428 75.0126 87.9439 75.1202C88.045 75.2278 88.1999 75.2849 88.3392 75.1744C88.6904 74.966 88.9061 74.4191 89.0424 74.0682C89.0995 73.9133 89.4045 72.5126 89.3951 72.481C89.354 72.4588 89.3129 72.4366 89.2907 72.4777C89.2369 72.5282 89.1543 72.8286 89.1511 72.9329C89.1384 73.0057 89.1478 73.0373 89.1667 73.1006C89.1445 73.1417 88.85 73.5399 88.774 73.6315C88.7075 73.7548 87.8752 74.3137 87.7705 74.6551ZM71.105 73.4333L71.0734 73.4427C71.0418 73.4522 71.0418 73.4522 71.029 73.5249C70.9054 73.8031 70.7818 74.0813 70.6582 74.3595C70.3033 75.0169 69.7873 75.4813 70.2044 75.8391C70.2866 75.8834 70.4415 75.9405 70.527 75.8805C70.6124 75.8205 70.736 75.5423 70.7488 75.4696C70.8091 75.2103 71.105 73.4333 71.105 73.4333ZM86.6933 73.3574L86.6617 73.3669C86.6617 73.3669 86.869 74.7523 86.9698 75.2046C87.0171 75.3628 87.1811 75.7962 87.3582 75.8122C87.4309 75.8249 87.5258 75.7966 87.5574 75.7871C87.6429 75.7271 87.7854 75.5122 87.7854 75.5122C87.7854 75.5122 87.6908 75.1959 87.593 74.9839C87.5047 74.8035 87.3341 74.5788 87.2141 74.4079C87.1446 74.2908 86.7879 73.6737 86.7439 73.4112C86.7344 73.3796 86.7344 73.3796 86.6933 73.3574ZM68.5201 74.585C68.5201 74.585 68.4979 74.6261 68.5073 74.6577C68.6143 75.2461 69.1725 76.7678 69.7161 77.0878C69.7983 77.1322 69.9848 77.1798 70.0608 77.0881C70.083 77.0471 70.0957 76.9743 70.1085 76.9016C70.2004 76.6329 70.2826 76.6772 70.267 76.5096C70.2481 76.4463 70.1881 76.3609 70.1281 76.2754C70.0681 76.19 69.2528 75.5377 68.9368 75.2875C68.8546 75.2432 68.7946 75.1577 68.7662 75.0628C68.7252 75.0406 68.6404 74.4112 68.5201 74.585ZM87.4935 76.4955C87.4902 76.5998 87.6764 76.9922 87.7269 77.046C87.768 77.0682 87.9135 77.0936 87.9451 77.0842C88.1033 77.0369 88.3629 76.7525 88.5054 76.5376C88.6258 76.3638 88.705 76.1678 88.8065 75.9307C88.8857 75.7347 89.257 74.5554 89.2475 74.5238C89.2381 74.4922 89.1653 74.4795 89.121 74.5616C89.045 74.6533 88.9941 74.9442 88.937 75.0991C88.8926 75.1813 88.8483 75.2634 88.7628 75.3234C88.4527 75.554 87.7469 76.0751 87.6171 76.2173C87.5633 76.2678 87.4745 76.4322 87.4935 76.4955ZM86.5461 75.0555C86.5461 75.0555 86.6084 76.0708 86.6837 76.6686C86.7277 76.9311 86.8313 77.6238 87.0811 77.6525C87.2993 77.6907 87.4829 77.498 87.5211 77.2798C87.5338 77.2071 87.5149 77.1438 87.4866 77.0489C87.4298 76.8591 86.9564 75.9668 86.7796 75.6061C86.7512 75.5112 86.7323 75.4479 86.6945 75.3213C86.6567 75.1948 86.6316 74.9955 86.6316 74.9955L86.5461 75.0555ZM71.1982 75.1285L71.0938 75.1252C71.0938 75.1252 71.0778 75.3023 71.0524 75.4478C71.0048 75.6343 70.3266 76.9398 70.2663 77.199C70.2187 77.3856 70.3038 77.6703 70.563 77.7307C70.9045 77.8354 71.0285 77.2125 71.0732 76.7856C71.1244 76.1499 71.1982 75.1285 71.1982 75.1285ZM70.4798 78.7205C70.6885 78.727 70.8056 78.6575 70.8627 78.5026C70.8754 78.4299 70.847 78.335 70.8281 78.2717C70.7681 78.1863 69.7569 77.4547 69.3492 77.1285C69.2576 77.0525 69.1976 76.9671 69.1376 76.8816C69.0587 76.7329 69.0019 76.5431 68.9514 76.4893C68.9103 76.4671 68.9103 76.4671 68.8787 76.4766C68.8565 76.5177 69.1594 77.1853 69.2856 77.4922C69.4812 77.9161 69.8474 78.5648 70.3027 78.7045C70.3754 78.7172 70.4165 78.7394 70.4798 78.7205ZM86.9477 78.2438C86.8623 78.3038 86.9506 78.4842 86.9506 78.4842C87.0706 78.6551 87.1212 78.7089 87.3205 78.6838C87.719 78.6336 87.9913 78.2765 88.232 77.9289C88.3524 77.755 88.9261 76.4463 88.9167 76.4147C88.8156 76.3071 88.6665 76.7307 88.4796 77.0278C88.372 77.1289 87.3339 77.9216 86.9477 78.2438ZM71.2721 77.1052C71.2594 77.1779 71.2972 77.3045 71.3255 77.3994C71.3539 77.4943 71.2903 77.8579 71.2238 77.9812C71.0398 78.5186 70.8274 78.9612 71.21 79.088C71.2827 79.1008 71.4598 79.1168 71.5231 79.0979C71.6085 79.0379 71.6972 78.8735 71.7227 78.728C71.7354 78.6553 71.4397 77.0895 71.3892 77.0357C71.3892 77.0357 71.3481 77.0136 71.3575 77.0452C71.3259 77.0546 71.3037 77.0957 71.2721 77.1052ZM86.0681 78.6446C86.0554 78.7173 86.1121 78.9071 86.1121 78.9071C86.1689 79.0969 86.3238 79.154 86.5452 79.0878C86.9881 78.9554 86.6881 78.5282 86.5023 77.7911C86.4644 77.6646 86.4521 77.3926 86.468 77.2155C86.4713 77.1111 86.484 77.0384 86.484 77.0384L86.4113 77.0257L86.103 78.5307C86.0808 78.5718 86.0903 78.6035 86.0681 78.6446ZM69.4682 78.3336L69.4365 78.343L69.446 78.3747C69.446 78.3747 69.4555 78.4063 69.506 78.4601C69.9955 79.1754 70.4944 79.9222 71.1362 80.1095C71.25 80.1444 71.3544 80.1477 71.4082 80.0971C71.4715 80.0782 71.5918 79.9044 71.6362 79.8222C71.6711 79.7084 71.6522 79.6451 71.5194 79.5469C71.2634 79.3822 70.1285 78.9288 69.9864 78.799C69.8536 78.7008 69.7336 78.5299 69.6231 78.3907C69.4998 78.3241 69.4998 78.3241 69.4682 78.3336ZM86.2158 79.5998C86.1998 79.7769 86.1871 79.8496 86.3925 79.9605C86.8034 80.1823 87.4808 79.5663 87.7881 79.0954C87.9306 78.8805 88.0321 78.6434 88.1841 78.4601C88.2917 78.359 88.3677 78.2674 88.3171 78.2136C88.2255 78.1376 87.9942 78.5168 87.8644 78.659C87.8106 78.7096 87.5764 78.8485 87.4277 78.9274C87.2474 79.0158 86.3616 79.2805 86.2191 79.4954C86.2063 79.5682 86.2158 79.5998 86.2158 79.5998ZM71.9568 78.5891C71.9568 78.5891 71.9819 78.7884 71.9976 78.956C72.0005 79.1964 71.7718 80.1607 71.8002 80.2556C71.8475 80.4138 72.0118 80.5025 72.3155 80.4807C72.5464 80.4461 72.5562 80.1331 72.5122 79.8705C72.4649 79.7123 72.1841 79.0036 72.0107 78.5386C71.9918 78.4753 71.9917 78.4753 71.9601 78.4848L71.9285 78.4942L71.9568 78.5891ZM85.9165 78.4831L85.8027 78.4482C85.8027 78.4482 85.454 79.2417 85.3049 79.6653C85.2256 79.8613 85.1809 80.2882 85.3231 80.418C85.3737 80.4718 85.6551 80.4911 85.7722 80.4216C85.9526 80.3332 85.978 80.1878 85.9529 79.9885C85.9311 79.6849 85.7041 78.9257 85.7739 78.698C85.8405 78.5748 85.9165 78.4831 85.9165 78.4831ZM72.0646 81.4861C72.365 81.5687 72.5642 81.5436 72.6151 81.2527C72.6533 81.0345 72.53 80.9679 72.2835 80.8349C71.9642 80.6891 71.3224 80.5018 70.9399 80.3749C70.8577 80.3306 70.7439 80.2957 70.6839 80.2102C70.5006 80.0582 70.3522 79.7924 70.2762 79.8841C70.2446 79.8935 70.254 79.9252 70.2729 79.9884C70.2919 80.0517 71.1006 80.9127 71.2744 81.0331C71.3977 81.0996 71.8053 81.4258 72.0646 81.4861ZM85.1991 81.0409C85.0915 81.142 85.2304 81.3762 85.281 81.43C85.5781 81.6169 86.154 81.2379 86.4104 81.0579C86.5275 80.9885 87.5121 79.9016 87.5027 79.8699C87.4838 79.8067 87.3889 79.835 87.2685 80.0088C87.2147 80.0594 87.1925 80.1005 87.1703 80.1416C87.1165 80.1921 86.9678 80.271 86.8507 80.3405C86.3856 80.514 85.5409 80.8009 85.4555 80.8609C85.329 80.8987 85.253 80.9903 85.1991 81.0409ZM72.8092 80.0574L72.8187 80.089C72.8471 80.184 72.9292 80.2283 72.9482 80.2916C72.9987 80.3454 73.0049 80.4814 73.0111 80.6174C73.0009 81.2752 72.8359 81.8759 73.4715 81.9272C73.6486 81.9431 73.7562 81.8421 73.7722 81.665C73.8009 81.4152 73.5231 80.9468 73.3842 80.7126C73.2958 80.5323 72.8947 79.9974 72.8631 80.0069C72.8409 80.048 72.8092 80.0574 72.8092 80.0574ZM84.8744 80.0697C84.6115 80.4584 84.0035 81.1915 84.0599 81.726C84.0756 81.8936 84.1894 81.9285 84.357 81.9129C84.6828 81.85 84.7683 81.79 84.7875 81.5085C84.8068 81.2271 84.8104 80.778 84.7886 80.4744C84.8013 80.4017 84.7824 80.3384 84.8046 80.2973C84.8711 80.174 85.0104 80.0635 84.9504 79.978C84.982 79.9686 84.9187 79.9875 84.8744 80.0697ZM73.9685 81.3995L73.978 81.4311C74.0064 81.5261 74.0569 81.5799 74.1075 81.6337C74.1264 81.697 74.1319 82.5224 74.1286 82.6267C74.0588 82.8544 74.0428 83.0315 74.2893 83.1645C74.4442 83.2216 74.7351 83.2725 74.7795 83.1903C74.9126 82.9438 74.6948 82.5609 74.578 82.2856C74.4896 82.1053 74.0634 81.3711 74.0318 81.3806C74.0224 81.349 73.9907 81.3584 73.9685 81.3995ZM82.9993 82.9046C82.9578 83.2271 83.1444 83.2747 83.3975 83.1991C83.6189 83.1329 83.6949 83.0413 83.7425 82.8547C83.7712 82.6049 83.6709 81.8078 83.7058 81.694C83.7501 81.6118 83.861 81.4064 83.8199 81.3842C83.8105 81.3526 83.7788 81.362 83.7472 81.3715C83.7156 81.3809 83.1073 82.4588 83.0724 82.5726C83.0374 82.6864 83.0025 82.8002 82.9993 82.9046ZM73.4832 82.8886C73.6697 82.9362 73.7646 82.9078 73.7773 82.8351C73.9104 82.5886 73.882 82.4937 73.686 82.4144C73.3984 82.2592 71.9188 81.8054 71.7861 81.7072C71.6122 81.5869 71.4606 81.4254 71.4068 81.476C71.2359 81.596 72.0072 81.9858 72.2315 82.1599C72.3232 82.2359 72.4148 82.3119 72.5064 82.3879C72.6992 82.5715 73.1923 82.8377 73.4832 82.8886ZM84.0054 82.466C83.9167 82.6304 83.9829 82.8518 84.0872 82.8551C84.4287 82.9598 85.0363 82.5714 85.2927 82.3914C85.549 82.2114 86.353 81.5576 86.3751 81.5165C86.3973 81.4754 86.3879 81.4437 86.3879 81.4437C86.3468 81.4216 85.9417 81.6805 85.6443 81.8383C85.4955 81.9172 85.3374 81.9645 85.2108 82.0023C84.7679 82.1347 84.401 82.1754 84.0592 82.4155C84.0276 82.4249 83.996 82.4344 84.0054 82.466ZM73.897 83.3507C75.0853 84.0983 75.4868 84.2885 76.7704 84.663C76.9159 84.6884 77.0297 84.7233 77.2162 84.7709C77.466 84.7996 77.8202 84.8316 77.8202 84.8316C77.8202 84.8316 77.1439 84.4135 76.6824 84.1379C76.4769 84.027 75.5795 83.3303 75.5195 83.2449C75.3489 83.0201 75.1278 82.7416 75.1278 82.7416C75.1278 82.7416 75.118 83.0547 75.0704 83.2412C75.0195 83.5321 74.7981 83.5983 74.5072 83.5474C74.289 83.5093 74.3112 83.4682 74.0141 83.2813C73.9319 83.2369 73.8908 83.2147 73.8686 83.2558L73.8781 83.2875C73.8148 83.3064 73.8243 83.338 73.897 83.3507ZM80.0878 84.8086C80.0972 84.8403 80.695 84.765 81.1158 84.6737C81.2739 84.6264 82.087 84.3489 82.3939 84.2227C82.6375 84.1155 84.0204 83.3231 84.0425 83.282C84.0647 83.2409 84.0458 83.1776 83.9825 83.1965C83.8876 83.2249 83.7484 83.3354 83.6313 83.4049C83.3433 83.5944 83.0208 83.5529 82.8691 83.3915C82.828 83.3693 82.7618 83.1478 82.7651 83.0435C82.7589 82.9075 82.7655 82.6988 82.7655 82.6988C82.7655 82.6988 82.5597 82.9326 82.4393 83.1064C82.3095 83.2486 82.2335 83.3402 82.148 83.4002C81.9012 83.6119 80.8347 84.3097 80.1732 84.7486C80.0783 84.777 80.0783 84.777 80.0878 84.8086Z" fill="#F8F8FA"/>
<path fill-rule="evenodd" clip-rule="evenodd" d="M69.1323 54.7241C69.2785 54.0601 69.6741 53.7696 70.1079 53.2608C70.1301 53.2198 70.1617 53.2103 70.1839 53.1692C70.5068 52.8659 70.6992 53.3943 70.7686 53.5114C71.4254 54.5557 71.5548 54.7582 72.3603 55.7236C73.0741 56.613 74.2338 57.6104 75.1567 58.1616C75.6687 58.491 76.2156 58.7066 76.8418 58.7263C76.9461 58.7295 76.9778 58.7201 76.9778 58.7201L76.7527 59.2353L76.5022 59.8961C76.5022 59.8961 76.4705 59.9055 76.3978 59.8928C75.8982 59.8354 74.8579 59.6983 74.3615 59.5365C73.979 59.4096 73.6946 59.15 73.7709 58.7136C73.7837 58.6409 73.7964 58.5682 73.7964 58.5682L73.0346 58.2101C73.0346 58.2101 72.984 58.1562 72.8607 58.0897C72.5131 57.849 72.2666 57.7159 72.2924 57.2257C72.3145 57.1847 72.2956 57.1214 72.2956 57.1214C72.2956 57.1214 71.872 56.9723 71.7898 56.928C71.3567 56.7472 70.9426 56.6298 70.9589 56.108C70.9494 56.0764 70.9494 56.0764 70.9494 56.0764C70.9494 56.0764 70.8767 56.0636 70.7724 56.0604C70.2095 56.0219 70.064 55.9964 69.5487 55.7713C69.3117 55.6699 69.024 55.5146 68.9989 55.3154C68.9927 55.1794 69.0942 54.9423 69.1323 54.7241ZM80.9693 58.3541C80.9504 58.2908 80.9315 58.2276 80.9315 58.2276L80.6634 57.4461L80.4143 56.728C80.4143 56.728 80.4016 56.8007 80.4267 57C80.4289 57.9298 80.3431 58.3345 79.9406 59.1785C79.8962 59.2607 79.9057 59.2923 79.9057 59.2923L80.7621 59.9668L80.9297 59.9511L81.9577 59.8162C82.4511 59.7376 83.0078 59.6402 83.3242 59.5456C83.7038 59.4321 84.0045 59.17 83.9038 58.7176C83.8754 58.6227 83.8659 58.5911 83.8659 58.5911L84.619 58.2281C84.619 58.2281 84.6728 58.1776 84.7899 58.1081C85.1222 57.8365 85.3975 57.7198 85.36 57.2485C85.3411 57.1852 85.3633 57.1441 85.3633 57.1441C85.3633 57.1441 85.7967 56.9801 85.8916 56.9518C86.3251 56.7877 86.7363 56.6648 86.721 56.1525C86.7116 56.1208 86.7116 56.1208 86.7116 56.1208C86.7116 56.1208 86.7748 56.1019 86.8792 56.1052C87.4454 56.0394 87.5814 56.0332 88.1003 55.8092C88.3122 55.7113 88.6413 55.544 88.6573 55.367C88.6733 55.1899 88.5977 54.9368 88.5315 54.7153C88.3645 54.0416 87.9758 53.7787 87.5431 53.2532C87.502 53.2311 87.4925 53.1994 87.4514 53.1772C87.126 52.8954 86.9326 53.4013 86.866 53.5245C86.2166 54.5802 86.1057 54.7856 85.292 55.7525C84.5858 56.6184 83.4146 57.6577 82.519 58.2355C82.2311 58.425 81.902 58.5922 81.554 58.6962C81.0606 58.7748 81.0071 58.4806 80.9693 58.3541Z" fill="#F8F8FA"/>
<path fill-rule="evenodd" clip-rule="evenodd" d="M68.7671 48.6637L73.8241 48.634L74.8601 49.9096L68.7671 48.6637ZM71.0382 45.1935L77.0221 47.9194L76.6538 49.339L71.0382 45.1935ZM74.8507 43.537L77.5741 46.307L77.1109 47.755L74.8507 43.537ZM80.5326 47.904L82.0925 47.1276L82.6655 43.5102L80.5042 47.8091L78.767 42.5733L78.7825 49.0818C78.7825 49.0818 78.7825 49.0818 78.6149 49.0975C77.0778 49.1433 74.1707 49.9089 73.11 51.0874C73.0562 51.138 73.034 51.1791 73.034 51.1791C73.034 51.1791 73.0656 51.1696 73.3093 51.0624C75.2488 50.1725 77.0298 49.6746 78.8672 49.7113C81.2897 49.7453 82.6523 50.2685 84.4763 51.0674C84.5995 51.1339 84.6312 51.1244 84.6312 51.1244L84.0752 50.5325L88.8779 48.6145L82.8013 49.8449L86.6043 45.1587L81.0119 49.277L80.5326 47.904Z" fill="#F8F8FA"/>
<path fill-rule="evenodd" clip-rule="evenodd" d="M86.573 45.1686L86.1486 45.709L86.6046 45.1591L86.573 45.1686Z" fill="#F8F8FA"/>
<path fill-rule="evenodd" clip-rule="evenodd" d="M83.8248 48.5409L82.7703 49.8554L88.8468 48.625L83.8248 48.5409Z" fill="#F8F8FA"/>
<path fill-rule="evenodd" clip-rule="evenodd" d="M73.6799 50.5725C74.9932 49.663 77.3088 49.1088 78.6055 49.0658C78.7731 49.0501 78.7731 49.0501 78.7731 49.0501L78.7576 42.5416L78.786 42.6365L78.7481 42.51L77.5647 46.2754L77.1015 47.7233L74.873 43.4959L75.4575 47.1809L77.0128 47.8877L76.6445 49.3073L71.0288 45.1618L71.2248 45.2411L71.0193 45.1302L73.8147 48.6024L68.7261 48.6415L73.6799 50.5725ZM73.8241 48.634L74.8602 49.9096L68.7672 48.6636L73.8241 48.634Z" fill="#F8F8FA"/>
<path fill-rule="evenodd" clip-rule="evenodd" d="M79.9595 46.2158L80.4956 47.7786L82.6662 43.5114L79.9595 46.2158Z" fill="#F8F8FA"/>
<path fill-rule="evenodd" clip-rule="evenodd" d="M82.0926 47.1278L80.5326 47.9042L80.9803 49.2867L86.5411 45.1778L82.0926 47.1278Z" fill="#F8F8FA"/>
<path fill-rule="evenodd" clip-rule="evenodd" d="M84.7153 69.5029L78.8467 68.4311L78.638 68.4246L73.1214 69.4532C73.0582 69.4721 73.0582 69.4721 73.0043 69.5226C72.9156 69.687 72.8585 69.8419 72.7698 70.0063C72.7 70.2339 72.3859 71.2582 72.335 71.5491C71.9282 73.5316 72.0024 75.1636 72.5887 77.125C73.0898 78.8016 74.1317 80.5579 75.307 81.7229C75.5913 81.9826 76.495 82.8152 76.9532 83.1952C77.1364 83.3472 78.0877 83.9933 78.3248 84.0948C78.603 84.2184 78.9317 84.3958 78.9317 84.3958C78.9317 84.3958 79.6753 84.0012 80.2291 83.6634C80.4316 83.534 81.685 82.539 81.8464 82.3874C83.4198 80.8488 84.5473 79.2023 85.2011 77.0081C85.8293 74.9594 85.7805 73.182 85.3208 71.1828C85.2357 70.8981 85.1917 70.6356 85.0466 70.2654C84.9204 69.9585 84.7153 69.5029 84.7153 69.5029Z" fill="#F8F8FA"/>
<path fill-rule="evenodd" clip-rule="evenodd" d="M69.092 83.6492L69.2531 83.8423L70.1901 82.9419L70.0291 82.7488L69.092 83.6492ZM69.1677 83.9023L69.0066 83.7092L68.8135 83.8703L68.9746 84.0634L69.1677 83.9023ZM69.4895 84.6332L70.604 83.404L70.7556 83.5655L70.2902 84.0837L71.0622 83.784L71.2138 83.9455L70.4196 84.2862L70.1182 85.2378L69.8844 85.032L70.1604 84.2259L69.6095 84.804L69.4895 84.6332ZM70.6175 85.64L71.612 84.24L72.1523 84.6643L72.032 84.8381L71.716 84.588L71.4215 84.9862L71.7186 85.173L71.5666 85.3563L71.26 85.1378L70.975 85.5676L71.2815 85.7861L71.0979 85.9789L70.6175 85.64ZM72.5106 86.9006L73.2996 85.3897L73.8843 85.7319L73.7734 85.9373L73.4447 85.7599L73.2229 86.1708L73.5422 86.3166L73.4313 86.522L73.1026 86.3446L72.8681 86.8282L73.1968 87.0057L73.0542 87.2206L72.5106 86.9006ZM74.2447 85.8998L74.1433 86.1369L74.3804 86.2384L74.4818 86.0013L74.2447 85.8998ZM73.7753 87.2118L73.6422 87.4584L73.8888 87.5914L74.0219 87.3449L73.7753 87.2118ZM75.1913 88.0292L76.148 86.5027L76.3756 86.5725L75.4506 88.0896L75.1913 88.0292ZM76.7487 86.6677L76.989 86.6648L77.1276 87.2437L77.4032 86.7822L77.6847 86.8015L77.1905 87.5695L77.4236 88.4647L77.1738 88.436L77.0258 87.8255L76.7153 88.4008L76.4655 88.372L76.9185 87.5819L76.7487 86.6677ZM78.4487 88.0894L78.7934 88.0898L78.8847 88.5105L79.125 88.5076L78.801 86.8469L78.529 86.8593L78.1003 88.5382L78.4134 88.548L78.4487 88.0894ZM78.7588 87.8589L78.5185 87.8618L78.6646 87.1978L78.7588 87.8589ZM79.7323 88.4639L80.0043 88.4515L79.9544 87.7083C79.9544 87.7083 79.9544 87.7083 79.9861 87.6988C80.217 87.6643 80.2199 87.9046 80.2355 88.0723C80.2417 88.2083 80.2668 88.4075 80.2668 88.4075L80.4977 88.373C80.4977 88.373 80.4632 88.1421 80.4664 88.0377C80.4603 87.9017 80.4479 87.6297 80.293 87.5726C80.2613 87.5821 80.2203 87.5599 80.2203 87.5599C80.2203 87.5599 80.2519 87.5505 80.2741 87.5094C80.3057 87.4999 80.3057 87.4999 80.3057 87.4999C80.445 87.3894 80.3882 87.1996 80.382 87.0636C80.3726 87.0319 80.3726 87.0319 80.3631 87.0003C80.3602 86.7599 80.2148 86.7345 80.006 86.728C79.9017 86.7247 79.6391 86.7687 79.6391 86.7687L79.7323 88.4639ZM79.9072 87.5501L79.8824 87.0061C79.8824 87.0061 79.9141 86.9967 79.9457 86.9872C80.0722 86.9494 80.0911 87.0127 80.129 87.1392L80.1384 87.1708C80.1384 87.1708 80.1479 87.2025 80.1352 87.2752C80.1319 87.3796 80.157 87.5788 80.021 87.585C79.9704 87.5312 79.9072 87.5501 79.9072 87.5501ZM81.2726 88.3137L81.5352 88.2697L81.3904 87.5548C81.3904 87.5548 81.3904 87.5548 81.422 87.5453C81.6846 87.5013 81.678 87.71 81.7348 87.8998C81.7726 88.0264 81.7977 88.2257 81.7977 88.2257L82.0286 88.1911C82.0286 88.1911 81.994 87.9602 81.9657 87.8653C81.9279 87.7388 81.9155 87.4668 81.7289 87.4191C81.6973 87.4286 81.6562 87.4064 81.6562 87.4064C81.6562 87.4064 81.6878 87.397 81.71 87.3559C81.71 87.3559 81.7417 87.3464 81.7322 87.3148C81.8398 87.2137 81.7831 87.0239 81.7453 86.8973C81.7358 86.8657 81.7358 86.8657 81.7264 86.8341C81.6918 86.6032 81.5464 86.5777 81.3155 86.6123C81.2206 86.6406 80.958 86.6846 80.958 86.6846L81.2726 88.3137ZM81.3337 87.365L81.2456 86.8399C81.2456 86.8399 81.2773 86.8304 81.3089 86.821C81.4355 86.7832 81.4766 86.8053 81.5144 86.9319L81.5238 86.9635C81.5238 86.9635 81.5333 86.9952 81.5522 87.0584C81.5806 87.1533 81.6057 87.3526 81.4697 87.3588C81.4064 87.3777 81.3337 87.365 81.3337 87.365ZM82.8547 87.4962L83.1616 87.37L83.3794 87.7529L83.6231 87.6456L82.7074 86.1962L82.4638 86.3035L82.6202 87.9798L82.8733 87.9042L82.8547 87.4962ZM83.0638 87.158L82.8202 87.2653L82.7071 86.5409L83.0638 87.158ZM85.0216 87.0208L84.6375 85.2747L84.84 85.1453L85.2241 86.8914L85.0216 87.0208ZM85.5331 84.6969L85.7262 84.5358L86.3222 86.1841L86.1291 86.3452L85.5331 84.6969ZM86.1312 84.2769L87.24 85.5651L87.392 85.3819L86.9182 84.8343L87.6705 85.1608L87.8858 84.9586L86.969 84.5434L86.7865 83.7019L86.6028 83.8947L86.7665 84.6728L86.2927 84.1252L86.1312 84.2769ZM87.1315 83.3576L87.5431 82.8899L87.6948 83.0514L87.4352 83.3357L87.8112 83.6714L88.0392 83.3964L88.1908 83.5579L87.9628 83.8328L88.3388 84.1684L88.6206 83.843L88.7817 84.036L88.3385 84.5131L87.1315 83.3576Z" fill="#F8F8FA"/>
<path fill-rule="evenodd" clip-rule="evenodd" d="M69.473 80.1924C69.473 80.1924 69.2836 79.9044 69.1352 79.6386C68.709 78.9045 68.2326 77.7718 67.9835 77.0536C67.8984 76.7689 67.3503 74.5894 67.2968 74.2952C67.1303 73.2767 67.0429 72.0622 67.0567 70.9553C67.0927 69.8073 67.3475 68.0081 67.6998 66.7656C67.922 66.0099 68.3946 64.5936 68.7051 64.0183C69.1393 63.1649 69.7919 62.0049 69.7508 61.9827C69.6308 61.8118 68.76 62.9336 68.5953 63.1896C68.3768 63.4962 67.3408 65.2187 67.1856 65.5063C67.0303 65.794 66.3741 67.403 66.225 67.8267C66.0759 68.2503 65.949 68.6329 65.841 69.0787C65.5458 70.1663 65.215 72.0572 65.2332 72.8099C65.2394 72.9459 65.63 74.4833 65.7151 74.768C66.1377 75.9512 66.5792 77.1977 67.1632 78.2293C67.6367 79.1216 68.5523 80.571 68.5523 80.571L69.473 80.1924Z" fill="#F8F8FA"/>
<path fill-rule="evenodd" clip-rule="evenodd" d="M89.2501 80.4149C89.2501 80.4149 90.077 79.0305 90.5871 78.0855C91.186 76.976 91.5983 75.8189 92.0011 74.6302C92.0931 74.3615 92.4774 72.7648 92.4807 72.6604C92.5035 71.9299 92.1387 69.9023 91.934 69.102C91.4488 67.2482 90.4044 64.9069 89.3433 63.4321C89.1633 63.1757 88.2978 62.1249 88.1462 61.9634C88.0956 61.9096 88.0451 61.8558 87.9723 61.8431C87.868 61.8398 87.8869 61.9031 87.9153 61.998C87.9531 62.1245 88.5371 63.1561 88.8939 63.7732C89.2601 64.4219 89.875 66.1334 90.0987 66.997C90.3885 68.0821 90.5955 69.8122 90.645 70.9002C90.685 71.9565 90.6494 72.7598 90.4808 73.8096C90.2386 75.5361 89.6228 77.8568 88.6628 79.4877C88.5076 79.7753 88.2669 80.1229 88.2669 80.1229C88.2669 80.1229 88.504 80.2244 88.7316 80.2942C89.032 80.3767 89.2501 80.4149 89.2501 80.4149Z" fill="#F8F8FA"/>
<path fill-rule="evenodd" clip-rule="evenodd" d="M73.5121 69.9565C73.5121 69.9565 73.4012 70.162 73.3535 70.3485C73.0587 71.0914 72.8805 72.1096 72.7722 72.9001C72.5901 74.7121 72.996 76.7618 73.7502 78.3628C73.8575 78.6065 74.6026 79.8311 74.7732 80.0559C75.2943 80.7616 75.7586 81.2776 76.4285 81.9045C76.6212 82.0881 77.5376 82.848 77.743 82.9589C78.2139 83.2662 78.8808 83.6527 78.8808 83.6527C78.8808 83.6527 79.3048 83.457 79.6561 83.2487C79.8048 83.1698 80.9727 82.2348 81.1658 82.0737C82.3403 80.9301 82.9671 80.2602 83.7434 78.8221C83.8987 78.5344 84.4281 77.3079 84.5201 77.0392C85.1196 75.2403 85.1886 72.704 84.5296 70.7299C84.4256 70.3819 84.2205 69.9263 84.2205 69.9263L78.861 68.9436L73.5121 69.9565Z" fill="#F8F8FA"/>
<path d="M81.4127 70.2144C81.4127 70.2144 81.4251 70.4864 81.368 70.6413C81.3331 70.7551 81.2698 70.774 81.2477 70.8151C81.1589 70.9794 81.2346 71.2325 81.3706 71.2263C81.4433 71.2391 81.5698 71.2012 81.5698 71.2012L81.5633 71.41C81.5633 71.41 81.4273 71.4161 81.3546 71.4034C81.3229 71.4129 81.2597 71.4318 81.228 71.4412C81.0066 71.5074 80.7597 71.7191 80.6393 71.8929C80.6172 71.934 80.6044 72.0067 80.6044 72.0067L80.9681 72.0703L80.9553 72.1431C80.9553 72.1431 80.7688 72.0954 80.6234 72.07C80.5506 72.0573 80.4463 72.054 80.3514 72.0824C80.2248 72.1202 80.1394 72.1802 80.1361 72.2845C80.1456 72.3162 80.155 72.3478 80.1645 72.3794C80.215 72.4333 80.2561 72.4554 80.2656 72.4871C80.2845 72.5503 80.2274 72.7053 80.1736 72.7558C80.0787 72.7842 80.0536 72.5849 79.943 72.4456C79.8325 72.3064 79.567 72.11 79.567 72.11C79.567 72.11 79.2696 72.2679 79.2569 72.3406L79.2347 72.3817C79.2441 72.4133 79.2441 72.4133 79.263 72.4766C79.5409 72.9449 79.6292 73.1253 80.0212 73.2838C80.0623 73.306 80.1983 73.2998 80.2616 73.2809C80.2616 73.2809 80.2616 73.2809 80.2932 73.2714C80.4103 73.202 80.9295 72.6332 80.9295 72.6332C80.9295 72.6332 80.9357 72.7692 80.9325 72.8736C80.9354 73.1139 80.9005 73.2278 80.875 73.3732C80.8401 73.487 80.8674 74.6161 80.9147 74.7743C80.9966 75.1633 81.0973 75.6157 81.0973 75.6157L81.8663 75.0757C81.9202 75.0251 81.9202 75.0251 81.9329 74.9524C82.0441 74.4022 82.2187 73.8331 82.2761 73.3335C82.3015 73.1881 82.4793 72.5146 82.5426 72.4957C82.5742 72.4863 82.6375 72.4673 82.6691 72.4579C82.7008 72.4484 82.7008 72.4484 82.7324 72.439C82.764 72.4295 82.764 72.4295 82.7957 72.4201C82.8273 72.4106 82.8906 72.3917 82.9222 72.3822C83.0393 72.3128 83.4255 71.9906 83.22 71.8797C83.1695 71.8259 83.0746 71.8543 82.9924 71.8099C82.8786 71.775 82.8313 71.6168 82.7491 71.5725C82.708 71.5503 82.708 71.5503 82.6669 71.5281C82.2433 71.379 82.0502 71.5401 82.0916 71.2176C82.1044 71.1449 82.1171 71.0721 82.1393 71.031C82.2153 70.9394 82.3418 70.9016 82.4178 70.8099C82.4938 70.7183 82.5003 70.5096 82.4309 70.3925C82.3203 70.2532 81.9472 70.158 81.7796 70.1736C81.748 70.1831 81.748 70.1831 81.7163 70.1925L81.6531 70.2114C81.4949 70.2587 81.4127 70.2144 81.4127 70.2144ZM78.6219 71.5999C78.5587 71.6188 78.5365 71.6599 78.4699 71.7832C78.4478 71.8243 78.4983 71.8781 78.4983 71.8781C78.5583 71.9635 78.6499 72.0395 78.691 72.0617C78.7638 72.0744 78.8176 72.0239 78.8903 72.0366C78.963 72.0493 79.0041 72.0715 79.0674 72.0526C79.1307 72.0337 79.175 71.9515 79.2605 71.8915C79.3143 71.841 79.327 71.7682 79.2576 71.6511C79.1376 71.4802 78.9161 71.5464 78.7074 71.5399C78.6536 71.5904 78.6219 71.5999 78.6219 71.5999ZM83.112 72.3255C83.112 72.3255 83.0582 72.3761 82.9728 72.4361C82.8557 72.5055 82.7291 72.5433 82.6342 72.5717C82.571 72.5906 82.5393 72.6001 82.5393 72.6001C82.5393 72.6001 82.6339 72.9164 82.7128 73.0651C82.8106 73.2771 82.9244 73.312 83.0033 73.4608C83.0728 73.5778 83.1194 74.4255 83.1918 74.7829C83.2169 74.9822 83.2579 75.0043 83.4572 74.9792C83.5205 74.9603 83.5521 74.9509 83.5838 74.9414C83.6154 74.932 83.647 74.9225 83.6376 74.8909C83.6503 74.8182 83.6539 74.3691 83.6477 74.2331C83.5753 73.8756 83.3386 73.4295 83.3295 73.0531C83.3044 72.8539 83.3615 72.6989 83.232 72.4964C83.2037 72.4015 83.112 72.3255 83.112 72.3255ZM74.2098 75.0553C74.1782 75.0647 74.1244 75.1153 74.1022 75.1563C74.08 75.1974 74.0578 75.2385 74.0357 75.2796C73.9913 75.3618 73.8964 75.3902 73.8837 75.4629C73.8488 75.5767 73.9499 75.6843 74.0953 75.7098C74.1364 75.732 74.168 75.7225 74.2313 75.7036C74.3262 75.6752 74.4244 75.5425 74.4371 75.4698C74.4847 75.2832 74.5102 75.1378 74.3458 75.0491C74.3047 75.0269 74.2731 75.0363 74.2098 75.0553ZM75.6011 75.3286C75.4113 75.3854 75.2371 75.6097 75.1578 75.8057C75.1102 75.9923 75.0942 76.1694 75.2269 76.2675C75.4418 76.4101 75.6189 76.4261 75.4924 76.4639C75.4608 76.4733 75.4608 76.4733 75.448 76.5461L75.2132 77.3744C75.2004 77.4471 75.2004 77.4472 75.1783 77.4882C75.1877 77.5199 75.1655 77.561 75.175 77.5926C75.1812 77.7286 75.219 77.8551 75.2568 77.9817C75.2852 78.0766 75.3546 78.1937 75.3197 78.3075C75.2976 78.3486 75.3387 78.3708 75.3797 78.3929C75.4525 78.4057 75.5252 78.4184 75.6296 78.4217C75.7023 78.4344 75.7656 78.4155 75.7656 78.4155C75.7656 78.4155 75.7688 78.3111 75.7405 78.2162C75.7437 78.1118 75.8961 77.5838 75.9531 77.4289C75.9659 77.3562 75.988 77.3151 75.9597 77.2202C75.9029 77.0304 75.6851 76.6475 75.6851 76.6475L75.7168 76.6381C75.7484 76.6286 75.8084 76.7141 75.8178 76.7457C76.0764 77.4955 76.187 77.6347 76.667 78.3183C76.7175 78.3722 76.7175 78.3722 76.7903 78.3849L77.2677 78.4834C77.2677 78.4834 77.1891 77.99 77.0757 77.6103C76.9244 77.1042 76.4825 76.2024 76.4669 76.0348C76.4574 76.0031 76.4702 75.9304 76.4607 75.8988C76.4734 75.8261 76.4734 75.8261 76.4229 75.7722C76.2807 75.6424 75.8003 75.3035 75.6865 75.2686C75.7371 75.3225 75.6643 75.3097 75.6011 75.3286ZM81.9736 75.3193C81.8471 75.3571 81.2046 75.8593 81.2046 75.8593C81.2046 75.8593 81.2013 75.9637 81.1886 76.0364C81.1853 76.1408 81.1631 76.1819 81.1504 76.2546C81.0268 76.5328 80.7796 77.0891 80.7192 77.3484C80.5574 77.8447 80.4523 78.5309 80.4523 78.5309C80.4523 78.5309 80.5251 78.5436 80.5883 78.5247C80.6611 78.5375 80.756 78.5091 80.8509 78.4807C80.9141 78.4618 80.9458 78.4524 80.9774 78.4429C81.0534 78.3513 81.557 77.6149 81.6014 77.5327C81.6712 77.3051 81.8202 76.8814 81.8741 76.8309C81.9279 76.7804 82.0133 76.7204 82.0133 76.7204L81.7661 77.2767C81.7534 77.3494 81.7217 77.3589 81.7406 77.4222C81.8163 77.6752 81.9487 78.1181 81.977 78.213C81.9737 78.3174 81.9799 78.4534 81.9799 78.4534L82.4417 78.3843C82.4417 78.3843 82.5308 77.8752 82.5595 77.6254C82.6104 77.3345 82.4842 77.0276 82.3329 76.5214C82.314 76.4582 82.314 76.4582 82.2729 76.436L82.2002 76.4233C82.2002 76.4233 82.4566 76.2433 82.5642 76.1422C82.694 76 82.6089 75.7153 82.4794 75.5127C82.3784 75.4051 82.1318 75.272 81.9736 75.3193ZM83.4667 75.0109C83.435 75.0203 83.4034 75.0298 83.3812 75.0709C83.3496 75.0803 83.3274 75.1214 83.3052 75.1625C83.2703 75.2763 83.2954 75.4756 83.346 75.5294C83.4154 75.6465 83.5482 75.7447 83.6747 75.7069C83.7063 75.6974 83.7063 75.6974 83.738 75.6879C83.9627 75.5174 83.8299 75.4192 83.6499 75.1629C83.5805 75.0458 83.5299 74.992 83.4667 75.0109ZM75.3194 78.6522C75.3194 78.6522 75.3034 78.8293 75.3318 78.9242C75.3601 79.0191 75.3696 79.0507 75.3885 79.114C75.4074 79.1773 75.3947 79.25 75.4136 79.3133C75.4732 79.7434 75.8965 80.2372 76.1776 80.6012C76.5187 81.0506 76.5787 81.1361 77.1005 81.1524C77.2776 81.1684 77.518 81.1655 77.518 81.1655C77.518 81.1655 77.5307 81.0928 77.5212 81.0611C77.5056 80.8935 76.8322 80.7157 76.75 80.6714C76.6773 80.6586 76.6678 80.627 76.6489 80.5637L75.9234 78.7129C75.9234 78.7129 75.7368 78.6653 75.5597 78.6493C75.4554 78.646 75.3194 78.6522 75.3194 78.6522ZM76.7394 78.6758C76.7077 78.6852 76.6855 78.7263 76.6728 78.7991C76.6474 78.9445 76.7452 79.1565 76.783 79.283C76.8303 79.4412 77.2154 80.1532 77.3354 80.3241C77.3859 80.3779 77.6449 80.783 77.7587 80.8179C77.8409 80.8622 77.9358 80.8339 78.018 80.8782C78.1318 80.9131 78.2329 81.0208 78.4099 81.0368C78.4827 81.0495 78.5776 81.0211 78.5776 81.0211L78.5903 80.9484C78.5809 80.9167 78.5808 80.9167 78.5303 80.8629C78.3976 80.7648 78.151 80.6317 78.091 80.5462C77.9899 80.4386 77.4761 78.8347 77.4761 78.8347C77.4761 78.8347 77.103 78.7394 76.9164 78.6918C76.8121 78.6885 76.771 78.6663 76.7394 78.6758ZM80.4236 78.7807C80.392 78.7902 80.3604 78.7996 80.3604 78.7996C80.3604 78.7996 79.9513 79.8524 79.8433 80.2982C79.8212 80.3393 79.8306 80.3709 79.8401 80.4025C79.8495 80.4342 79.8273 80.4753 79.7641 80.4942L79.2292 80.8953L79.2481 80.9585C79.2576 80.9902 79.2576 80.9902 79.2892 80.9807C79.3208 80.9713 79.3619 80.9934 79.3936 80.984C79.4252 80.9745 79.4885 80.9556 79.5517 80.9367C79.7415 80.88 79.9852 80.7727 80.0801 80.7443C80.1339 80.6938 80.3492 80.4916 80.3302 80.4283C80.3208 80.3967 80.343 80.3556 80.343 80.3556L80.3746 80.3461C80.4062 80.3367 80.8942 79.4327 80.9513 79.2778C80.9956 79.1956 81.0084 79.1229 81.0116 79.0185C81.0054 78.8825 81.0214 78.7054 81.0214 78.7054C81.0214 78.7054 80.9487 78.6927 80.8538 78.7211C80.74 78.6862 80.5185 78.7524 80.4236 78.7807ZM81.8785 78.6905L81.1524 80.5272C81.1397 80.5999 81.108 80.6094 81.0448 80.6283C80.7695 80.745 80.3044 80.9185 80.2601 81.0007C80.2379 81.0418 80.2663 81.1367 80.2663 81.1367C80.2663 81.1367 80.475 81.1432 80.6426 81.1276C80.8103 81.1119 80.9146 81.1152 81.0095 81.0868C81.1677 81.0395 81.2437 80.9479 81.3735 80.8057C81.5255 80.6225 82.0258 79.9904 82.0924 79.8672C82.1589 79.7439 82.4283 79.1465 82.4254 78.9061C82.4192 78.7701 82.4036 78.6025 82.4036 78.6025C82.4036 78.6025 82.2992 78.5992 82.1948 78.5959C82.0999 78.6243 81.9418 78.6716 81.8785 78.6905ZM82.0355 76.6793C82.0039 76.6887 81.9722 76.6982 81.9944 76.6571C81.985 76.6254 82.0704 76.5654 82.0926 76.5244C82.1242 76.5149 82.1148 76.4833 82.1464 76.4738C82.178 76.4644 82.1875 76.496 82.1653 76.5371C82.1431 76.5782 82.1115 76.5876 82.0893 76.6287C82.0671 76.6698 82.0355 76.6793 82.0355 76.6793ZM75.7578 76.6602C75.7578 76.6602 75.7262 76.6697 75.7168 76.6381C75.6757 76.6159 75.6346 76.5937 75.6251 76.5621L75.6157 76.5304L75.7073 76.6064C75.7389 76.597 75.7389 76.597 75.7578 76.6602C75.7578 76.6602 75.7484 76.6286 75.7578 76.6602ZM75.6852 70.3066C75.622 70.3255 75.5587 70.3444 75.5271 70.3539C75.41 70.4233 75.3434 70.5466 75.3496 70.6826C75.3591 70.7142 75.3685 70.7459 75.3874 70.8091C75.4569 70.9262 75.6434 70.9738 75.7129 71.0909C75.7634 71.1447 75.7569 71.3535 75.7125 71.4356C75.6904 71.4767 75.6587 71.4862 75.6271 71.4957C75.5638 71.5146 75.4595 71.5113 75.3646 71.5397C75.3646 71.5397 75.3329 71.5491 75.3013 71.5586C75.2064 71.5869 75.0577 71.6659 75.0038 71.7164C74.9279 71.808 74.893 71.9219 74.798 71.9502C74.7664 71.9597 74.7348 71.9691 74.6937 71.947C74.6621 71.9564 74.621 71.9342 74.5893 71.9437C74.5577 71.9531 74.5261 71.9626 74.5133 72.0353C74.4562 72.1902 74.6679 72.4371 74.8228 72.4942C74.8639 72.5164 74.9777 72.5513 74.9555 72.5924L74.9239 72.6018C74.8101 72.5669 74.5635 72.4339 74.5635 72.4339C74.5635 72.4339 74.4875 72.5255 74.4432 72.6077C74.3988 72.6899 74.3639 72.8037 74.3606 72.908C74.3668 73.044 74.3508 73.2211 74.3254 73.3666C74.2523 73.6986 74.0716 74.1316 74.0334 74.3498C74.0236 74.6629 74.0738 75.0614 74.0738 75.0614C74.0738 75.0614 74.1782 75.0647 74.2509 75.0774C74.3236 75.0902 74.3553 75.0807 74.3869 75.0712C74.4502 75.0523 74.4724 75.0112 74.5073 74.8974C74.5422 74.7836 74.5771 74.6698 74.5803 74.5654C74.6218 74.2429 74.5621 73.8127 74.6287 73.6895C74.7079 73.4935 74.9992 73.1996 75.069 72.972C75.0912 72.9309 75.1704 72.7349 75.1293 72.7127C75.1199 72.6811 74.9744 72.6556 74.9966 72.6146C75.0282 72.6051 75.1421 72.64 75.1421 72.64C75.1926 72.6938 75.2904 72.9058 75.3093 72.9691C75.4512 73.4436 75.7094 74.5381 75.8163 75.1265C75.8352 75.1897 75.8352 75.1897 75.8858 75.2435L76.6632 75.7693C76.6632 75.7693 76.733 75.5417 76.7807 75.3551C76.8537 75.0231 76.8519 73.7486 76.8301 73.445C76.7988 73.1097 76.7391 72.6796 76.7391 72.6796C76.7391 72.6796 76.9002 72.8727 77.0108 73.0119C77.1213 73.1512 77.3551 73.357 77.3962 73.3792C77.4689 73.3919 77.5733 73.3952 77.6366 73.3762C77.9213 73.2911 78.1715 72.9751 78.3489 72.6464C78.3932 72.5642 78.4503 72.4093 78.4503 72.4093L78.0711 72.1781C78.0711 72.1781 77.8685 72.3075 77.7165 72.4908C77.5645 72.6741 77.4853 72.8701 77.4853 72.8701C77.4853 72.8701 77.3242 72.677 77.3275 72.5727C77.3402 72.4999 77.4129 72.5126 77.4351 72.4716C77.5111 72.3799 77.4954 72.2123 77.3816 72.1774C77.29 72.1014 77.0813 72.0948 76.9769 72.0916C76.8504 72.1294 76.6606 72.1861 76.6511 72.1545C76.6416 72.1229 76.6322 72.0912 76.6638 72.0818L76.6955 72.0723C76.7271 72.0629 76.7904 72.044 76.8314 72.0661C76.8631 72.0567 76.9358 72.0694 76.9674 72.0599L76.9991 72.0505C77.1162 71.981 76.7496 71.6771 76.6896 71.5916C76.6391 71.5378 76.402 71.4363 76.2976 71.4331C76.1933 71.4298 76.0256 71.4455 76.0256 71.4455L76.0322 71.2367C76.0322 71.2367 76.1871 71.2938 76.282 71.2654C76.3769 71.2371 76.4467 71.0095 76.4278 70.9462C76.3994 70.8513 76.2667 70.7531 76.2383 70.6582C76.21 70.5633 76.2987 70.3989 76.2481 70.3451C76.2958 70.1586 75.9067 70.2404 75.6852 70.3066Z" fill="#E1E3E9"/>
<path fill-rule="evenodd" clip-rule="evenodd" d="M74.7113 72.0095L74.8157 72.0127C74.8473 72.0033 74.8473 72.0033 74.8884 72.0255C75.0339 72.0509 75.1128 72.1996 75.1822 72.3167C75.1917 72.3484 75.2106 72.4116 75.2106 72.4116C75.1662 72.4938 74.7681 72.1993 74.7586 72.1676C74.7491 72.136 74.7175 72.1455 74.7397 72.1044C74.6986 72.0822 74.7113 72.0095 74.7113 72.0095ZM83.0478 71.999C83.0889 72.0211 83.0667 72.0622 83.0446 72.1033C83.0097 72.2171 82.7755 72.356 82.6173 72.4033C82.554 72.4222 82.5446 72.3906 82.5795 72.2768C82.6271 72.0902 82.7126 72.0302 82.9118 72.0051C82.934 71.9641 83.0067 71.9768 83.0478 71.999ZM76.7917 72.6283L76.792 72.2836L77.2316 72.2555C77.3044 72.2683 77.3044 72.2683 77.336 72.2588C77.4404 72.2621 77.4593 72.3254 77.4371 72.3664C77.4022 72.4803 77.0731 72.6475 76.9277 72.6221C76.8644 72.641 76.7917 72.6283 76.7917 72.6283ZM80.9603 72.2783L80.9283 72.6325C80.9283 72.6325 80.8556 72.6198 80.8239 72.6292C80.7196 72.6259 80.2548 72.4547 80.3119 72.2998C80.3341 72.2587 80.3657 72.2492 80.3974 72.2398C80.4606 72.2209 80.5334 72.2336 80.6694 72.2274C80.7832 72.2623 80.9603 72.2783 80.9603 72.2783Z" fill="#F8F8FA"/>
<path fill-rule="evenodd" clip-rule="evenodd" d="M75.9075 75.2014L75.8221 75.2614L76.5868 75.8599L76.6628 75.7683L75.9075 75.2014ZM75.3349 78.4741L75.3222 78.5468L75.8629 78.6264L75.8029 78.541L75.3349 78.4741ZM76.796 78.5198L76.7833 78.5926L77.3745 78.726L77.3461 78.6311L76.796 78.5198ZM80.3726 78.7259L80.4075 78.6121L80.9642 78.5146L80.9926 78.6095L80.3726 78.7259ZM81.9351 78.5345L81.8908 78.6167L82.3936 78.5698L82.4064 78.4971L81.9351 78.5345ZM81.0936 75.719L81.1947 75.8266L81.9448 75.2234L81.8626 75.179L81.0936 75.719ZM78.3142 72.0698L78.2288 72.1298L78.567 72.3388L78.6113 72.2567L78.3142 72.0698ZM78.4535 71.9592L78.3997 72.0098L78.624 72.1839L78.6368 72.1112L78.4535 71.9592ZM79.3106 71.9443L79.0637 72.1559L79.1142 72.2097L79.3927 71.9886L79.3106 71.9443ZM79.4527 72.0741L79.1648 72.2635L79.1931 72.3585L79.5444 72.1501L79.4527 72.0741Z" fill="#F8F8FA"/>
<path fill-rule="evenodd" clip-rule="evenodd" d="M67.4704 49.3963L67.2425 49.6712C67.2425 49.6712 66.2671 47.7916 65.9358 47.0291C65.7907 46.6589 65.3427 45.6212 65.3052 45.1499C65.2769 45.055 65.2896 44.9823 65.2896 44.9823L65.258 44.9917C65.258 44.9917 65.2045 44.6976 65.1888 44.5299C65.1827 44.3939 65.1637 44.3307 65.1987 44.2168C65.2368 43.9987 65.3764 43.5434 65.3764 43.5434C65.3764 43.5434 64.8481 43.7358 64.519 43.9031C64.4336 43.9631 63.9492 44.418 63.9049 44.5002C63.7147 44.9016 63.7176 45.142 63.91 45.6703C64.0362 45.9772 64.3519 46.5721 64.5886 47.0182C65.2421 48.1669 66.6661 50.3948 66.6661 50.3948L66.4476 50.7013C66.4476 50.7013 64.9319 48.3975 64.7392 48.2138C64.6381 48.1062 64.5054 48.008 64.477 47.9131C64.4581 47.8499 64.4486 47.8182 64.4297 47.755C64.4014 47.6601 63.9024 46.9132 63.653 46.5397C63.5424 46.4005 63.3468 45.9765 63.2395 45.7329C63.1922 45.5747 63.0944 45.3627 63.0944 45.3627C63.0944 45.3627 62.8886 45.5965 62.7366 45.7798C62.4326 46.1464 62.2646 46.5067 62.3181 46.8009C62.3465 46.8958 62.5138 47.2249 62.6843 47.4496C62.9432 47.8547 64.4498 49.7822 64.7214 50.1145C65.2964 50.7698 66.0135 51.5548 66.0135 51.5548L65.8804 51.8013C65.8804 51.8013 64.4651 50.2945 63.6185 49.3069C62.772 48.3194 61.9792 47.2813 61.9792 47.2813C61.9792 47.2813 61.5927 47.9482 61.4564 48.2991C61.4436 48.3718 61.4149 48.6216 61.4338 48.6849C61.4622 48.7798 61.5222 48.8652 61.5506 48.9601C61.5695 49.0234 61.6011 49.0139 61.6517 49.0678C63.4684 50.7647 63.9866 51.2302 65.5539 52.5537C65.6044 52.6075 65.6044 52.6075 65.6233 52.6708L65.6295 52.8068L65.5252 52.8035C65.4841 52.7813 65.4524 52.7908 65.4019 52.737C64.3212 51.8883 62.3019 50.3208 62.1186 50.1688C61.8753 49.9314 61.3793 49.4249 61.199 49.5132C61.0502 49.5921 60.9263 50.215 60.9514 50.4143C60.9576 50.5503 61.0176 50.6357 61.1503 50.7339C61.3841 50.9397 65.3823 53.3631 65.4106 53.458C65.4201 53.4897 65.4707 53.5435 65.4485 53.5846C65.4263 53.6257 65.3819 53.7079 65.3819 53.7079C65.3819 53.7079 61.9241 51.7088 61.5227 51.5186C61.2856 51.4172 61.0074 51.2935 61.0074 51.2935C61.0074 51.2935 60.963 51.3757 60.9187 51.4579C60.906 51.5306 60.8423 51.8943 60.8613 51.9575C60.9274 52.179 61.0253 52.391 61.1675 52.5208C61.2907 52.5873 62.122 53.0625 62.514 53.2211C63.6994 53.7283 65.4001 54.4606 65.4001 54.4606L65.4536 54.7547C65.4536 54.7547 61.8718 53.3786 61.6126 53.3182C61.3533 53.2578 61.2173 53.264 61.2108 53.4728C61.198 53.5455 61.381 54.0422 61.4599 54.1909C61.6682 54.5422 61.9148 54.6752 62.4522 54.8592C62.7621 54.9734 64.5548 55.4369 64.9595 55.5227C65.2504 55.5736 65.5096 55.634 65.7911 55.6532C65.9682 55.6692 68.0554 55.7346 68.223 55.719C68.4856 55.675 68.7481 55.6309 68.7481 55.6309C68.7481 55.6309 68.7928 55.204 68.8437 54.9131C68.8786 54.7993 69.1386 54.1702 69.1735 54.0564C69.316 53.8415 69.7531 53.2284 70.0538 52.9662C70.1614 52.8651 70.3007 52.7546 70.3007 52.7546C70.3007 52.7546 69.9567 52.0648 69.6916 51.5237C69.5337 51.2263 68.7893 49.3122 68.6664 48.9009C68.4962 48.3315 67.8848 46.1709 67.803 45.7818C67.5291 44.5196 67.2589 42.8084 67.2589 42.8084C67.2589 42.8084 67.0786 42.8968 66.9709 42.9979C65.8412 43.7146 65.8209 45.0302 66.158 46.2735C66.2431 46.5582 66.5806 47.4567 66.7951 47.944C67.0602 48.485 67.4704 49.3963 67.4704 49.3963Z" fill="#F8F8FA"/>
<path fill-rule="evenodd" clip-rule="evenodd" d="M96.3729 53.1644L96.3413 53.1739L96.3318 53.1422L96.0598 53.1546C95.9871 53.1419 95.9871 53.1419 95.9016 53.2019C94.7911 53.6372 93.0036 54.3438 92.6018 54.4984C92.3803 54.5645 92.1273 54.6402 92.1273 54.6402L92.1654 54.422C92.1782 54.3493 92.1782 54.3493 92.2414 54.3304C93.1843 53.9107 94.4119 53.4059 95.0384 53.0808C95.5478 52.8252 96.0889 52.5601 96.3547 52.4117C96.418 52.3928 96.5478 52.2506 96.5605 52.1779C96.6398 51.9819 96.7161 51.5455 96.7161 51.5455L96.6845 51.555C96.6845 51.555 96.6845 51.555 96.6656 51.4917C96.6277 51.3652 96.5994 51.2703 96.5394 51.1848C96.4983 51.1626 96.4983 51.1627 96.435 51.1816L92.3308 53.4766L92.3403 53.5082L92.141 53.5333L92.1065 53.3024C92.1065 53.3024 92.7235 52.9457 93.2773 52.6078C93.6286 52.3995 96.499 50.4732 96.5433 50.391C96.6099 50.2678 96.6197 49.9547 96.4462 49.4896C96.4273 49.4263 96.3262 49.3187 96.2946 49.3282C96.2629 49.3376 96.1997 49.3565 96.168 49.366C96.1048 49.3849 96.1048 49.3849 96.0509 49.4354C94.8925 50.402 92.8984 52.0319 92.5344 52.313C92.2464 52.5024 91.9679 52.7235 91.9679 52.7235L91.9523 52.5559C91.9334 52.4926 91.965 52.4832 92.0188 52.4326C93.2438 51.3428 95.1779 49.6275 95.6622 49.1726C95.8237 49.0209 96.0738 48.7049 96.1182 48.6227C96.1309 48.55 96.1407 48.2369 96.1029 48.1104C96.0745 48.0155 95.6894 47.3035 95.6483 47.2813C95.5978 47.2275 95.5251 47.2148 95.5251 47.2148C95.5251 47.2148 94.7397 48.2766 93.8721 49.2941C93.0805 50.2199 91.697 51.7017 91.697 51.7017L91.5802 51.4265C91.5802 51.4265 92.4573 50.4406 93.119 49.657C93.347 49.3821 94.9622 47.1763 95.0509 47.0119C95.2854 46.5283 95.3047 46.2468 94.8625 45.6898C94.6919 45.4651 94.4392 45.196 94.4392 45.196C94.4392 45.196 94.3566 45.4963 94.2868 45.724C94.2298 45.8789 93.688 46.8334 93.5676 47.0072C92.8804 47.9363 92.022 49.3301 91.2555 50.4552C91.2017 50.5058 91.2017 50.5058 91.2017 50.5058C91.1384 50.5247 91.1289 50.4931 91.0689 50.4076C91.0184 50.3538 90.99 50.2589 90.99 50.2589C90.99 50.2589 92.2794 48.116 92.9542 46.9149C93.2869 46.2985 93.8254 45.4484 93.8196 44.9676C93.8199 44.6229 93.7726 44.4648 93.6432 44.2622C93.5737 44.1451 93.1566 43.7873 93.065 43.7113C93.0239 43.6892 92.3443 43.3754 92.2493 43.4037C92.2177 43.4132 92.2272 43.4448 92.2366 43.4765C92.3123 43.7296 92.3217 43.7612 92.3468 43.9605C92.428 45.039 91.8066 46.5342 91.4041 47.3782C91.0016 48.2222 90.3456 49.4866 90.3456 49.4866L90.0613 49.227C90.0613 49.227 90.3529 48.5884 90.5874 48.1048C90.9583 47.2702 91.5767 45.5346 91.5901 44.7725C91.613 44.0419 91.4996 43.6623 91.1079 43.1591C90.9974 43.0198 90.8046 42.8362 90.7035 42.7286C90.5297 42.6082 90.2832 42.4751 90.2832 42.4751C90.2832 42.4751 90.1112 43.6293 89.9491 44.4704C89.7328 45.7067 89.371 46.9176 89.0631 48.0779C88.99 48.4099 88.3145 50.3005 88.2257 50.4648C87.8581 51.195 87.3004 52.3266 87.3193 52.3899C87.3255 52.5259 87.4487 52.5924 87.7426 52.8837C87.8437 52.9913 88.3553 53.6655 88.4342 53.8142C88.5921 54.1116 88.8099 54.4945 88.8284 54.9025C88.8535 55.1018 88.847 55.3105 88.847 55.3105C88.847 55.3105 89.1379 55.3614 89.4194 55.3806C89.5964 55.3966 91.6142 55.3449 91.7724 55.2976C92.1615 55.2158 92.56 55.1656 93.0123 55.0649C93.3381 55.0019 95.521 54.3495 95.6381 54.2801C95.9039 54.1317 96.0115 54.0306 96.1351 53.7524C96.17 53.6386 96.246 53.547 96.262 53.3699C96.3664 53.3731 96.3729 53.1644 96.3729 53.1644Z" fill="#F8F8FA"/>
<path fill-rule="evenodd" clip-rule="evenodd" d="M78.5136 55.6756C78.523 55.7073 78.5419 55.7705 78.583 55.7927C78.6019 55.856 78.6619 55.9414 78.7219 56.0269C78.7819 56.1123 78.7819 56.1123 78.7819 56.1123C78.7819 56.1123 78.7819 56.1123 78.8325 56.1661C79.1641 56.5839 79.439 56.8119 79.967 56.9643C80.0398 56.977 80.0808 56.9992 80.0808 56.9992C80.0808 56.9992 79.9987 56.9548 79.9576 56.9326C79.5467 56.7108 79.2939 56.4418 79.0666 56.0272C79.0572 55.9956 79.0477 55.964 79.0477 55.964L78.8332 55.4767C78.7859 55.3185 78.7481 55.192 78.7608 55.1193C78.7546 54.9833 78.7706 54.8062 78.7706 54.8062L78.8433 54.8189C78.875 54.8094 78.8844 54.8411 78.9571 54.8538C79.8706 55.3734 80.2215 55.5097 80.6666 56.3072C80.7266 56.3926 80.7455 56.4559 80.815 56.573C80.9695 56.9748 81.2059 57.7656 81.2059 57.7656C81.2059 57.7656 81.2503 57.6835 81.263 57.6107C81.2852 57.5696 81.2445 57.2027 81.1972 57.0446C81.1594 56.918 81.1532 56.782 81.1248 56.6871C81.0397 56.4024 80.8251 55.9152 80.6324 55.7315C80.4808 55.5701 80.247 55.3643 80.247 55.3643C80.247 55.3643 82.732 56.0689 83.0102 56.1925C83.2884 56.3161 83.5255 56.4176 83.5571 56.4081C83.5571 56.4081 83.5793 56.367 83.5476 56.3765C83.4782 56.2594 82.7385 55.8602 82.6153 55.7936C82.3276 55.6384 81.9673 55.4704 81.6575 55.3562C80.8829 55.0708 79.3306 54.6043 79.3306 54.6043C79.3306 54.6043 82.208 55.1228 82.6538 55.2307C83.068 55.3482 83.4505 55.4751 83.4505 55.4751C83.4505 55.4751 83.3083 55.3453 83.1851 55.2787C82.8058 55.0475 81.8763 54.705 81.5854 54.6541C80.9942 54.5206 79.9222 54.3931 79.9222 54.3931L79.9349 54.3203C79.9349 54.3203 80.2258 54.3712 80.4029 54.3872C80.58 54.4032 80.6844 54.4065 80.7887 54.4097C81.1018 54.4196 81.4371 54.3883 81.9589 54.4046C82.449 54.4304 83.1352 54.5355 83.1352 54.5355C83.1352 54.5355 82.8981 54.434 82.7338 54.3453C82.5378 54.266 82.465 54.2533 82.3196 54.2279C81.8105 54.1388 80.552 53.9636 80.552 53.9636C80.552 53.9636 81.1309 53.825 81.6338 53.7781C82.0323 53.7279 82.4497 53.741 82.4497 53.741L82.4403 53.7093C82.4403 53.7093 82.4308 53.6777 82.3581 53.665C82.0988 53.6046 81.7036 53.5505 81.5265 53.5345C81.109 53.5214 80.3436 53.6123 80.3436 53.6123C80.3436 53.6123 80.3342 53.5807 80.3563 53.5396C80.3469 53.508 80.388 53.5302 80.388 53.5302C80.4923 53.5334 80.7138 53.4672 80.9763 53.4232C81.3748 53.373 81.8967 53.3894 81.8967 53.3894L81.8872 53.3577C81.8872 53.3577 81.8777 53.3261 81.805 53.3134C81.5457 53.253 81.2865 53.1927 81.0778 53.1861C80.556 53.1698 79.8949 53.264 79.4047 53.2382C79.0189 53.2157 78.6458 53.1204 78.2189 53.0757C77.7193 53.0183 77.4695 52.9896 77.1815 53.179C77.1593 53.2201 77.096 53.239 77.0739 53.2801C76.9979 53.3717 76.9851 53.4445 76.9313 53.495C76.8459 53.555 76.4884 53.6274 76.267 53.6936C75.8241 53.826 75.555 54.0787 75.5009 54.474C75.4881 54.5467 75.4849 54.651 75.4943 54.6827C75.5038 54.7143 75.5354 54.7049 75.526 54.6732C75.5481 54.6321 75.5609 54.5594 75.6241 54.5405C75.6558 54.531 75.719 54.5121 75.7412 54.471C75.7634 54.4299 75.9721 54.4365 75.8678 54.4332C75.9405 54.4459 76.1081 54.4303 76.2125 54.4336C76.2757 54.4147 76.203 54.4019 76.5034 54.4845C77.0125 54.5735 77.9579 54.7389 78.0306 54.7517C78.2328 54.9669 78.2863 55.2611 78.5136 55.6756ZM78.0317 53.7175C78.079 53.8757 77.8259 53.9513 77.731 53.9797C77.5633 53.9953 77.2724 53.9444 77.3422 53.7168C77.3804 53.4986 77.7251 53.499 77.88 53.5561C77.9211 53.5782 78.0033 53.6226 78.0317 53.7175Z" fill="#F8F8FA"/>
<path fill-rule="evenodd" clip-rule="evenodd" d="M76.5359 54.131C76.5359 54.131 76.5991 54.1121 76.7035 54.1153C77.1842 54.1095 77.4784 54.056 77.9431 54.2273C77.9842 54.2495 78.0158 54.24 78.0158 54.24L78.0064 54.2084C78.0445 53.9902 78.1016 53.8353 78.2536 53.652C78.3074 53.6015 78.4151 53.5004 78.2823 53.4022C78.1496 53.304 77.846 53.3258 77.7416 53.3226C77.1882 53.3157 76.9413 53.5273 76.5929 53.9761C76.5897 54.0804 76.5359 54.131 76.5359 54.131ZM78.0322 53.7182C78.0794 53.8764 77.8264 53.952 77.7315 53.9804C77.5638 53.996 77.2729 53.9451 77.3427 53.7175C77.3809 53.4993 77.7256 53.4997 77.8805 53.5567C77.9216 53.5789 78.0038 53.6233 78.0322 53.7182Z" fill="#F8F8FA"/>
<path fill-rule="evenodd" clip-rule="evenodd" d="M79.0472 53.3117C79.3221 53.5397 79.5149 53.7233 79.4923 54.1091C79.4764 54.2862 79.4004 54.3778 79.2578 54.5927C79.2356 54.6338 79.2356 54.6338 79.2356 54.6338C79.2356 54.6338 79.2356 54.6338 79.2673 54.6244C79.4855 54.6625 82.1447 55.1428 82.5589 55.2602C82.973 55.3776 83.3556 55.5045 83.3556 55.5045C83.3556 55.5045 83.2134 55.3747 83.0901 55.3082C82.7108 55.0769 81.7814 54.7344 81.4905 54.6835C80.8992 54.5501 79.8273 54.4225 79.8273 54.4225L79.84 54.3498C79.84 54.3498 80.1309 54.4007 80.308 54.4167C80.4851 54.4327 80.5894 54.4359 80.6938 54.4392C81.0069 54.449 81.3421 54.4177 81.8639 54.4341C82.3541 54.4599 83.0403 54.5649 83.0403 54.5649C83.0403 54.5649 82.8032 54.4635 82.6388 54.3748C82.4428 54.2955 82.3701 54.2828 82.2246 54.2573C81.7156 54.1683 80.457 53.9931 80.457 53.9931C80.457 53.9931 81.0359 53.8545 81.5388 53.8076C81.9374 53.7574 82.3548 53.7704 82.3548 53.7704L82.3453 53.7388C82.3453 53.7388 82.3359 53.7072 82.2632 53.6944C82.0039 53.6341 81.6086 53.5799 81.4315 53.5639C81.0141 53.5509 80.2487 53.6418 80.2487 53.6418C80.2487 53.6418 80.2392 53.6102 80.2614 53.5691C80.2519 53.5374 80.293 53.5596 80.293 53.5596C80.3974 53.5629 80.6188 53.4967 80.8814 53.4527C81.2799 53.4025 81.8017 53.4188 81.8017 53.4188L81.7923 53.3872C81.7923 53.3872 81.7828 53.3556 81.7101 53.3428C81.4508 53.2825 81.1915 53.2221 80.9828 53.2156C80.461 53.1993 79.7999 53.2935 79.3098 53.2677C79.2243 53.3277 79.1516 53.3149 79.0472 53.3117Z" fill="#F8F8FA"/>
<path d="M45.5824 24.1308C45.5824 24.1308 43.9449 48.3986 45.7153 64.5832C47.4857 80.7678 48.6065 82.6728 46.1146 101.2C43.6226 119.727 46.4672 143.309 46.4672 143.309L32.669 143.264L33.3751 23.9887L45.5824 24.1308Z" fill="url(#paint1_linear_8699_11371)"/>
<path d="M106.079 103.162L52.3255 102.376C50.7696 102.359 49.4837 101.055 49.5327 99.4894C49.5501 97.9334 50.8544 96.6476 52.4198 96.6966L106.173 97.4817C107.729 97.4991 109.015 98.8034 108.966 100.369C108.917 101.934 107.644 103.211 106.079 103.162Z" fill="url(#paint2_linear_8699_11371)"/>
<path d="M98.3695 116.457L59.632 115.871C58.2847 115.86 57.1916 114.739 57.2025 113.392L57.2159 112.63C57.2268 111.283 58.3474 110.19 59.6946 110.201L98.4227 110.755C99.77 110.766 100.863 111.887 100.852 113.234L100.839 113.996C100.837 115.375 99.7168 116.468 98.3695 116.457Z" fill="url(#paint3_linear_8699_11371)"/>
<path d="M93.4568 30.1534C94.7837 28.4817 97.829 28.6398 99.7075 28.6986C102.38 28.7614 104.922 28.9664 107.611 28.8521C111.953 28.6225 114.554 30.6365 115.4 34.9669C115.734 36.6592 115.773 38.405 115.781 40.1602C115.776 41.2987 115.018 46.8324 114.143 43.0966C113.821 41.6762 113.94 40.2279 114.027 38.789C114.114 37.3502 114.15 35.8575 113.639 34.4939C112.005 29.9508 105.625 31.203 102.023 31.8319C101.036 31.989 91.8094 33.0581 93.3776 30.3494C93.3809 30.245 93.403 30.2039 93.4568 30.1534Z" fill="url(#paint4_linear_8699_11371)"/>
<path d="M142.268 111.711L74.2904 153.499C71.4044 155.257 67.6292 154.387 65.8611 151.469L42.9893 114.264C41.2307 111.378 42.1011 107.603 45.0187 105.834L112.996 64.047C115.882 62.2884 119.657 63.1588 121.425 66.0764L144.307 103.313C146.056 106.168 145.154 109.953 142.268 111.711Z" fill="#F0F0F0"/>
<path d="M112.895 64.9735C112.259 65.267 111.632 65.5921 111.047 65.9394C109.876 66.634 106.854 68.054 107.229 69.7685C108.378 74.7665 112.479 79.2615 115.552 83.202C120.997 90.1209 126.515 97.0525 129.416 105.49C130.718 109.271 131.243 113.215 131.336 117.219C134.596 115.211 137.824 113.212 141.093 111.236C143.979 109.477 144.931 105.746 143.201 102.955C143.201 102.955 121.074 66.9742 121.065 66.9426C120.181 65.4838 118.645 64.4955 116.95 64.2439C115.546 64.0433 114.167 64.3866 112.895 64.9735Z" fill="url(#paint5_linear_8699_11371)"/>
<path d="M70.7969 152.992C72.115 150.599 71.9159 147.281 71.0519 144.852C68.0149 136.42 60.5796 130.338 57.0364 122.058C50.9724 107.88 64.3363 96.442 75.8161 90.4606C83.5147 86.471 91.223 82.1682 97.8037 76.5139C98.576 75.8696 97.7044 74.6827 96.831 75.2195C81.0558 84.9315 65.2711 94.6118 49.5181 104.283C48.1763 105.097 46.8662 105.902 45.5245 106.717C42.6384 108.476 41.727 112.229 43.435 115.061L65.849 151.542C66.5152 152.618 67.4821 153.431 68.5854 153.894C69.6065 154.313 70.2995 153.864 70.7969 152.992Z" fill="url(#paint6_linear_8699_11371)"/>
<path d="M130.867 96.5092C129.517 95.5686 126.199 96.457 123.88 96.7709C121.54 97.1259 121.487 96.487 121.025 95.8667C120.956 95.7496 120.855 95.642 120.785 95.5249C121.033 94.6238 120.98 93.6402 120.795 92.5584L120.776 92.4952C120.741 92.2643 120.675 92.0428 120.599 91.7897C120.976 91.4359 120.942 90.8603 120.791 90.3541C120.788 90.1138 120.731 89.5792 120.4 89.1615C119.958 88.6044 119.534 88.4553 119.208 88.5182C119.199 88.4866 119.158 88.4644 119.139 88.4012C118.662 87.6132 118.109 86.9169 117.534 86.2616C117.373 86.0686 117.221 85.9071 117.038 85.7551C116.52 85.2897 115.904 84.957 115.211 84.716C115.113 84.504 114.896 84.1211 114.64 83.9564C114.26 83.7251 113.659 83.9048 113.58 83.756C113.205 83.0757 112.065 84.1056 112.015 84.0517C111.67 83.7067 110.737 84.158 110.452 84.5878C110.157 84.986 110.069 85.1503 109.676 85.3365C108.933 85.7311 108.138 86.4166 108.381 87.3434C108.39 87.3751 108.409 87.4383 108.418 87.47C108.225 87.6311 108.175 87.922 108.313 88.1561C108.364 88.21 108.383 88.2732 108.446 88.2543C108.167 89.1648 108.156 90.1674 108.39 91.0626C108.456 91.2841 108.531 91.5371 108.629 91.7491C108.938 92.5527 109.32 93.3691 109.797 94.157C109.806 94.1887 109.847 94.2108 109.857 94.2425C109.629 94.5174 109.553 94.9537 109.855 95.6213C110.111 96.1308 110.541 96.4158 110.746 96.5267C111.1 96.9034 111.634 97.1918 112.131 97.0089C112.314 97.1608 112.507 97.3445 112.681 97.4648L112.722 97.487L112.732 97.5186C113.62 98.1837 114.492 98.6811 115.406 98.8559C115.475 98.973 115.545 99.0901 115.573 99.185C115.917 99.8748 116.407 100.245 115.051 102.167C113.696 104.088 111.432 106.66 111.642 108.286C111.852 109.912 112.554 110.529 112.554 110.529L132.462 98.2724C132.449 98.3451 132.216 97.4499 130.867 96.5092Z" fill="#9E9EA2"/>
<path d="M114.397 120.042C118.573 118.794 120.946 114.397 119.698 110.221C118.45 106.045 114.053 103.672 109.877 104.92C105.701 106.168 103.328 110.565 104.576 114.741C105.824 118.916 110.221 121.29 114.397 120.042Z" fill="url(#paint7_linear_8699_11371)"/>
<path d="M79.3671 109.835L58.4907 122.657C58.0856 122.916 57.526 122.773 57.2987 122.358L56.8314 121.602C56.5725 121.197 56.7154 120.637 57.1299 120.41L78.0063 107.588C78.4114 107.329 78.971 107.472 79.1983 107.886L79.6656 108.643C79.9245 109.048 79.7721 109.576 79.3671 109.835Z" fill="url(#paint8_linear_8699_11371)"/>
<path d="M136.109 105.867L115.233 118.689C114.828 118.948 114.268 118.805 114.041 118.391L113.574 117.634C113.315 117.229 113.458 116.67 113.872 116.442L134.748 103.62C135.154 103.362 135.713 103.504 135.94 103.919L136.408 104.675C136.667 105.08 136.514 105.608 136.109 105.867Z" fill="url(#paint9_linear_8699_11371)"/>
<path d="M93.2682 106.541L61.0058 126.35C60.5153 126.669 59.8419 126.492 59.5229 126.001L59.264 125.596C58.9451 125.105 59.1229 124.432 59.6134 124.113L91.8663 104.272C92.3569 103.953 93.0303 104.131 93.3492 104.622L93.6081 105.027C93.9365 105.549 93.7587 106.222 93.2682 106.541Z" fill="url(#paint10_linear_8699_11371)"/>
<path d="M85.1132 119.145L64.2368 131.967C63.8317 132.225 63.2721 132.083 63.0448 131.668L62.5775 130.912C62.3186 130.507 62.4615 129.947 62.876 129.72L83.7524 116.898C84.1575 116.639 84.7171 116.782 84.9444 117.196L85.4117 117.953C85.6389 118.367 85.5182 118.886 85.1132 119.145Z" fill="url(#paint11_linear_8699_11371)"/>
<path d="M94.873 118.365L66.6675 135.72C66.1992 135.998 65.5763 135.874 65.289 135.374L64.9606 134.852C64.6828 134.384 64.8067 133.761 65.3067 133.474L93.5122 116.118C93.9806 115.84 94.6034 115.964 94.8907 116.464L95.2191 116.986C95.4969 117.454 95.373 118.077 94.873 118.365Z" fill="url(#paint12_linear_8699_11371)"/>
<path d="M90.828 128.465L69.9516 141.287C69.5465 141.546 68.9869 141.403 68.7596 140.989L68.2923 140.232C68.0334 139.827 68.1763 139.268 68.5908 139.04L89.4672 126.218C89.8723 125.959 90.4319 126.102 90.6592 126.517L91.1265 127.273C91.3854 127.678 91.2425 128.238 90.828 128.465Z" fill="url(#paint13_linear_8699_11371)"/>
<path d="M99.1707 128.591L72.3829 145.041C71.9146 145.319 71.3233 145.185 71.0139 144.726L70.6761 144.173C70.3982 143.704 70.5316 143.113 70.9905 142.804L97.7783 126.354C98.2466 126.076 98.8379 126.209 99.1473 126.668L99.4852 127.222C99.763 127.69 99.639 128.313 99.1707 128.591Z" fill="url(#paint14_linear_8699_11371)"/>
<path d="M56.9915 105.284L49.5938 109.832L52.3431 114.304L59.7408 109.757L56.9915 105.284Z" fill="white"/>
<path d="M49.9937 110.481L49.5959 109.842L50.8744 109.046L54.7201 109L58.0428 106.973L58.709 108.049L55.4274 110.098L53.5105 113.6L52.3396 114.295L51.9229 113.592L53.7478 110.359L49.9937 110.481Z" fill="#2AB1AF"/>
<path d="M51.5981 108.59L54.4413 108.533L57.764 106.506L57.0189 105.282L51.5981 108.59Z" fill="#EB7E56"/>
<path d="M54.3526 113.073L55.7056 110.567L58.9967 108.549L59.7735 109.764L54.3526 113.073Z" fill="#6E6AFF"/>
<path d="M50.2422 110.856L51.723 113.273L52.9588 110.836L50.2422 110.856Z" fill="#3C3C46"/>
<path d="M50.2422 110.856L49.8633 110.281L54.1297 110.143L52.0608 113.828L51.723 113.274L52.9589 110.837L50.2422 110.856Z" fill="#FEE29A"/>
<path d="M112.48 127.577C112.512 127.567 112.566 127.517 112.597 127.507C117.366 124.669 122.167 121.821 126.936 118.983C131.236 116.422 136.852 114.227 140.309 110.575C141.778 109.033 142.479 106.997 141.991 104.903C141.626 103.22 140.691 101.707 139.776 100.258C137.606 96.8053 135.437 93.3527 133.3 89.8907C133.17 89.6882 133 89.4635 132.791 89.457C132.31 89.4628 132.401 90.2282 132.628 90.6427C134.845 94.2535 137.052 97.8326 139.3 101.434C140.951 104.076 141.834 106.914 139.507 109.505C138.608 110.532 137.465 111.321 136.304 112.047C127.994 117.219 119.636 122.233 111.336 127.436C111.5 127.87 112.056 127.772 112.48 127.577Z" fill="url(#paint15_linear_8699_11371)"/>
<path d="M115.246 75.2635L69.4233 103.433C68.1986 104.178 66.5703 103.804 65.8252 102.579C65.08 101.354 65.4549 99.7259 66.6795 98.9808L112.502 70.811C113.727 70.0658 115.355 70.4407 116.1 71.6653C116.877 72.8806 116.461 74.4867 115.246 75.2635Z" fill="url(#paint16_linear_8699_11371)"/>
</g>
<defs>
<linearGradient id="paint0_linear_8699_11371" x1="176.243" y1="66.889" x2="84.2026" y2="94.3992" gradientUnits="userSpaceOnUse">
<stop offset="0.0444775" stop-color="#C2C2C2"/>
<stop offset="0.2195" stop-color="#C2C2C2"/>
<stop offset="0.9773" stop-color="#162038"/>
</linearGradient>
<linearGradient id="paint1_linear_8699_11371" x1="26.1319" y1="141.72" x2="53.6031" y2="26.0393" gradientUnits="userSpaceOnUse">
<stop offset="0.1397" stop-color="#E0E0E0"/>
<stop offset="0.7153" stop-color="white" stop-opacity="0.1"/>
</linearGradient>
<linearGradient id="paint2_linear_8699_11371" x1="82.3685" y1="110.396" x2="76.1106" y2="89.4587" gradientUnits="userSpaceOnUse">
<stop offset="0.0444775" stop-color="#C2C2C2"/>
<stop offset="0.2195" stop-color="#C2C2C2"/>
<stop offset="0.9773" stop-color="#162038"/>
</linearGradient>
<linearGradient id="paint3_linear_8699_11371" x1="81.5156" y1="121.608" x2="76.5615" y2="105.033" gradientUnits="userSpaceOnUse">
<stop offset="0.0444775" stop-color="#C2C2C2"/>
<stop offset="0.2195" stop-color="#C2C2C2"/>
<stop offset="0.9773" stop-color="#162038"/>
</linearGradient>
<linearGradient id="paint4_linear_8699_11371" x1="97.6752" y1="25.6573" x2="116.065" y2="43.0229" gradientUnits="userSpaceOnUse">
<stop offset="0.1397" stop-color="#E0E0E0"/>
<stop offset="0.7153" stop-color="white" stop-opacity="0.1"/>
</linearGradient>
<linearGradient id="paint5_linear_8699_11371" x1="117.103" y1="94.0692" x2="132.08" y2="84.8623" gradientUnits="userSpaceOnUse">
<stop offset="0.0106853" stop-color="#E6E7E8"/>
<stop offset="1" stop-color="#F0F0F0" stop-opacity="0.4"/>
</linearGradient>
<linearGradient id="paint6_linear_8699_11371" x1="88.5713" y1="115.849" x2="44.0337" y2="105.222" gradientUnits="userSpaceOnUse">
<stop offset="0.1502" stop-color="white" stop-opacity="0.9"/>
<stop offset="1" stop-color="#F0F0F0" stop-opacity="0.4"/>
</linearGradient>
<linearGradient id="paint7_linear_8699_11371" x1="105.438" y1="116.603" x2="118.86" y2="108.353" gradientUnits="userSpaceOnUse">
<stop offset="0.3038" stop-color="#ECECEC"/>
<stop offset="0.9473" stop-color="#E0E0DE"/>
</linearGradient>
<linearGradient id="paint8_linear_8699_11371" x1="66.972" y1="110.861" x2="69.5243" y2="119.399" gradientUnits="userSpaceOnUse">
<stop offset="0.0444775" stop-color="#C2C2C2"/>
<stop offset="0.2195" stop-color="#C2C2C2"/>
<stop offset="0.9773" stop-color="#162038"/>
</linearGradient>
<linearGradient id="paint9_linear_8699_11371" x1="136.178" y1="104.289" x2="113.805" y2="118.043" gradientUnits="userSpaceOnUse">
<stop offset="0.1355" stop-color="#9E9EA2"/>
<stop offset="0.8505" stop-color="#F0F0F0" stop-opacity="0.4"/>
</linearGradient>
<linearGradient id="paint10_linear_8699_11371" x1="59.3932" y1="125.803" x2="93.4912" y2="104.842" gradientUnits="userSpaceOnUse">
<stop offset="0.1355" stop-color="#9E9EA2"/>
<stop offset="0.8505" stop-color="#F0F0F0" stop-opacity="0.4"/>
</linearGradient>
<linearGradient id="paint11_linear_8699_11371" x1="72.702" y1="120.183" x2="75.2543" y2="128.72" gradientUnits="userSpaceOnUse">
<stop offset="0.0444775" stop-color="#C2C2C2"/>
<stop offset="0.2195" stop-color="#C2C2C2"/>
<stop offset="0.9773" stop-color="#162038"/>
</linearGradient>
<linearGradient id="paint12_linear_8699_11371" x1="65.1242" y1="135.124" x2="95.0591" y2="116.722" gradientUnits="userSpaceOnUse">
<stop offset="0.1355" stop-color="#9E9EA2"/>
<stop offset="0.8505" stop-color="#F0F0F0" stop-opacity="0.4"/>
</linearGradient>
<linearGradient id="paint13_linear_8699_11371" x1="78.4323" y1="129.505" x2="80.9846" y2="138.043" gradientUnits="userSpaceOnUse">
<stop offset="0.0444775" stop-color="#C2C2C2"/>
<stop offset="0.2195" stop-color="#C2C2C2"/>
<stop offset="0.9773" stop-color="#162038"/>
</linearGradient>
<linearGradient id="paint14_linear_8699_11371" x1="70.8551" y1="144.447" x2="99.3191" y2="126.949" gradientUnits="userSpaceOnUse">
<stop offset="0.1355" stop-color="#9E9EA2"/>
<stop offset="0.8505" stop-color="#F0F0F0" stop-opacity="0.4"/>
</linearGradient>
<linearGradient id="paint15_linear_8699_11371" x1="128.459" y1="118.611" x2="116.621" y2="99.3553" gradientUnits="userSpaceOnUse">
<stop offset="0.1318" stop-color="#9E9EA2" stop-opacity="0.2"/>
<stop offset="0.8505" stop-color="#F0F0F0" stop-opacity="0.4"/>
</linearGradient>
<linearGradient id="paint16_linear_8699_11371" x1="88.2282" y1="77.9392" x2="93.7008" y2="96.2458" gradientUnits="userSpaceOnUse">
<stop offset="0.0444775" stop-color="#C2C2C2"/>
<stop offset="0.2195" stop-color="#C2C2C2"/>
<stop offset="0.9773" stop-color="#162038"/>
</linearGradient>
<clipPath id="clip0_8699_11371">
<rect width="118.601" height="137.322" fill="white" transform="translate(0 33.9644) rotate(-16.6411)"/>
</clipPath>
</defs>
</svg>
