<svg width="77" height="20" viewBox="0 0 77 20" fill="none" xmlns="http://www.w3.org/2000/svg">
<path d="M19.3265 10.1769C19.3265 15.5131 15.0014 19.8421 9.66134 19.8421C4.32511 19.8382 0 15.5131 0 10.1769C0 4.84067 4.32511 0.511719 9.66518 0.511719C15.0014 0.511719 19.3265 4.83683 19.3265 10.1769Z" fill="white"/>
<path d="M9.74201 15.5611C7.08543 15.5688 4.32504 13.3044 4.31351 9.66359C4.30582 7.25691 5.60528 4.94249 7.26228 3.56614C8.88083 2.2244 11.0991 1.36706 13.1098 1.35938C13.3674 1.35938 13.6404 1.3786 13.8057 1.43627C12.0487 1.8015 10.6493 3.43927 10.6532 5.29234C10.6532 5.35386 10.6609 5.41921 10.6647 5.44997C13.6058 6.16506 14.9437 7.94123 14.9514 10.3979C14.9591 12.8584 13.0176 15.5496 9.74201 15.5611Z" fill="#E60000"/>
<path d="M24.5435 7.88281L26.3889 12.5616L28.1727 7.88281H30.0143L27.1462 14.9337H25.5661L22.6135 7.88281H24.5435Z" fill="white"/>
<path d="M35.1584 11.3709C35.1584 11.0787 35.1238 10.798 35.0546 10.5328C34.9854 10.2675 34.8855 10.0407 34.7471 9.84844C34.6087 9.65622 34.4433 9.50628 34.2511 9.39479C34.055 9.28329 33.8282 9.22563 33.5629 9.22563C33.3015 9.22563 33.0708 9.28329 32.8748 9.39479C32.6787 9.50628 32.5134 9.66006 32.3788 9.84844C32.2404 10.0407 32.1405 10.2675 32.0713 10.5328C32.0021 10.798 31.9675 11.0749 31.9675 11.3709C31.9675 11.6746 32.0021 11.9553 32.0713 12.2167C32.1405 12.4743 32.2404 12.7049 32.3711 12.8972C32.5019 13.0932 32.6672 13.247 32.8671 13.3585C33.067 13.47 33.2977 13.5277 33.5629 13.5277C33.8282 13.5277 34.055 13.47 34.2511 13.3585C34.4472 13.247 34.6125 13.0932 34.7471 12.8972C34.8855 12.7011 34.9854 12.4743 35.0546 12.2167C35.1238 11.9553 35.1584 11.6746 35.1584 11.3709ZM36.9423 11.3786C36.9423 11.8361 36.8731 12.2897 36.7309 12.7319C36.5886 13.1778 36.381 13.5738 36.1003 13.9237C35.8235 14.2735 35.4698 14.558 35.0469 14.7733C34.624 14.9886 34.1281 15.0962 33.5629 15.0962C32.9978 15.0962 32.5019 14.9886 32.079 14.7733C31.6561 14.558 31.3024 14.2774 31.0255 13.9237C30.7487 13.5738 30.5373 13.174 30.395 12.7319C30.2528 12.2897 30.1836 11.8361 30.1836 11.3786C30.1836 10.9211 30.2528 10.4713 30.395 10.033C30.5373 9.5947 30.7449 9.20256 31.0255 8.85655C31.3024 8.51054 31.6561 8.23373 32.079 8.02228C32.5019 7.81468 32.9978 7.70703 33.5629 7.70703C34.1281 7.70703 34.6202 7.81083 35.0393 8.02228C35.4583 8.23373 35.8082 8.51054 36.0927 8.85655C36.3772 9.20256 36.5886 9.5947 36.7309 10.033C36.8731 10.4713 36.9423 10.9211 36.9423 11.3786Z" fill="white"/>
<path d="M42.3901 9.43175C42.0402 9.29335 41.7173 9.22799 41.4136 9.22799C41.1022 9.22799 40.8369 9.28566 40.6139 9.40484C40.3909 9.52402 40.2064 9.68165 40.0603 9.88156C39.9142 10.0815 39.8065 10.3083 39.7335 10.5582C39.6605 10.8081 39.6259 11.0657 39.6259 11.3271C39.6259 11.6193 39.6566 11.9038 39.722 12.1729C39.7835 12.442 39.8834 12.6765 40.0142 12.8765C40.1449 13.0764 40.3102 13.2379 40.5101 13.3609C40.71 13.4839 40.9445 13.5454 41.2175 13.5454C41.4405 13.5454 41.6673 13.4839 41.9018 13.3609C42.1325 13.2379 42.2978 13.0956 42.3978 12.9264V9.43175H42.3901ZM42.5362 14.9333L42.4631 14.3912C42.2978 14.5758 42.0787 14.7411 41.8057 14.8833C41.5327 15.0256 41.2136 15.0948 40.8446 15.0948C40.3602 15.0948 39.9296 14.991 39.5605 14.7872C39.1914 14.5834 38.88 14.3105 38.6263 13.9683C38.3725 13.6262 38.1803 13.2302 38.0496 12.7842C37.9189 12.3344 37.8535 11.8692 37.8535 11.3809C37.8535 10.9234 37.9227 10.4736 38.0573 10.0353C38.1918 9.59707 38.3994 9.20493 38.6762 8.85892C38.9531 8.51291 39.2991 8.2361 39.7181 8.02465C40.1372 7.81704 40.6254 7.7094 41.1906 7.7094C41.5597 7.7094 41.9595 7.7786 42.3862 7.91316V5.17969H44.2009V14.9371H42.5362V14.9333Z" fill="white"/>
<path d="M49.3101 11.6285C49.1141 11.64 48.9142 11.6554 48.7066 11.6784C48.499 11.7015 48.3029 11.7361 48.1183 11.7746C47.7262 11.8514 47.4532 11.986 47.2995 12.1782C47.1457 12.3666 47.0726 12.5742 47.0726 12.8011C47.0726 13.0356 47.1572 13.224 47.3302 13.3662C47.5032 13.5084 47.7454 13.5777 48.0607 13.5777C48.2952 13.5777 48.5259 13.5277 48.745 13.4316C48.9641 13.3354 49.1564 13.2124 49.314 13.0663V11.6285H49.3101ZM49.4562 14.9271L49.3832 14.4004C49.1871 14.6157 48.9372 14.7887 48.6335 14.9079C48.3298 15.0309 47.9992 15.0924 47.6339 15.0924C47.3302 15.0924 47.038 15.0424 46.7612 14.9386C46.4806 14.8348 46.2345 14.6887 46.0192 14.5003C45.8039 14.312 45.6309 14.0774 45.4964 13.7968C45.3656 13.52 45.3003 13.2047 45.3003 12.8549C45.3003 12.505 45.3695 12.1936 45.5041 11.9245C45.6425 11.6554 45.827 11.4286 46.0615 11.244C46.296 11.0595 46.5651 10.9057 46.8689 10.7904C47.1726 10.675 47.4917 10.5866 47.8223 10.5289C48.0568 10.4789 48.3144 10.4443 48.5951 10.4213C48.8719 10.3982 49.1064 10.3751 49.2909 10.3559V10.2521C49.2909 9.85998 49.191 9.58317 48.9911 9.41785C48.7911 9.25254 48.5143 9.16796 48.1606 9.16796C47.953 9.16796 47.757 9.19103 47.5724 9.241C47.3879 9.29098 47.2187 9.34865 47.0726 9.42554C46.9265 9.49859 46.7958 9.57164 46.6843 9.64468C46.5728 9.71773 46.4806 9.78308 46.4114 9.84075L45.8155 8.57205C45.8924 8.50285 46.0115 8.42212 46.173 8.32216C46.3345 8.22604 46.5305 8.12993 46.7574 8.03766C46.988 7.94539 47.2456 7.8685 47.534 7.80314C47.8223 7.74163 48.1299 7.70703 48.4644 7.70703C48.8526 7.70703 49.2102 7.75701 49.5331 7.86081C49.8561 7.96462 50.1329 8.12224 50.3674 8.34523C50.6019 8.56436 50.7826 8.84117 50.9172 9.17949C51.0479 9.51397 51.1132 9.92149 51.1132 10.3982V14.9309H49.4562V14.9271Z" fill="white"/>
<path d="M58.1181 14.2968C58.0489 14.3468 57.9451 14.4122 57.799 14.5006C57.6529 14.589 57.4722 14.6736 57.2531 14.7543C57.034 14.8351 56.7802 14.9081 56.4919 14.9658C56.1997 15.0234 55.8729 15.0542 55.5038 15.0542C55.0771 15.0542 54.6696 14.9812 54.2774 14.8351C53.8853 14.689 53.5354 14.466 53.2355 14.1661C52.9318 13.8662 52.6896 13.4895 52.5128 13.0358C52.3321 12.5822 52.2437 12.0439 52.2437 11.425C52.2437 10.806 52.3321 10.2639 52.5051 9.79871C52.6819 9.33352 52.9164 8.94522 53.2163 8.63766C53.5124 8.32625 53.8584 8.09942 54.2467 7.94948C54.635 7.79955 55.0425 7.72266 55.4692 7.72266C55.8767 7.72266 56.2304 7.77648 56.538 7.88413C56.8417 7.99177 57.107 8.12249 57.33 8.28396C57.553 8.44543 57.7337 8.62228 57.8759 8.81451C58.0143 9.00673 58.1296 9.19127 58.2181 9.36428L56.884 10.2639C56.7379 10.014 56.5572 9.77949 56.3381 9.56035C56.119 9.34121 55.8383 9.23356 55.4884 9.23356C55.1001 9.23356 54.7657 9.40657 54.4773 9.74873C54.1928 10.0909 54.0506 10.6253 54.0506 11.3519C54.0506 12.0478 54.1967 12.5822 54.485 12.9474C54.7772 13.3165 55.1963 13.501 55.746 13.501C56.0075 13.501 56.242 13.4741 56.4496 13.4203C56.6572 13.3664 56.8379 13.3049 56.9955 13.2319C57.1493 13.1588 57.28 13.0858 57.38 13.0089C57.4799 12.932 57.5568 12.8667 57.6029 12.8205L58.1181 14.2968Z" fill="white"/>
<path d="M63.6735 11.3518C63.6735 11.0597 63.6389 10.7829 63.5736 10.5214C63.5044 10.26 63.4044 10.0332 63.2698 9.84478C63.1353 9.6564 62.97 9.50646 62.7777 9.39497C62.5855 9.28348 62.3548 9.22581 62.0973 9.22581C61.8358 9.22581 61.609 9.28348 61.4129 9.39497C61.2207 9.50646 61.0554 9.6564 60.9208 9.84478C60.7863 10.0332 60.6825 10.26 60.6171 10.5214C60.5479 10.7829 60.5172 11.0597 60.5172 11.3518C60.5172 11.6517 60.5517 11.9324 60.6171 12.19C60.6863 12.4475 60.7824 12.6744 60.9131 12.8666C61.0439 13.0588 61.2092 13.2126 61.4052 13.3241C61.6052 13.4356 61.832 13.4933 62.0934 13.4933C62.3548 13.4933 62.5817 13.4394 62.7739 13.3241C62.9661 13.2126 63.1314 13.0588 63.266 12.8666C63.4006 12.6705 63.5044 12.4475 63.5697 12.19C63.6389 11.9362 63.6735 11.6556 63.6735 11.3518ZM65.4459 11.3595C65.4459 11.8132 65.3766 12.263 65.2344 12.7013C65.0922 13.1434 64.8846 13.5355 64.6116 13.8854C64.3348 14.2353 63.9888 14.5159 63.5659 14.7274C63.143 14.9388 62.6547 15.0465 62.0934 15.0465C61.5321 15.0465 61.04 14.9388 60.6209 14.7274C60.198 14.5159 59.852 14.2353 59.5752 13.8854C59.2984 13.5355 59.0908 13.1434 58.9524 12.7013C58.814 12.263 58.741 11.8132 58.741 11.3595C58.741 10.9059 58.8102 10.4599 58.9524 10.0255C59.0908 9.59104 59.3023 9.1989 59.5752 8.85673C59.852 8.51457 60.198 8.23776 60.6209 8.03016C61.0438 7.82255 61.5321 7.71875 62.0934 7.71875C62.6547 7.71875 63.143 7.82255 63.5582 8.03016C63.9734 8.23776 64.3232 8.51457 64.6039 8.85673C64.8845 9.1989 65.096 9.59104 65.2344 10.0255C65.3728 10.4599 65.4459 10.9059 65.4459 11.3595Z" fill="white"/>
<path d="M75.0919 14.8888V10.779C75.0919 10.3138 75.0035 9.9409 74.8305 9.65256C74.6574 9.36806 74.3307 9.22581 73.8578 9.22581C73.7232 9.22581 73.5848 9.24888 73.4426 9.29117C73.3042 9.33346 73.1696 9.38344 73.0427 9.44495C72.9159 9.50262 72.8044 9.56413 72.7083 9.62564C72.6121 9.68716 72.5353 9.74482 72.4776 9.79096C72.4968 9.9063 72.516 10.037 72.5353 10.1831C72.5545 10.3292 72.566 10.4868 72.566 10.6637V14.8888H70.7668V10.779C70.7668 10.5676 70.7514 10.3638 70.7168 10.1754C70.6822 9.98703 70.6207 9.82172 70.5361 9.68331C70.4477 9.54491 70.3362 9.43342 70.1939 9.34884C70.0555 9.2681 69.8787 9.22581 69.6634 9.22581C69.3904 9.22581 69.1367 9.29886 68.8945 9.44495C68.6523 9.59104 68.4485 9.74482 68.287 9.91014V14.8888H66.4878V7.89175H68.1409L68.214 8.41461C68.4293 8.22239 68.6907 8.05707 69.006 7.92251C69.3212 7.78795 69.6365 7.71875 69.9594 7.71875C70.29 7.71875 70.6168 7.76873 70.9398 7.87253C71.2627 7.97249 71.5664 8.14934 71.8471 8.40308C72.1662 8.21085 72.5199 8.04554 72.9005 7.91482C73.2849 7.78411 73.6925 7.71875 74.1307 7.71875C74.6536 7.71875 75.0919 7.78795 75.4456 7.92251C75.7993 8.05707 76.0838 8.25314 76.2952 8.50304C76.5105 8.75678 76.6605 9.06434 76.7527 9.43342C76.845 9.80249 76.8911 10.2215 76.8911 10.6983V14.8927H75.0919V14.8888Z" fill="white"/>
</svg>
