<svg width="192" height="66" viewBox="0 0 192 66" fill="none" xmlns="http://www.w3.org/2000/svg">
<path d="M1 14C1 6.26801 7.26801 0 15 0H178C185.732 0 192 6.26801 192 14V52C192 59.732 185.732 66 178 66H15C7.26802 66 1 59.732 1 52V14Z" fill="white"/>
<path d="M28 24C28 31.732 34.268 38 42 38H178C185.732 38 192 44.268 192 52V52C192 59.732 185.732 66 178 66H14C6.26802 66 0 59.732 0 52V14C0 6.26801 6.26801 0 14 0V0C21.732 0 28 6.26801 28 14V24Z" fill="url(#paint0_linear_87_385)"/>
<path d="M64.7827 15.3484C65.2227 15.3486 65.5815 16.4766 65.5815 17.8699C65.5815 19.2616 65.2243 20.3912 64.7827 20.3914C64.7703 20.3912 64.759 20.3861 64.7466 20.3845V20.3884C64.056 20.2023 64.0919 20.8726 64.1313 21.1384C64.1361 21.1692 64.1422 21.1985 64.147 21.2292C64.1497 21.2363 64.1508 21.2413 64.1509 21.2419L64.1802 21.4958C64.1868 21.5819 64.1899 21.6693 64.1899 21.7576C64.1898 23.2773 63.223 24.5104 62.0308 24.5105C61.504 24.5105 61.0223 24.2691 60.647 23.8689C58.8152 22.4794 58.0169 24.535 58.0054 24.5652L58.0005 24.5603C57.4973 25.5779 56.5159 26.2683 55.3882 26.2683C53.7498 26.268 52.4207 24.8103 52.4204 23.0105C52.4204 21.2105 53.7481 19.752 55.3882 19.7517C56.426 19.7517 57.3371 20.3364 57.8687 21.2195C59.2953 23.3107 59.9146 21.166 59.9233 21.1355C59.9238 21.1363 59.9259 21.1398 59.9263 21.1414C60.1456 19.9182 61.0022 19.0048 62.0288 19.0046C62.3347 19.0046 62.6268 19.0868 62.8901 19.2341C62.8964 19.2374 62.9014 19.2397 62.9077 19.2429C63.9334 19.7898 63.9848 17.8732 63.9849 17.8699C63.9849 16.4785 64.3413 15.3491 64.7827 15.3484ZM49.1724 18.9949C50.3649 18.995 51.3315 20.2274 51.3315 21.7478C51.3315 23.2681 50.3648 24.5007 49.1724 24.5007C47.98 24.5005 47.0132 23.268 47.0132 21.7478C47.0132 20.2275 47.98 18.9951 49.1724 18.9949ZM148.806 16.6433C148.98 16.3392 149.22 16.0843 149.529 15.8806C149.961 15.5858 150.472 15.4383 151.062 15.4382C151.691 15.4382 152.232 15.6003 152.684 15.9246C153.146 16.2391 153.5 16.6921 153.746 17.282C153.991 17.8718 154.115 18.5697 154.115 19.3757C154.115 20.231 153.972 20.9683 153.687 21.5876C153.412 22.197 153.014 22.6636 152.493 22.988C151.972 23.3125 151.352 23.4753 150.634 23.4753C150.133 23.4753 149.695 23.3818 149.322 23.1951C149.057 23.0628 148.843 22.9097 148.677 22.738C148.473 22.7412 148.265 22.7691 148.054 22.8259C147.799 22.8947 147.553 22.9883 147.317 23.1062C147.091 23.2241 146.894 23.362 146.727 23.5193L146.314 23.033C146.432 22.9052 146.521 22.777 146.58 22.6492C146.648 22.5214 146.693 22.369 146.712 22.1921C146.742 22.0153 146.756 21.804 146.756 21.5583V13.7576C146.756 13.3054 146.653 12.9806 146.447 12.7839C146.25 12.5874 145.891 12.4794 145.371 12.4597V11.8845C145.557 11.8943 145.754 11.904 145.96 11.9138C146.167 11.9236 146.368 11.9285 146.565 11.9285C146.997 11.9285 147.4 11.914 147.774 11.8845C148.147 11.8452 148.492 11.7912 148.806 11.7224V16.6433ZM115.305 15.4382C115.993 15.4383 116.578 15.5664 117.06 15.822C117.542 16.0678 117.905 16.4563 118.151 16.9871C118.397 17.5179 118.509 18.2062 118.49 19.0515H113.654V19.3162C113.654 20.2893 113.835 21.0518 114.199 21.6023C114.572 22.1527 115.113 22.4284 115.821 22.4285C116.303 22.4285 116.721 22.3099 117.075 22.074C117.438 21.8283 117.743 21.455 117.989 20.9539L118.52 21.2488C118.235 21.9663 117.802 22.5168 117.222 22.9001C116.642 23.2835 115.944 23.4753 115.128 23.4753C114.391 23.4753 113.747 23.318 113.197 23.0037C112.656 22.6792 112.238 22.2166 111.943 21.6169C111.648 21.0174 111.501 20.3048 111.5 19.4792C111.5 18.6143 111.658 17.8816 111.972 17.282C112.287 16.6823 112.729 16.2245 113.299 15.9099C113.87 15.5953 114.538 15.4382 115.305 15.4382ZM120.796 21.071C121.209 21.0711 121.538 21.18 121.784 21.3962C122.029 21.6125 122.153 21.9026 122.153 22.2664C122.153 22.6397 122.029 22.9349 121.784 23.1511C121.538 23.3671 121.214 23.4753 120.811 23.4753C120.398 23.4753 120.068 23.3672 119.823 23.1511C119.577 22.9349 119.454 22.6397 119.454 22.2664C119.454 21.9027 119.572 21.6125 119.808 21.3962C120.054 21.18 120.383 21.071 120.796 21.071ZM141.448 15.4382C142.195 15.4383 142.848 15.5858 143.409 15.8806C143.969 16.1657 144.411 16.6082 144.736 17.2078C145.06 17.8073 145.222 18.5594 145.222 19.4636C145.222 20.3681 145.06 21.1208 144.736 21.7205C144.411 22.3102 143.969 22.7527 143.409 23.0476C142.848 23.3326 142.195 23.4753 141.448 23.4753C140.71 23.4753 140.056 23.3327 139.486 23.0476C138.916 22.7527 138.468 22.3102 138.144 21.7205C137.82 21.1208 137.658 20.3681 137.658 19.4636C137.658 18.5594 137.82 17.8073 138.144 17.2078C138.468 16.6082 138.916 16.1657 139.486 15.8806C140.056 15.5857 140.71 15.4382 141.448 15.4382ZM168.946 15.4382C169.634 15.4382 170.219 15.5664 170.701 15.822C171.182 16.0678 171.546 16.4562 171.792 16.9871C172.037 17.5179 172.151 18.2061 172.131 19.0515H167.294V19.3162C167.294 20.2894 167.477 21.0518 167.84 21.6023C168.214 22.1527 168.755 22.4285 169.462 22.4285C169.944 22.4284 170.362 22.3099 170.715 22.074C171.079 21.8283 171.384 21.455 171.629 20.9539L172.161 21.2488C171.876 21.9663 171.443 22.5168 170.863 22.9001C170.283 23.2835 169.585 23.4753 168.769 23.4753C168.032 23.4753 167.388 23.3181 166.837 23.0037C166.297 22.6792 165.878 22.2166 165.583 21.6169C165.289 21.0174 165.141 20.3048 165.141 19.4792C165.141 18.6144 165.298 17.8816 165.613 17.282C165.927 16.6824 166.37 16.2245 166.94 15.9099C167.51 15.5953 168.179 15.4382 168.946 15.4382ZM111.445 16.2195C111.042 16.2981 110.707 16.4707 110.442 16.7361C110.186 16.9917 109.945 17.3946 109.719 17.9451L107.404 23.3865H106.859L103.954 17.1492C103.806 16.8346 103.624 16.6081 103.408 16.4705C103.201 16.3231 102.926 16.2392 102.583 16.2195V15.6453C102.907 15.6649 103.241 15.6794 103.584 15.6892C103.929 15.699 104.352 15.7039 104.853 15.7039C105.276 15.7039 105.659 15.699 106.003 15.6892C106.347 15.6794 106.692 15.6649 107.036 15.6453V16.2195C106.564 16.2391 106.274 16.3432 106.166 16.53C106.058 16.7168 106.102 17.0264 106.298 17.4587L107.873 20.8552L108.893 18.447C109.07 18.0243 109.159 17.6552 109.159 17.3406C109.169 17.0163 109.09 16.7607 108.923 16.574C108.756 16.3774 108.5 16.2588 108.156 16.2195V15.6453C108.402 15.6551 108.628 15.6647 108.834 15.6746C109.041 15.6844 109.233 15.6892 109.41 15.6892H109.941C110.187 15.6892 110.447 15.6844 110.722 15.6746C110.997 15.6647 111.238 15.6551 111.445 15.6453V16.2195ZM136.992 13.4031C136.54 13.4129 136.2 13.4525 135.974 13.5212C135.748 13.5802 135.601 13.6988 135.532 13.8757C135.463 14.0429 135.428 14.3081 135.428 14.6716V21.4255C135.428 21.7793 135.463 22.0445 135.532 22.2214C135.61 22.3886 135.758 22.5071 135.974 22.5759C136.2 22.6348 136.54 22.6735 136.992 22.6931V23.2683C136.707 23.2487 136.328 23.239 135.856 23.239C135.394 23.2292 134.888 23.2244 134.337 23.2244C133.757 23.2244 133.236 23.2292 132.774 23.239C132.322 23.239 131.963 23.2487 131.698 23.2683V22.6931C132.13 22.6735 132.449 22.6349 132.656 22.5759C132.872 22.5071 133.015 22.3837 133.083 22.2068C133.152 22.0299 133.187 21.7695 133.187 21.4255V13.6541H132.965L129.618 23.3718H129.087L125.416 13.8904H125.194V20.9539C125.194 21.3961 125.233 21.7404 125.312 21.9861C125.391 22.2219 125.554 22.3936 125.799 22.5017C126.055 22.5999 126.438 22.6636 126.949 22.6931V23.2683C126.752 23.2487 126.472 23.239 126.109 23.239C125.745 23.2292 125.357 23.2244 124.944 23.2244C124.541 23.2244 124.172 23.2292 123.837 23.239C123.503 23.239 123.238 23.2487 123.042 23.2683V22.6931C123.474 22.6636 123.804 22.6 124.03 22.5017C124.256 22.3936 124.408 22.2266 124.487 22.0007C124.565 21.7648 124.604 21.44 124.604 21.0271V14.6716C124.604 14.3083 124.565 14.0429 124.487 13.8757C124.418 13.7087 124.27 13.5901 124.044 13.5212C123.828 13.4524 123.494 13.4129 123.042 13.4031V12.8279C123.258 12.8377 123.543 12.8483 123.897 12.8582C124.261 12.868 124.659 12.8728 125.091 12.8728C125.543 12.8728 125.966 12.868 126.359 12.8582C126.752 12.8483 127.096 12.8377 127.391 12.8279L130.166 20.0925L132.641 12.8279C133.015 12.8475 133.354 12.863 133.659 12.8728H134.587C135.069 12.8728 135.527 12.868 135.959 12.8582C136.392 12.8483 136.736 12.8377 136.992 12.8279V13.4031ZM80.6255 12.8279C80.6353 13.4472 80.6594 14.0621 80.6987 14.6716C80.738 15.281 80.8027 15.8952 80.8911 16.5144H80.3013C80.1735 15.9641 80.0308 15.4925 79.8735 15.0994C79.7162 14.7061 79.5341 14.391 79.3276 14.155C79.1312 13.9096 78.9052 13.7329 78.6499 13.6248C78.3944 13.5068 78.0992 13.4481 77.7651 13.448H77.3071V21.3074C77.3071 21.7005 77.3563 21.9955 77.4546 22.1921C77.5529 22.3887 77.7448 22.5217 78.0298 22.5906C78.3247 22.6496 78.7575 22.6833 79.3276 22.6931V23.2683C78.9836 23.2585 78.5314 23.2488 77.9712 23.239C77.4207 23.2292 76.8356 23.2244 76.2163 23.2244C75.5578 23.2244 74.9484 23.2292 74.3882 23.239C73.8278 23.2488 73.3797 23.2585 73.0454 23.2683V22.6931C73.6154 22.6833 74.0435 22.6495 74.3286 22.5906C74.6235 22.5218 74.8201 22.3887 74.9185 22.1921C75.0168 21.9955 75.0659 21.7006 75.0659 21.3074V13.448H74.5942C74.1617 13.448 73.7877 13.5511 73.4731 13.7576C73.1588 13.9542 72.8886 14.2784 72.6626 14.7302C72.4365 15.1823 72.2399 15.7773 72.0728 16.5144H71.4829C71.5714 15.8952 71.635 15.281 71.6743 14.6716C71.7136 14.0621 71.7387 13.4472 71.7485 12.8279C72.1809 12.8377 72.6526 12.8483 73.1636 12.8582C73.6846 12.868 74.206 12.8728 74.7271 12.8728H77.6177C78.1385 12.8728 78.6593 12.868 79.1802 12.8582C79.711 12.8483 80.1929 12.8377 80.6255 12.8279ZM84.6772 16.7253C84.9166 16.3316 85.2305 16.0252 85.6206 15.8074C86.0531 15.5617 86.54 15.4383 87.0806 15.4382C87.867 15.4382 88.4675 15.6744 88.8804 16.1462C89.303 16.6083 89.5142 17.2773 89.5142 18.1521V21.6316C89.5142 22.0248 89.6125 22.3005 89.8091 22.4578C90.0155 22.6051 90.3792 22.6833 90.8999 22.6931V23.2683C90.7525 23.2585 90.546 23.2537 90.2808 23.2537C90.0252 23.2438 89.7446 23.2342 89.4399 23.2244C89.1353 23.2145 88.8353 23.2097 88.5405 23.2097C88.1474 23.2097 87.7588 23.2194 87.3755 23.239C86.9926 23.2488 86.7077 23.2585 86.521 23.2683V22.6931C86.8845 22.6832 87.1305 22.6052 87.2583 22.4578C87.3959 22.3005 87.4644 22.0248 87.4644 21.6316V17.9744C87.4643 17.4437 87.3612 17.0454 87.1548 16.78C86.9484 16.5148 86.6387 16.3827 86.2261 16.3826C85.9017 16.3826 85.6009 16.4751 85.3257 16.6619C85.0814 16.8277 84.8673 17.0617 84.6772 17.3591V21.6316C84.6772 22.0247 84.7457 22.3004 84.8833 22.4578C85.0209 22.6052 85.2725 22.6833 85.6362 22.6931V23.2683C85.4298 23.2585 85.1444 23.2488 84.7808 23.239C84.4269 23.2194 84.0625 23.2097 83.689 23.2097C83.2467 23.2097 82.7944 23.2194 82.3325 23.239C81.8707 23.2488 81.5071 23.2585 81.2417 23.2683V22.6931C81.7723 22.6833 82.1359 22.6051 82.3325 22.4578C82.539 22.3005 82.6421 22.0248 82.6421 21.6316V13.7576C82.6421 13.3054 82.539 12.9806 82.3325 12.7839C82.1261 12.5874 81.7625 12.4794 81.2417 12.4597V11.8845C81.4677 11.8943 81.679 11.904 81.8755 11.9138C82.0818 11.9236 82.2931 11.9285 82.5093 11.9285C82.9123 11.9285 83.2911 11.914 83.645 11.8845C84.0087 11.8452 84.3529 11.7912 84.6772 11.7224V16.7253ZM96.6382 15.4382C97.1001 15.4383 97.4636 15.5761 97.729 15.8513C98.0042 16.1167 98.142 16.4851 98.1421 16.9568C98.1421 17.3893 98.0341 17.7392 97.8179 18.0046C97.6016 18.2602 97.3162 18.3874 96.9624 18.3875C96.7167 18.3875 96.52 18.3189 96.3726 18.1814C96.2251 18.0438 96.1509 17.8664 96.1509 17.6501C96.1509 17.5029 96.176 17.3754 96.2251 17.2673C96.2743 17.1494 96.3234 17.0404 96.3726 16.9421C96.4216 16.8341 96.4458 16.7308 96.4458 16.6326C96.4457 16.4166 96.3085 16.3085 96.0337 16.3083C95.8272 16.3083 95.6152 16.3575 95.3989 16.4558C95.1925 16.5541 95.0006 16.692 94.8237 16.8689C94.6817 17.011 94.5701 17.1754 94.4849 17.3601V21.5134C94.4849 21.946 94.6179 22.2515 94.8833 22.4285C95.1586 22.5954 95.6352 22.6833 96.313 22.6931V23.2683C96.1262 23.2585 95.8754 23.2537 95.561 23.2537C95.2565 23.2438 94.9225 23.2342 94.5591 23.2244C94.2052 23.2145 93.8553 23.2097 93.5112 23.2097C93.0101 23.2097 92.5287 23.2194 92.0669 23.239C91.6149 23.2488 91.2754 23.2585 91.0493 23.2683V22.6931C91.5799 22.6833 91.9435 22.6051 92.1401 22.4578C92.3466 22.3005 92.4497 22.0248 92.4497 21.6316V17.5173C92.4497 17.0555 92.3416 16.7315 92.1255 16.5447C91.9191 16.3481 91.5604 16.2392 91.0493 16.2195V15.6453C91.3243 15.6551 91.5551 15.6647 91.7417 15.6746C91.9383 15.6844 92.1504 15.6892 92.3765 15.6892C93.1825 15.6892 93.8853 15.6198 94.4849 15.4822V16.7107C94.7123 16.33 95.0067 16.0287 95.3696 15.8074C95.7727 15.5616 96.1958 15.4382 96.6382 15.4382ZM101.811 21.6316C101.811 22.0346 101.914 22.3103 102.121 22.4578C102.327 22.6052 102.691 22.6833 103.212 22.6931V23.2683C103.065 23.2585 102.858 23.2537 102.592 23.2537C102.337 23.2438 102.052 23.2342 101.738 23.2244C101.433 23.2145 101.128 23.2097 100.823 23.2097C100.361 23.2097 99.8941 23.2194 99.4224 23.239C98.9605 23.2488 98.6114 23.2585 98.3755 23.2683V22.6931C98.8962 22.6833 99.2599 22.6051 99.4663 22.4578C99.6728 22.3103 99.7759 22.0347 99.7759 21.6316V17.5173C99.7758 17.0751 99.6727 16.7559 99.4663 16.5593C99.2697 16.3529 98.9062 16.2392 98.3755 16.2195V15.6453C98.572 15.6551 98.7736 15.6647 98.98 15.6746C99.1864 15.6844 99.3927 15.6892 99.5991 15.6892C100.022 15.6892 100.415 15.6747 100.779 15.6453C101.152 15.6059 101.496 15.551 101.811 15.4822V21.6316ZM158.238 21.6316C158.238 22.0347 158.341 22.3103 158.547 22.4578C158.754 22.6051 159.117 22.6833 159.638 22.6931V23.2683C159.491 23.2585 159.284 23.2537 159.019 23.2537C158.763 23.2438 158.478 23.2342 158.164 23.2244C157.859 23.2145 157.554 23.2097 157.25 23.2097C156.788 23.2097 156.321 23.2194 155.849 23.239C155.387 23.2488 155.038 23.2585 154.802 23.2683V22.6931C155.323 22.6832 155.687 22.6052 155.893 22.4578C156.1 22.3103 156.203 22.0347 156.203 21.6316V17.5173C156.203 17.0752 156.099 16.7559 155.893 16.5593C155.697 16.3529 155.333 16.2392 154.802 16.2195V15.6453C154.999 15.6551 155.2 15.6647 155.407 15.6746C155.613 15.6844 155.82 15.6892 156.026 15.6892C156.449 15.6892 156.842 15.6748 157.206 15.6453C157.579 15.6059 157.923 15.551 158.238 15.4822V21.6316ZM163.208 21.6316C163.208 22.0346 163.311 22.3103 163.517 22.4578C163.733 22.6052 164.098 22.6833 164.609 22.6931V23.2683C164.461 23.2585 164.254 23.2537 163.989 23.2537C163.733 23.2438 163.449 23.2342 163.134 23.2244C162.83 23.2145 162.524 23.2097 162.219 23.2097C161.767 23.2097 161.305 23.2194 160.833 23.239C160.362 23.2488 160.008 23.2585 159.772 23.2683V22.6931C160.293 22.6833 160.656 22.6051 160.863 22.4578C161.069 22.3103 161.172 22.0347 161.172 21.6316V13.7576C161.172 13.3152 161.069 12.9952 160.863 12.7986C160.666 12.5923 160.303 12.4794 159.772 12.4597V11.8845C159.978 11.8943 160.185 11.904 160.391 11.9138C160.598 11.9236 160.799 11.9285 160.996 11.9285C161.418 11.9285 161.816 11.914 162.19 11.8845C162.563 11.8452 162.903 11.7912 163.208 11.7224V21.6316ZM141.448 15.9988C140.966 15.9988 140.573 16.2744 140.268 16.825C139.963 17.3656 139.811 18.245 139.811 19.4636C139.811 20.6629 139.963 21.5381 140.268 22.0886C140.573 22.6293 140.966 22.9001 141.448 22.9001C141.92 22.9001 142.308 22.6292 142.613 22.0886C142.927 21.5381 143.084 20.6627 143.084 19.4636C143.084 18.2452 142.927 17.3656 142.613 16.825C142.308 16.2745 141.92 15.9989 141.448 15.9988ZM150.31 16.323C149.976 16.323 149.657 16.4263 149.352 16.6326C149.117 16.7972 148.935 17.0063 148.806 17.2585V22.2253C148.912 22.3431 149.038 22.4466 149.189 22.531C149.435 22.6686 149.715 22.738 150.03 22.738C150.669 22.738 151.151 22.4672 151.475 21.9265C151.799 21.376 151.961 20.5499 151.961 19.449C151.961 18.4366 151.819 17.6653 151.534 17.1345C151.258 16.5938 150.851 16.323 150.31 16.323ZM45.9946 16.3503C46.5386 16.3505 46.9789 16.9708 46.979 17.7371C46.979 18.5034 46.5387 19.1236 45.9946 19.1238C45.4505 19.1238 45.0103 18.5035 45.0103 17.7371C45.0103 16.9707 45.4505 16.3503 45.9946 16.3503ZM168.902 16.0134C168.479 16.0134 168.115 16.2197 167.81 16.6326C167.527 17.0294 167.354 17.6491 167.289 18.491H170.288C170.297 18.0093 170.253 17.5862 170.155 17.2224C170.066 16.849 169.919 16.5539 169.712 16.3376C169.506 16.1216 169.236 16.0135 168.902 16.0134ZM115.261 16.0134C114.839 16.0134 114.474 16.2197 114.169 16.6326C113.886 17.0294 113.713 17.6491 113.648 18.491H116.647C116.657 18.0093 116.612 17.5862 116.514 17.2224C116.426 16.849 116.278 16.5539 116.072 16.3376C115.865 16.1216 115.595 16.0135 115.261 16.0134ZM61.7124 12.0417C62.657 12.042 63.4233 13.0452 63.4233 14.283C63.4232 15.5206 62.6569 16.5229 61.7124 16.5232C60.7677 16.5232 60.0006 15.5207 60.0005 14.283C60.0005 13.045 60.7676 12.0417 61.7124 12.0417ZM49.1724 12.5847C49.8899 12.5848 50.472 13.3443 50.4722 14.2839C50.4721 15.222 49.89 15.9841 49.1724 15.9841C48.4565 15.9839 47.8746 15.2235 47.8745 14.2839C47.8747 13.3461 48.455 12.5849 49.1724 12.5847ZM55.4282 10.2693C56.7814 10.2694 57.8792 11.5166 57.8794 13.0574C57.8793 14.5982 56.7814 15.8464 55.4282 15.8464C54.075 15.8464 52.9771 14.5967 52.9771 13.0574C52.9772 11.5166 54.075 10.2693 55.4282 10.2693ZM100.735 11.8113C101.059 11.8113 101.345 11.9144 101.59 12.1208C101.846 12.3272 101.973 12.6071 101.973 12.9607C101.973 13.3243 101.846 13.6097 101.59 13.8162C101.345 14.0226 101.059 14.1257 100.735 14.1257C100.41 14.1257 100.12 14.0226 99.8647 13.8162C99.619 13.6097 99.4956 13.3293 99.4956 12.9753C99.4957 12.6119 99.6191 12.3272 99.8647 12.1208C100.12 11.9144 100.41 11.8113 100.735 11.8113ZM157.162 11.8113C157.486 11.8114 157.77 11.9145 158.016 12.1208C158.272 12.3272 158.4 12.6069 158.4 12.9607C158.4 13.3244 158.272 13.6097 158.016 13.8162C157.77 14.0224 157.486 14.1256 157.162 14.1257C156.837 14.1257 156.547 14.0225 156.292 13.8162C156.046 13.6097 155.922 13.3293 155.922 12.9753C155.922 12.6118 156.046 12.3272 156.292 12.1208C156.547 11.9144 156.837 11.8113 157.162 11.8113Z" fill="url(#paint1_linear_87_385)"/>
<defs>
<linearGradient id="paint0_linear_87_385" x1="-778" y1="-32.5498" x2="162" y2="-32.5498" gradientUnits="userSpaceOnUse">
<stop stop-color="#171717"/>
<stop offset="1" stop-color="#3E3E3E"/>
</linearGradient>
<linearGradient id="paint1_linear_87_385" x1="45.0103" y1="18.2688" x2="172.161" y2="18.2688" gradientUnits="userSpaceOnUse">
<stop stop-color="#6C30EC"/>
<stop offset="0.5" stop-color="#6777FF"/>
<stop offset="1" stop-color="#90B0FF"/>
</linearGradient>
</defs>
</svg>
