<svg width="44" height="18" viewBox="0 0 44 18" fill="none" xmlns="http://www.w3.org/2000/svg">
<path d="M8.78201 2.74395C8.27881 3.31112 7.47369 3.75847 6.66857 3.69456C6.56793 2.92768 6.9621 2.11287 7.42337 1.6096C7.92657 1.02645 8.80717 0.611055 9.52003 0.579102C9.6039 1.37794 9.27682 2.1608 8.78201 2.74395ZM9.51165 3.84634C8.3459 3.78243 7.34789 4.47742 6.79437 4.47742C6.23246 4.47742 5.38541 3.87829 4.46288 3.89427C3.26358 3.91025 2.14816 4.5573 1.53593 5.5878C0.277933 7.6488 1.20885 10.7003 2.42492 12.3779C3.02037 13.2087 3.73324 14.1194 4.67254 14.0874C5.56153 14.0555 5.91377 13.5362 6.98726 13.5362C8.06914 13.5362 8.37945 14.0874 9.31875 14.0714C10.2916 14.0555 10.9038 13.2406 11.4993 12.4099C12.1786 11.4672 12.4554 10.5486 12.4721 10.5006C12.4554 10.4847 10.5935 9.80565 10.5768 7.76063C10.56 6.05112 12.0444 5.23631 12.1115 5.18838C11.2728 4.00611 9.96453 3.87829 9.51165 3.84634ZM16.2461 1.52972V13.9836H18.2757V9.72577H21.0852C23.6516 9.72577 25.4547 8.04821 25.4547 5.61975C25.4547 3.19129 23.6851 1.52972 21.1523 1.52972H16.2461ZM18.2757 3.15934H20.6156C22.3768 3.15934 23.3832 4.05404 23.3832 5.62774C23.3832 7.20145 22.3768 8.10413 20.6072 8.10413H18.2757V3.15934ZM29.1616 14.0794C30.4364 14.0794 31.6189 13.4643 32.1556 12.4897H32.1976V13.9836H34.0762V7.7846C34.0762 5.98722 32.5666 4.82891 30.2435 4.82891C28.0881 4.82891 26.4946 6.00319 26.4359 7.61684H28.2642C28.4152 6.84996 29.1616 6.34669 30.1848 6.34669C31.426 6.34669 32.1221 6.89789 32.1221 7.91241V8.59941L29.5893 8.7432C27.2327 8.879 25.9579 9.79766 25.9579 11.3953C25.9579 13.009 27.2746 14.0794 29.1616 14.0794ZM29.7067 12.6016C28.6248 12.6016 27.9371 12.1063 27.9371 11.3474C27.9371 10.5645 28.5997 10.1092 29.8661 10.0373L32.1221 9.90151V10.6045C32.1221 11.7708 31.0821 12.6016 29.7067 12.6016ZM36.5838 17.3706C38.563 17.3706 39.494 16.6517 40.3075 14.4708L43.8718 4.94873H41.8087L39.4185 12.306H39.3765L36.9863 4.94873H34.8645L38.3031 14.0155L38.1185 14.5667C37.8082 15.5013 37.305 15.8608 36.4077 15.8608C36.2483 15.8608 35.938 15.8448 35.8122 15.8289V17.3227C35.9296 17.3546 36.4328 17.3706 36.5838 17.3706Z" fill="#9A9A9A"/>
</svg>
