<svg width="71" height="31" viewBox="0 0 71 31" fill="none" xmlns="http://www.w3.org/2000/svg">
<path d="M71 15.4681C71 23.5238 55.1645 30.0537 35.6334 30.0537C16.0982 30.0537 0.262695 23.5238 0.262695 15.4681C0.262695 7.4124 16.0982 0.886719 35.6334 0.886719C55.1645 0.886719 71 7.4124 71 15.4681Z" fill="#00678F"/>
<path d="M12.9717 22.6676L16.6296 8.08203H22.4738V16.5767L26.3157 8.08203H32.348L28.6943 22.6676H24.8525L27.0431 13.2532L22.4738 22.6676H19.3719V13.2532L16.9891 22.6676H12.9717Z" fill="white"/>
<path d="M33.531 22.852L34.0786 20.8203H38.2842L37.7324 22.852H33.531Z" fill="#ED1D24"/>
<path d="M42.9412 22.6676L46.5949 8.08203H50.8004L52.6314 15.8409L54.638 8.08203H58.4757L54.822 22.6676H50.8004L48.7896 14.7289L46.7788 22.6676H42.9412Z" fill="white"/>
<path d="M33.531 8.08203L32.6155 11.7775H36.4573L34.388 19.7915H38.5893L40.6628 11.7775H44.5005L45.4118 8.08203H33.531Z" fill="#FFCB05"/>
</svg>
