<svg width="44" height="26" viewBox="0 0 44 26" fill="none" xmlns="http://www.w3.org/2000/svg">
<path d="M16.6203 25.0764C11.5052 24.6503 6.98747 22.8426 4.04906 20.0427C2.37196 18.448 1.35522 16.7168 0.897516 14.676C0.687879 13.7472 0.687879 12.2091 0.90101 11.2703C1.5404 8.43378 3.46208 5.95353 6.49133 4.05921C13.3989 -0.255426 23.9821 -0.235451 30.8267 4.10915C31.7351 4.6851 32.3221 5.14453 33.1467 5.91691C34.1844 6.89236 34.9146 7.86449 35.6833 9.28938C35.7113 9.34265 35.8545 9.40924 35.9978 9.43587C36.4834 9.53242 37.1298 9.89197 37.6504 10.3547C38.0557 10.7143 38.3667 11.1071 39.1388 12.2191C39.918 13.341 43.4399 18.5213 43.653 18.8608C43.7369 18.994 43.5726 19.2037 43.3875 19.2037C43.2547 19.2037 43.1638 19.1205 42.9682 18.8275C42.8319 18.6211 41.934 17.2928 40.9731 15.8745C37.5735 10.8608 37.3918 10.6277 36.445 10.175L35.9488 9.93858H34.4884C33.0279 9.93858 33.0279 9.93858 32.993 10.0851C32.8008 10.8874 32.7624 11.0838 32.8043 11.1204C32.8322 11.1437 33.6603 11.5932 34.6456 12.1192L36.438 13.0747L36.3262 13.2977C36.2633 13.4209 36.1934 13.5208 36.169 13.5208C36.1445 13.5208 34.6351 12.7251 32.8148 11.7497C30.9944 10.7775 29.3977 9.9519 29.2684 9.9186C28.7513 9.78211 27.9547 10.3281 27.9547 10.8208C27.9547 11.3202 28.1084 11.4634 31.3089 13.9602C33.3039 15.5183 34.4464 16.4538 34.6211 16.6735C34.9391 17.0764 35.2605 17.669 35.554 18.3981C36.0746 19.6831 36.9202 20.3989 38.3073 20.7318L38.765 20.8417L38.7265 21.0781C38.7056 21.2079 38.6776 21.3278 38.6601 21.3444C38.6007 21.4077 37.6818 21.128 37.1508 20.885C36.3192 20.5055 35.7462 19.9628 35.1837 19.0173C35.1802 19.0106 34.8517 19.1172 34.4604 19.2537C33.7616 19.4967 33.7267 19.5167 33.0663 20.1326C30.2467 22.756 26.2007 24.4306 21.3197 24.9999C20.5195 25.1064 17.4658 25.1497 16.6203 25.0764ZM21.4804 24.2708C23.72 23.9878 25.46 23.565 27.2768 22.8559C29.1845 22.1101 30.9874 21.0415 32.2452 19.9029L32.7414 19.4534L31.4906 18.8841C30.1559 18.2749 30.0231 18.175 29.8519 17.6324C29.7436 17.2894 29.8659 16.9232 30.2083 16.5737L30.4738 16.2973L29.8938 15.8779C29.4361 15.5449 29.2929 15.4018 29.202 15.1821C29.0588 14.8258 29.1112 14.4397 29.3418 14.13L29.5165 13.8937L27.6856 13.5874C26.6794 13.4176 25.7395 13.2478 25.5998 13.2079C25.3237 13.1313 25.0477 12.8317 24.9743 12.542C24.9359 12.3855 25.8338 8.21072 26.033 7.6148C26.1238 7.34846 26.5047 7.02553 26.7947 6.97559C27.0987 6.92233 32.4933 7.82454 32.7624 7.97435C33.1886 8.21072 33.3214 8.59025 33.1886 9.17619L33.1327 9.41922H33.4297C33.5939 9.41922 33.9817 9.39925 34.2927 9.37594L34.8587 9.33266L34.5792 8.83661C33.7372 7.3418 32.2033 5.83035 30.3131 4.63184C29.4291 4.07253 27.5459 3.18696 26.4104 2.80078C24.7961 2.25146 22.843 1.83864 20.9668 1.6522C19.9361 1.549 17.2422 1.55233 16.243 1.65553C13.8496 1.90189 11.6764 2.41792 9.77565 3.19029C5.37327 4.97807 2.41389 7.94106 1.6557 11.3169C1.45655 12.1991 1.44257 13.7439 1.62426 14.5462C2.02606 16.3207 2.89955 17.8554 4.32159 19.2836C7.22157 22.1934 11.6519 23.9845 16.9627 24.3873C17.6755 24.4406 20.7571 24.3607 21.4804 24.2708ZM20.5126 21.0947C20.24 21.0181 19.9605 20.7085 19.9011 20.4122C19.8627 20.2191 19.9081 20.086 20.1981 19.55C21.3721 17.386 21.8822 15.3951 21.8822 12.9815C21.8822 10.6477 21.4315 8.82996 20.3099 6.65266C20.0688 6.18657 19.8732 5.75045 19.8732 5.68719C19.8732 5.45415 20.0758 5.1179 20.2959 4.98806C20.5964 4.80828 21.103 4.84158 21.3476 5.05797C21.442 5.1412 21.683 5.52073 21.8857 5.90026C22.6893 7.40173 23.2378 9.04968 23.5104 10.7642C23.6781 11.8262 23.713 13.8371 23.5768 14.8092C23.3287 16.6003 22.8325 18.2016 22.0359 19.7664C21.5538 20.7119 21.2533 21.1014 21.0017 21.1014C20.9528 21.1014 20.8689 21.1147 20.82 21.128C20.7711 21.1413 20.6314 21.128 20.5126 21.0947ZM17.2457 19.4667C16.8264 19.3502 16.5225 18.8575 16.6448 18.4913C16.6727 18.4014 16.8719 17.9919 17.085 17.5791C17.9829 15.8313 18.3568 13.9602 18.1751 12.1225C18.0249 10.6111 17.7419 9.65893 17.0256 8.26732C16.5469 7.33182 16.5225 7.18866 16.802 6.80913C17.0675 6.44958 17.7314 6.39298 18.0773 6.69594C18.3184 6.90568 19.0696 8.40049 19.3596 9.24611C20.3169 12.0426 20.1702 15.0489 18.9438 17.7955C18.3114 19.2037 17.8676 19.6399 17.2457 19.4667ZM13.8775 17.8155C13.619 17.7056 13.3954 17.4426 13.3325 17.1796C13.2941 17.0198 13.3604 16.84 13.6679 16.2474C14.7999 14.0635 14.8104 11.9627 13.7063 9.82872C13.2207 8.89321 13.2102 8.70678 13.619 8.33723C13.8216 8.15413 13.909 8.12417 14.192 8.12417C14.6707 8.12417 14.9187 8.35388 15.345 9.18951C16.0019 10.4746 16.2709 11.5899 16.2674 13.0181C16.2639 14.4863 16.0124 15.495 15.3136 16.85C14.9118 17.6257 14.7126 17.8321 14.3108 17.882C14.1885 17.892 13.9928 17.8654 13.8775 17.8155ZM10.733 16.2774C10.5268 16.1975 10.2928 15.9311 10.2229 15.6981C10.146 15.4384 10.2089 15.232 10.5164 14.7493C10.9147 14.1267 11.0055 13.7938 11.0055 12.9815C11.0055 12.1691 10.9147 11.8329 10.5164 11.2137C10.3801 11.0039 10.2473 10.7509 10.2159 10.651C10.0866 10.2415 10.4465 9.73883 10.9287 9.65227C11.3374 9.57903 11.617 9.75214 11.9943 10.3114C13.0809 11.9294 13.0809 14.0868 11.9943 15.6914C11.61 16.2541 11.1837 16.4538 10.733 16.2774ZM34.1529 18.7876C34.5163 18.6644 34.8308 18.5479 34.8517 18.5279C34.8727 18.5079 34.8028 18.2882 34.6945 18.0352C34.4779 17.5192 34.5128 17.5325 33.7372 17.6723C32.9021 17.8254 32.4165 17.689 31.501 17.0464C31.253 16.87 30.9944 16.7268 30.9315 16.7268C30.8651 16.7268 30.7254 16.8167 30.6136 16.9299C30.3795 17.1696 30.3445 17.5425 30.5332 17.7655C30.7009 17.9586 32.9964 19.0007 33.269 19.0073C33.3913 19.0106 33.7861 18.9108 34.1529 18.7876ZM33.7896 17.113C34.1285 17.0464 34.1669 17.0264 34.1075 16.9199C34.0411 16.8034 30.8651 14.2932 30.5891 14.1367C30.362 14.0102 30.1768 14.0402 29.9882 14.2332C29.4361 14.7959 29.5025 14.9157 30.9315 15.9578C32.6575 17.2195 32.8427 17.2928 33.7896 17.113ZM29.527 13.3077C29.527 13.2911 29.1671 12.9948 28.7268 12.6519C27.6402 11.7996 27.4061 11.48 27.4061 10.8474C27.4061 10.3214 27.7765 9.81207 28.3705 9.5191C28.6639 9.37261 29.1915 9.32934 29.4885 9.42255C29.6982 9.48914 30.6485 9.97853 31.9622 10.6976L32.2383 10.8508L32.4654 9.81873C32.6995 8.76337 32.703 8.48372 32.4863 8.42046C32.4199 8.40049 31.1516 8.18076 29.6702 7.93107C27.0358 7.48829 26.7458 7.46165 26.6235 7.65142C26.5571 7.7513 25.5543 12.1791 25.5543 12.3656C25.5543 12.4588 25.6032 12.5753 25.6661 12.6252C25.7255 12.6752 26.5816 12.8516 27.5668 13.0181C29.4676 13.3443 29.527 13.3543 29.527 13.3077Z" fill="#9A9A9A"/>
</svg>
