<svg width="78" height="21" viewBox="0 0 78 21" fill="none" xmlns="http://www.w3.org/2000/svg">
<path d="M37.1928 6.14258H34.344V20.4873H37.1928V6.14258Z" fill="#171717"/>
<path d="M20.5562 7.74621C21.5612 8.8151 22.0621 10.1977 22.0621 11.8969V20.4876H19.1859V12.471C19.1859 11.3564 18.8889 10.4626 18.2951 9.78655C17.7013 9.1105 16.9217 8.77247 15.9533 8.77247C14.6926 8.77247 13.7029 9.20185 12.9811 10.0606C12.2594 10.9194 11.8985 12.1786 11.8985 13.8413V20.4876H9.04968V1.18823L11.8985 0.5V8.19844C13.0496 6.82807 14.6195 6.1444 16.6111 6.1444C18.2357 6.14288 19.5513 6.67733 20.5562 7.74621Z" fill="#171717"/>
<path d="M47.5425 20.4873H44.5018L38.6655 6.14258H41.761L46.0351 16.7173L50.3091 6.14258H53.4046L47.5425 20.4873Z" fill="#171717"/>
<path d="M66.5719 14.0058H55.5602C55.6881 15.23 56.1449 16.206 56.9291 16.9368C57.7147 17.6677 58.6283 18.0331 59.6683 18.0331C61.5487 18.0331 62.8826 17.2475 63.6682 15.6776L66.2156 16.2258C65.6675 17.6327 64.8224 18.6955 63.6819 19.4172C62.54 20.1389 61.2031 20.4998 59.6683 20.4998C57.7696 20.4998 56.1388 19.8329 54.7791 18.5006C53.4194 17.1683 52.7388 15.4507 52.7388 13.351C52.7388 11.2331 53.4194 9.50182 54.7791 8.16038C56.1403 6.81742 57.8061 6.14746 59.7794 6.14746C61.6233 6.14746 63.1993 6.79153 64.5042 8.07815C65.8106 9.3663 66.4988 11.0138 66.5719 13.0222V14.0058ZM57.1483 9.53989C56.3444 10.1246 55.8419 10.9377 55.6409 11.9776H63.6408C63.4216 10.8996 62.9648 10.0789 62.2705 9.51248C61.5761 8.94606 60.7448 8.66285 59.7779 8.66285C58.8293 8.66437 57.9523 8.9552 57.1483 9.53989Z" fill="#171717"/>
<path d="M7.61621 8.61532V6.02685H2.58848V2.95874L0 3.59672V14.0572C0 17.5669 2.85646 20.4233 6.36613 20.4233H7.61621V17.8349H6.36613C4.28317 17.8349 2.58848 16.1402 2.58848 14.0572V8.61532H7.61621Z" fill="#171717"/>
<path d="M32.7857 6.78315V9.35945C32.7599 9.35945 32.3914 9.35336 32.3762 9.35336C31.8417 9.34574 31.3058 9.35793 30.7713 9.37011C30.0846 9.38534 29.436 9.44472 28.8071 9.75686C27.5311 10.3903 26.7257 11.7363 26.6861 13.1493C26.6861 13.1508 26.5932 16.4488 26.5932 16.4488V20.4884H23.7002V6.12842H26.5932V9.62287C27.6012 7.42418 29.1345 6.78467 31.4169 6.78467H32.7857V6.78315Z" fill="#171717"/>
<rect x="34.344" y="0.672852" width="2.84884" height="2.84884" fill="#171717"/>
<path d="M77.8416 20.424L77.8416 17.5752L69.0405 17.5752L69.0405 20.424L77.8416 20.424Z" fill="#171717"/>
</svg>
