<svg width="52" height="16" viewBox="0 0 52 16" fill="none" xmlns="http://www.w3.org/2000/svg">
<path d="M26.65 5.60365C26.6207 7.66559 28.7051 8.81631 30.2753 9.50041C31.8886 10.2024 32.4305 10.6525 32.4243 11.2802C32.412 12.2409 31.1373 12.6649 29.9443 12.6814C27.863 12.7103 26.653 12.179 25.6909 11.7771L24.9412 14.914C25.9064 15.3118 27.6937 15.6587 29.5471 15.6738C33.8975 15.6738 36.7439 13.7537 36.7593 10.7764C36.7762 6.998 30.9141 6.78878 30.9542 5.09987C30.968 4.58782 31.5145 4.04137 32.7122 3.90235C33.3048 3.83215 34.9412 3.77847 36.7962 4.5424L37.5244 1.50731C36.5268 1.18246 35.2445 0.871384 33.6481 0.871384C29.5533 0.871384 26.6731 2.8177 26.65 5.60365ZM44.521 1.13291C43.7266 1.13291 43.057 1.54723 42.7583 2.18315L36.5438 15.4508L40.891 15.4508L41.7562 13.3132H47.0687L47.5705 15.4508H51.4021L48.0585 1.13291H44.521ZM45.129 5.00076L46.3837 10.3772H42.9477L45.129 5.00076ZM21.379 1.13291L17.9523 15.4508H22.0949L25.52 1.13291L21.379 1.13291ZM15.2506 1.13291L10.9388 10.8782L9.1946 2.59196C8.98986 1.66698 8.18167 1.13291 7.2842 1.13291H0.235241L0.136719 1.5486C1.58376 1.8294 3.22785 2.28226 4.22385 2.76677C4.83346 3.06271 5.00741 3.32148 5.20753 4.02485L8.51111 15.4508H12.8892L19.601 1.13291H15.2506Z" fill="#171717"/>
</svg>
