<svg width="43" height="14" viewBox="0 0 43 14" fill="none" xmlns="http://www.w3.org/2000/svg">
<path d="M22.5165 4.77316C22.4924 6.47426 24.212 7.4236 25.5074 7.98798C26.8384 8.56713 27.2854 8.93846 27.2803 9.45629C27.2702 10.2489 26.2186 10.5987 25.2343 10.6123C23.5173 10.6362 22.519 10.1978 21.7253 9.86623L21.1068 12.4542C21.9031 12.7824 23.3776 13.0686 24.9067 13.0811C28.4957 13.0811 30.844 11.4969 30.8567 9.04066C30.8706 5.9235 26.0344 5.75089 26.0675 4.35754C26.0789 3.9351 26.5297 3.48428 27.5178 3.36958C28.0068 3.31167 29.3568 3.26738 30.8872 3.89763L31.4879 1.39368C30.6649 1.12568 29.607 0.869038 28.29 0.869038C24.9117 0.869038 22.5355 2.47475 22.5165 4.77316ZM37.2601 1.0848C36.6048 1.0848 36.0523 1.42661 35.8059 1.95124L30.6789 12.8971H34.2654L34.9791 11.1335H39.3619L39.776 12.8971H42.937L40.1786 1.0848L37.2601 1.0848ZM37.7617 4.27577L38.7968 8.71135H35.9621L37.7617 4.27577ZM18.168 1.0848L15.3409 12.8971H18.7585L21.5843 1.0848H18.168ZM13.1121 1.0848L9.55475 9.1247L8.11582 2.28851C7.94691 1.5254 7.28015 1.0848 6.53974 1.0848H0.724347L0.643066 1.42774C1.83688 1.6594 3.19325 2.03301 4.01495 2.43273C4.51788 2.67688 4.66139 2.89037 4.82649 3.47065L7.55194 12.8971L11.1639 12.8971L16.7011 1.0848H13.1121Z" fill="#9A9A9A"/>
</svg>
