<svg width="62" height="16" viewBox="0 0 62 16" fill="none" xmlns="http://www.w3.org/2000/svg">
<path d="M11.2233 0.722656C11.2233 0.722656 11.5164 1.96159 11.2233 3.19101H7.58074V15.2188C7.58074 15.2188 5.89647 15.4319 4.56999 15.2188V3.19863H0.933114C0.933114 3.19863 0.666676 1.95208 0.933114 0.722656H11.2233Z" fill="white"/>
<path d="M23.1904 0.473763C23.1904 0.473763 22.0142 0.233969 20.33 0.473763V13.9898C20.33 13.9898 20.4099 15.3524 21.9076 15.3524C23.4054 15.3524 23.1904 15.1564 23.1904 15.1564V0.473763Z" fill="white"/>
<path d="M27.7595 0.48625C27.7595 0.48625 26.4939 0.200781 24.882 0.48625V15.2031C24.882 15.2031 26.4673 15.5152 27.7595 15.2031V0.48625Z" fill="white"/>
<path d="M31.2179 9.59026L33.8633 4.80579C33.8633 4.80579 32.8337 4.566 30.7897 4.80579L28.171 9.76344L31.2046 15.2159C31.2046 15.2159 32.729 15.4957 34.3181 15.2159L31.2179 9.59026Z" fill="white"/>
<path d="M39.6522 4.57422H38.9043C36.3731 4.57422 34.2302 6.62769 34.2302 9.15885V10.7803C34.2302 13.3115 36.3712 15.365 38.9043 15.365H39.6522C42.1834 15.365 44.3035 13.3115 44.3035 10.7803V9.15885C44.3035 6.62769 42.1834 4.57422 39.6522 4.57422ZM41.2109 11.3265C41.2109 12.3999 40.3393 13.2715 39.2659 13.2715C38.1925 13.2715 37.3209 12.3999 37.3209 11.3265V8.61266C37.3209 7.53929 38.1906 6.66766 39.2659 6.66766C39.8026 6.66766 40.2898 6.88462 40.6419 7.23669C40.9939 7.58877 41.2109 8.07407 41.2109 8.61266V11.3265Z" fill="white"/>
<path d="M48.4561 6.23705C48.4561 6.23705 48.3096 5.1675 48.0945 4.79448C48.0945 4.79448 47.24 4.51472 45.7822 4.79448V15.1779C45.7822 15.1779 47.025 15.5262 48.6426 15.1779C48.6426 15.1779 48.6426 9.7921 48.6426 9.20403C48.6426 8.61596 49.0442 7.03827 50.54 7.03827C52.0359 7.03827 51.9959 8.60264 51.9959 9.28396C51.9959 9.96528 51.9959 15.2312 51.9959 15.2312C51.9959 15.2312 53.4918 15.4977 54.8963 15.2312C54.8963 15.2312 54.8963 9.4305 54.8963 9.16406C54.8963 8.89763 55.1894 7.06682 56.5939 7.06682C57.9965 7.06682 58.2249 7.92132 58.2249 9.11078C58.2249 10.3002 58.2249 15.2046 58.2249 15.2046C58.2249 15.2046 59.7969 15.5129 61.1214 15.2046C61.1214 15.2046 61.1214 8.80247 61.1214 8.34953C61.1214 7.89468 61.1386 4.55469 58.105 4.55469C55.0714 4.55469 54.5899 6.35885 54.5899 6.35885C54.5899 6.35885 54.1617 4.55469 51.6895 4.55469C49.2193 4.55279 48.4561 6.23705 48.4561 6.23705Z" fill="white"/>
<path d="M18.9048 9.41277C18.9048 8.59253 18.4595 4.53125 14.3963 4.53125C10.3331 4.53125 9.15698 7.81034 9.15698 9.71727C9.15698 11.6242 9.37013 15.4171 14.8759 15.4171C14.8759 15.4171 16.4269 15.5085 18.2254 14.8671C18.2254 14.8671 18.3681 13.7805 17.6906 12.6938C17.6906 12.6938 16.5678 13.1924 14.8759 13.1924C13.1821 13.1924 12.1144 12.4616 12.0079 10.9105H18.7602C18.7621 10.9086 18.9048 10.2311 18.9048 9.41277ZM16.1072 8.878H12.0269C12.0802 8.23283 12.3828 6.70462 14.2536 6.70462C16.1243 6.70272 16.1072 8.878 16.1072 8.878Z" fill="white"/>
</svg>
