<svg width="53" height="21" viewBox="0 0 53 21" fill="none" xmlns="http://www.w3.org/2000/svg">
<path d="M10.2689 2.71976C9.65891 3.40724 8.68301 3.94948 7.70711 3.87202C7.58512 2.94246 8.06291 1.95481 8.62202 1.34479C9.23195 0.637943 10.2993 0.134435 11.1634 0.0957031C11.2651 1.06399 10.8686 2.01291 10.2689 2.71976ZM11.1533 4.05599C9.74024 3.97853 8.53053 4.82094 7.85959 4.82094C7.17849 4.82094 6.15176 4.09472 5.03354 4.11409C3.57985 4.13345 2.22782 4.91776 1.48573 6.16685C-0.0391176 8.66503 1.08927 12.3639 2.56329 14.3973C3.28505 15.4043 4.14913 16.5081 5.28768 16.4694C6.36524 16.4307 6.7922 15.8013 8.0934 15.8013C9.40477 15.8013 9.7809 16.4694 10.9195 16.45C12.0987 16.4307 12.8408 15.443 13.5625 14.436C14.3859 13.2934 14.7214 12.1799 14.7417 12.1218C14.7214 12.1024 12.4646 11.2794 12.4443 8.80059C12.424 6.72846 14.2233 5.74081 14.3046 5.68271C13.288 4.24965 11.7022 4.09472 11.1533 4.05599ZM19.3163 1.24796V16.3435H21.7764V11.1826H25.1819C28.2925 11.1826 30.4782 9.14917 30.4782 6.20558C30.4782 3.262 28.3332 1.24796 25.2632 1.24796H19.3163ZM21.7764 3.22326H24.6126C26.7474 3.22326 27.9672 4.30774 27.9672 6.21527C27.9672 8.12279 26.7474 9.21695 24.6024 9.21695H21.7764V3.22326ZM34.9714 16.4597C36.5166 16.4597 37.9499 15.7141 38.6005 14.5328H38.6513V16.3435H40.9285V8.82964C40.9285 6.651 39.0986 5.24698 36.2827 5.24698C33.6702 5.24698 31.7387 6.67036 31.6675 8.6263H33.8837C34.0666 7.69674 34.9714 7.08672 36.2116 7.08672C37.7161 7.08672 38.5599 7.75484 38.5599 8.98456V9.81729L35.4898 9.99158C32.6333 10.1562 31.0881 11.2697 31.0881 13.2063C31.0881 15.1622 32.6841 16.4597 34.9714 16.4597ZM35.6321 14.6684C34.3208 14.6684 33.4872 14.0681 33.4872 13.1482C33.4872 12.1993 34.2903 11.6473 35.8253 11.5602L38.5599 11.3956V12.2477C38.5599 13.6614 37.2993 14.6684 35.6321 14.6684ZM43.968 20.4491C46.3671 20.4491 47.4955 19.5776 48.4815 16.9342L52.8019 5.39222H50.3012L47.404 14.3101H47.3531L44.4559 5.39222H41.884L46.0519 16.3823L45.8283 17.0504C45.4522 18.1833 44.8422 18.619 43.7545 18.619C43.5614 18.619 43.1852 18.5996 43.0327 18.5803V20.391C43.1751 20.4297 43.785 20.4491 43.968 20.4491Z" fill="#171717"/>
</svg>
