<svg width="31" height="8" viewBox="0 0 31 8" fill="none" xmlns="http://www.w3.org/2000/svg">
<g clip-path="url(#clip0_1275_398)">
<path d="M14.7818 2.34003H13.6495V7.80468H14.7818V2.34003Z" fill="white" stroke="#E5E5E5" stroke-width="0.0269644"/>
<path d="M8.16977 2.95095C8.5692 3.35815 8.76827 3.88485 8.76827 4.53217V7.80481H7.62517V4.75087C7.62517 4.32626 7.50713 3.98577 7.27113 3.72822C7.03513 3.47068 6.72529 3.34191 6.34041 3.34191C5.83937 3.34191 5.44603 3.50548 5.15916 3.83262C4.87233 4.15979 4.72889 4.63948 4.72889 5.27289V7.80481H3.59667V0.452674L4.72889 0.190491V3.12323C5.18638 2.60118 5.81031 2.34074 6.60185 2.34074C7.24752 2.34016 7.77039 2.54376 8.16977 2.95095Z" fill="white" stroke="#E5E5E5" stroke-width="0.0269644"/>
<path d="M18.8951 7.80468H17.6866L15.3671 2.34003H16.5973L18.296 6.36849L19.9946 2.34003H21.2249L18.8951 7.80468Z" fill="white" stroke="#E5E5E5" stroke-width="0.0269644"/>
<path d="M26.4581 5.33557H22.0816C22.1325 5.80193 22.314 6.17374 22.6257 6.45214C22.9379 6.73058 23.301 6.86978 23.7143 6.86978C24.4617 6.86978 24.9918 6.57051 25.304 5.97245L26.3165 6.18129C26.0986 6.71725 25.7627 7.12212 25.3095 7.39706C24.8556 7.67199 24.3243 7.80948 23.7143 7.80948C22.9597 7.80948 22.3116 7.55542 21.7712 7.04788C21.2308 6.54033 20.9603 5.88601 20.9603 5.08612C20.9603 4.27931 21.2308 3.61977 21.7712 3.10875C22.3122 2.59714 22.9742 2.34192 23.7585 2.34192C24.4913 2.34192 25.1177 2.58728 25.6363 3.07742C26.1555 3.56814 26.429 4.19576 26.4581 4.96087V5.33557ZM22.7128 3.63427C22.3933 3.85702 22.1936 4.16677 22.1137 4.56292H25.2931C25.206 4.15226 25.0245 3.83961 24.7485 3.62383C24.4726 3.40805 24.1422 3.30016 23.7579 3.30016C23.3809 3.30074 23.0323 3.41153 22.7128 3.63427Z" fill="white" stroke="#E5E5E5" stroke-width="0.0269644"/>
<path d="M3.02696 3.28202V2.29594H1.02875V1.12714L0 1.37018V5.35512C0 6.69215 1.13526 7.7803 2.53013 7.7803H3.02696V6.79424H2.53013C1.70229 6.79424 1.02875 6.14864 1.02875 5.35512V3.28202H3.02696Z" fill="white" stroke="#E5E5E5" stroke-width="0.0269644"/>
<path d="M13.0302 2.58408V3.56552C13.02 3.56552 12.8735 3.5632 12.8675 3.5632C12.655 3.5603 12.442 3.56495 12.2296 3.56959C11.9567 3.57539 11.6989 3.59801 11.449 3.71692C10.9418 3.95823 10.6218 4.47099 10.606 5.00928L10.5691 6.26623V7.80512H9.41931V2.33466H10.5691V3.66588C10.9697 2.82828 11.5791 2.58466 12.4862 2.58466H13.0302V2.58408Z" fill="white" stroke="#E5E5E5" stroke-width="0.0269644"/>
<path d="M14.7818 0.256348H13.6495V1.34162H14.7818V0.256348Z" fill="white" stroke="#E5E5E5" stroke-width="0.0269644"/>
<path d="M30.937 7.78057V6.69531H27.4392V7.78057H30.937Z" fill="white" stroke="#E5E5E5" stroke-width="0.0269644"/>
</g>
<defs>
<clipPath id="clip0_1275_398">
<rect width="31" height="8" fill="white"/>
</clipPath>
</defs>
</svg>
