<svg width="44" height="20" viewBox="0 0 44 20" fill="none" xmlns="http://www.w3.org/2000/svg">
<path d="M2.97467 13.9793H2.04005V11.6758H2.97467C3.70252 11.6758 4.19685 12.1897 4.19685 12.8232C4.19685 13.4656 3.70252 13.9793 2.97467 13.9793ZM3.06447 10.5971H0.817871V16.8477H2.04005V15.0581H3.05547C4.42136 15.0581 5.4279 14.065 5.4279 12.8232C5.4279 11.5903 4.42136 10.5971 3.06447 10.5971Z" fill="#9A9A9A"/>
<path d="M8.53752 15.8882C7.63893 15.8882 6.94725 15.2033 6.94725 14.3301C6.94725 13.4653 7.63893 12.7889 8.53752 12.7889C9.4361 12.7889 10.1102 13.4823 10.1102 14.3301C10.1102 15.1949 9.4361 15.8882 8.53752 15.8882ZM10.0474 12.4378C9.66989 12.0097 9.04973 11.7354 8.35805 11.7354C7.02791 11.7354 5.75195 12.686 5.75195 14.3471C5.75195 15.9827 7.07281 16.9502 8.33989 16.9502C9.03185 16.9502 9.66089 16.659 10.0474 16.1967V16.8473H11.2604V11.8383H10.0474V12.4378Z" fill="#9A9A9A"/>
<path d="M14.5059 15.2118L13.0412 11.8383H11.7471L13.9039 16.599L12.7984 19.1592H14.0297L17.1659 11.8383H15.8898L14.5059 15.2118Z" fill="#9A9A9A"/>
<path d="M36.3436 5.56674H36.3099L34.8997 0.977328H32.6221V6.76367H34.1313L34.0465 2.01587H34.0802L35.595 6.76367H37.7799V0.977328H36.2604L36.3436 5.56674Z" fill="#9A9A9A"/>
<path d="M8.73587 1.51845L8.77013 1.51793L9.58819 6.82324H11.2366L10.1056 0.976818H7.37571L6.23828 6.82324H7.89679L8.73587 1.51845Z" fill="#9A9A9A"/>
<path d="M16.6474 0.976818L15.8906 5.44737H15.8556L15.0999 0.976818H12.5972L12.4619 6.82324H13.9977L14.0361 1.56748H14.0699L15.0949 6.82324H16.6519L17.6772 1.568L17.7111 1.56748L17.7494 6.82324H19.2843L19.149 0.976818H16.6474Z" fill="#9A9A9A"/>
<path d="M3.03624 7.05273C4.14651 7.05273 5.05929 6.69199 5.20519 5.71587C5.27984 5.2113 5.22498 4.88073 5.19864 4.7577C4.9396 3.53333 2.61165 3.16817 2.43791 2.48348C2.4087 2.36475 2.4158 2.2416 2.43136 2.17618C2.47476 1.98853 2.6081 1.78358 2.99175 1.78358C3.35124 1.78358 3.56183 1.99477 3.56183 2.31338V2.67556H5.09314V2.2637C5.09314 0.990305 3.89252 0.791207 3.02409 0.791207C1.93362 0.791207 1.04144 1.13557 0.878896 2.08905C0.834404 2.34979 0.828399 2.58322 0.892954 2.87765C1.15909 4.07263 3.33964 4.4179 3.65573 5.17476C3.71578 5.31612 3.69667 5.4974 3.66787 5.60716C3.61792 5.80196 3.47898 6.00067 3.07009 6.00067C2.68644 6.00067 2.45361 5.78896 2.45361 5.47048L2.45211 4.90387H0.806698L0.806152 5.35448C0.806152 6.65883 1.88312 7.05273 3.03624 7.05273Z" fill="#9A9A9A"/>
<path d="M22.3998 2.49846C22.37 2.38168 22.3775 2.25996 22.3921 2.19494C22.4356 2.00923 22.5679 1.80623 22.947 1.80623C23.3039 1.80623 23.5119 2.01456 23.5119 2.3307V2.68859H25.0282V2.28155C25.0282 1.02076 23.8392 0.823874 22.9794 0.823874C21.9005 0.823874 21.0169 1.16394 20.8563 2.10833C20.8119 2.3666 20.8058 2.59769 20.8705 2.88873C21.1331 4.07252 23.2925 4.41415 23.6054 5.1636C23.6641 5.30405 23.6458 5.4826 23.617 5.59184C23.5676 5.7843 23.4303 5.98041 23.0254 5.98041C22.6451 5.98041 22.4144 5.77169 22.4144 5.45568L22.4134 4.89532H20.7841L20.7837 5.34163C20.7837 6.63285 21.8506 7.02246 22.9921 7.02246C24.0912 7.02246 24.9949 6.66562 25.1392 5.69899C25.2129 5.19962 25.159 4.87256 25.1326 4.74993C24.8758 3.53752 22.571 3.17639 22.3998 2.49846Z" fill="#9A9A9A"/>
<path d="M30.9138 0.976452H29.3608V5.30174C29.3613 5.37678 29.3592 5.46196 29.3462 5.52503C29.3158 5.66886 29.1846 5.94872 28.758 5.94872H28.7578C28.3308 5.94872 28.1989 5.66886 28.1692 5.52503C28.1561 5.46196 28.153 5.37678 28.1545 5.30174V0.976452H26.6025V5.16845C26.5995 5.27625 26.6113 5.49616 26.6167 5.55325C26.7243 6.64445 27.6295 6.99805 28.758 6.99805C29.8858 6.99805 30.7911 6.64445 30.8981 5.55325C30.9043 5.49616 30.9159 5.27625 30.9138 5.16845V0.976452Z" fill="#9A9A9A"/>
<path d="M41.567 3.54021V4.39265H42.196V5.24172C42.1971 5.31571 42.1941 5.39751 42.1814 5.46344C42.1537 5.61989 41.9987 5.88791 41.5543 5.88791C41.1106 5.88791 40.9557 5.61989 40.9269 5.46357C40.9152 5.39764 40.9122 5.31584 40.9126 5.24172V2.5689C40.9126 2.47371 40.9198 2.36916 40.9374 2.29217C40.9713 2.14795 41.1026 1.86796 41.5487 1.86796C42.0179 1.86796 42.1345 2.1633 42.1622 2.29217C42.1805 2.37644 42.182 2.51546 42.1814 2.51494V2.84265H43.729V2.64784C43.7279 2.64784 43.7344 2.44913 43.7148 2.26291C43.6017 1.1665 42.649 0.818242 41.561 0.818242C40.4723 0.818242 39.544 1.16988 39.4072 2.26291C39.3945 2.36057 39.3813 2.54394 39.3813 2.64784L39.3809 5.10751C39.3813 5.21766 39.3844 5.29803 39.4022 5.49244C39.5046 6.55751 40.4723 6.9375 41.5605 6.9375C42.6479 6.9375 43.6169 6.55738 43.7183 5.49244C43.7369 5.29803 43.7395 5.21766 43.7406 5.10751V3.54021H41.567Z" fill="#9A9A9A"/>
</svg>
