<svg width="53" height="21" viewBox="0 0 53 21" fill="none" xmlns="http://www.w3.org/2000/svg">
<path d="M24.7581 10.0264V15.7893H22.8071V1.53711H27.8797C29.1153 1.53711 30.2859 1.97087 31.1963 2.77643C32.1068 3.52002 32.562 4.6354 32.562 5.81276C32.562 6.99011 32.1068 8.04353 31.1963 8.84908C30.2859 9.65464 29.1803 10.0884 27.8797 10.0884L24.7581 10.0264ZM24.7581 3.27215V8.22942H28.0097C28.7251 8.22942 29.4404 7.98156 29.8957 7.48583C30.9362 6.55635 30.9362 5.0072 29.9607 4.07771L29.8957 4.01574C29.3754 3.52002 28.7251 3.21019 28.0097 3.27215H24.7581Z" fill="#171717"/>
<path d="M37.0492 5.75098C38.48 5.75098 39.5855 6.12277 40.4309 6.86636C41.2764 7.60995 41.6665 8.60141 41.6665 9.84072V15.7894H39.8456V14.4262H39.7806C39.0002 15.5416 37.8947 16.0993 36.594 16.0993C35.4885 16.0993 34.513 15.7894 33.7326 15.1698C33.0172 14.5501 32.562 13.6826 32.562 12.7531C32.562 11.7617 32.9522 10.9561 33.7326 10.3365C34.513 9.71679 35.6185 9.46893 36.9192 9.46893C38.0898 9.46893 39.0002 9.65483 39.7156 10.0886V9.65483C39.7156 9.03517 39.4554 8.41551 38.9352 8.04371C38.4149 7.60995 37.7646 7.36209 37.0492 7.36209C35.9437 7.36209 35.0983 7.79585 34.513 8.66337L32.8221 7.67192C33.8627 6.37064 35.2283 5.75098 37.0492 5.75098ZM34.578 12.8151C34.578 13.3108 34.8381 13.7446 35.2283 13.9924C35.6836 14.3023 36.2038 14.4882 36.7241 14.4882C37.5045 14.4882 38.2849 14.1783 38.8702 13.6206C39.5205 13.063 39.8456 12.3813 39.8456 11.6377C39.2603 11.204 38.4149 10.9561 37.3094 10.9561C36.529 10.9561 35.8787 11.142 35.3584 11.5138C34.8381 11.8236 34.578 12.2574 34.578 12.8151Z" fill="#171717"/>
<path d="M52.2018 6.06055L45.7636 20.1268H43.8126L46.2188 15.2315L41.9917 6.12251H44.0727L47.1293 13.1247H47.1943L50.1858 6.12251H52.2018V6.06055Z" fill="#171717"/>
<path d="M17.0194 8.78734C17.0194 8.22964 16.9543 7.67195 16.8893 7.11426H8.76025V10.2745H13.3776C13.1825 11.266 12.5972 12.1955 11.6867 12.7532V14.798H14.4831C16.1089 13.3728 17.0194 11.266 17.0194 8.78734Z" fill="#171717"/>
<path d="M8.75976 16.7807C11.1009 16.7807 13.0519 16.0371 14.4826 14.7978L11.6862 12.753C10.9058 13.2487 9.93034 13.5585 8.75976 13.5585C6.54866 13.5585 4.59769 12.1333 3.94736 10.1504H1.08594V12.2572C2.58168 15.0457 5.50814 16.7807 8.75976 16.7807Z" fill="#171717"/>
<path d="M3.94781 10.1499C3.55761 9.15846 3.55761 8.04307 3.94781 6.98965V4.88281H1.08638C-0.149236 7.17555 -0.149236 9.90205 1.08638 12.2568L3.94781 10.1499Z" fill="#171717"/>
<path d="M8.76016 3.64353C9.99577 3.64353 11.1664 4.07729 12.0768 4.88285L14.548 2.52814C12.9873 1.16489 10.9062 0.359337 8.82519 0.421303C5.57357 0.421303 2.58208 2.15635 1.15137 4.94481L4.01279 7.05165C4.59808 5.06874 6.54906 3.64353 8.76016 3.64353Z" fill="#171717"/>
</svg>
