<svg width="31" height="8" viewBox="0 0 31 8" fill="none" xmlns="http://www.w3.org/2000/svg">
<path d="M13.7498 7.68879V2.18731H14.8208V7.68879H13.7498Z" fill="white" stroke="#E5E5E5" stroke-width="0.0269644"/>
<path d="M4.00079 0.275857L5.07176 0.0171271V2.96697V3.00398L5.09557 2.97564C5.53633 2.45092 6.13737 2.18883 6.90146 2.18883H6.90147C7.52433 2.18825 8.02763 2.39299 8.41209 2.80192C8.79667 3.21097 8.9888 3.74031 8.9888 4.39236V7.68972H7.90726V4.61359C7.90726 4.18157 7.79211 3.83368 7.56061 3.57013C7.32899 3.30643 7.02472 3.17472 6.64795 3.17472C6.15863 3.17472 5.77321 3.34157 5.49216 3.67598C5.21118 4.01031 5.07176 4.49923 5.07176 5.14173V7.68972H4.00079V0.275857Z" fill="white" stroke="#E5E5E5" stroke-width="0.0269644"/>
<path d="M18.2541 6.25436L19.8979 2.18731H21.0617L18.8135 7.68879H17.6597L15.4214 2.18731H16.5853L18.2291 6.25436L18.2416 6.28528L18.2541 6.25436Z" fill="white" stroke="#E5E5E5" stroke-width="0.0269644"/>
<path d="M25.3596 2.91987L25.3501 2.92947C25.8508 3.42321 26.1149 4.05469 26.143 4.82552V5.19089H21.9126H21.8976L21.8992 5.20577C21.9487 5.68031 22.126 6.05965 22.4309 6.34386L22.4309 6.34387C22.7362 6.62779 23.0915 6.76999 23.4958 6.76999C23.8601 6.76999 24.1722 6.69388 24.4317 6.5411C24.6885 6.38985 24.8928 6.16393 25.0448 5.86407L26.0008 6.06979C25.7903 6.60234 25.4683 7.00462 25.0355 7.27854C24.5978 7.55515 24.0851 7.69368 23.4958 7.69368C22.7676 7.69368 22.1425 7.43804 21.621 6.92703C21.0998 6.41637 20.8387 5.75805 20.8387 4.95203C20.8387 4.13894 21.0998 3.47533 21.621 2.96116C22.143 2.44616 22.7816 2.18926 23.5387 2.18926C24.2458 2.18926 24.8497 2.43611 25.3501 2.92947L25.3596 2.91987ZM25.3596 2.91987C24.8567 2.424 24.2493 2.17578 23.5387 2.17578C22.7781 2.17578 22.1362 2.43398 21.6115 2.95156C21.0875 3.46855 20.8252 4.13576 20.8252 4.95203C20.8252 5.76126 21.0875 6.42319 21.6115 6.93666C22.1356 7.45013 22.7641 7.70716 23.4958 7.70716C24.0873 7.70716 24.6026 7.56808 25.0427 7.28993L26.1565 4.82528C26.1283 4.05126 25.8631 3.41632 25.3596 2.91987ZM21.9304 4.42016L21.9273 4.4362H21.9437H25.0268H25.0433L25.04 4.42003C24.9551 4.00222 24.7777 3.68289 24.5072 3.46221C24.237 3.24179 23.9135 3.13173 23.5381 3.13173L23.538 3.13173C23.1695 3.13232 22.8287 3.24538 22.5167 3.47232C22.2039 3.69981 22.0085 4.01626 21.9304 4.42016Z" fill="white" stroke="#E5E5E5" stroke-width="0.0269644"/>
<path d="M1.48411 2.12971V2.14319H1.4976H3.4218V3.11383H1.4976H1.48411V3.12731V5.22461C1.48411 6.03482 2.14328 6.69399 2.9535 6.69399H3.4218V7.66463H2.9535C1.60832 7.66463 0.513482 6.56978 0.513482 5.22461V1.20371L1.48411 0.964474V2.12971Z" fill="white" stroke="#E5E5E5" stroke-width="0.0269644"/>
<path d="M12.9775 3.41281V3.39933L12.9777 3.39933L13.0551 3.4005L13.1219 3.40148V2.43632H12.6078C12.1691 2.43632 11.804 2.49782 11.5006 2.66382C11.1974 2.82968 10.9543 3.10063 10.761 3.5223L10.7353 3.51668V2.1834H9.64727V7.69075H10.7353V6.1474V6.14702L10.7487 6.1474L10.7353 6.14701L10.7353 6.14696L10.7353 6.14679L10.7353 6.1461L10.7354 6.14337L10.7357 6.13275L10.7368 6.0924L10.7409 5.94841L10.7532 5.51142L10.7655 5.07432C10.7669 5.02342 10.7681 4.97984 10.7691 4.94659C10.7703 4.90176 10.7711 4.87569 10.7711 4.87576V4.87538H10.7711C10.7865 4.32616 11.0995 3.80272 11.596 3.55624C11.8411 3.43457 12.0936 3.41167 12.3587 3.40579M12.9775 3.41281C12.7715 3.40988 12.565 3.41457 12.359 3.41927M12.9775 3.41281C12.98 3.41281 13.0082 3.41325 13.0402 3.41375C13.0702 3.41422 13.1035 3.41475 13.1219 3.415L12.9775 3.41281ZM12.359 3.41927L12.3587 3.40579M12.359 3.41927L12.3587 3.40579C12.3587 3.40579 12.3587 3.40579 12.3587 3.40579M12.359 3.41927L12.3587 3.40579" fill="white" stroke="#E5E5E5" stroke-width="0.0269644"/>
<rect x="13.7475" y="0.0776255" width="1.0755" height="1.0755" fill="white" stroke="#E5E5E5" stroke-width="0.0224385"/>
<path d="M27.1216 6.59356L30.4865 6.59356L30.4865 7.66454L27.1216 7.66454L27.1216 6.59356Z" fill="white" stroke="#E5E5E5" stroke-width="0.0269644"/>
</svg>
