<svg width="73" height="30" viewBox="0 0 73 30" fill="none" xmlns="http://www.w3.org/2000/svg">
<path d="M52.8413 23.6011C51.316 23.6011 49.992 23.2659 48.8692 22.5955C47.7464 21.9251 46.8778 20.9736 46.2635 19.7409C45.6491 18.5082 45.342 17.0593 45.342 15.3941C45.342 13.729 45.6491 12.2909 46.2635 11.0798C46.8778 9.84716 47.7464 8.89563 48.8692 8.22523C49.992 7.55484 51.316 7.21964 52.8413 7.21964C54.3666 7.21964 55.6906 7.55484 56.8134 8.22523C57.9362 8.89563 58.8048 9.84716 59.4191 11.0798C60.0335 12.2909 60.3406 13.729 60.3406 15.3941C60.3406 17.0593 60.0335 18.5082 59.4191 19.7409C58.8048 20.9736 57.9362 21.9251 56.8134 22.5955C55.6906 23.2659 54.3666 23.6011 52.8413 23.6011ZM52.8413 21.2655C54.2395 21.2655 55.3517 20.7681 56.1779 19.7733C57.0041 18.7569 57.4172 17.2972 57.4172 15.3941C57.4172 13.4911 57.0041 12.0422 56.1779 11.0474C55.3517 10.0526 54.2395 9.55521 52.8413 9.55521C51.4643 9.55521 50.3521 10.0526 49.5047 11.0474C48.6785 12.0422 48.2654 13.4911 48.2654 15.3941C48.2654 17.2972 48.6785 18.7569 49.5047 19.7733C50.3521 20.7681 51.4643 21.2655 52.8413 21.2655Z" fill="#171717"/>
<path d="M34.4792 29.44C33.1023 29.44 31.8206 29.267 30.6342 28.921C29.4479 28.575 28.3887 28.0451 27.4566 27.3315L28.3781 25.1906C29.0136 25.6231 29.6386 25.9799 30.2529 26.261C30.8885 26.5638 31.5346 26.78 32.1913 26.9098C32.8692 27.0396 33.5683 27.1044 34.2886 27.1044C35.7927 27.1044 36.9155 26.7043 37.6569 25.9042C38.4196 25.1257 38.8009 23.9795 38.8009 22.4657V18.9624H39.0869C38.7903 20.1734 38.123 21.1357 37.085 21.8494C36.0681 22.563 34.8818 22.9199 33.5259 22.9199C32.1278 22.9199 30.9096 22.5955 29.8716 21.9467C28.8336 21.2763 28.0285 20.3572 27.4566 19.1894C26.8846 18 26.5986 16.6268 26.5986 15.0698C26.5986 13.4911 26.8846 12.1178 27.4566 10.9501C28.0285 9.76065 28.8336 8.84156 29.8716 8.19279C30.9096 7.54402 32.1278 7.21964 33.5259 7.21964C34.9029 7.21964 36.0999 7.57646 37.1167 8.29011C38.1336 9.00376 38.7903 9.9661 39.0869 11.1771H38.8009V7.51159H41.629V22.0765C41.629 23.6984 41.3536 25.0608 40.8028 26.1637C40.2732 27.2666 39.4788 28.0884 38.4196 28.629C37.3603 29.1697 36.0469 29.44 34.4792 29.44ZM34.1615 20.5843C35.5808 20.5843 36.7036 20.0869 37.5298 19.0921C38.356 18.0973 38.7691 16.7566 38.7691 15.0698C38.7691 13.3613 38.356 12.0205 37.5298 11.0474C36.7036 10.0526 35.5808 9.55521 34.1615 9.55521C32.7421 9.55521 31.6087 10.0526 30.7614 11.0474C29.9352 12.0205 29.5221 13.3613 29.5221 15.0698C29.5221 16.7566 29.9352 18.0973 30.7614 19.0921C31.6087 20.0869 32.7421 20.5843 34.1615 20.5843Z" fill="#171717"/>
<path d="M16.3165 23.6011C14.7912 23.6011 13.4672 23.2659 12.3444 22.5955C11.2216 21.9251 10.3531 20.9736 9.73873 19.7409C9.12438 18.5082 8.8172 17.0593 8.8172 15.3941C8.8172 13.729 9.12438 12.2909 9.73873 11.0798C10.3531 9.84716 11.2216 8.89563 12.3444 8.22523C13.4672 7.55484 14.7912 7.21964 16.3165 7.21964C17.8418 7.21964 19.1659 7.55484 20.2886 8.22523C21.4114 8.89563 22.28 9.84716 22.8943 11.0798C23.5087 12.2909 23.8159 13.729 23.8159 15.3941C23.8159 17.0593 23.5087 18.5082 22.8943 19.7409C22.28 20.9736 21.4114 21.9251 20.2886 22.5955C19.1659 23.2659 17.8418 23.6011 16.3165 23.6011ZM16.3165 21.2655C17.7147 21.2655 18.8269 20.7681 19.6531 19.7733C20.4793 18.7569 20.8924 17.2972 20.8924 15.3941C20.8924 13.4911 20.4793 12.0422 19.6531 11.0474C18.8269 10.0526 17.7147 9.55521 16.3165 9.55521C14.9395 9.55521 13.8274 10.0526 12.98 11.0474C12.1538 12.0422 11.7407 13.4911 11.7407 15.3941C11.7407 17.2972 12.1538 18.7569 12.98 19.7733C13.8274 20.7681 14.9395 21.2655 16.3165 21.2655Z" fill="#171717"/>
<path d="M5.26141 23.6011C3.60901 23.6011 2.36972 23.1253 1.54352 22.1738C0.738505 21.2006 0.335999 19.8058 0.335999 17.9892V0.439999H3.22769V17.7621C3.22769 18.4974 3.32302 19.1246 3.51368 19.6436C3.72553 20.141 4.02211 20.5086 4.40344 20.7465C4.80594 20.9844 5.30378 21.1033 5.89695 21.1033C6.12998 21.1033 6.36301 21.0925 6.59604 21.0709C6.85025 21.0492 7.08328 21.006 7.29513 20.9411L7.23158 23.3416C6.89262 23.4281 6.55367 23.4929 6.21472 23.5362C5.89695 23.5794 5.57918 23.6011 5.26141 23.6011Z" fill="#171717"/>
<path d="M72.336 23.7252V20.8374H63.5963V23.7252H72.336Z" fill="#171717"/>
</svg>
