<svg width="65" height="28" viewBox="0 0 65 28" fill="none" xmlns="http://www.w3.org/2000/svg">
<path d="M50.6495 0.683594C43.2083 0.683594 37.1786 6.7133 37.1786 14.1545C37.1786 21.5957 43.2083 27.6254 50.6495 27.6254C58.0907 27.6254 64.1204 21.5957 64.1204 14.1545C64.1204 6.7133 58.0907 0.683594 50.6495 0.683594ZM50.5855 25.1095C44.5686 25.1095 39.6945 20.2311 39.6945 14.2185C39.6945 8.20154 44.5729 3.32319 50.5855 3.32319C56.6024 3.32319 61.4808 8.20154 61.4808 14.2185C61.4765 20.2354 56.6024 25.1095 50.5855 25.1095Z" fill="white"/>
<path d="M54.4224 16.4314C53.6591 17.651 52.2988 18.4612 50.7466 18.4612C48.3586 18.4612 46.4184 16.5338 46.4184 14.1585C46.4184 11.7833 48.3544 9.85587 50.7466 9.85587C52.3074 9.85587 53.6762 10.6789 54.4395 11.9113L56.5631 10.2269C55.2796 8.39749 53.1304 7.19922 50.6912 7.19922C46.7595 7.19922 43.5698 10.3164 43.5698 14.1628C43.5698 18.0092 46.7553 21.1264 50.6912 21.1264C53.2284 21.1264 55.4544 19.8301 56.7166 17.877L54.4224 16.4314Z" fill="white"/>
<path d="M11.7326 16.4314C10.9693 17.651 9.60901 18.4612 8.05681 18.4612C5.66881 18.4612 3.72855 16.5338 3.72855 14.1585C3.72855 11.7833 5.66454 9.85587 8.05681 9.85587C9.61754 9.85587 10.9864 10.6789 11.7497 11.9113L13.8733 10.2269C12.5898 8.39749 10.4406 7.19922 8.00138 7.19922C4.0697 7.19922 0.880005 10.3164 0.880005 14.1628C0.880005 18.0092 4.06543 21.1264 8.00138 21.1264C10.5386 21.1264 12.7646 19.8301 14.0268 17.877L11.7326 16.4314Z" fill="white"/>
<path d="M29.1055 6.92969H26.7644V20.8569H29.1055V6.92969Z" fill="white"/>
<path d="M34.3125 6.92969H31.9714V20.8569H34.3125V6.92969Z" fill="white"/>
<path d="M24.8118 16.6897C24.8118 16.6471 24.8118 16.6045 24.8118 16.5576C24.8118 13.9691 22.7137 11.8711 20.1253 11.8711C17.5369 11.8711 15.4388 13.9691 15.4388 16.5576C15.4388 19.146 17.5369 21.244 20.1253 21.244C21.9163 21.244 23.4728 20.2376 24.2617 18.7622L22.1807 17.7686C21.7671 18.485 21.0293 18.9626 20.1935 18.9626C18.9014 18.9626 17.8524 17.8283 17.8524 16.4254C17.8524 15.0224 18.9014 13.8881 20.1935 13.8881C21.4856 13.8881 22.5346 15.0224 22.5346 16.4254C22.5346 16.5149 22.5304 16.6002 22.5218 16.6855H24.8118V16.6897Z" fill="white"/>
<path d="M24.8149 17.0835H17.395V15.3906H23.122C24.0558 15.3906 24.8149 16.1497 24.8149 17.0835Z" fill="white"/>
</svg>
