<svg width="34" height="26" viewBox="0 0 34 26" fill="none" xmlns="http://www.w3.org/2000/svg">
<path d="M5.30944 25.8968V24.2805C5.30944 23.661 4.88223 23.2569 4.14986 23.2569C3.78368 23.2569 3.38699 23.3646 3.11235 23.7148C2.89874 23.4185 2.59359 23.2569 2.13587 23.2569C1.83071 23.2569 1.52556 23.3377 1.28144 23.634V23.3108H0.640625V25.8968H1.28144V24.4691C1.28144 24.0112 1.55608 23.7957 1.98329 23.7957C2.4105 23.7957 2.62411 24.0381 2.62411 24.4691V25.8968H3.26493V24.4691C3.26493 24.0112 3.57008 23.7957 3.96677 23.7957C4.39399 23.7957 4.60759 24.0381 4.60759 24.4691V25.8968H5.30944ZM14.7996 23.3108H13.7621V22.5296H13.1213V23.3108H12.5415V23.8226H13.1213V25.0079C13.1213 25.6005 13.3959 25.9507 14.1283 25.9507C14.4029 25.9507 14.7081 25.8699 14.9217 25.7621L14.7386 25.2773C14.5555 25.385 14.3419 25.4119 14.1893 25.4119C13.8842 25.4119 13.7621 25.2503 13.7621 24.9809V23.8226H14.7996V23.3108ZM20.2313 23.2569C19.8652 23.2569 19.621 23.4185 19.4685 23.634V23.3108H18.8276V25.8968H19.4685V24.4422C19.4685 24.0112 19.6821 23.7687 20.0788 23.7687C20.2008 23.7687 20.3534 23.7957 20.4755 23.8226L20.6586 23.2838C20.5365 23.2569 20.3534 23.2569 20.2313 23.2569ZM12.0228 23.5263C11.7176 23.3377 11.2904 23.2569 10.8327 23.2569C10.1003 23.2569 9.61207 23.5801 9.61207 24.092C9.61207 24.523 9.97825 24.7654 10.6191 24.8462L10.9242 24.8732C11.2599 24.9271 11.443 25.0079 11.443 25.1426C11.443 25.3311 11.1989 25.4658 10.7716 25.4658C10.3444 25.4658 10.0088 25.3311 9.79516 25.1964L9.49001 25.6275C9.82568 25.843 10.2834 25.9507 10.7411 25.9507C11.5956 25.9507 12.0838 25.6005 12.0838 25.1156C12.0838 24.6577 11.6871 24.4152 11.0768 24.3344L10.7716 24.3075C10.497 24.2805 10.2834 24.2267 10.2834 24.065C10.2834 23.8765 10.497 23.7687 10.8327 23.7687C11.1989 23.7687 11.565 23.9034 11.7481 23.9842L12.0228 23.5263ZM29.0502 23.2569C28.684 23.2569 28.4399 23.4185 28.2873 23.634V23.3108H27.6465V25.8968H28.2873V24.4422C28.2873 24.0112 28.5009 23.7687 28.8976 23.7687C29.0197 23.7687 29.1723 23.7957 29.2943 23.8226L29.4774 23.2838C29.3554 23.2569 29.1723 23.2569 29.0502 23.2569ZM20.8722 24.6038C20.8722 25.385 21.4825 25.9507 22.4284 25.9507C22.8556 25.9507 23.1608 25.8699 23.4659 25.6544L23.1608 25.1964C22.9167 25.3581 22.6725 25.4389 22.3979 25.4389C21.8792 25.4389 21.513 25.1156 21.513 24.6038C21.513 24.1189 21.8792 23.7957 22.3979 23.7687C22.6725 23.7687 22.9167 23.8495 23.1608 24.0112L23.4659 23.5532C23.1608 23.3377 22.8556 23.2569 22.4284 23.2569C21.4825 23.2569 20.8722 23.8226 20.8722 24.6038ZM26.7921 24.6038V23.3108H26.1513V23.634C25.9377 23.3916 25.6325 23.2569 25.2358 23.2569C24.4119 23.2569 23.7711 23.8226 23.7711 24.6038C23.7711 25.385 24.4119 25.9507 25.2358 25.9507C25.663 25.9507 25.9682 25.816 26.1513 25.5736V25.8968H26.7921V24.6038ZM24.4424 24.6038C24.4424 24.1458 24.7781 23.7687 25.3274 23.7687C25.8461 23.7687 26.2123 24.1189 26.2123 24.6038C26.2123 25.0618 25.8461 25.4389 25.3274 25.4389C24.7781 25.4119 24.4424 25.0618 24.4424 24.6038ZM16.7831 23.2569C15.9287 23.2569 15.3184 23.7957 15.3184 24.6038C15.3184 25.4119 15.9287 25.9507 16.8136 25.9507C17.2409 25.9507 17.6681 25.843 18.0037 25.6005L17.6986 25.1964C17.4545 25.3581 17.1493 25.4658 16.8442 25.4658C16.4475 25.4658 16.0508 25.3042 15.9592 24.8462H18.1258V24.6307C18.1563 23.7957 17.607 23.2569 16.7831 23.2569ZM16.7831 23.7418C17.1798 23.7418 17.4545 23.9573 17.5155 24.3614H15.9897C16.0508 24.0112 16.3254 23.7418 16.7831 23.7418ZM32.6815 24.6038V22.2871H32.0407V23.634C31.8271 23.3916 31.5219 23.2569 31.1252 23.2569C30.3013 23.2569 29.6605 23.8226 29.6605 24.6038C29.6605 25.385 30.3013 25.9507 31.1252 25.9507C31.5525 25.9507 31.8576 25.816 32.0407 25.5736V25.8968H32.6815V24.6038ZM30.3318 24.6038C30.3318 24.1458 30.6675 23.7687 31.2168 23.7687C31.7355 23.7687 32.1017 24.1189 32.1017 24.6038C32.1017 25.0618 31.7355 25.4389 31.2168 25.4389C30.6675 25.4119 30.3318 25.0618 30.3318 24.6038ZM8.91022 24.6038V23.3108H8.26941V23.634C8.0558 23.3916 7.75065 23.2569 7.35395 23.2569C6.53005 23.2569 5.88923 23.8226 5.88923 24.6038C5.88923 25.385 6.53005 25.9507 7.35395 25.9507C7.78117 25.9507 8.08632 25.816 8.26941 25.5736V25.8968H8.91022V24.6038ZM6.53005 24.6038C6.53005 24.1458 6.86571 23.7687 7.41498 23.7687C7.93374 23.7687 8.29992 24.1189 8.29992 24.6038C8.29992 25.0618 7.93374 25.4389 7.41498 25.4389C6.86571 25.4119 6.53005 25.0618 6.53005 24.6038Z" fill="#9A9A9A"/>
<ellipse cx="10.4133" cy="9.92226" rx="10.4133" ry="9.92226" fill="#9A9A9A"/>
<path d="M10.4131 0.412109C15.9552 0.412109 20.4138 4.6885 20.4141 9.92188C20.4141 15.1554 15.9554 19.4316 10.4131 19.4316C4.87089 19.4315 0.412109 15.1554 0.412109 9.92188C0.412329 4.68857 4.87103 0.412213 10.4131 0.412109Z" stroke="#171717" stroke-opacity="0.9" stroke-width="0.825"/>
<ellipse cx="23.2297" cy="9.92226" rx="10.4133" ry="9.92226" fill="#9A9A9A"/>
<path d="M23.2295 0.412109C28.7716 0.412109 33.2302 4.6885 33.2305 9.92188C33.2305 15.1554 28.7718 19.4316 23.2295 19.4316C17.6873 19.4315 13.2285 15.1554 13.2285 9.92188C13.2287 4.68857 17.6874 0.412213 23.2295 0.412109Z" stroke="#171717" stroke-opacity="0.9" stroke-width="0.825"/>
<path d="M10.4131 0.412109C15.9552 0.412109 20.4138 4.6885 20.4141 9.92188C20.4141 15.1554 15.9554 19.4316 10.4131 19.4316C4.87089 19.4315 0.412109 15.1554 0.412109 9.92188C0.412329 4.68857 4.87103 0.412213 10.4131 0.412109Z" stroke="#171717" stroke-opacity="0.9" stroke-width="0.825"/>
</svg>
