<svg width="44" height="18" viewBox="0 0 44 18" fill="none" xmlns="http://www.w3.org/2000/svg">
<path d="M21.1652 8.77225V13.5266H19.5557V1.76855H23.7405C24.7599 1.76855 25.7256 2.12641 26.4767 2.79099C27.2279 3.40445 27.6034 4.32465 27.6034 5.29596C27.6034 6.26728 27.2279 7.13635 26.4767 7.80093C25.7256 8.46552 24.8135 8.82337 23.7405 8.82337L21.1652 8.77225ZM21.1652 3.19997V7.28971H23.8478C24.438 7.28971 25.0281 7.08523 25.4037 6.67625C26.2621 5.90943 26.2621 4.63138 25.4574 3.86455L25.4037 3.81343C24.9745 3.40445 24.438 3.14884 23.8478 3.19997H21.1652Z" fill="#9A9A9A"/>
<path d="M31.3055 5.24512C32.4858 5.24512 33.3979 5.55185 34.0954 6.16531C34.7928 6.77877 35.1148 7.59672 35.1148 8.61916V13.5269H33.6125V12.4022H33.5589C32.915 13.3224 32.003 13.7825 30.9299 13.7825C30.0178 13.7825 29.2131 13.5269 28.5692 13.0156C27.9791 12.5044 27.6035 11.7887 27.6035 11.0219C27.6035 10.2039 27.9254 9.53935 28.5692 9.02813C29.2131 8.51692 30.1251 8.31243 31.1982 8.31243C32.1639 8.31243 32.915 8.46579 33.5052 8.82365V8.46579C33.5052 7.95458 33.2906 7.44336 32.8614 7.13663C32.4322 6.77877 31.8957 6.57429 31.3055 6.57429C30.3934 6.57429 29.6959 6.93214 29.2131 7.64784L27.8181 6.82989C28.6766 5.75634 29.8032 5.24512 31.3055 5.24512ZM29.2667 11.073C29.2667 11.482 29.4813 11.8398 29.8032 12.0443C30.1788 12.2999 30.608 12.4533 31.0372 12.4533C31.681 12.4533 32.3249 12.1977 32.8077 11.7376C33.3443 11.2775 33.6125 10.7152 33.6125 10.1017C33.1296 9.74384 32.4322 9.53935 31.5201 9.53935C30.8763 9.53935 30.3398 9.69272 29.9105 9.99945C29.4813 10.2551 29.2667 10.6129 29.2667 11.073Z" fill="#9A9A9A"/>
<path d="M43.8061 5.50098L38.4946 17.1056H36.8851L38.8702 13.067L35.3828 5.5521H37.0997L39.6213 11.3289H39.675L42.1429 5.5521H43.8061V5.50098Z" fill="#9A9A9A"/>
<path d="M14.7806 7.75041C14.7806 7.29031 14.7269 6.83021 14.6733 6.37012H7.9668V8.97733H11.7761C11.6151 9.79528 11.1322 10.5621 10.3811 11.0222V12.7092H12.6881C14.0294 11.5334 14.7806 9.79528 14.7806 7.75041Z" fill="#9A9A9A"/>
<path d="M7.96665 14.345C9.89811 14.345 11.5077 13.7316 12.688 12.7091L10.381 11.0221C9.73715 11.4311 8.93238 11.6867 7.96665 11.6867C6.14249 11.6867 4.53294 10.5109 3.99642 8.875H1.63574V10.6131C2.86973 12.9136 5.28406 14.345 7.96665 14.345Z" fill="#9A9A9A"/>
<path d="M3.9968 8.87465C3.67489 8.0567 3.67489 7.13651 3.9968 6.26744V4.5293H1.63612C0.616736 6.42081 0.616736 8.67017 1.63612 10.6128L3.9968 8.87465Z" fill="#9A9A9A"/>
<path d="M7.9667 3.50679C8.98609 3.50679 9.95182 3.86464 10.7029 4.52923L12.7417 2.5866C11.4541 1.46192 9.73721 0.797332 8.02036 0.848454C5.33777 0.848454 2.86979 2.27987 1.68945 4.58035L4.05013 6.31849C4.53299 4.68259 6.14255 3.50679 7.9667 3.50679Z" fill="#9A9A9A"/>
</svg>
