<svg width="53" height="23" viewBox="0 0 53 23" fill="none" xmlns="http://www.w3.org/2000/svg">
<path d="M3.18706 16.1267H2.05419V13.3346H3.18706C4.0693 13.3346 4.66849 13.9575 4.66849 14.7253C4.66849 15.504 4.0693 16.1267 3.18706 16.1267ZM3.29591 12.027H0.572754V19.6035H2.05419V17.4344H3.28499C4.94062 17.4344 6.16067 16.2305 6.16067 14.7253C6.16067 13.231 4.94062 12.027 3.29591 12.027Z" fill="#171717"/>
<path d="M9.93015 18.4403C8.84096 18.4403 8.00255 17.6101 8.00255 16.5516C8.00255 15.5034 8.84096 14.6835 9.93015 14.6835C11.0193 14.6835 11.8364 15.524 11.8364 16.5516C11.8364 17.5998 11.0193 18.4403 9.93015 18.4403ZM11.7603 14.2579C11.3027 13.739 10.551 13.4066 9.71261 13.4066C8.10032 13.4066 6.55371 14.5588 6.55371 16.5723C6.55371 18.5548 8.15475 19.7275 9.69061 19.7275C10.5293 19.7275 11.2918 19.3746 11.7603 18.8142V19.6029H13.2307V13.5313H11.7603V14.2579Z" fill="#171717"/>
<path d="M17.1643 17.6206L15.3889 13.5315H13.8203L16.4346 19.302L15.0946 22.4053H16.5871L20.3886 13.5315H18.8418L17.1643 17.6206Z" fill="#171717"/>
<path d="M43.6345 5.92906H43.5936L41.8842 0.366132H39.1235V7.37988H40.9529L40.8501 1.62497H40.891L42.7271 7.37988H45.3755V0.366132H43.5336L43.6345 5.92906Z" fill="#171717"/>
<path d="M10.1704 1.02308L10.212 1.02245L11.2036 7.45312H13.2016L11.8307 0.36655H8.52177L7.14307 7.45312H9.15338L10.1704 1.02308Z" fill="#171717"/>
<path d="M19.7603 0.36655L18.843 5.7854H18.8006L17.8846 0.36655H14.851L14.687 7.45312H16.5486L16.5951 1.08251H16.6361L17.8785 7.45312H19.7657L21.0086 1.08314L21.0496 1.08251L21.0961 7.45312H22.9566L22.7926 0.36655H19.7603Z" fill="#171717"/>
<path d="M3.26222 7.73047C4.608 7.73047 5.7144 7.2932 5.89125 6.11003C5.98174 5.49843 5.91523 5.09773 5.8833 4.94861C5.56932 3.46453 2.74757 3.0219 2.53697 2.19198C2.50157 2.04806 2.51017 1.89879 2.52903 1.8195C2.58164 1.59204 2.74326 1.34361 3.20829 1.34361C3.64403 1.34361 3.89929 1.5996 3.89929 1.9858V2.4248H5.75543V1.92558C5.75543 0.38207 4.30013 0.140739 3.2475 0.140739C1.92571 0.140739 0.844285 0.558143 0.647257 1.71389C0.593326 2.02993 0.586047 2.31288 0.664296 2.66976C0.986886 4.11822 3.62997 4.53673 4.01311 5.45413C4.0859 5.62548 4.06274 5.84521 4.02783 5.97825C3.96729 6.21438 3.79888 6.45524 3.30325 6.45524C2.83822 6.45524 2.556 6.19862 2.556 5.81258L2.55418 5.12579H0.559744L0.559082 5.67198C0.559082 7.25301 1.8645 7.73047 3.26222 7.73047Z" fill="#171717"/>
<path d="M26.7328 2.20972C26.6967 2.06817 26.7058 1.92063 26.7235 1.84181C26.7763 1.61672 26.9366 1.37066 27.3962 1.37066C27.8288 1.37066 28.0809 1.62318 28.0809 2.00638V2.44018H29.9188V1.9468C29.9188 0.418573 28.4776 0.179921 27.4354 0.179921C26.1276 0.179921 25.0566 0.592124 24.8619 1.73683C24.8082 2.04989 24.8007 2.33 24.8791 2.68277C25.1974 4.11768 27.8149 4.53177 28.1942 5.44019C28.2653 5.61044 28.2432 5.82686 28.2083 5.95927C28.1484 6.19256 27.982 6.43027 27.4911 6.43027C27.0302 6.43027 26.7505 6.17727 26.7505 5.79423L26.7493 5.115H24.7744L24.7739 5.65599C24.7739 7.2211 26.0671 7.69336 27.4508 7.69336C28.783 7.69336 29.8785 7.26082 30.0533 6.08916C30.1426 5.48386 30.0773 5.08742 30.0454 4.93877C29.734 3.46919 26.9404 3.03145 26.7328 2.20972Z" fill="#171717"/>
<path d="M37.0525 0.36516H35.1701V5.60794C35.1708 5.69889 35.1681 5.80214 35.1524 5.87859C35.1155 6.05293 34.9565 6.39215 34.4394 6.39215H34.4392C33.9216 6.39215 33.7618 6.05293 33.7257 5.87859C33.7099 5.80214 33.7061 5.69889 33.7079 5.60794V0.36516H31.8268V5.44637C31.8231 5.57704 31.8373 5.84359 31.844 5.91279C31.9743 7.23547 33.0716 7.66406 34.4394 7.66406C35.8065 7.66406 36.9038 7.23547 37.0335 5.91279C37.041 5.84359 37.055 5.57704 37.0525 5.44637V0.36516Z" fill="#171717"/>
<path d="M49.9658 3.47289V4.50616H50.7283V5.53532C50.7296 5.62502 50.7259 5.72416 50.7106 5.80408C50.677 5.99371 50.489 6.31859 49.9504 6.31859C49.4126 6.31859 49.2248 5.99371 49.1899 5.80424C49.1757 5.72432 49.1721 5.62517 49.1725 5.53532V2.29555C49.1725 2.18017 49.1813 2.05343 49.2027 1.96012C49.2437 1.7853 49.4028 1.44593 49.9436 1.44593C50.5124 1.44593 50.6536 1.80391 50.6872 1.96012C50.7094 2.06226 50.7112 2.23077 50.7106 2.23014V2.62736H52.5864V2.39123C52.5851 2.39123 52.593 2.15038 52.5692 1.92465C52.432 0.595671 51.2773 0.173537 49.9585 0.173537C48.6389 0.173537 47.5136 0.599769 47.3478 1.92465C47.3325 2.04303 47.3164 2.26529 47.3164 2.39123L47.3159 5.37265C47.3164 5.50616 47.3202 5.60358 47.3417 5.83923C47.466 7.13023 48.6389 7.59082 49.9578 7.59082C51.276 7.59082 52.4506 7.13007 52.5735 5.83923C52.596 5.60358 52.5991 5.50616 52.6004 5.37265V3.47289H49.9658Z" fill="#171717"/>
</svg>
