<svg width="41" height="32" viewBox="0 0 41 32" fill="none" xmlns="http://www.w3.org/2000/svg">
<path d="M6.43554 31.935V29.9759C6.43554 29.2248 5.9177 28.7351 5.02999 28.7351C4.58613 28.7351 4.10529 28.8657 3.7724 29.2901C3.51348 28.931 3.1436 28.7351 2.58878 28.7351C2.2189 28.7351 1.84902 28.833 1.55312 29.1922V28.8004H0.776367V31.935H1.55312V30.2044C1.55312 29.6493 1.88601 29.3881 2.40384 29.3881C2.92167 29.3881 3.18059 29.682 3.18059 30.2044V31.935H3.95734V30.2044C3.95734 29.6493 4.32722 29.3881 4.80806 29.3881C5.3259 29.3881 5.58481 29.682 5.58481 30.2044V31.935H6.43554ZM17.9388 28.8004H16.6812V27.8534H15.9045V28.8004H15.2017V29.4208H15.9045V30.8575C15.9045 31.5758 16.2374 32.0003 17.1251 32.0003C17.458 32.0003 17.8279 31.9023 18.0868 31.7717L17.8648 31.184C17.6429 31.3146 17.384 31.3473 17.1991 31.3473C16.8292 31.3473 16.6812 31.1513 16.6812 30.8248V29.4208H17.9388V28.8004ZM24.5227 28.7351C24.0788 28.7351 23.7829 28.931 23.598 29.1922V28.8004H22.8212V31.935H23.598V30.1718C23.598 29.6493 23.8569 29.3555 24.3377 29.3555C24.4857 29.3555 24.6706 29.3881 24.8186 29.4208L25.0405 28.7677C24.8926 28.7351 24.6706 28.7351 24.5227 28.7351ZM14.5729 29.0616C14.203 28.833 13.6852 28.7351 13.1304 28.7351C12.2427 28.7351 11.6508 29.1269 11.6508 29.7473C11.6508 30.2697 12.0947 30.5636 12.8715 30.6616L13.2413 30.6942C13.6482 30.7595 13.8701 30.8575 13.8701 31.0207C13.8701 31.2493 13.5742 31.4126 13.0564 31.4126C12.5386 31.4126 12.1317 31.2493 11.8728 31.086L11.5029 31.6085C11.9098 31.8697 12.4646 32.0003 13.0194 32.0003C14.0551 32.0003 14.6469 31.5758 14.6469 30.9881C14.6469 30.433 14.166 30.1391 13.4263 30.0412L13.0564 30.0085C12.7235 29.9759 12.4646 29.9105 12.4646 29.7146C12.4646 29.4861 12.7235 29.3555 13.1304 29.3555C13.5742 29.3555 14.0181 29.5187 14.24 29.6167L14.5729 29.0616ZM35.2122 28.7351C34.7684 28.7351 34.4725 28.931 34.2875 29.1922V28.8004H33.5108V31.935H34.2875V30.1718C34.2875 29.6493 34.5464 29.3555 35.0273 29.3555C35.1752 29.3555 35.3602 29.3881 35.5081 29.4208L35.7301 28.7677C35.5821 28.7351 35.3602 28.7351 35.2122 28.7351ZM25.2994 30.3677C25.2994 31.3146 26.0392 32.0003 27.1858 32.0003C27.7037 32.0003 28.0735 31.9023 28.4434 31.6411L28.0735 31.086C27.7776 31.2819 27.4817 31.3799 27.1488 31.3799C26.52 31.3799 26.0762 30.9881 26.0762 30.3677C26.0762 29.7799 26.52 29.3881 27.1488 29.3555C27.4817 29.3555 27.7776 29.4534 28.0735 29.6493L28.4434 29.0942C28.0735 28.833 27.7037 28.7351 27.1858 28.7351C26.0392 28.7351 25.2994 29.4208 25.2994 30.3677ZM32.4751 30.3677V28.8004H31.6984V29.1922C31.4394 28.8983 31.0696 28.7351 30.5887 28.7351C29.59 28.7351 28.8133 29.4208 28.8133 30.3677C28.8133 31.3146 29.59 32.0003 30.5887 32.0003C31.1066 32.0003 31.4764 31.837 31.6984 31.5432V31.935H32.4751V30.3677ZM29.627 30.3677C29.627 29.8126 30.0339 29.3555 30.6997 29.3555C31.3285 29.3555 31.7723 29.7799 31.7723 30.3677C31.7723 30.9228 31.3285 31.3799 30.6997 31.3799C30.0339 31.3473 29.627 30.9228 29.627 30.3677ZM20.343 28.7351C19.3074 28.7351 18.5676 29.3881 18.5676 30.3677C18.5676 31.3473 19.3074 32.0003 20.38 32.0003C20.8979 32.0003 21.4157 31.8697 21.8226 31.5758L21.4527 31.086C21.1568 31.2819 20.7869 31.4126 20.417 31.4126C19.9362 31.4126 19.4553 31.2166 19.3444 30.6616H21.9705V30.4003C22.0075 29.3881 21.3417 28.7351 20.343 28.7351ZM20.343 29.3228C20.8239 29.3228 21.1568 29.584 21.2308 30.0738H19.3813C19.4553 29.6493 19.7882 29.3228 20.343 29.3228ZM39.6138 30.3677V27.5596H38.8371V29.1922C38.5781 28.8983 38.2083 28.7351 37.7274 28.7351C36.7287 28.7351 35.952 29.4208 35.952 30.3677C35.952 31.3146 36.7287 32.0003 37.7274 32.0003C38.2452 32.0003 38.6151 31.837 38.8371 31.5432V31.935H39.6138V30.3677ZM36.7657 30.3677C36.7657 29.8126 37.1726 29.3555 37.8384 29.3555C38.4672 29.3555 38.911 29.7799 38.911 30.3677C38.911 30.9228 38.4672 31.3799 37.8384 31.3799C37.1726 31.3473 36.7657 30.9228 36.7657 30.3677ZM10.8001 30.3677V28.8004H10.0234V29.1922C9.76446 28.8983 9.39458 28.7351 8.91373 28.7351C7.91506 28.7351 7.13831 29.4208 7.13831 30.3677C7.13831 31.3146 7.91506 32.0003 8.91373 32.0003C9.43157 32.0003 9.80145 31.837 10.0234 31.5432V31.935H10.8001V30.3677ZM7.91506 30.3677C7.91506 29.8126 8.32193 29.3555 8.98771 29.3555C9.61651 29.3555 10.0604 29.7799 10.0604 30.3677C10.0604 30.9228 9.61651 31.3799 8.98771 31.3799C8.32193 31.3473 7.91506 30.9228 7.91506 30.3677Z" fill="#171717"/>
<path d="M12.6221 1.04492C19.34 1.04492 24.7441 6.22857 24.7441 12.5723C24.7439 18.9158 19.3399 24.0986 12.6221 24.0986C5.90432 24.0986 0.500204 18.9158 0.5 12.5723C0.5 6.2286 5.90419 1.04497 12.6221 1.04492Z" fill="#171717" stroke="#171717"/>
<path d="M28.1572 1.04492C34.8751 1.04492 40.2793 6.22857 40.2793 12.5723C40.2791 18.9158 34.875 24.0986 28.1572 24.0986C21.4395 24.0986 16.0354 18.9158 16.0352 12.5723C16.0352 6.2286 21.4394 1.04497 28.1572 1.04492Z" fill="#171717" stroke="white"/>
<path d="M12.6221 1.04492C19.34 1.04492 24.7441 6.22857 24.7441 12.5723C24.7439 18.9158 19.3399 24.0986 12.6221 24.0986C5.90432 24.0986 0.500204 18.9158 0.5 12.5723C0.5 6.2286 5.90419 1.04497 12.6221 1.04492Z" stroke="white"/>
</svg>
