<svg width="53" height="30" viewBox="0 0 53 30" fill="none" xmlns="http://www.w3.org/2000/svg">
<path d="M20.206 29.9408C14.0058 29.4243 8.52983 27.2331 4.96811 23.8393C2.93527 21.9064 1.70286 19.8079 1.14806 17.3343C0.893955 16.2084 0.893955 14.344 1.1523 13.206C1.92732 9.76789 4.25662 6.76153 7.92844 4.46539C16.3012 -0.764478 29.1293 -0.740266 37.4259 4.52592C38.527 5.22404 39.2385 5.78093 40.238 6.71714C41.4958 7.89951 42.3809 9.07784 43.3126 10.805C43.3465 10.8696 43.5202 10.9503 43.6938 10.9825C44.2825 11.0996 45.066 11.5354 45.697 12.0963C46.1883 12.5321 46.5652 13.0083 47.5012 14.3561C48.4456 15.7161 52.7146 21.9951 52.9729 22.4067C53.0745 22.5682 52.8755 22.8224 52.651 22.8224C52.4901 22.8224 52.38 22.7215 52.1428 22.3664C51.9776 22.1162 50.8892 20.5061 49.7246 18.787C45.6038 12.7097 45.3836 12.4272 44.2359 11.8784L43.6345 11.5919H41.8642C40.094 11.5919 40.094 11.5919 40.0516 11.7694C39.8187 12.742 39.7721 12.9801 39.8229 13.0245C39.8568 13.0527 40.8605 13.5975 42.0548 14.2351L44.2274 15.3932L44.0919 15.6636C44.0157 15.8129 43.931 15.934 43.9013 15.934C43.8717 15.934 42.0421 14.9695 39.8356 13.7871C37.6292 12.6088 35.6937 11.608 35.537 11.5677C34.9102 11.4022 33.9446 12.064 33.9446 12.6613C33.9446 13.2666 34.131 13.4401 38.0103 16.4666C40.4285 18.3552 41.8134 19.4892 42.0252 19.7555C42.4106 20.2438 42.8002 20.9621 43.1559 21.8458C43.787 23.4035 44.8119 24.2711 46.4932 24.6746L47.048 24.8078L47.0014 25.0943C46.976 25.2517 46.9421 25.397 46.9209 25.4171C46.8489 25.4938 45.7351 25.1548 45.0914 24.8603C44.0834 24.4002 43.3889 23.7425 42.707 22.5964C42.7028 22.5883 42.3047 22.7175 41.8304 22.8829C40.9833 23.1775 40.941 23.2017 40.1406 23.9483C36.7228 27.1281 31.8186 29.158 25.9022 29.848C24.9323 29.9771 21.2309 30.0296 20.206 29.9408ZM26.097 28.9643C28.8117 28.6212 30.9208 28.1087 33.123 27.2492C35.4354 26.3453 37.6207 25.0499 39.1453 23.6698L39.7467 23.125L38.2305 22.435C36.6127 21.6965 36.4518 21.5755 36.2443 20.9177C36.113 20.502 36.2612 20.0581 36.6763 19.6344L36.9981 19.2995L36.2951 18.791C35.7403 18.3875 35.5667 18.214 35.4565 17.9476C35.2829 17.5158 35.3464 17.0477 35.6259 16.6724L35.8377 16.3859L33.6185 16.0147C32.3988 15.8089 31.2596 15.6031 31.0902 15.5546C30.7556 15.4618 30.421 15.0986 30.3321 14.7476C30.2855 14.5579 31.3739 9.49752 31.6153 8.77519C31.7254 8.45236 32.1871 8.06092 32.5386 8.00039C32.907 7.93583 39.446 9.02942 39.7721 9.21101C40.2888 9.49752 40.4497 9.95756 40.2888 10.6678L40.221 10.9624H40.581C40.7801 10.9624 41.2502 10.9382 41.6271 10.9099L42.3132 10.8575L41.9744 10.2562C40.9537 8.44429 39.0945 6.61222 36.8033 5.15948C35.7318 4.48153 33.4491 3.40812 32.0727 2.94001C30.1161 2.27417 27.7487 1.77378 25.4744 1.5478C24.2251 1.4227 20.9598 1.42674 19.7486 1.55184C16.8475 1.85046 14.2133 2.47594 11.9094 3.41215C6.57322 5.57916 2.98609 9.17066 2.06708 13.2625C1.82568 14.3319 1.80874 16.2043 2.02896 17.1769C2.516 19.3277 3.57477 21.1881 5.29845 22.9192C8.81358 26.4462 14.1837 28.6172 20.621 29.1055C21.485 29.1701 25.2203 29.0732 26.097 28.9643ZM24.9239 25.1145C24.5935 25.0217 24.2547 24.6464 24.1827 24.2872C24.1361 24.0532 24.1912 23.8918 24.5427 23.2421C25.9657 20.6191 26.584 18.2059 26.584 15.2802C26.584 12.4514 26.0377 10.2481 24.6782 7.60896C24.386 7.044 24.1488 6.51537 24.1488 6.4387C24.1488 6.15622 24.3945 5.74864 24.6613 5.59126C25.0255 5.37335 25.6396 5.41371 25.9361 5.67601C26.0504 5.77689 26.3426 6.23693 26.5883 6.69696C27.5623 8.51692 28.2272 10.5144 28.5576 12.5927C28.7609 13.88 28.8032 16.3173 28.638 17.4957C28.3374 19.6667 27.736 21.6077 26.7704 23.5044C26.1859 24.6504 25.8217 25.1226 25.5168 25.1226C25.4575 25.1226 25.3559 25.1387 25.2966 25.1548C25.2373 25.171 25.0679 25.1548 24.9239 25.1145ZM20.9641 23.1412C20.4558 22.9999 20.0874 22.4027 20.2356 21.9588C20.2695 21.8499 20.5109 21.3535 20.7692 20.8531C21.8577 18.7345 22.3108 16.4666 22.0906 14.2391C21.9085 12.407 21.5654 11.2529 20.6972 9.56612C20.117 8.43218 20.0874 8.25866 20.4262 7.79862C20.7481 7.3628 21.5527 7.2942 21.972 7.66142C22.2642 7.91565 23.1748 9.72754 23.5263 10.7525C24.6867 14.1423 24.5088 17.7862 23.0223 21.1154C22.2558 22.8224 21.7179 23.351 20.9641 23.1412ZM16.8814 21.1396C16.568 21.0065 16.297 20.6877 16.2208 20.3689C16.1742 20.1752 16.2546 19.9573 16.6273 19.239C17.9995 16.5917 18.0122 14.0454 16.6739 11.4587C16.0852 10.3248 16.0725 10.0988 16.568 9.65087C16.8137 9.42892 16.9195 9.3926 17.2626 9.3926C17.8428 9.3926 18.1435 9.67104 18.6602 10.6839C19.4564 12.2416 19.7825 13.5934 19.7782 15.3246C19.774 17.1042 19.4691 18.327 18.6221 19.9694C18.135 20.9096 17.8936 21.1598 17.4066 21.2203C17.2584 21.2324 17.0212 21.2002 16.8814 21.1396ZM13.0698 19.2753C12.82 19.1784 12.5362 18.8556 12.4515 18.5731C12.3584 18.2584 12.4346 18.0082 12.8073 17.423C13.2901 16.6684 13.4002 16.2649 13.4002 15.2802C13.4002 14.2956 13.2901 13.888 12.8073 13.1374C12.6421 12.8832 12.4812 12.5765 12.4431 12.4555C12.2864 11.9591 12.7226 11.3498 13.307 11.2448C13.8025 11.1561 14.1413 11.3659 14.5987 12.0439C15.9158 14.0051 15.9158 16.62 14.5987 18.565C14.1329 19.247 13.6162 19.4892 13.0698 19.2753ZM41.4577 22.318C41.8981 22.1687 42.2793 22.0274 42.3047 22.0032C42.3301 21.979 42.2454 21.7127 42.1141 21.406C41.8515 20.7805 41.8939 20.7966 40.9537 20.9661C39.9415 21.1517 39.3528 20.9863 38.2432 20.2075C37.9425 19.9936 37.6292 19.8201 37.5529 19.8201C37.4725 19.8201 37.303 19.929 37.1675 20.0662C36.8838 20.3568 36.8414 20.8087 37.0701 21.0791C37.2734 21.3132 40.0559 22.5762 40.3862 22.5843C40.5344 22.5883 41.013 22.4673 41.4577 22.318ZM41.0172 20.2882C41.428 20.2075 41.4746 20.1832 41.4026 20.0541C41.3222 19.9129 37.4725 16.8702 37.1379 16.6805C36.8626 16.5272 36.6381 16.5635 36.4094 16.7975C35.7403 17.4795 35.8208 17.6248 37.5529 18.8879C39.6451 20.4173 39.8695 20.5061 41.0172 20.2882ZM35.8504 15.6757C35.8504 15.6555 35.4142 15.2964 34.8806 14.8807C33.5635 13.8477 33.2797 13.4603 33.2797 12.6936C33.2797 12.056 33.7286 11.4385 34.4486 11.0834C34.8043 10.9059 35.4438 10.8534 35.8038 10.9664C36.0579 11.0471 37.2099 11.6403 38.8023 12.512L39.1368 12.6976L39.4121 11.4466C39.6959 10.1674 39.7001 9.82843 39.4375 9.75175C39.3571 9.72754 37.8197 9.4612 36.0241 9.15855C32.8308 8.62184 32.4793 8.58956 32.331 8.81958C32.2506 8.94064 31.0351 14.3077 31.0351 14.5337C31.0351 14.6467 31.0944 14.7879 31.1706 14.8485C31.2426 14.909 32.2802 15.1229 33.4745 15.3246C35.7784 15.7201 35.8504 15.7322 35.8504 15.6757Z" fill="#171717"/>
</svg>
