<svg width="163" height="166" viewBox="0 0 163 166" fill="none" xmlns="http://www.w3.org/2000/svg">
<circle cx="79.4809" cy="14.2992" r="14.2953" fill="white"/>
<circle cx="129.601" cy="136.08" r="14.2953" fill="white"/>
<path d="M131.335 134.518C123.824 142.029 114.711 147.744 104.678 151.234C94.6452 154.724 83.9528 155.9 73.4015 154.673" stroke="#344899" stroke-width="21.2385" stroke-linecap="round" stroke-linejoin="round"/>
<path d="M145.34 136.08C145.34 143.976 138.94 150.376 131.045 150.376C123.15 150.376 116.75 143.976 116.75 136.08C116.75 128.185 123.15 121.785 131.045 121.785C138.94 121.785 145.34 128.185 145.34 136.08Z" fill="white"/>
<path d="M26.3708 128.494C15.9597 115.372 10.5662 98.9702 11.1583 82.231C11.7504 65.4918 18.2894 49.5116 29.6015 37.159" stroke="#FFC423" stroke-width="21.2385" stroke-linecap="round" stroke-linejoin="round"/>
<circle cx="30.7743" cy="133.784" r="14.2953" fill="white"/>
<path d="M90.4046 154.584C79.8666 155.921 69.1626 154.857 59.094 151.472C49.0254 148.087 39.853 142.467 32.2637 135.035" stroke="#344899" stroke-width="21.2385" stroke-linecap="round" stroke-linejoin="round"/>
<path d="M81.5381 14.2969C95.4666 14.2969 109.082 18.4272 120.663 26.1654C132.244 33.9037 141.271 44.9023 146.601 57.7706C151.931 70.6388 153.326 84.7987 150.609 98.4595C147.891 112.12 141.184 124.669 131.335 134.518" stroke="#FF545E" stroke-width="21.2385" stroke-linecap="round" stroke-linejoin="round"/>
<circle cx="33.2953" cy="35.2953" r="14.2953" fill="white"/>
<circle cx="81.2953" cy="14.2953" r="14.2953" fill="white"/>
<path d="M34.1792 34.256C46.3652 22.2939 62.4823 15.1669 79.531 14.2015" stroke="#191A1E" stroke-width="21.2385" stroke-linecap="round" stroke-linejoin="round"/>
</svg>
