<svg width="128" height="17" viewBox="0 0 128 17" fill="none" xmlns="http://www.w3.org/2000/svg">
<path d="M19.7827 5.34863C20.2227 5.34884 20.5815 6.47684 20.5815 7.87012C20.5815 9.26189 20.2243 10.3914 19.7827 10.3916C19.7703 10.3915 19.759 10.3864 19.7466 10.3848V10.3887C19.056 10.2025 19.0919 10.8729 19.1313 11.1387C19.1361 11.1694 19.1422 11.1988 19.147 11.2295C19.1497 11.2365 19.1508 11.2416 19.1509 11.2422L19.1802 11.4961C19.1868 11.5822 19.1899 11.6695 19.1899 11.7578C19.1898 13.2775 18.223 14.5106 17.0308 14.5107C16.504 14.5107 16.0223 14.2693 15.647 13.8691C13.8152 12.4797 13.0169 14.5353 13.0054 14.5654L13.0005 14.5605C12.4973 15.5781 11.5159 16.2686 10.3882 16.2686C8.74982 16.2682 7.42068 14.8105 7.42041 13.0107C7.42041 11.2107 8.74808 9.75229 10.3882 9.75195C11.426 9.75195 12.3371 10.3366 12.8687 11.2197C14.2953 13.3109 14.9146 11.1662 14.9233 11.1357C14.9238 11.1365 14.9259 11.14 14.9263 11.1416C15.1456 9.91845 16.0022 9.00506 17.0288 9.00488C17.3347 9.00488 17.6268 9.08703 17.8901 9.23438C17.8964 9.2376 17.9014 9.23993 17.9077 9.24316C18.9334 9.79002 18.9848 7.87346 18.9849 7.87012C18.9849 6.47879 19.3413 5.34937 19.7827 5.34863ZM4.17236 8.99512C5.36486 8.99519 6.33154 10.2276 6.33154 11.748C6.33148 13.2684 5.36482 14.5009 4.17236 14.501C2.98 14.5008 2.01325 13.2683 2.01318 11.748C2.01318 10.2277 2.97996 8.99534 4.17236 8.99512ZM103.806 6.64355C103.98 6.33947 104.22 6.08456 104.529 5.88086C104.961 5.58607 105.472 5.43851 106.062 5.43848C106.691 5.43848 107.232 5.60055 107.684 5.9248C108.146 6.23939 108.5 6.69238 108.746 7.28223C108.991 7.87205 109.115 8.56991 109.115 9.37598C109.115 10.2312 108.972 10.9686 108.687 11.5879C108.412 12.1973 108.014 12.6639 107.493 12.9883C106.972 13.3127 106.352 13.4756 105.634 13.4756C105.133 13.4756 104.695 13.3821 104.322 13.1953C104.057 13.0631 103.843 12.91 103.677 12.7383C103.473 12.7415 103.265 12.7694 103.054 12.8262C102.799 12.895 102.553 12.9885 102.317 13.1064C102.091 13.2244 101.894 13.3623 101.727 13.5195L101.314 13.0332C101.432 12.9054 101.521 12.7772 101.58 12.6494C101.648 12.5217 101.693 12.3693 101.712 12.1924C101.742 12.0155 101.756 11.8042 101.756 11.5586V3.75781C101.756 3.3056 101.653 2.9808 101.447 2.78418C101.25 2.58762 100.891 2.47967 100.371 2.45996V1.88477C100.557 1.89459 100.754 1.90424 100.96 1.91406C101.167 1.92388 101.368 1.92871 101.565 1.92871C101.997 1.9287 102.4 1.91425 102.774 1.88477C103.147 1.84544 103.492 1.79146 103.806 1.72266V6.64355ZM70.3052 5.43848C70.9933 5.4385 71.5784 5.56668 72.0601 5.82227C72.5416 6.06804 72.9052 6.45655 73.1509 6.9873C73.3966 7.51814 73.5094 8.20642 73.4897 9.05176H68.6538V9.31641C68.6538 10.2896 68.8351 11.052 69.1987 11.6025C69.5722 12.153 70.1132 12.4286 70.8208 12.4287C71.3025 12.4287 71.7208 12.3102 72.0747 12.0742C72.4383 11.8285 72.7431 11.4552 72.9888 10.9541L73.52 11.249C73.2349 11.9666 72.8021 12.517 72.2222 12.9004C71.6422 13.2837 70.9442 13.4755 70.1284 13.4756C69.3914 13.4756 68.7472 13.3183 68.1968 13.0039C67.6561 12.6795 67.2378 12.2169 66.9429 11.6172C66.648 11.0176 66.5005 10.3051 66.5005 9.47949C66.5005 8.61454 66.6577 7.88184 66.9722 7.28223C67.2868 6.68256 67.7291 6.22474 68.2993 5.91016C68.8695 5.59557 69.5384 5.43848 70.3052 5.43848ZM75.7964 11.0713C76.2091 11.0714 76.538 11.1803 76.7837 11.3965C77.0294 11.6128 77.1528 11.9029 77.1528 12.2666C77.1527 12.6399 77.0294 12.9352 76.7837 13.1514C76.538 13.3674 76.2137 13.4755 75.811 13.4756C75.3983 13.4756 75.0685 13.3675 74.8228 13.1514C74.5771 12.9352 74.4537 12.6399 74.4536 12.2666C74.4536 11.9029 74.5722 11.6128 74.8081 11.3965C75.0539 11.1802 75.3835 11.0713 75.7964 11.0713ZM96.4478 5.43848C97.1947 5.43851 97.8484 5.58601 98.4087 5.88086C98.969 6.16593 99.4114 6.60841 99.7358 7.20801C100.06 7.80758 100.222 8.55965 100.222 9.46387C100.222 10.3683 100.06 11.121 99.7358 11.7207C99.4114 12.3105 98.969 12.753 98.4087 13.0479C97.8484 13.3329 97.1947 13.4756 96.4478 13.4756C95.7104 13.4756 95.056 13.3329 94.4858 13.0479C93.9158 12.7529 93.4684 12.3105 93.144 11.7207C92.8196 11.121 92.6577 10.3683 92.6577 9.46387C92.6578 8.55965 92.8197 7.80758 93.144 7.20801C93.4684 6.60843 93.9158 6.16596 94.4858 5.88086C95.056 5.58594 95.7104 5.43848 96.4478 5.43848ZM123.946 5.43848C124.634 5.43848 125.219 5.56667 125.701 5.82227C126.182 6.06804 126.546 6.45647 126.792 6.9873C127.037 7.51815 127.151 8.20637 127.131 9.05176H122.294V9.31641C122.294 10.2897 122.477 11.052 122.84 11.6025C123.214 12.1529 123.755 12.4287 124.462 12.4287C124.944 12.4286 125.362 12.3101 125.715 12.0742C126.079 11.8285 126.384 11.4552 126.629 10.9541L127.161 11.249C126.876 11.9665 126.443 12.517 125.863 12.9004C125.283 13.2837 124.585 13.4756 123.769 13.4756C123.032 13.4756 122.388 13.3184 121.837 13.0039C121.297 12.6795 120.878 12.2169 120.583 11.6172C120.289 11.0176 120.141 10.305 120.141 9.47949C120.141 8.6146 120.298 7.88182 120.613 7.28223C120.927 6.68262 121.37 6.22474 121.94 5.91016C122.51 5.59558 123.179 5.43849 123.946 5.43848ZM66.4448 6.21973C66.0418 6.29837 65.7073 6.4709 65.4419 6.73633C65.1863 6.99191 64.9453 7.39486 64.7192 7.94531L62.4038 13.3867H61.8589L58.9536 7.14941C58.8062 6.83483 58.624 6.60833 58.4077 6.4707C58.2014 6.32338 57.9263 6.23942 57.5825 6.21973V5.64551C57.9067 5.66515 58.2407 5.67963 58.5845 5.68945C58.9286 5.69928 59.3517 5.7041 59.853 5.7041C60.2758 5.7041 60.6593 5.69928 61.0034 5.68945C61.3474 5.67962 61.6916 5.66517 62.0356 5.64551V6.21973C61.5638 6.23939 61.2737 6.34349 61.1655 6.53027C61.0576 6.71709 61.1018 7.02665 61.2983 7.45898L62.8726 10.8555L63.8931 8.44727C64.07 8.02454 64.1587 7.65541 64.1587 7.34082C64.1685 7.01658 64.0903 6.76097 63.9233 6.57422C63.7562 6.3776 63.4998 6.25905 63.1558 6.21973V5.64551C63.4015 5.65534 63.628 5.66497 63.8345 5.6748C64.0409 5.68464 64.2327 5.68945 64.4097 5.68945H64.9409C65.1866 5.68945 65.4471 5.68463 65.7222 5.6748C65.9974 5.66498 66.2384 5.65534 66.4448 5.64551V6.21973ZM91.9917 3.40332C91.5397 3.41315 91.2002 3.45274 90.9741 3.52148C90.748 3.58047 90.6006 3.69902 90.5317 3.87598C90.463 4.04311 90.4282 4.30831 90.4282 4.67188V11.4258C90.4282 11.7796 90.463 12.0448 90.5317 12.2217C90.6104 12.3888 90.7578 12.5074 90.9741 12.5762C91.2002 12.6351 91.5398 12.6737 91.9917 12.6934V13.2686C91.7066 13.2489 91.3278 13.2393 90.856 13.2393C90.394 13.2294 89.8877 13.2246 89.3374 13.2246C88.7574 13.2246 88.2359 13.2294 87.7739 13.2393C87.3219 13.2393 86.9631 13.2489 86.6978 13.2686V12.6934C87.13 12.6737 87.4494 12.6351 87.6558 12.5762C87.872 12.5074 88.0147 12.384 88.0835 12.207C88.1523 12.0301 88.187 11.7697 88.187 11.4258V3.6543H87.9653L84.6177 13.3721H84.0874L80.4155 3.89062H80.1938V10.9541C80.1939 11.3963 80.2334 11.7406 80.312 11.9863C80.3907 12.2221 80.5536 12.3939 80.7993 12.502C81.0549 12.6002 81.438 12.6639 81.9487 12.6934V13.2686C81.7522 13.2489 81.4722 13.2393 81.1089 13.2393C80.7452 13.2294 80.3567 13.2246 79.9438 13.2246C79.5408 13.2246 79.1716 13.2294 78.8374 13.2393C78.5034 13.2393 78.2381 13.2489 78.0415 13.2686V12.6934C78.474 12.6639 78.8037 12.6002 79.0298 12.502C79.2556 12.3938 79.4082 12.2269 79.4868 12.001C79.5655 11.765 79.604 11.4402 79.604 11.0273V4.67188C79.604 4.3085 79.5653 4.04313 79.4868 3.87598C79.418 3.70892 79.2704 3.59031 79.0444 3.52148C78.8282 3.45268 78.4936 3.41316 78.0415 3.40332V2.82812C78.2578 2.83795 78.5431 2.84857 78.897 2.8584C79.2606 2.86822 79.6589 2.87305 80.0913 2.87305C80.5433 2.87304 80.9658 2.86822 81.3589 2.8584C81.752 2.84857 82.0963 2.83795 82.3911 2.82812L85.1655 10.0928L87.6411 2.82812C88.0147 2.84779 88.3539 2.86322 88.6587 2.87305H89.5874C90.0691 2.87305 90.5269 2.86823 90.9595 2.8584C91.3918 2.84857 91.7362 2.83795 91.9917 2.82812V3.40332ZM35.6255 2.82812C35.6353 3.44747 35.6594 4.06237 35.6987 4.67188C35.738 5.28124 35.8027 5.89545 35.8911 6.51465H35.3013C35.1735 5.96437 35.0308 5.49272 34.8735 5.09961C34.7162 4.70638 34.5341 4.39121 34.3276 4.15527C34.1312 3.90982 33.9052 3.73311 33.6499 3.625C33.3944 3.50709 33.0992 3.4483 32.7651 3.44824H32.3071V11.3076C32.3071 11.7007 32.3563 11.9958 32.4546 12.1924C32.5529 12.3889 32.7448 12.522 33.0298 12.5908C33.3247 12.6498 33.7575 12.6835 34.3276 12.6934V13.2686C33.9836 13.2587 33.5314 13.2491 32.9712 13.2393C32.4207 13.2294 31.8356 13.2246 31.2163 13.2246C30.5578 13.2246 29.9484 13.2294 29.3882 13.2393C28.8278 13.2491 28.3797 13.2587 28.0454 13.2686V12.6934C28.6154 12.6835 29.0435 12.6498 29.3286 12.5908C29.6235 12.522 29.8201 12.389 29.9185 12.1924C30.0168 11.9958 30.0659 11.7008 30.0659 11.3076V3.44824H29.5942C29.1617 3.44824 28.7877 3.55137 28.4731 3.75781C28.1588 3.9544 27.8886 4.2786 27.6626 4.73047C27.4365 5.18259 27.2399 5.77755 27.0728 6.51465H26.4829C26.5714 5.89548 26.635 5.28121 26.6743 4.67188C26.7136 4.06237 26.7387 3.44747 26.7485 2.82812C27.1809 2.83795 27.6526 2.84857 28.1636 2.8584C28.6846 2.86823 29.206 2.87305 29.7271 2.87305H32.6177C33.1385 2.87304 33.6593 2.86822 34.1802 2.8584C34.711 2.84857 35.1929 2.83796 35.6255 2.82812ZM39.6772 6.72559C39.9166 6.33181 40.2305 6.02548 40.6206 5.80762C41.0531 5.56191 41.54 5.43854 42.0806 5.43848C42.867 5.43848 43.4675 5.67461 43.8804 6.14648C44.303 6.60852 44.5142 7.27753 44.5142 8.15234V11.6318C44.5142 12.0251 44.6125 12.3007 44.8091 12.458C45.0155 12.6054 45.3792 12.6835 45.8999 12.6934V13.2686C45.7525 13.2587 45.546 13.2539 45.2808 13.2539C45.0252 13.2441 44.7446 13.2344 44.4399 13.2246C44.1353 13.2148 43.8353 13.21 43.5405 13.21C43.1474 13.21 42.7588 13.2196 42.3755 13.2393C41.9926 13.2491 41.7077 13.2587 41.521 13.2686V12.6934C41.8845 12.6835 42.1305 12.6054 42.2583 12.458C42.3959 12.3007 42.4644 12.025 42.4644 11.6318V7.97461C42.4643 7.44393 42.3612 7.04564 42.1548 6.78027C41.9484 6.515 41.6387 6.3829 41.2261 6.38281C40.9017 6.38281 40.6009 6.47532 40.3257 6.66211C40.0814 6.82792 39.8673 7.0619 39.6772 7.35938V11.6318C39.6772 12.025 39.7457 12.3007 39.8833 12.458C40.0209 12.6055 40.2725 12.6835 40.6362 12.6934V13.2686C40.4298 13.2587 40.1444 13.2491 39.7808 13.2393C39.4269 13.2196 39.0625 13.21 38.689 13.21C38.2467 13.21 37.7944 13.2196 37.3325 13.2393C36.8707 13.2491 36.5071 13.2587 36.2417 13.2686V12.6934C36.7723 12.6835 37.1359 12.6054 37.3325 12.458C37.539 12.3007 37.6421 12.0251 37.6421 11.6318V3.75781C37.6421 3.3056 37.539 2.9808 37.3325 2.78418C37.1261 2.58769 36.7625 2.47964 36.2417 2.45996V1.88477C36.4677 1.89459 36.679 1.90424 36.8755 1.91406C37.0818 1.92389 37.2931 1.92871 37.5093 1.92871C37.9123 1.92871 38.2911 1.91425 38.645 1.88477C39.0087 1.84545 39.3529 1.79146 39.6772 1.72266V6.72559ZM51.6382 5.43848C52.1001 5.43855 52.4636 5.57637 52.729 5.85156C53.0042 6.11691 53.142 6.48538 53.1421 6.95703C53.1421 7.38959 53.0341 7.73945 52.8179 8.00488C52.6016 8.2604 52.3162 8.38765 51.9624 8.3877C51.7167 8.3877 51.52 8.31914 51.3726 8.18164C51.2251 8.04401 51.1509 7.86667 51.1509 7.65039C51.1509 7.50313 51.176 7.37562 51.2251 7.26758C51.2743 7.14961 51.3234 7.04069 51.3726 6.94238C51.4216 6.83438 51.4458 6.73101 51.4458 6.63281C51.4457 6.41683 51.3085 6.30872 51.0337 6.30859C50.8272 6.30859 50.6152 6.35775 50.3989 6.45605C50.1925 6.55436 50.0006 6.69223 49.8237 6.86914C49.6817 7.01124 49.5701 7.17563 49.4849 7.36035V11.5137C49.4849 11.9462 49.6179 12.2518 49.8833 12.4287C50.1586 12.5957 50.6352 12.6835 51.313 12.6934V13.2686C51.1262 13.2587 50.8754 13.2539 50.561 13.2539C50.2565 13.2441 49.9225 13.2344 49.5591 13.2246C49.2052 13.2148 48.8553 13.21 48.5112 13.21C48.0101 13.21 47.5287 13.2196 47.0669 13.2393C46.6149 13.2491 46.2754 13.2587 46.0493 13.2686V12.6934C46.5799 12.6835 46.9435 12.6054 47.1401 12.458C47.3466 12.3007 47.4497 12.0251 47.4497 11.6318V7.51758C47.4497 7.05579 47.3416 6.73169 47.1255 6.54492C46.9191 6.34834 46.5604 6.23942 46.0493 6.21973V5.64551C46.3243 5.65533 46.5551 5.66498 46.7417 5.6748C46.9383 5.68464 47.1504 5.68945 47.3765 5.68945C48.1825 5.68944 48.8853 5.62004 49.4849 5.48242V6.71094C49.7123 6.33022 50.0067 6.02893 50.3696 5.80762C50.7727 5.56185 51.1958 5.43848 51.6382 5.43848ZM56.811 11.6318C56.811 12.0349 56.9142 12.3105 57.1206 12.458C57.3271 12.6055 57.6914 12.6835 58.2124 12.6934V13.2686C58.0649 13.2587 57.8577 13.2539 57.5923 13.2539C57.3369 13.2441 57.0521 13.2344 56.7378 13.2246C56.433 13.2148 56.1275 13.21 55.8228 13.21C55.3609 13.21 54.8941 13.2196 54.4224 13.2393C53.9605 13.2491 53.6114 13.2587 53.3755 13.2686V12.6934C53.8962 12.6835 54.2599 12.6054 54.4663 12.458C54.6728 12.3105 54.7759 12.0349 54.7759 11.6318V7.51758C54.7758 7.07535 54.6727 6.75615 54.4663 6.55957C54.2697 6.35315 53.9062 6.23941 53.3755 6.21973V5.64551C53.572 5.65533 53.7736 5.66498 53.98 5.6748C54.1864 5.68463 54.3927 5.68945 54.5991 5.68945C55.0218 5.68945 55.4151 5.67499 55.7788 5.64551C56.1524 5.60618 56.4964 5.55124 56.811 5.48242V11.6318ZM113.238 11.6318C113.238 12.0349 113.341 12.3105 113.547 12.458C113.754 12.6054 114.117 12.6835 114.638 12.6934V13.2686C114.491 13.2587 114.284 13.2539 114.019 13.2539C113.763 13.2441 113.478 13.2344 113.164 13.2246C112.859 13.2148 112.554 13.21 112.25 13.21C111.788 13.21 111.321 13.2196 110.849 13.2393C110.387 13.2491 110.038 13.2587 109.802 13.2686V12.6934C110.323 12.6835 110.687 12.6054 110.893 12.458C111.1 12.3105 111.203 12.0349 111.203 11.6318V7.51758C111.203 7.07543 111.099 6.75616 110.893 6.55957C110.697 6.35318 110.333 6.23943 109.802 6.21973V5.64551C109.999 5.65533 110.2 5.66498 110.407 5.6748C110.613 5.68462 110.82 5.68945 111.026 5.68945C111.449 5.68945 111.842 5.675 112.206 5.64551C112.579 5.60619 112.923 5.55123 113.238 5.48242V11.6318ZM118.208 11.6318C118.208 12.0349 118.311 12.3105 118.517 12.458C118.733 12.6055 119.098 12.6835 119.609 12.6934V13.2686C119.461 13.2587 119.254 13.2539 118.989 13.2539C118.733 13.2441 118.449 13.2344 118.134 13.2246C117.83 13.2148 117.524 13.21 117.219 13.21C116.767 13.21 116.305 13.2196 115.833 13.2393C115.362 13.2491 115.008 13.2587 114.772 13.2686V12.6934C115.293 12.6835 115.656 12.6054 115.863 12.458C116.069 12.3105 116.172 12.0349 116.172 11.6318V3.75781C116.172 3.31543 116.069 2.99544 115.863 2.79883C115.666 2.59255 115.303 2.47964 114.772 2.45996V1.88477C114.978 1.89459 115.185 1.90424 115.391 1.91406C115.598 1.92389 115.799 1.92871 115.996 1.92871C116.418 1.92871 116.816 1.91425 117.19 1.88477C117.563 1.84545 117.903 1.79146 118.208 1.72266V11.6318ZM96.4478 5.99902C95.966 5.99902 95.5728 6.27467 95.2681 6.8252C94.9634 7.36584 94.8111 8.24526 94.811 9.46387C94.811 10.6631 94.9634 11.5383 95.2681 12.0889C95.5728 12.6296 95.966 12.9004 96.4478 12.9004C96.9195 12.9003 97.3081 12.6295 97.6128 12.0889C97.9272 11.5383 98.0845 10.663 98.0845 9.46387C98.0844 8.24544 97.9272 7.36586 97.6128 6.8252C97.3081 6.27476 96.9195 5.99912 96.4478 5.99902ZM105.31 6.32324C104.976 6.32326 104.657 6.42656 104.352 6.63281C104.117 6.79748 103.935 7.00656 103.806 7.25879V12.2256C103.912 12.3433 104.038 12.4468 104.189 12.5312C104.435 12.6689 104.715 12.7383 105.03 12.7383C105.669 12.7383 106.151 12.4675 106.475 11.9268C106.799 11.3762 106.961 10.5502 106.961 9.44922C106.961 8.43689 106.819 7.66556 106.534 7.13477C106.258 6.59407 105.851 6.32324 105.31 6.32324ZM0.994629 6.35059C1.53864 6.35076 1.97893 6.97106 1.979 7.7373C1.979 8.50362 1.53868 9.12385 0.994629 9.12402C0.450472 9.12402 0.0102618 8.50373 0.0102539 7.7373C0.0103254 6.97095 0.450512 6.35059 0.994629 6.35059ZM123.902 6.01367C123.479 6.01367 123.115 6.21992 122.81 6.63281C122.527 7.02966 122.354 7.64939 122.289 8.49121H125.288C125.297 8.0095 125.253 7.5864 125.155 7.22266C125.066 6.84924 124.919 6.55411 124.712 6.33789C124.506 6.12185 124.236 6.01371 123.902 6.01367ZM70.2612 6.01367C69.8385 6.01367 69.4742 6.21999 69.1694 6.63281C68.886 7.02965 68.7135 7.64939 68.6479 8.49121H71.647C71.6568 8.0095 71.6125 7.5864 71.5142 7.22266C71.4257 6.84921 71.2782 6.55412 71.0718 6.33789C70.8654 6.12182 70.5952 6.01377 70.2612 6.01367ZM16.7124 2.04199C17.657 2.04225 18.4233 3.0454 18.4233 4.2832C18.4232 5.52083 17.6569 6.52318 16.7124 6.52344C15.7677 6.52344 15.0006 5.52099 15.0005 4.2832C15.0005 3.04524 15.7676 2.04199 16.7124 2.04199ZM4.17236 2.58496C4.88989 2.585 5.47199 3.34458 5.47217 4.28418C5.47211 5.22229 4.88997 5.98434 4.17236 5.98438C3.45646 5.98415 2.87457 5.22379 2.87451 4.28418C2.87469 3.34632 3.45496 2.58519 4.17236 2.58496ZM10.4282 0.269531C11.7814 0.269602 12.8792 1.51685 12.8794 3.05762C12.8793 4.59849 11.7814 5.84661 10.4282 5.84668C9.07495 5.84668 7.97711 4.59692 7.97705 3.05762C7.97721 1.5168 9.07502 0.269531 10.4282 0.269531ZM55.7349 1.81152C56.0592 1.81157 56.3446 1.91469 56.5903 2.12109C56.8456 2.32744 56.9731 2.60738 56.9731 2.96094C56.9731 3.32453 56.8457 3.60998 56.5903 3.81641C56.3446 4.02281 56.0592 4.12593 55.7349 4.12598C55.4104 4.12598 55.1203 4.02285 54.8647 3.81641C54.619 3.60996 54.4956 3.32949 54.4956 2.97559C54.4957 2.6121 54.6191 2.32745 54.8647 2.12109C55.1203 1.91465 55.4104 1.81152 55.7349 1.81152ZM112.162 1.81152C112.486 1.81162 112.77 1.91476 113.016 2.12109C113.272 2.32748 113.4 2.60719 113.4 2.96094C113.4 3.32468 113.272 3.60996 113.016 3.81641C112.77 4.02268 112.486 4.12588 112.162 4.12598C111.837 4.12598 111.547 4.02278 111.292 3.81641C111.046 3.60996 110.922 3.32949 110.922 2.97559C110.922 2.61205 111.046 2.32746 111.292 2.12109C111.547 1.91467 111.837 1.81152 112.162 1.81152Z" fill="url(#paint0_linear_658_9590)"/>
<defs>
<linearGradient id="paint0_linear_658_9590" x1="0.0102539" y1="8.26904" x2="127.161" y2="8.26904" gradientUnits="userSpaceOnUse">
<stop stop-color="#6C30EC"/>
<stop offset="0.5" stop-color="#6777FF"/>
<stop offset="1" stop-color="#90B0FF"/>
</linearGradient>
</defs>
</svg>
